<?xml version="1.0" encoding="UTF-8"?>
<svg id="Capa_2" data-name="Capa 2" xmlns="http://www.w3.org/2000/svg" viewBox="0 0 274.28 107.71">
  <defs>
    <style>
      .cls-1 {
        fill: #fff;
        stroke-width: 0px;
      }
    </style>
  </defs>
  <g id="Capa_2-2" data-name="Capa 2">
    <g>
      <g>
        <path class="cls-1" d="M128.57,31.05v-8.79h-.97v-2.25h.97c.07-.72.17-1.28.31-1.67s.36-.76.65-1.09c.69-.79,1.61-1.19,2.75-1.19.23,0,.46.01.67.04v2.56h-.29c-.52,0-.87.1-1.08.3-.2.2-.31.55-.32,1.06h1.52v2.25h-1.52v8.79h-2.71Z"/>
        <path class="cls-1" d="M144.22,19.81v11.25h-2.5v-1.08c-.52.5-1.01.84-1.49,1.05-.48.2-1.06.3-1.73.3-.76,0-1.44-.15-2.04-.46s-1.09-.74-1.46-1.31c-.29-.46-.5-.96-.61-1.51-.12-.55-.18-1.28-.18-2.2v-6.03h2.71v5.5c0,.78.04,1.39.13,1.83.09.44.23.78.44,1.04.39.45.91.67,1.57.67.47,0,.89-.09,1.25-.28.37-.19.65-.45.84-.8.15-.25.25-.58.3-.98.06-.4.08-.96.08-1.68v-5.3h2.7Z"/>
        <path class="cls-1" d="M146.41,31.05v-11.25h2.49v1.08c.5-.48.98-.83,1.47-1.03.48-.2,1.05-.31,1.7-.31,1.64,0,2.83.57,3.59,1.72.27.44.46.93.57,1.48s.16,1.31.16,2.28v6.02h-2.7v-5.5c0-1.45-.19-2.41-.57-2.86-.36-.44-.89-.66-1.58-.66-.93,0-1.6.36-2.01,1.09-.17.26-.28.58-.34.96-.06.38-.09.94-.09,1.67v5.3h-2.7Z"/>
        <path class="cls-1" d="M169.83,16.06v14.99h-2.48v-1.46c-.55.61-1.11,1.05-1.69,1.32-.58.27-1.25.41-2.01.41-1.05,0-2.01-.26-2.87-.77-.86-.52-1.54-1.23-2.04-2.13s-.74-1.91-.74-3,.25-2.12.75-3.04c.5-.93,1.18-1.65,2.04-2.18.86-.53,1.81-.79,2.84-.79.71,0,1.37.13,1.99.38.62.25,1.12.59,1.52,1.03v-4.75h2.7ZM163.96,21.88c-.91,0-1.68.33-2.3.99-.62.66-.94,1.48-.94,2.46s.33,1.82.98,2.5c.65.68,1.44,1.02,2.37,1.02s1.68-.33,2.31-1c.63-.67.95-1.48.95-2.45,0-1.02-.32-1.86-.95-2.52s-1.44-1-2.42-1Z"/>
        <path class="cls-1" d="M183.36,19.81v11.25h-2.47v-1.46c-.54.61-1.1,1.06-1.68,1.32-.58.27-1.26.4-2.06.4-1.08,0-2.06-.25-2.92-.75-.86-.5-1.54-1.19-2.02-2.09-.49-.89-.73-1.9-.73-3.01s.24-2.15.73-3.05c.49-.9,1.17-1.61,2.04-2.12.87-.51,1.86-.76,2.95-.76.81,0,1.51.14,2.1.42.59.28,1.11.73,1.58,1.34v-1.51h2.47ZM177.45,22.03c-.94,0-1.71.33-2.32.99-.61.66-.92,1.5-.92,2.52s.31,1.78.93,2.39,1.42.92,2.4.92,1.77-.31,2.36-.93c.6-.62.9-1.43.9-2.44s-.31-1.85-.94-2.49c-.62-.64-1.43-.96-2.41-.96Z"/>
        <path class="cls-1" d="M193.57,27.36h3.04c-.47,1.26-1.19,2.24-2.16,2.93-.97.69-2.11,1.04-3.42,1.04-.82,0-1.6-.16-2.34-.47-.74-.31-1.38-.73-1.92-1.25-.54-.52-.96-1.15-1.28-1.87-.32-.73-.48-1.49-.48-2.3,0-1.08.26-2.08.78-2.98.52-.9,1.24-1.61,2.15-2.13.91-.52,1.91-.78,3-.78.81,0,1.57.14,2.3.43s1.37.7,1.92,1.23c.36.35.64.69.85,1.03.21.33.41.77.6,1.32h-3.04c-.53-1.02-1.4-1.54-2.63-1.54-.94,0-1.71.32-2.3.95-.6.63-.9,1.45-.9,2.44s.31,1.8.94,2.45c.62.65,1.4.98,2.33.98.55,0,1.04-.12,1.44-.36.41-.24.78-.61,1.11-1.13Z"/>
        <path class="cls-1" d="M198.24,18.6v-2.54h2.7v2.54h-2.7ZM198.24,31.05v-11.25h2.7v11.25h-2.7Z"/>
        <path class="cls-1" d="M208.62,19.55c1.07,0,2.06.26,2.97.79.91.53,1.63,1.25,2.16,2.16.53.91.79,1.89.79,2.96s-.27,2.04-.8,2.94c-.53.9-1.26,1.62-2.17,2.14-.92.53-1.92.79-2.99.79s-2.09-.26-3.01-.79c-.92-.53-1.65-1.24-2.18-2.14-.53-.9-.8-1.88-.8-2.94,0-.81.16-1.57.47-2.3.31-.73.74-1.36,1.28-1.88.54-.52,1.18-.94,1.93-1.25.75-.31,1.53-.47,2.36-.47ZM208.51,22.03c-.87,0-1.62.33-2.25,1.01s-.95,1.47-.95,2.4.32,1.74.95,2.41c.63.67,1.4,1,2.29,1s1.67-.33,2.31-1,.96-1.46.96-2.39-.32-1.78-.96-2.44-1.42-.99-2.35-.99ZM207.46,18.62l-1.04-1.59,4.55-2.73,1.1,1.87-4.61,2.44Z"/>
        <path class="cls-1" d="M216.2,31.05v-11.25h2.49v1.08c.5-.48.98-.83,1.47-1.03.48-.2,1.05-.31,1.7-.31,1.64,0,2.83.57,3.59,1.72.27.44.46.93.57,1.48s.16,1.31.16,2.28v6.02h-2.7v-5.5c0-1.45-.19-2.41-.57-2.86-.36-.44-.89-.66-1.58-.66-.93,0-1.6.36-2.01,1.09-.17.26-.28.58-.34.96-.06.38-.09.94-.09,1.67v5.3h-2.7Z"/>
      </g>
      <g>
        <path class="cls-1" d="M140.35,43.82h3.47v12.27c0,1.5-.13,2.75-.39,3.74-.26.99-.69,1.84-1.27,2.54-1.44,1.75-3.5,2.63-6.17,2.63-1.85,0-3.45-.42-4.81-1.27-1.36-.84-2.35-2.03-2.96-3.55h4.12c.53.59,1.09,1,1.67,1.25.58.24,1.29.37,2.13.37,1.35,0,2.38-.4,3.08-1.2s1.08-2.01,1.15-3.64c-.71.84-1.45,1.44-2.22,1.81-.77.37-1.69.55-2.75.55-1.42,0-2.7-.34-3.83-1.03-1.13-.68-2.02-1.64-2.65-2.86-.63-1.22-.95-2.6-.95-4.14,0-2.24.71-4.1,2.12-5.59,1.41-1.48,3.19-2.23,5.33-2.23s3.82.76,4.95,2.27v-1.92ZM135.77,46.8c-1.24,0-2.25.42-3.01,1.27s-1.14,1.97-1.14,3.37.38,2.48,1.15,3.3c.77.82,1.8,1.23,3.1,1.23s2.36-.42,3.15-1.25c.78-.83,1.17-1.94,1.17-3.34s-.41-2.48-1.22-3.32c-.81-.84-1.88-1.27-3.21-1.27Z"/>
        <path class="cls-1" d="M162.46,53h-11.72c.22.92.71,1.64,1.45,2.17.75.53,1.66.8,2.73.8.75,0,1.37-.11,1.87-.34.5-.23.98-.62,1.45-1.17h3.96c-.21.68-.61,1.39-1.2,2.11-1.56,1.82-3.56,2.73-6,2.73-1.14,0-2.21-.2-3.23-.61-1.01-.41-1.88-.96-2.61-1.66-.72-.7-1.3-1.53-1.73-2.51-.43-.97-.64-2-.64-3.09,0-1.46.35-2.8,1.06-4.02.71-1.22,1.67-2.19,2.89-2.89,1.22-.71,2.56-1.06,4.02-1.06s2.82.35,4.01,1.05c1.19.7,2.12,1.67,2.79,2.91.67,1.24,1.01,2.63,1.01,4.18,0,.5-.04.96-.13,1.4ZM150.64,49.8h8.39c-.23-.97-.71-1.71-1.43-2.23-.72-.52-1.64-.77-2.76-.77s-1.98.26-2.7.77c-.72.51-1.22,1.26-1.5,2.23Z"/>
        <path class="cls-1" d="M164.53,54.15h3.65c.18.64.43,1.1.75,1.39s.75.43,1.28.43c.48,0,.87-.14,1.18-.42.31-.28.46-.63.46-1.06,0-.5-.23-.89-.69-1.17-.2-.12-.39-.21-.57-.29-.19-.08-.62-.24-1.31-.47-1.51-.51-2.59-1.1-3.23-1.79-.64-.68-.97-1.58-.97-2.69,0-1.3.48-2.39,1.45-3.28.96-.89,2.16-1.33,3.58-1.33.78,0,1.52.16,2.22.47.7.31,1.29.75,1.77,1.31.33.39.57.8.71,1.21.15.42.23.93.26,1.55h-3.55c-.16-.8-.63-1.2-1.41-1.2-.39,0-.72.12-.99.37-.27.24-.41.55-.41.91,0,.46.24.8.71,1.01.26.11.88.32,1.87.63,1.53.47,2.61,1.04,3.25,1.71.64.67.95,1.57.95,2.72,0,1.45-.52,2.67-1.57,3.67-1.05,1-2.33,1.49-3.84,1.49-.93,0-1.81-.2-2.63-.59-.82-.4-1.47-.93-1.95-1.59-.28-.41-.5-.83-.64-1.27s-.24-1-.31-1.71Z"/>
        <path class="cls-1" d="M178.98,58.95v-11.83h-1.77v-3.31h1.77v-5.04h3.63v5.04h2.19v3.31h-2.19v11.83h-3.63Z"/>
        <path class="cls-1" d="M187.36,42.19v-3.41h3.63v3.41h-3.63ZM187.36,58.95v-15.13h3.63v15.13h-3.63Z"/>
        <path class="cls-1" d="M202.09,43.47c1.44,0,2.77.36,4,1.07,1.23.71,2.2,1.68,2.91,2.9.71,1.22,1.07,2.55,1.07,3.98s-.36,2.74-1.07,3.95c-.72,1.21-1.69,2.17-2.93,2.88-1.24.71-2.58,1.06-4.03,1.06s-2.81-.35-4.05-1.06c-1.24-.71-2.22-1.67-2.94-2.88-.72-1.21-1.08-2.53-1.08-3.95,0-1.08.21-2.12.63-3.1.42-.98,1-1.83,1.72-2.53.72-.71,1.59-1.27,2.59-1.69,1-.42,2.06-.63,3.17-.63ZM201.95,46.8c-1.17,0-2.18.45-3.03,1.35-.85.9-1.27,1.98-1.27,3.23s.43,2.34,1.28,3.24c.85.9,1.88,1.35,3.08,1.35s2.24-.45,3.11-1.34c.86-.89,1.29-1.97,1.29-3.22s-.43-2.39-1.29-3.28c-.86-.89-1.92-1.33-3.16-1.33Z"/>
        <path class="cls-1" d="M213.06,58.95v-15.13h3.35v1.45c.67-.65,1.32-1.11,1.97-1.39.65-.28,1.41-.41,2.29-.41,2.2,0,3.81.77,4.83,2.32.36.59.62,1.25.77,1.99.15.74.22,1.76.22,3.07v8.11h-3.63v-7.4c0-1.96-.26-3.24-.77-3.85-.49-.6-1.2-.89-2.12-.89-1.24,0-2.15.49-2.71,1.47-.22.35-.37.78-.45,1.29-.08.52-.12,1.27-.12,2.25v7.13h-3.63Z"/>
        <path class="cls-1" d="M245.39,43.82v15.13h-3.32v-1.96c-.73.83-1.48,1.42-2.26,1.78-.78.36-1.7.54-2.77.54-1.46,0-2.77-.34-3.93-1.01-1.16-.67-2.07-1.61-2.72-2.81-.65-1.2-.98-2.55-.98-4.05s.33-2.89.99-4.1c.66-1.21,1.57-2.16,2.75-2.85,1.17-.68,2.5-1.03,3.97-1.03,1.09,0,2.04.19,2.83.57.79.38,1.5.98,2.12,1.81v-2.03h3.32ZM237.45,46.8c-1.26,0-2.3.44-3.13,1.33-.82.89-1.23,2.02-1.23,3.39s.42,2.4,1.25,3.22c.83.82,1.91,1.23,3.23,1.23s2.38-.42,3.18-1.25c.8-.84,1.21-1.93,1.21-3.28s-.42-2.48-1.26-3.35-1.92-1.29-3.25-1.29Z"/>
        <path class="cls-1" d="M249.12,58.95v-15.13h3.32v1.48c.48-.7.95-1.18,1.41-1.44.46-.26,1.08-.39,1.87-.39h.28v3.49c-2.17.05-3.25,1.24-3.25,3.57v8.41h-3.63Z"/>
      </g>
      <g>
        <path class="cls-1" d="M143.6,82.36h-11.72c.22.92.71,1.64,1.45,2.17.75.53,1.66.8,2.73.8.75,0,1.37-.11,1.87-.34.5-.23.98-.62,1.45-1.17h3.96c-.21.68-.61,1.39-1.2,2.11-1.56,1.82-3.56,2.73-6,2.73-1.14,0-2.21-.2-3.23-.61-1.01-.41-1.88-.96-2.61-1.66-.72-.7-1.3-1.53-1.73-2.51-.43-.97-.64-2-.64-3.09,0-1.46.35-2.8,1.06-4.02.71-1.22,1.67-2.19,2.89-2.89,1.22-.71,2.56-1.06,4.02-1.06s2.82.35,4.01,1.05c1.19.7,2.12,1.67,2.79,2.91.67,1.24,1.01,2.63,1.01,4.18,0,.5-.04.96-.13,1.4ZM131.78,79.16h8.39c-.23-.97-.71-1.71-1.43-2.23-.72-.52-1.64-.77-2.76-.77s-1.98.26-2.7.77c-.72.51-1.22,1.26-1.5,2.23Z"/>
        <path class="cls-1" d="M144.58,83.51h3.65c.18.64.43,1.1.75,1.39s.75.43,1.28.43c.48,0,.87-.14,1.18-.42s.46-.63.46-1.06c0-.5-.23-.89-.69-1.17-.2-.12-.39-.21-.57-.29-.19-.08-.62-.24-1.31-.47-1.51-.51-2.59-1.1-3.23-1.79-.64-.68-.97-1.58-.97-2.69,0-1.3.48-2.39,1.45-3.28.96-.89,2.16-1.33,3.58-1.33.78,0,1.52.16,2.22.47.7.31,1.29.75,1.77,1.31.33.39.57.8.71,1.21.15.42.23.93.26,1.55h-3.55c-.16-.8-.63-1.2-1.41-1.2-.39,0-.72.12-.99.37-.27.24-.41.55-.41.91,0,.46.24.8.71,1.01.26.11.88.32,1.87.63,1.53.47,2.61,1.04,3.25,1.71.64.67.95,1.57.95,2.72,0,1.45-.52,2.67-1.57,3.67-1.05,1-2.33,1.49-3.84,1.49-.93,0-1.81-.2-2.63-.59-.82-.4-1.47-.93-1.95-1.59-.28-.41-.5-.83-.64-1.27s-.24-1-.31-1.71Z"/>
        <path class="cls-1" d="M157.28,93.36v-20.19h3.32v1.79c1.2-1.42,2.86-2.13,4.97-2.13,1.44,0,2.73.34,3.88,1.01,1.15.67,2.04,1.61,2.69,2.81.64,1.2.97,2.55.97,4.05s-.32,2.87-.97,4.09c-.65,1.21-1.55,2.16-2.7,2.85-1.15.69-2.45,1.03-3.89,1.03-.92,0-1.76-.14-2.49-.43-.74-.28-1.45-.73-2.15-1.35v6.47h-3.63ZM165.03,76.16c-1.23,0-2.26.44-3.09,1.33-.83.88-1.25,1.99-1.25,3.31s.43,2.37,1.28,3.23,1.91,1.3,3.16,1.3,2.24-.44,3.07-1.31c.83-.88,1.25-1.96,1.25-3.25s-.42-2.44-1.25-3.31c-.84-.87-1.89-1.31-3.17-1.31Z"/>
        <path class="cls-1" d="M189.95,82.36h-11.72c.22.92.71,1.64,1.45,2.17.75.53,1.66.8,2.73.8.75,0,1.37-.11,1.87-.34.5-.23.98-.62,1.45-1.17h3.96c-.21.68-.61,1.39-1.2,2.11-1.56,1.82-3.56,2.73-6,2.73-1.14,0-2.21-.2-3.23-.61-1.01-.41-1.88-.96-2.61-1.66-.72-.7-1.3-1.53-1.73-2.51-.43-.97-.64-2-.64-3.09,0-1.46.35-2.8,1.06-4.02.71-1.22,1.67-2.19,2.89-2.89,1.22-.71,2.56-1.06,4.02-1.06s2.82.35,4.01,1.05c1.19.7,2.12,1.67,2.79,2.91s1.01,2.63,1.01,4.18c0,.5-.04.96-.13,1.4ZM178.13,79.16h8.39c-.23-.97-.71-1.71-1.43-2.23-.72-.52-1.64-.77-2.76-.77s-1.98.26-2.7.77c-.72.51-1.22,1.26-1.5,2.23Z"/>
        <path class="cls-1" d="M192,88.31v-15.13h3.32v1.48c.48-.7.95-1.18,1.41-1.44.46-.26,1.08-.39,1.87-.39h.28v3.49c-2.17.05-3.25,1.24-3.25,3.57v8.41h-3.63Z"/>
        <path class="cls-1" d="M215.32,73.17v15.13h-3.32v-1.96c-.73.83-1.48,1.42-2.26,1.78-.78.36-1.7.54-2.77.54-1.46,0-2.77-.34-3.93-1.01-1.16-.67-2.07-1.61-2.72-2.81-.65-1.2-.98-2.55-.98-4.05s.33-2.89.99-4.1c.66-1.21,1.57-2.16,2.75-2.85,1.17-.68,2.5-1.03,3.97-1.03,1.09,0,2.04.19,2.83.57.79.38,1.5.98,2.12,1.81v-2.03h3.32ZM207.38,76.16c-1.26,0-2.3.44-3.13,1.33-.82.89-1.23,2.02-1.23,3.39s.42,2.4,1.25,3.22c.83.82,1.91,1.23,3.23,1.23s2.38-.42,3.18-1.25c.8-.84,1.21-1.93,1.21-3.28s-.42-2.48-1.26-3.35-1.92-1.29-3.25-1.29Z"/>
        <path class="cls-1" d="M217.96,88.31v-15.13h3.35v1.45c.67-.65,1.32-1.11,1.97-1.39.65-.28,1.41-.41,2.29-.41,2.2,0,3.81.77,4.83,2.32.36.59.62,1.25.77,1.99.15.74.22,1.76.22,3.07v8.11h-3.63v-7.4c0-1.96-.26-3.24-.77-3.85-.49-.6-1.2-.89-2.12-.89-1.24,0-2.15.49-2.71,1.47-.22.35-.37.78-.45,1.29-.08.52-.12,1.27-.12,2.25v7.13h-3.63Z"/>
        <path class="cls-1" d="M233.28,88.31v-3.25l6.67-8.63h-5.89v-3.25h10.24v3.25l-6.67,8.63h7.19v3.25h-11.53Z"/>
        <path class="cls-1" d="M261.77,73.17v15.13h-3.32v-1.96c-.73.83-1.48,1.42-2.26,1.78-.78.36-1.7.54-2.77.54-1.46,0-2.77-.34-3.93-1.01-1.16-.67-2.07-1.61-2.72-2.81-.65-1.2-.98-2.55-.98-4.05s.33-2.89.99-4.1c.66-1.21,1.57-2.16,2.75-2.85,1.17-.68,2.5-1.03,3.97-1.03,1.09,0,2.04.19,2.83.57.79.38,1.5.98,2.12,1.81v-2.03h3.32ZM253.82,76.16c-1.26,0-2.3.44-3.13,1.33-.82.89-1.23,2.02-1.23,3.39s.42,2.4,1.25,3.22c.83.82,1.91,1.23,3.23,1.23s2.38-.42,3.18-1.25c.8-.84,1.21-1.93,1.21-3.28s-.42-2.48-1.26-3.35-1.92-1.29-3.25-1.29Z"/>
        <path class="cls-1" d="M263.33,83.51h3.65c.18.64.43,1.1.75,1.39s.75.43,1.28.43c.48,0,.87-.14,1.18-.42s.46-.63.46-1.06c0-.5-.23-.89-.69-1.17-.2-.12-.39-.21-.57-.29-.19-.08-.62-.24-1.31-.47-1.51-.51-2.59-1.1-3.23-1.79-.64-.68-.97-1.58-.97-2.69,0-1.3.48-2.39,1.45-3.28.96-.89,2.16-1.33,3.58-1.33.78,0,1.52.16,2.22.47.7.31,1.29.75,1.77,1.31.33.39.57.8.71,1.21.15.42.23.93.26,1.55h-3.55c-.16-.8-.63-1.2-1.41-1.2-.39,0-.72.12-.99.37-.27.24-.41.55-.41.91,0,.46.24.8.71,1.01.26.11.88.32,1.87.63,1.53.47,2.61,1.04,3.25,1.71.64.67.95,1.57.95,2.72,0,1.45-.52,2.67-1.57,3.67-1.05,1-2.33,1.49-3.84,1.49-.93,0-1.81-.2-2.63-.59-.82-.4-1.47-.93-1.95-1.59-.28-.41-.5-.83-.64-1.27s-.24-1-.31-1.71Z"/>
      </g>
      <g>
        <g>
          <path class="cls-1" d="M105.32,41c-.39-2.6-.79-5.28-.87-7.59-.01-.38,0-.95.02-1.6.02-.86.05-1.82.02-2.66-.04-1.06-.15-1.41-.2-1.52-.11-.05-.24-.08-.38-.08-.57,0-1.49.43-2.34,1.63-.65.92-1.44,2.55-1.52,5.12-.23,6.82-.33,10.34-.37,11.54.27.1.62.26.96.52.66.5,1.42,1.46,1.25,3.16-.22,2.06-1.7,3.94-3.54,6.69-.96,1.43-1.75,2.71-2.83,4.37-.2.3-.39.61-.57.92-.58.95-1.26,1.75-1.98,2.39-2.41,2.16-5.52,4.29-7.53,4.91-.03.01-.11.03-.14.04-.08.03-.16.03-.24.03-.28,0-.53-.17-.64-.44-.08-.22-.04-.46.08-.63.08-.11.18-.19.32-.24.37-.14.79-.35,1.23-.62,2.03-1.2,4.57-3.45,5.71-4.49.37-.34,1.17-1.4,2.14-2.78.06-.08.11-.17.17-.25.22-.33.45-.68.68-1.03-.23.35-.46.7-.68,1.03-.06.08-.11.17-.17.25,1.87-2.65,4.02-5.73,5.46-7.95.13-.19.52-.77.71-1.3.12-.56.22-1.85-.42-2.46-.13-.13-.3-.22-.49-.29.01,0,.02.01.03.02-.01,0-.03-.02-.04-.02-.62-.21-1.56-.14-2.74.23-2.24.69-5.65,4.09-8.96,7.39-2.36,2.35-4.79,4.78-6.93,6.36-.85.63-1.62,1.14-2.55,1.53h0c-1.57.65-3.32,1.06-5.25,1.51-1.8.42-3.65.85-5.62,1.54-5.27,1.86-12.59,7.02-14.76,8.6,4.32,3.72,6.47,7.61,7.52,10.27.73,1.86,1.04,3.38,1.17,4.29,3.29-1.62,6.74-2.52,10.38-3.47,3.26-.85,6.63-1.73,10.2-3.2,4.03-1.67,7.7-3.87,11.21-6.74,6.01-4.9,10.05-15.83,12.22-21.7.24-.65.47-1.27.67-1.8.96-2.53.27-7.08-.39-11.48Z"/>
          <path class="cls-1" d="M90.94,49.38s.06-.05.09-.08c.02-.01.03-.02.05-.04.01-.01.03-.02.04-.03.01-.01.02-.02.03-.03.02-.01.03-.03.05-.04,0,0,.02-.01.03-.02.01-.01.03-.02.04-.04,0,0,.02-.02.03-.02.01,0,.02-.02.03-.02,0,0,.02-.02.03-.02.01,0,.02-.02.03-.02,0,0,.01-.01.02-.02,0,0,.01-.01.02-.02,0,0,.02-.01.02-.02,0,0,.01-.01.02-.02,0,0,.01,0,.02-.01.01,0,.02-.02.03-.02,0,0,0,0,.01,0,0,0,.01,0,.01-.01,0,0,0,0,0,0,0,0,0,0,.01,0,0,0,0,0,0,0,0,0,0,0,0,0,0,0,0,0,0,0,0,0,0,0,0,0,0,0,0,0,0,0,0,0,0,0,0,0,0,0,0,0,0,0,0,0,0,0,0,0,0,0,0,0,0,0,0,0,0,0,0,0,0,0,0,0,0,0,0,0,0,0,0,0,0,0,0,0,0,0,0,0,0,0,0,0,0,0,0,0,0,0,0,0,0,0,0,0,0,0,0,0,0,0,0,0,0,0,.01,0,0,0,0,0,0,0,0,0,.01,0,.02-.01,0,0,0,0,0,0,0,0,.02-.01.03-.02-.01-1.64-.06-3.28-.08-4.92,0-.47-.01-.93-.01-1.4,0-.23,0-.47,0-.7,0-1.4.03-2.78.13-4.16.04-.48.17-1.36.28-2.26.02-.14.03-.28.05-.42.02-.14.03-.28.04-.41s.02-.27.03-.4c.06-.84.04-1.53-.19-1.7-.04-.03-.07-.05-.11-.07,0,0-.02-.01-.03-.02-.04-.02-.08-.04-.12-.05,0,0,0,0,0,0-.04-.02-.08-.03-.13-.04-.01,0-.02,0-.03,0-.04-.01-.09-.02-.13-.03,0,0,0,0,0,0-.05,0-.09,0-.14-.01-.01,0-.02,0-.04,0-.04,0-.07,0-.11,0-.02,0-.03,0-.05,0-.05,0-.1,0-.16.02,0,0,0,0,0,0-.05,0-.1.02-.16.03-.02,0-.04,0-.05.01-.04,0-.08.02-.11.03-.02,0-.04.01-.06.02-.04.01-.07.03-.11.04-.02,0-.04.02-.06.02-.04.02-.08.03-.12.05-.02,0-.04.02-.05.02-.06.03-.12.06-.17.09,0,0,0,0,0,0-.06.03-.11.07-.17.1-.02.01-.04.02-.05.04-.04.03-.08.05-.12.08-.02.02-.04.03-.06.05-.04.03-.08.06-.11.09-.02.02-.04.03-.06.05-.04.03-.08.07-.12.11-.02.02-.03.03-.05.05-.06.05-.11.11-.17.17,0,0,0,0,0,0-.06.06-.11.12-.17.18-.02.02-.03.04-.05.06-.04.04-.08.09-.12.14-.02.02-.04.05-.06.07-.04.05-.07.09-.11.14-.02.03-.04.05-.06.08-.04.05-.07.1-.11.16-.02.02-.03.05-.05.07-.1.16-.2.32-.3.49-.01.03-.03.05-.04.08-.03.06-.06.12-.1.19-.02.03-.03.07-.05.1-.03.06-.06.12-.09.18-.02.03-.03.07-.05.11-.03.07-.06.14-.09.21-.01.03-.03.06-.04.09-.04.1-.08.21-.12.31,0,0,0,0,0,0-.04.11-.07.21-.1.32-.01.04-.02.07-.03.11-.02.08-.04.15-.07.23-.01.04-.02.09-.03.13-.02.08-.04.15-.05.23-.01.04-.02.09-.03.13-.02.08-.03.17-.05.25,0,.04-.02.08-.02.12-.02.13-.04.25-.06.38-.09.64-.16,1.28-.23,1.93-.46,4.57-.45,9.53-.82,14.24,1.74-1.75,3.97-3.81,4.97-4.67Z"/>
          <path class="cls-1" d="M92.96,47.91c.05-.03.11-.07.16-.1.03-.02.06-.04.09-.06.05-.03.1-.06.15-.09.03-.02.06-.04.09-.05.05-.03.1-.06.14-.08.03-.02.06-.03.09-.05.05-.03.1-.05.15-.08.03-.01.05-.03.08-.04.06-.03.12-.06.18-.09.01,0,.03-.01.04-.02.07-.04.15-.07.22-.11.02-.01.04-.02.06-.03.05-.02.1-.05.15-.07.03-.01.05-.02.08-.04.04-.02.09-.04.13-.06.03-.01.06-.02.08-.03.04-.02.09-.04.13-.05.03-.01.05-.02.08-.03.04-.02.09-.03.13-.05.02,0,.05-.02.07-.03.05-.02.1-.04.14-.05.02,0,.04-.01.05-.02.06-.02.13-.04.19-.06.01,0,.03,0,.04-.01.05-.02.1-.03.15-.05.02,0,.04-.01.07-.02.04-.01.08-.02.12-.03.02,0,.05-.01.07-.02.04,0,.07-.02.11-.03.02,0,.05-.01.07-.02.04,0,.07-.02.11-.03.02,0,.04-.01.06-.02.04,0,.08-.02.11-.03.02,0,.03,0,.05-.01.05-.01.11-.02.16-.03,0,0,.01,0,.02,0,.05,0,.09-.02.14-.02.02,0,.03,0,.05,0,.03,0,.07-.01.1-.02.02,0,.04,0,.06,0,.03,0,.06,0,.09-.01.02,0,.04,0,.06,0,.03,0,.06,0,.09,0,.02,0,.03,0,.05,0,.03,0,.06,0,.09,0,.01,0,.03,0,.04,0,.04,0,.08,0,.12,0,0,0,0,0,.01,0,.04,0,.08,0,.12,0,.01,0,.02,0,.03,0,.03,0,.06,0,.08,0,.01,0,.03,0,.04,0,.01,0,.03,0,.04,0,0,0,.01,0,.02,0,.02,0,.05,0,.07,0,.02,0,.03,0,.05,0,.02,0,.05,0,.07,0,.01,0,.03,0,.04,0,0,0,0,0,0,0,.06,0,.13,0,.19,0-.04-.91-.07-1.85-.1-2.81-.01-.48-.03-.97-.04-1.45-.01-.49-.02-.98-.03-1.47,0-.73-.01-1.47-.01-2.19,0-1.21.02-2.39.06-3.51.02-.52.13-1.47.21-2.44.02-.22.04-.45.05-.67.01-.22.03-.44.03-.65.03-.91-.02-1.65-.28-1.82-.07-.03-.14-.06-.21-.09-.02,0-.04-.01-.07-.02-.05-.02-.1-.03-.15-.04-.03,0-.05-.01-.08-.02-.05-.01-.1-.02-.15-.02-.02,0-.05,0-.07,0-.06,0-.13,0-.19-.01-.01,0-.02,0-.03,0-.01,0-.02,0-.04,0-.05,0-.1,0-.15,0-.02,0-.04,0-.06,0-.04,0-.08,0-.12.02-.02,0-.05,0-.07.01-.04,0-.08.02-.12.03-.02,0-.05.01-.07.02-.04.01-.08.02-.12.04-.02,0-.04.01-.06.02-.05.02-.11.04-.16.06,0,0-.01,0-.02,0-.06.03-.12.06-.18.09-.02,0-.04.02-.06.03-.04.02-.08.05-.13.07-.02.01-.04.03-.07.04-.04.02-.08.05-.12.08-.02.02-.05.03-.07.05-.04.03-.08.06-.11.09-.02.02-.04.03-.06.05-.04.04-.09.07-.13.11-.02.01-.03.03-.05.04-.06.05-.11.11-.17.17-.01.01-.02.03-.03.04-.04.05-.09.1-.13.15-.02.02-.04.05-.06.07-.04.04-.07.09-.11.13-.02.03-.04.05-.06.08-.03.05-.07.09-.1.14-.02.03-.04.05-.06.08-.04.05-.07.1-.1.16-.02.03-.03.05-.05.08-.05.08-.09.15-.14.24,0,0,0,0,0,.01-.05.09-.09.17-.14.26-.01.03-.03.06-.04.08-.03.06-.06.13-.09.19-.02.03-.03.07-.05.11-.03.06-.05.12-.08.19-.02.04-.03.08-.05.11-.03.07-.05.13-.08.2-.01.04-.03.07-.04.11-.03.08-.06.16-.08.24,0,.03-.02.05-.03.08-.04.11-.07.22-.1.34,0,.03-.01.05-.02.08-.02.09-.05.18-.07.27-.01.04-.02.09-.03.13-.02.08-.04.16-.05.24-.01.05-.02.1-.03.15-.02.08-.03.16-.05.25,0,.05-.02.1-.03.15-.01.09-.03.18-.04.27,0,.04-.01.09-.02.13-.02.14-.03.28-.05.42-.41,3.84-.45,8.75-.67,12.93.08-.06.16-.11.25-.16.03-.02.05-.03.08-.05Z"/>
          <path class="cls-1" d="M85.01,55.01c.27-4.13-.09-6.37.15-10.47.12-1.15.6-3.89.15-4.22-.04-.03-.08-.05-.13-.07,0,0-.02,0-.03-.01-.04-.02-.09-.04-.14-.05,0,0-.02,0-.03,0-.05-.01-.09-.02-.14-.03,0,0-.01,0-.02,0-.05,0-.1,0-.16-.01-.01,0-.02,0-.03,0-.05,0-.11,0-.16.01,0,0-.01,0-.02,0-.05,0-.1.02-.16.03-.01,0-.02,0-.03,0-.06.01-.11.03-.17.05-.01,0-.02,0-.03.01-.05.02-.11.04-.16.06,0,0-.01,0-.02,0-.06.03-.12.06-.18.09-.01,0-.03.01-.04.02-.06.03-.12.07-.18.11,0,0,0,0-.01.01-.06.04-.12.08-.17.12-.01,0-.03.02-.04.03-.06.05-.12.1-.18.15-.01,0-.02.02-.03.03-.05.05-.11.1-.16.15,0,0-.02.02-.03.03-.06.06-.12.12-.17.19-.01.01-.03.03-.04.04-.06.07-.12.14-.17.21,0,0,0,0,0,.01-.05.07-.11.15-.16.22-.01.02-.02.03-.04.05-.05.08-.11.16-.16.25,0,.02-.02.03-.03.05-.05.08-.09.16-.14.24,0,.01-.02.03-.02.04-.05.09-.09.19-.14.28,0,.02-.02.04-.03.07-.05.1-.09.2-.13.31-.14.34-.23.53-.33.9-.42,1.52-1.07,3.59-.96,6.41.37,4.19-.07,6.65-.82,9.95,1.25-.95,3.24-3.01,5.49-5.27Z"/>
        </g>
        <path class="cls-1" d="M40,65.25c1.94.58,3.91,1.08,5.81,1.78.9.33,1.75.79,2.49,1.39.37.3.71.64,1.02,1.01.39.48.79,1.02.97,1.63.18.63.16,1.42.03,2.06,0,0,3.46-5.51,9.23-9.06,2.2-1.35,3.72-1.86,7.28-3.39,5.07-2.17,7.14-4.52,9.35-9.56,1.34-3.06,1.94-6.26,1.93-9.58,0-2.13-.29-4.21-1.09-6.18-.17-.43-.41-.83-.67-1.36-.83,2.43-2.42,4.04-4.51,5.14-1.52.8-3.12,1.44-4.69,2.14-2.33,1.04-4.71,1.97-6.96,3.15-2.61,1.38-4.62,3.19-5.8,5.87-.22.49-.43,1.42-.62,1.92.02.81.13,1.62.3,2.41.11.51.28,1.01.46,1.5,2.21-3.88,5.35-6.88,9.67-8.79,1.17-.52,2.31-1.09,3.46-1.64,2.63-1.24,5.07-2.74,6.96-4.99,0-.01.05,0,.13.01-1.03,1.83-2.87,4.2-4.62,5.31-1.64,1.04-3.35,1.97-5.06,2.91-2.12,1.17-4.19,2.42-5.85,4.21-2.23,2.4-3.42,4.24-4.64,7.18-.06-.28-.13-.56-.2-.84-.4-1.43-1.15-2.75-1.46-4.19-.26-1.18-.37-2.39-.26-3.59.24-2.48,1.52-4.63,3.25-6.37,0,0,.02-.02.03-.03,2.01-2.01,4.22-3.81,6.36-5.69,5.71-5.03,8.41-11.24,7.67-18.78-.45-4.57-1.91-8.84-4.19-12.85-1.47-2.58-3.24-4.91-5.59-6.79-.51-.41-1.07-.75-1.76-1.22.64,3.48-.21,6.45-2.02,9.14-1.32,1.95-2.86,3.75-4.31,5.62-2.07,2.66-4.29,5.22-6.2,7.99-2.43,3.51-3.46,7.8-3.03,12.02.3,2.91.91,5.75,2.08,8.44.58,1.33,1.34,2.58,2.02,3.86.07-.03.13-.06.2-.09-.08-.68-.48-2.19-.55-2.87-.82-7.68.33-15.19,5.21-21.39,1.08-1.38,2.09-2.81,3.14-4.22,2.38-3.2,5.15-5.3,5.93-9.25,0-.02.07-.03.16-.06,0,2.88-.69,5.58-2.09,8.05-1.31,2.32-2.78,4.55-4.23,6.79-1.81,2.79-3.49,5.63-4.31,8.87-1.47,5.82-1.28,11.67,0,17.49.32,1.47.67,2.95,1.08,4.41.21.74.44,1.48.69,2.21.25.73.58,1.44.82,2.17.28.86.42,1.76.5,2.66.09,1.03-.14,1.99-.42,2.98-.36,1.27-.87,2.41-1.41,3.61-.2.44-.38.89-.55,1.34-.04-.25-.09-.54-.23-1.12-1.01-4.25-2.64-7.16-5.39-10.56-1.53-1.89-3.49-3.24-5.5-4.53-1.62-1.03-3.25-2.05-4.8-3.17-1.66-1.2-3.01-3.78-3.91-5.68.07,0,.12-.02.12,0,1.73,2.37,4.04,3.99,6.55,5.37,1.1.6,2.19,1.24,3.31,1.81,5.03,2.58,8.25,6.74,10.13,12.08.17.47.33.95.49,1.42.05,0,.1,0,.15,0,.03-1.06.12-2.12.08-3.18-.1-2.22-.63-4.37-1.39-6.45-1.01-2.77-2.86-5.13-5.35-6.64-2.14-1.3-4.44-2.34-6.66-3.5-1.5-.78-3.05-1.49-4.49-2.37-1.99-1.21-3.45-2.92-4.13-5.41-.29.52-.54.92-.73,1.35-.9,1.97-1.3,4.07-1.43,6.23-.2,3.36.21,6.64,1.35,9.8,1.89,5.21,5.53,8.49,10.73,10.03Z"/>
        <g>
          <path class="cls-1" d="M38.19,70.04c-1.93-.81-3.76-1.36-5.54-1.9-1.91-.57-3.64-1.09-5.17-1.84h0c-.9-.45-1.65-1.01-2.46-1.69-2.05-1.72-4.34-4.31-6.56-6.82-3.11-3.51-6.33-7.14-8.53-7.97-1.17-.45-2.11-.58-2.75-.4,0,0-.01,0-.02.01,0,0,.01,0,.02,0-.2.06-.37.14-.51.26-.68.57-.66,1.87-.58,2.44.15.88,3.77,6.65,5.62,9.67-.07-.11-.13-.23-.2-.34.07.12.13.23.2.34.89,1.45,1.63,2.57,1.98,2.93,1.08,1.12,3.49,3.53,5.45,4.87.43.29.83.53,1.2.69.13.06.23.15.3.26.12.19.14.43.04.64-.11.25-.36.4-.62.4-.09,0-.2-.01-.29-.05-.03-.01-.12-.04-.15-.06-.79-.25-1.69-.68-3.01-1.66-1.3-.97-2.8-2.29-4.22-3.73-.68-.68-1.18-1.61-1.71-2.6-.17-.31-.34-.64-.52-.95-.98-1.73-1.89-3.19-2.7-4.48-1.77-2.82-3.05-4.86-3.14-6.94-.09-2.45,1.56-3.28,2.45-3.55.04-1.2.15-4.75.35-11.61.11-3.66-1.29-5.52-1.9-6.15-.54-.55-1.12-.87-1.61-.87-.12,0-.22.02-.32.06-.05.1-.19.45-.3,1.51-.08.84-.12,1.81-.15,2.67-.02.66-.04,1.23-.08,1.61-.22,2.31-.79,4.98-1.34,7.56-.94,4.38-1.91,8.9-1.11,11.5.17.55.36,1.18.56,1.85,1.82,6.03,5.19,17.25,10.92,22.54,3.35,3.09,6.89,5.54,10.84,7.46,3.48,1.7,6.81,2.79,10.04,3.85,4.43,1.45,8.61,2.82,12.45,5.57,4,2.87,7.15,6.89,9.85,12.6,1.78-3.89,2.86-7.59,3.23-11.02.38-3.57,0-6.93-1.15-10-2.55-6.82-8.88-12.42-18.83-16.64Z"/>
          <path class="cls-1" d="M14.64,51.04s.01.01.02.01c0,0,0,0,0,0,0,0,0,0,.01,0,0,0,0,0,0,0,0,0,0,0,0,0,0,0,0,0,0,0,0,0,0,0,0,0,0,0,0,0,0,0,0,0,0,0,0,0,0,0,0,0,0,0,0,0,0,0,0,0,0,0,0,0,0,0,0,0,0,0,0,0,0,0,0,0,0,0,0,0,0,0,0,0,0,0,0,0,0,0,0,0,0,0,0,0,0,0,0,0,.01,0,0,0,0,0,0,0,0,0,0,0,.01.01,0,0,0,0,0,0,.02.02.05.05.09.08,0,0,0,0,0,0,.01.01.02.02.04.03,0,0,0,0,0,0,.01.01.03.02.04.04,0,0,0,0,.01.01.01.01.03.03.05.04,0,0,0,0,0,0,.02.02.04.03.05.05,0,0,0,0,.01.01.02.02.04.04.06.06,0,0,.01.01.02.02.05.05.11.1.17.16.96.93,3.06,3.13,4.7,5-.04-2.37.02-4.8.07-7.22.01-.69.03-1.38.04-2.06.03-2.4.02-4.76-.15-7.02-.01-.13-.02-.26-.04-.39,0-.04-.01-.08-.02-.12-.01-.09-.02-.17-.03-.26,0-.05-.01-.09-.02-.14-.01-.08-.03-.15-.04-.23,0-.05-.02-.09-.03-.14-.02-.08-.03-.15-.05-.22,0-.04-.02-.09-.03-.13-.02-.08-.04-.16-.06-.24,0-.03-.02-.07-.03-.1-.03-.11-.06-.22-.1-.32,0-.02-.01-.03-.02-.04-.03-.09-.06-.18-.09-.26-.01-.03-.03-.07-.04-.1-.02-.07-.05-.13-.08-.19-.02-.04-.03-.07-.05-.11-.03-.06-.05-.12-.08-.18-.02-.04-.03-.07-.05-.11-.03-.06-.06-.11-.08-.17-.02-.03-.03-.06-.05-.1-.03-.06-.07-.12-.1-.18-.01-.02-.02-.04-.04-.07-.05-.08-.1-.16-.14-.24-.01-.02-.02-.03-.03-.05-.04-.06-.08-.12-.12-.17-.02-.03-.04-.05-.06-.08-.03-.05-.07-.09-.1-.13-.02-.03-.04-.05-.06-.08-.03-.04-.07-.08-.1-.12-.02-.02-.04-.05-.06-.07-.03-.04-.07-.08-.11-.12-.02-.02-.04-.04-.06-.06-.04-.04-.09-.09-.13-.13-.01-.01-.02-.02-.04-.04-.06-.05-.11-.1-.17-.15-.02-.01-.03-.03-.05-.04-.04-.03-.08-.07-.12-.1-.02-.02-.04-.03-.06-.05-.04-.03-.07-.05-.11-.08-.02-.01-.04-.03-.07-.04-.04-.02-.07-.04-.11-.06-.02-.01-.04-.03-.06-.04-.04-.02-.07-.04-.11-.06-.02,0-.04-.02-.06-.03-.05-.02-.1-.04-.14-.06,0,0-.02,0-.02,0-.06-.02-.11-.04-.16-.06-.02,0-.03,0-.05-.01-.04-.01-.08-.02-.11-.03-.02,0-.04,0-.06-.01-.03,0-.07-.01-.1-.02-.02,0-.04,0-.06,0-.03,0-.06,0-.1,0-.02,0-.04,0-.06,0-.02,0-.05,0-.07,0-.04,0-.07,0-.11,0-.02,0-.04,0-.06,0-.04,0-.07.01-.1.02-.02,0-.04,0-.06.02-.04.01-.07.02-.11.04-.02,0-.03.01-.05.02-.05.02-.1.05-.14.08-.16.11-.25.47-.28.97,0,.11-.01.23-.01.35,0,.12,0,.25,0,.38,0,.13,0,.26,0,.4,0,.2.02.41.03.63.05.98.14,1.97.15,2.5h0c.02,2.54-.18,5.12-.39,7.7-.02.23-.04.47-.06.7-.04.47-.08.94-.11,1.41-.04.47-.07.94-.11,1.41.01,0,.02.02.03.02,0,0,0,0,0,0Z"/>
          <path class="cls-1" d="M26.1,63.29c-.2-1.25-.37-2.38-.47-3.53,0-.02,0-.03,0-.05-.06-.66-.09-1.33-.09-2.03,0-.1,0-.2,0-.31,0-.51.03-1.04.07-1.6.03-.45.08-.91.13-1.4.04-.36.09-.74.15-1.13.04-.35.06-.7.07-1.03.09-2.32-.35-4.12-.63-5.47-.01-.07-.03-.14-.04-.2,0-.03-.02-.06-.02-.09-.06-.22-.13-.39-.21-.64-.04-.11-.08-.22-.12-.33,0-.02-.02-.04-.02-.06-.04-.1-.08-.2-.13-.3,0-.02-.02-.04-.02-.05-.04-.09-.09-.19-.13-.27,0,0,0-.02-.01-.02-.05-.09-.1-.18-.15-.27-.01-.02-.02-.04-.03-.05-.05-.08-.1-.16-.16-.24,0-.01-.02-.02-.03-.04-.05-.07-.1-.14-.15-.21,0,0-.01-.02-.02-.03-.06-.07-.11-.14-.17-.2-.01-.01-.02-.03-.04-.04-.06-.06-.12-.12-.18-.18,0,0-.01-.01-.02-.02-.06-.05-.11-.1-.17-.15,0,0-.02-.02-.03-.03-.06-.05-.12-.1-.18-.14-.01,0-.02-.02-.04-.03-.06-.04-.12-.08-.18-.12,0,0,0,0,0,0-.06-.03-.12-.07-.18-.1-.01,0-.02-.01-.03-.02-.06-.03-.12-.05-.18-.07-.01,0-.02,0-.03-.01-.06-.02-.12-.04-.17-.05,0,0,0,0,0,0-.06-.01-.12-.02-.17-.03-.01,0-.02,0-.03,0-.05,0-.11-.01-.16-.01-.01,0-.02,0-.03,0-.04,0-.08,0-.11,0-.01,0-.02,0-.03,0-.04,0-.09.01-.13.03,0,0-.01,0-.02,0-.04.01-.07.02-.11.04-.01,0-.02,0-.03.01-.04.02-.08.04-.12.06-.18.12-.24.58-.25,1.18,0,.5.02,1.08.06,1.64,0,.11.01.22.02.33,0,.05,0,.11.01.16,0,.1.01.21.02.3,0,.1.01.19.02.28,0,.09.01.17.01.25,0,.04,0,.08,0,.11,0,.26,0,.51,0,.75-.05,2.81-.32,4.76-.43,7.28-.01.22-.02.44-.03.67-.02.57-.03,1.17-.03,1.82.13.15.26.3.39.45,1.96,2.23,3.67,4.22,4.79,5.19Z"/>
          <path class="cls-1" d="M8.14,47.99s.04,0,.06,0c.01,0,.03,0,.04,0,.02,0,.04,0,.07,0,.01,0,.03,0,.04,0,.02,0,.05,0,.07,0,.01,0,.03,0,.04,0,.03,0,.06,0,.08,0,.01,0,.02,0,.04,0,.03,0,.07,0,.11.01,0,0,.01,0,.02,0,.09.01.18.02.28.04,0,0,.02,0,.03,0,.04,0,.08.01.12.02.02,0,.03,0,.05,0,.03,0,.07.01.1.02.02,0,.04,0,.06.01.03,0,.06.01.1.02.02,0,.04.01.06.02.03,0,.06.02.1.02.02,0,.05.01.07.02.03,0,.07.02.1.03.02,0,.05.01.07.02.03,0,.07.02.1.03.03,0,.05.02.08.02.03.01.07.02.1.03.03,0,.05.02.08.03.03.01.07.02.1.03.03,0,.06.02.08.03.03.01.07.02.1.04.03.01.06.02.09.03.04.01.07.03.11.04.03.01.06.02.09.03.04.01.07.03.11.04.03.01.06.03.09.04.04.02.07.03.11.05.03.01.06.03.09.04.04.02.07.03.11.05.03.01.06.03.1.04.04.02.08.04.12.06.03.02.06.03.1.05.04.02.08.04.12.06.03.02.07.03.1.05.04.02.08.04.12.07.03.02.07.04.1.06.04.02.08.05.12.07.03.02.07.04.1.06.04.02.08.05.13.08.03.02.07.04.1.06.04.03.09.05.13.08.03.02.07.04.1.06.04.03.09.06.14.09.03.02.07.04.1.07.05.03.1.07.14.1.03.02.06.04.1.07.05.04.11.08.16.12.03.02.05.04.08.06.08.06.16.12.25.18.04-4.21.3-9.13.13-13.02,0-.14-.01-.29-.02-.43,0-.05,0-.09-.01-.14,0-.09-.02-.19-.02-.28,0-.05-.01-.1-.02-.16,0-.08-.02-.16-.03-.25,0-.05-.01-.1-.02-.16-.01-.08-.02-.16-.04-.23,0-.05-.02-.1-.03-.15-.01-.08-.03-.16-.04-.23,0-.05-.02-.09-.03-.13-.02-.09-.04-.17-.06-.26,0-.03-.01-.06-.02-.09-.03-.11-.06-.22-.09-.33,0-.03-.02-.06-.03-.09-.02-.08-.05-.16-.07-.23-.01-.04-.03-.08-.04-.12-.02-.06-.04-.13-.07-.19-.02-.04-.03-.08-.05-.12-.02-.06-.05-.11-.07-.17-.02-.04-.03-.08-.05-.12-.02-.05-.05-.11-.07-.16-.02-.04-.04-.08-.05-.11-.03-.05-.05-.11-.08-.16-.02-.03-.03-.07-.05-.1-.04-.07-.08-.13-.11-.2-.01-.02-.03-.05-.04-.07-.04-.07-.08-.13-.13-.2-.02-.03-.04-.06-.06-.08-.03-.04-.06-.09-.09-.13-.02-.03-.05-.06-.07-.09-.03-.04-.06-.08-.09-.11-.02-.03-.05-.06-.07-.08-.03-.03-.06-.07-.09-.1-.02-.03-.05-.05-.07-.08-.03-.03-.06-.06-.1-.09-.02-.02-.05-.05-.07-.07-.04-.03-.07-.06-.11-.1-.02-.02-.04-.04-.06-.05-.06-.05-.11-.09-.17-.13-.02-.01-.04-.03-.06-.04-.04-.03-.08-.05-.12-.08-.02-.02-.05-.03-.07-.04-.04-.02-.07-.04-.11-.06-.03-.01-.05-.03-.08-.04-.03-.02-.07-.03-.1-.05-.03-.01-.05-.02-.08-.03-.04-.01-.07-.03-.11-.04-.03,0-.05-.02-.08-.03-.04-.01-.08-.02-.12-.03-.02,0-.05-.01-.07-.02-.05-.01-.11-.02-.16-.03,0,0-.02,0-.02,0-.06,0-.12-.02-.18-.02-.02,0-.04,0-.06,0-.04,0-.08,0-.12,0-.04,0-.08,0-.11,0-.03,0-.06,0-.09,0-.04,0-.08.01-.12.02-.03,0-.05,0-.08.01-.04,0-.08.02-.13.03-.02,0-.05.01-.07.02-.06.02-.13.04-.19.07-.66.38-.29,4.33-.32,5.61-.01.45-.03.91-.05,1.38-.02.47-.04.94-.07,1.42-.09,1.68-.22,3.42-.37,5.12-.02.24-.04.49-.06.73-.09.96-.18,1.91-.27,2.82.06,0,.13,0,.19.01,0,0,0,0,0,0Z"/>
        </g>
      </g>
    </g>
  </g>
</svg>