<?xml version="1.0" encoding="UTF-8"?>
<svg id="FGE_2" data-name="FGE 2" xmlns="http://www.w3.org/2000/svg" viewBox="0 0 144.15 56.61">
  <defs>
    <style>
      .cls-fge-1 {
        fill: #7aad42;
      }

      .cls-fge-1, .cls-fge-2, .cls-fge-3, .cls-fge-4, .cls-fge-5 {
        stroke-width: 0px;
      }

      .cls-fge-2 {
        fill: #70706e;
      }

      .cls-fge-3 {
        fill: #0d0d0d;
      }

      .cls-fge-4 {
        fill: #ff2471;
      }

      .cls-fge-5 {
        fill: #1bb5cc;
      }
    </style>
  </defs>
  <g id="FGE_2-2" data-name="FGE 2">
    <g>
      <g>
        <path class="cls-fge-2" d="M67.57,16.32v-4.62h-.51v-1.18h.51c.03-.38.09-.67.16-.88s.19-.4.34-.57c.36-.42.85-.63,1.45-.63.12,0,.24,0,.35.02v1.34h-.15c-.27,0-.46.05-.57.16-.11.1-.16.29-.17.56h.8v1.18h-.8v4.62h-1.42Z"/>
        <path class="cls-fge-2" d="M75.79,10.41v5.91h-1.31v-.57c-.27.26-.53.44-.78.55-.25.11-.55.16-.91.16-.4,0-.76-.08-1.07-.24s-.57-.39-.77-.69c-.15-.24-.26-.5-.32-.79-.06-.29-.09-.67-.09-1.16v-3.17h1.42v2.89c0,.41.02.73.07.96.05.23.12.41.23.54.2.24.48.35.82.35.25,0,.47-.05.66-.15.19-.1.34-.24.44-.42.08-.13.13-.3.16-.51.03-.21.04-.5.04-.88v-2.79h1.42Z"/>
        <path class="cls-fge-2" d="M76.95,16.32v-5.91h1.31v.57c.26-.25.52-.43.77-.54.25-.11.55-.16.9-.16.86,0,1.49.3,1.89.91.14.23.24.49.3.78s.09.69.09,1.2v3.17h-1.42v-2.89c0-.76-.1-1.27-.3-1.51-.19-.23-.47-.35-.83-.35-.49,0-.84.19-1.06.57-.09.14-.15.3-.18.51-.03.2-.05.49-.05.88v2.79h-1.42Z"/>
        <path class="cls-fge-2" d="M89.26,8.44v7.88h-1.3v-.77c-.29.32-.59.55-.89.69-.31.14-.66.21-1.06.21-.55,0-1.05-.14-1.51-.41-.45-.27-.81-.64-1.07-1.12s-.39-1-.39-1.58.13-1.11.39-1.6c.26-.49.62-.87,1.07-1.15.45-.28.95-.42,1.49-.42.37,0,.72.07,1.04.2.32.13.59.31.8.54v-2.49h1.42ZM86.17,11.5c-.48,0-.88.17-1.21.52-.33.35-.49.78-.49,1.29s.17.95.51,1.31c.34.36.76.54,1.25.54s.88-.18,1.22-.53c.33-.35.5-.78.5-1.29,0-.53-.17-.98-.5-1.33s-.76-.52-1.27-.52Z"/>
        <path class="cls-fge-2" d="M96.37,10.41v5.91h-1.3v-.77c-.28.32-.58.55-.88.7-.3.14-.66.21-1.08.21-.57,0-1.08-.13-1.53-.39-.45-.26-.81-.63-1.06-1.1-.26-.47-.38-1-.38-1.58s.13-1.13.39-1.6c.26-.47.61-.84,1.07-1.11s.98-.4,1.55-.4c.43,0,.79.07,1.1.22.31.15.58.38.83.71v-.79h1.3ZM93.26,11.58c-.49,0-.9.17-1.22.52-.32.35-.48.79-.48,1.32s.16.94.49,1.26.75.48,1.26.48.93-.16,1.24-.49c.31-.33.47-.75.47-1.28s-.16-.97-.49-1.31c-.33-.34-.75-.51-1.27-.51Z"/>
        <path class="cls-fge-2" d="M101.73,14.38h1.6c-.25.66-.62,1.18-1.13,1.54-.51.36-1.11.54-1.8.54-.43,0-.84-.08-1.23-.24-.39-.16-.73-.38-1.01-.66-.28-.27-.51-.6-.67-.98-.17-.38-.25-.78-.25-1.21,0-.57.14-1.09.41-1.57.27-.47.65-.85,1.13-1.12s1-.41,1.58-.41c.42,0,.83.08,1.21.23s.72.37,1.01.65c.19.18.34.36.45.54.11.18.21.41.31.7h-1.6c-.28-.54-.74-.81-1.38-.81-.49,0-.9.17-1.21.5-.31.33-.47.76-.47,1.28s.16.95.49,1.29c.33.34.74.51,1.23.51.29,0,.54-.06.76-.19.21-.13.41-.32.59-.59Z"/>
        <path class="cls-fge-2" d="M104.19,9.77v-1.33h1.42v1.33h-1.42ZM104.19,16.32v-5.91h1.42v5.91h-1.42Z"/>
        <path class="cls-fge-2" d="M109.65,10.27c.56,0,1.08.14,1.56.42.48.28.86.66,1.14,1.13.28.48.42,1,.42,1.55s-.14,1.07-.42,1.54c-.28.47-.66.85-1.14,1.12-.48.28-1.01.41-1.57.41s-1.1-.14-1.58-.41c-.48-.28-.87-.65-1.15-1.12-.28-.47-.42-.99-.42-1.54,0-.42.08-.83.25-1.21.16-.38.39-.71.67-.99.28-.28.62-.5,1.01-.66.39-.16.81-.24,1.24-.24ZM109.59,11.58c-.46,0-.85.18-1.18.53s-.5.77-.5,1.26.17.91.5,1.27c.33.35.73.53,1.2.53s.88-.17,1.21-.52.51-.77.51-1.26-.17-.93-.51-1.28-.75-.52-1.23-.52ZM109.04,9.78l-.55-.83,2.39-1.43.58.98-2.42,1.28Z"/>
        <path class="cls-fge-2" d="M113.63,16.32v-5.91h1.31v.57c.26-.25.52-.43.77-.54.25-.11.55-.16.9-.16.86,0,1.49.3,1.89.91.14.23.24.49.3.78s.09.69.09,1.2v3.17h-1.42v-2.89c0-.76-.1-1.27-.3-1.51-.19-.23-.47-.35-.83-.35-.49,0-.84.19-1.06.57-.09.14-.15.3-.18.51-.03.2-.05.49-.05.88v2.79h-1.42Z"/>
      </g>
      <g>
        <path class="cls-fge-3" d="M73.76,23.03h1.82v6.45c0,.79-.07,1.44-.21,1.97-.14.52-.36.97-.67,1.34-.76.92-1.84,1.38-3.24,1.38-.97,0-1.81-.22-2.53-.67-.71-.44-1.23-1.07-1.56-1.86h2.17c.28.31.57.53.88.66.3.13.68.19,1.12.19.71,0,1.25-.21,1.62-.63s.57-1.06.6-1.91c-.37.44-.76.76-1.17.95-.4.19-.89.29-1.45.29-.75,0-1.42-.18-2.01-.54-.6-.36-1.06-.86-1.39-1.5-.33-.64-.5-1.37-.5-2.18,0-1.18.37-2.16,1.11-2.94.74-.78,1.68-1.17,2.8-1.17s2.01.4,2.6,1.19v-1.01ZM71.35,24.6c-.65,0-1.18.22-1.58.67s-.6,1.04-.6,1.77.2,1.3.61,1.73c.4.43.95.65,1.63.65s1.24-.22,1.65-.66.62-1.02.62-1.76-.21-1.3-.64-1.74c-.43-.44-.99-.67-1.69-.67Z"/>
        <path class="cls-fge-3" d="M85.38,27.86h-6.16c.12.48.37.86.76,1.14.39.28.87.42,1.44.42.39,0,.72-.06.98-.18.26-.12.52-.32.76-.61h2.08c-.11.36-.32.73-.63,1.11-.82.96-1.87,1.44-3.15,1.44-.6,0-1.16-.11-1.7-.32-.53-.21-.99-.51-1.37-.87-.38-.37-.68-.81-.91-1.32-.22-.51-.34-1.05-.34-1.62,0-.77.19-1.47.56-2.11.37-.64.88-1.15,1.52-1.52.64-.37,1.35-.56,2.11-.56s1.48.18,2.11.55c.63.37,1.12.88,1.47,1.53s.53,1.38.53,2.2c0,.26-.02.51-.07.74ZM79.17,26.17h4.41c-.12-.51-.37-.9-.75-1.17-.38-.27-.86-.41-1.45-.41s-1.04.13-1.42.4c-.38.27-.64.66-.79,1.17Z"/>
        <path class="cls-fge-3" d="M86.47,28.46h1.92c.09.34.22.58.39.73s.39.23.67.23c.25,0,.46-.07.62-.22s.24-.33.24-.56c0-.26-.12-.47-.36-.62-.1-.06-.2-.11-.3-.15-.1-.04-.33-.12-.69-.25-.79-.27-1.36-.58-1.7-.94-.34-.36-.51-.83-.51-1.42,0-.68.25-1.26.76-1.72.51-.47,1.13-.7,1.88-.7.41,0,.8.08,1.17.25.37.16.68.39.93.69.17.21.3.42.37.64.08.22.12.49.14.81h-1.86c-.08-.42-.33-.63-.74-.63-.21,0-.38.06-.52.19-.14.13-.21.29-.21.48,0,.24.12.42.37.53.14.06.46.17.98.33.8.25,1.37.55,1.71.9.33.35.5.83.5,1.43,0,.76-.28,1.4-.83,1.93s-1.22.78-2.02.78c-.49,0-.95-.1-1.38-.31-.43-.21-.77-.49-1.03-.84-.15-.21-.26-.44-.34-.67s-.13-.53-.16-.9Z"/>
        <path class="cls-fge-3" d="M94.06,30.98v-6.22h-.93v-1.74h.93v-2.65h1.91v2.65h1.15v1.74h-1.15v6.22h-1.91Z"/>
        <path class="cls-fge-3" d="M98.47,22.17v-1.79h1.91v1.79h-1.91ZM98.47,30.98v-7.95h1.91v7.95h-1.91Z"/>
        <path class="cls-fge-3" d="M106.21,22.85c.76,0,1.46.19,2.1.56.64.37,1.15.88,1.53,1.52.37.64.56,1.34.56,2.09s-.19,1.44-.56,2.08c-.38.64-.89,1.14-1.54,1.51-.65.37-1.35.56-2.12.56s-1.47-.19-2.13-.56-1.17-.88-1.55-1.51c-.38-.64-.57-1.33-.57-2.08,0-.57.11-1.11.33-1.63.22-.52.52-.96.9-1.33.38-.37.83-.67,1.36-.89.53-.22,1.08-.33,1.67-.33ZM106.14,24.6c-.62,0-1.15.24-1.59.71-.45.47-.67,1.04-.67,1.7s.22,1.23.67,1.7.99.71,1.62.71,1.18-.23,1.63-.7.68-1.03.68-1.69-.23-1.26-.68-1.72c-.45-.47-1.01-.7-1.66-.7Z"/>
        <path class="cls-fge-3" d="M111.98,30.98v-7.95h1.76v.76c.35-.34.7-.58,1.04-.73.34-.14.74-.22,1.21-.22,1.16,0,2,.41,2.54,1.22.19.31.33.66.4,1.04.08.39.12.92.12,1.61v4.26h-1.91v-3.89c0-1.03-.14-1.7-.41-2.02-.26-.31-.63-.47-1.11-.47-.65,0-1.13.26-1.42.77-.12.18-.2.41-.24.68-.04.27-.06.67-.06,1.18v3.75h-1.91Z"/>
        <path class="cls-fge-3" d="M128.97,23.03v7.95h-1.74v-1.03c-.38.43-.78.75-1.19.94-.41.19-.89.28-1.45.28-.77,0-1.45-.18-2.06-.53-.61-.35-1.09-.84-1.43-1.47-.34-.63-.52-1.34-.52-2.13s.17-1.52.52-2.15c.35-.64.83-1.14,1.44-1.5.62-.36,1.31-.54,2.09-.54.57,0,1.07.1,1.49.3.42.2.79.51,1.11.95v-1.07h1.74ZM124.79,24.6c-.66,0-1.21.23-1.64.7-.43.47-.65,1.06-.65,1.78s.22,1.26.66,1.69c.44.43,1,.65,1.7.65s1.25-.22,1.67-.66c.42-.44.63-1.01.63-1.72s-.22-1.31-.66-1.76-1.01-.68-1.71-.68Z"/>
        <path class="cls-fge-3" d="M130.93,30.98v-7.95h1.74v.78c.25-.37.5-.62.74-.76s.57-.2.98-.2h.15v1.84c-1.14.03-1.71.65-1.71,1.88v4.42h-1.91Z"/>
      </g>
      <g>
        <path class="cls-fge-3" d="M75.47,43.29h-6.16c.12.48.37.86.76,1.14.39.28.87.42,1.44.42.39,0,.72-.06.98-.18.26-.12.52-.32.76-.61h2.08c-.11.36-.32.73-.63,1.11-.82.96-1.87,1.44-3.15,1.44-.6,0-1.16-.11-1.7-.32-.53-.21-.99-.51-1.37-.87-.38-.37-.68-.81-.91-1.32-.22-.51-.34-1.05-.34-1.62,0-.77.19-1.47.56-2.11.37-.64.88-1.15,1.52-1.52.64-.37,1.35-.56,2.11-.56s1.48.18,2.11.55c.63.37,1.12.88,1.47,1.53s.53,1.38.53,2.2c0,.26-.02.51-.07.74ZM69.26,41.6h4.41c-.12-.51-.37-.9-.75-1.17-.38-.27-.86-.41-1.45-.41s-1.04.13-1.42.4c-.38.27-.64.66-.79,1.17Z"/>
        <path class="cls-fge-3" d="M75.99,43.89h1.92c.09.34.22.58.39.73s.39.23.67.23c.25,0,.46-.07.62-.22s.24-.33.24-.56c0-.26-.12-.47-.36-.62-.1-.06-.2-.11-.3-.15-.1-.04-.33-.12-.69-.25-.79-.27-1.36-.58-1.7-.94-.34-.36-.51-.83-.51-1.42,0-.68.25-1.26.76-1.72.51-.47,1.13-.7,1.88-.7.41,0,.8.08,1.17.25.37.16.68.39.93.69.17.21.3.42.37.64.08.22.12.49.14.81h-1.86c-.08-.42-.33-.63-.74-.63-.21,0-.38.06-.52.19-.14.13-.21.29-.21.48,0,.24.12.42.37.53.14.06.46.17.98.33.8.25,1.37.55,1.71.9.33.35.5.83.5,1.43,0,.76-.28,1.4-.83,1.93s-1.22.78-2.02.78c-.49,0-.95-.1-1.38-.31-.43-.21-.77-.49-1.03-.84-.15-.21-.26-.44-.34-.67s-.13-.53-.16-.9Z"/>
        <path class="cls-fge-3" d="M82.66,49.07v-10.61h1.74v.94c.63-.75,1.5-1.12,2.61-1.12.76,0,1.44.18,2.04.53.6.35,1.07.84,1.41,1.48.34.63.51,1.34.51,2.13s-.17,1.51-.51,2.15c-.34.64-.81,1.14-1.42,1.5-.61.36-1.29.54-2.04.54-.49,0-.92-.07-1.31-.22-.39-.15-.76-.39-1.13-.71v3.4h-1.91ZM86.73,40.03c-.64,0-1.19.23-1.62.7-.44.47-.66,1.05-.66,1.74s.22,1.24.67,1.7,1,.68,1.66.68,1.18-.23,1.62-.69c.44-.46.66-1.03.66-1.71s-.22-1.28-.66-1.74c-.44-.46-.99-.69-1.67-.69Z"/>
        <path class="cls-fge-3" d="M99.83,43.29h-6.16c.12.48.37.86.76,1.14.39.28.87.42,1.44.42.39,0,.72-.06.98-.18.26-.12.52-.32.76-.61h2.08c-.11.36-.32.73-.63,1.11-.82.96-1.87,1.44-3.15,1.44-.6,0-1.16-.11-1.7-.32-.53-.21-.99-.51-1.37-.87-.38-.37-.68-.81-.91-1.32-.22-.51-.34-1.05-.34-1.62,0-.77.19-1.47.56-2.11.37-.64.88-1.15,1.52-1.52.64-.37,1.35-.56,2.11-.56s1.48.18,2.11.55c.63.37,1.12.88,1.47,1.53s.53,1.38.53,2.2c0,.26-.02.51-.07.74ZM93.62,41.6h4.41c-.12-.51-.37-.9-.75-1.17-.38-.27-.86-.41-1.45-.41s-1.04.13-1.42.4c-.38.27-.64.66-.79,1.17Z"/>
        <path class="cls-fge-3" d="M100.91,46.41v-7.95h1.74v.78c.25-.37.5-.62.74-.76s.57-.2.98-.2h.15v1.84c-1.14.03-1.71.65-1.71,1.88v4.42h-1.91Z"/>
        <path class="cls-fge-3" d="M113.17,38.46v7.95h-1.74v-1.03c-.38.43-.78.75-1.19.94-.41.19-.89.28-1.45.28-.77,0-1.45-.18-2.06-.53-.61-.35-1.09-.84-1.43-1.47-.34-.63-.52-1.34-.52-2.13s.17-1.52.52-2.15c.35-.64.83-1.14,1.44-1.5.62-.36,1.31-.54,2.09-.54.57,0,1.07.1,1.49.3.42.2.79.51,1.11.95v-1.07h1.74ZM108.99,40.03c-.66,0-1.21.23-1.64.7-.43.47-.65,1.06-.65,1.78s.22,1.26.66,1.69c.44.43,1,.65,1.7.65s1.25-.22,1.67-.66c.42-.44.63-1.01.63-1.72s-.22-1.31-.66-1.76-1.01-.68-1.71-.68Z"/>
        <path class="cls-fge-3" d="M114.55,46.41v-7.95h1.76v.76c.35-.34.7-.58,1.04-.73.34-.14.74-.22,1.21-.22,1.16,0,2,.41,2.54,1.22.19.31.33.66.4,1.04.08.39.12.92.12,1.61v4.26h-1.91v-3.89c0-1.03-.14-1.7-.41-2.02-.26-.31-.63-.47-1.11-.47-.65,0-1.13.26-1.42.77-.12.18-.2.41-.24.68-.04.27-.06.67-.06,1.18v3.75h-1.91Z"/>
        <path class="cls-fge-3" d="M122.6,46.41v-1.71l3.5-4.53h-3.1v-1.71h5.38v1.71l-3.5,4.53h3.78v1.71h-6.06Z"/>
        <path class="cls-fge-3" d="M137.58,38.46v7.95h-1.74v-1.03c-.38.43-.78.75-1.19.94-.41.19-.89.28-1.45.28-.77,0-1.45-.18-2.06-.53-.61-.35-1.09-.84-1.43-1.47-.34-.63-.52-1.34-.52-2.13s.17-1.52.52-2.15c.35-.64.83-1.14,1.44-1.5.62-.36,1.31-.54,2.09-.54.57,0,1.07.1,1.49.3.42.2.79.51,1.11.95v-1.07h1.74ZM133.4,40.03c-.66,0-1.21.23-1.64.7-.43.47-.65,1.06-.65,1.78s.22,1.26.66,1.69c.44.43,1,.65,1.7.65s1.25-.22,1.67-.66c.42-.44.63-1.01.63-1.72s-.22-1.31-.66-1.76-1.01-.68-1.71-.68Z"/>
        <path class="cls-fge-3" d="M138.4,43.89h1.92c.09.34.22.58.39.73s.39.23.67.23c.25,0,.46-.07.62-.22s.24-.33.24-.56c0-.26-.12-.47-.36-.62-.1-.06-.2-.11-.3-.15-.1-.04-.33-.12-.69-.25-.79-.27-1.36-.58-1.7-.94-.34-.36-.51-.83-.51-1.42,0-.68.25-1.26.76-1.72.51-.47,1.13-.7,1.88-.7.41,0,.8.08,1.17.25.37.16.68.39.93.69.17.21.3.42.37.64.08.22.12.49.14.81h-1.86c-.08-.42-.33-.63-.74-.63-.21,0-.38.06-.52.19-.14.13-.21.29-.21.48,0,.24.12.42.37.53.14.06.46.17.98.33.8.25,1.37.55,1.71.9.33.35.5.83.5,1.43,0,.76-.28,1.4-.83,1.93s-1.22.78-2.02.78c-.49,0-.95-.1-1.38-.31-.43-.21-.77-.49-1.03-.84-.15-.21-.26-.44-.34-.67s-.13-.53-.16-.9Z"/>
      </g>
      <g>
        <g>
          <path class="cls-fge-5" d="M55.35,21.55c-.21-1.36-.42-2.78-.46-3.99,0-.2,0-.5,0-.84.01-.45.03-.96,0-1.4-.02-.55-.08-.74-.11-.8-.06-.03-.13-.04-.2-.04-.3,0-.78.22-1.23.86-.34.48-.76,1.34-.8,2.69-.12,3.58-.18,5.44-.19,6.07.14.05.32.14.5.27.35.26.75.77.66,1.66-.11,1.08-.89,2.07-1.86,3.52-.5.75-.92,1.42-1.49,2.3-.1.16-.2.32-.3.48-.31.5-.66.92-1.04,1.25-1.27,1.13-2.9,2.26-3.96,2.58-.02,0-.06.02-.07.02-.04.02-.08.02-.13.02-.14,0-.28-.09-.33-.23-.04-.12-.02-.24.04-.33.04-.06.1-.1.17-.13.2-.07.41-.19.65-.32,1.06-.63,2.4-1.81,3-2.36.19-.18.61-.74,1.12-1.46.03-.04.06-.09.09-.13.12-.18.24-.36.36-.54-.12.18-.24.37-.36.54-.03.04-.06.09-.09.13.98-1.39,2.12-3.01,2.87-4.18.07-.1.27-.4.37-.68.06-.29.12-.97-.22-1.29-.07-.07-.16-.12-.26-.15,0,0,.01,0,.02.01,0,0-.01,0-.02-.01-.33-.11-.82-.07-1.44.12-1.18.36-2.97,2.15-4.71,3.88-1.24,1.23-2.52,2.51-3.64,3.34-.45.33-.85.6-1.34.8h0c-.82.34-1.75.56-2.76.79-.94.22-1.92.45-2.95.81-2.77.98-6.62,3.69-7.76,4.52,2.27,1.96,3.4,4,3.95,5.4.39.98.55,1.77.62,2.25,1.73-.85,3.54-1.33,5.45-1.82,1.71-.45,3.49-.91,5.36-1.68,2.12-.88,4.05-2.04,5.89-3.54,3.16-2.58,5.28-8.32,6.42-11.4.13-.34.25-.67.35-.95.5-1.33.14-3.72-.2-6.03Z"/>
          <path class="cls-fge-5" d="M47.79,25.95s.03-.03.05-.04c0,0,.02-.01.02-.02,0,0,.01-.01.02-.02,0,0,.01-.01.02-.02,0,0,.02-.01.02-.02,0,0,0,0,.01-.01,0,0,.02-.01.02-.02,0,0,.01,0,.01-.01,0,0,.01,0,.02-.01,0,0,0,0,.01-.01,0,0,.01,0,.02-.01,0,0,0,0,.01,0,0,0,0,0,.01,0,0,0,0,0,.01,0,0,0,0,0,0,0,0,0,0,0,0,0,0,0,.01,0,.02-.01,0,0,0,0,0,0,0,0,0,0,0,0,0,0,0,0,0,0,0,0,0,0,0,0,0,0,0,0,0,0,0,0,0,0,0,0,0,0,0,0,0,0,0,0,0,0,0,0,0,0,0,0,0,0,0,0,0,0,0,0,0,0,0,0,0,0,0,0,0,0,0,0,0,0,0,0,0,0,0,0,0,0,0,0,0,0,0,0,0,0,0,0,0,0,0,0,0,0,0,0,0,0,0,0,0,0,0,0,0,0,0,0,0,0,0,0,0,0,0,0,0,0,0,0,0,0,0,0,0,0,0,0,0,0,0,0,0,0,0,0,0,0,.01,0,0,0,0,0,0,0,0,0,0,0,.02-.01,0-.86-.03-1.72-.04-2.58,0-.25,0-.49,0-.74,0-.12,0-.24,0-.37,0-.73.02-1.46.07-2.19.02-.25.09-.71.15-1.19,0-.07.02-.15.03-.22,0-.07.02-.14.02-.22s.01-.14.02-.21c.03-.44.02-.81-.1-.89-.02-.01-.04-.03-.06-.04,0,0-.01,0-.02,0-.02-.01-.04-.02-.06-.03,0,0,0,0,0,0-.02,0-.04-.01-.07-.02,0,0-.01,0-.02,0-.02,0-.05-.01-.07-.01,0,0,0,0,0,0-.02,0-.05,0-.07,0,0,0-.01,0-.02,0-.02,0-.04,0-.06,0,0,0-.02,0-.02,0-.03,0-.05,0-.08,0,0,0,0,0,0,0-.03,0-.05,0-.08.02,0,0-.02,0-.03,0-.02,0-.04.01-.06.02-.01,0-.02,0-.03.01-.02,0-.04.01-.06.02-.01,0-.02,0-.03.01-.02,0-.04.02-.06.03,0,0-.02,0-.03.01-.03.02-.06.03-.09.05,0,0,0,0,0,0-.03.02-.06.04-.09.05,0,0-.02.01-.03.02-.02.01-.04.03-.06.04-.01,0-.02.02-.03.02-.02.02-.04.03-.06.05-.01,0-.02.02-.03.03-.02.02-.04.04-.06.06,0,0-.02.02-.03.02-.03.03-.06.06-.09.09,0,0,0,0,0,0-.03.03-.06.06-.09.09,0,.01-.02.02-.03.03-.02.02-.04.05-.06.07-.01.01-.02.03-.03.04-.02.02-.04.05-.06.07-.01.01-.02.03-.03.04-.02.03-.04.05-.06.08,0,.01-.02.02-.03.04-.05.08-.11.17-.16.26,0,.01-.02.03-.02.04-.02.03-.03.06-.05.1,0,.02-.02.04-.03.05-.02.03-.03.06-.05.1,0,.02-.02.04-.02.06-.02.04-.03.07-.04.11,0,.02-.01.03-.02.05-.02.05-.04.11-.06.16,0,0,0,0,0,0-.02.06-.04.11-.06.17,0,.02-.01.04-.02.06-.01.04-.02.08-.03.12,0,.02-.01.05-.02.07,0,.04-.02.08-.03.12,0,.02-.01.05-.02.07,0,.04-.02.09-.03.13,0,.02,0,.04-.01.06-.01.07-.02.13-.03.2-.05.33-.09.67-.12,1.02-.24,2.4-.24,5.01-.43,7.48.92-.92,2.08-2,2.61-2.45Z"/>
          <path class="cls-fge-5" d="M48.86,25.18s.06-.04.09-.05c.02,0,.03-.02.05-.03.03-.02.05-.03.08-.05.02,0,.03-.02.05-.03.03-.01.05-.03.08-.04.02,0,.03-.02.05-.03.03-.01.05-.03.08-.04.01,0,.03-.02.04-.02.03-.02.06-.03.1-.05,0,0,.01,0,.02-.01.04-.02.08-.04.12-.06.01,0,.02-.01.03-.02.03-.01.05-.03.08-.04.01,0,.03-.01.04-.02.02-.01.05-.02.07-.03.01,0,.03-.01.04-.02.02,0,.04-.02.07-.03.01,0,.03-.01.04-.02.02,0,.05-.02.07-.03.01,0,.03,0,.04-.01.03,0,.05-.02.08-.03,0,0,.02,0,.03-.01.03-.01.07-.02.1-.03,0,0,.01,0,.02,0,.03,0,.05-.02.08-.02.01,0,.02,0,.03-.01.02,0,.04-.01.06-.02.01,0,.02,0,.04-.01.02,0,.04-.01.06-.02.01,0,.02,0,.04,0,.02,0,.04,0,.06-.01.01,0,.02,0,.03,0,.02,0,.04,0,.06-.01,0,0,.02,0,.03,0,.03,0,.06-.01.08-.02,0,0,0,0,0,0,.02,0,.05,0,.07-.01,0,0,.02,0,.03,0,.02,0,.04,0,.05,0,.01,0,.02,0,.03,0,.02,0,.03,0,.05,0,0,0,.02,0,.03,0,.02,0,.03,0,.05,0,0,0,.02,0,.03,0,.02,0,.03,0,.05,0,0,0,.02,0,.02,0,.02,0,.04,0,.06,0,0,0,0,0,0,0,.02,0,.04,0,.06,0,0,0,.01,0,.02,0,.01,0,.03,0,.04,0,0,0,.01,0,.02,0,0,0,.02,0,.02,0,0,0,0,0,.01,0,.01,0,.02,0,.04,0,0,0,.02,0,.03,0,.01,0,.02,0,.04,0,0,0,.02,0,.02,0,0,0,0,0,0,0,.03,0,.07,0,.1,0-.02-.48-.04-.97-.05-1.48,0-.25-.01-.51-.02-.76,0-.26,0-.51-.01-.77,0-.39,0-.77,0-1.15,0-.63.01-1.26.03-1.85,0-.27.07-.77.11-1.28.01-.12.02-.24.03-.35,0-.12.01-.23.02-.34.02-.48-.01-.87-.15-.96-.04-.02-.07-.03-.11-.04-.01,0-.02,0-.03-.01-.03,0-.05-.02-.08-.02-.01,0-.03,0-.04,0-.03,0-.05,0-.08-.01-.01,0-.02,0-.04,0-.03,0-.07,0-.1,0,0,0-.01,0-.02,0,0,0-.01,0-.02,0-.03,0-.05,0-.08,0-.01,0-.02,0-.03,0-.02,0-.04,0-.06,0-.01,0-.02,0-.04,0-.02,0-.04,0-.06.01-.01,0-.02,0-.04,0-.02,0-.04.01-.06.02-.01,0-.02,0-.03.01-.03.01-.06.02-.09.03,0,0,0,0-.01,0-.03.01-.06.03-.1.05,0,0-.02.01-.03.02-.02.01-.04.02-.07.04-.01,0-.02.01-.04.02-.02.01-.04.03-.06.04-.01,0-.02.02-.04.03-.02.01-.04.03-.06.05-.01,0-.02.02-.03.03-.02.02-.05.04-.07.06,0,0-.02.01-.02.02-.03.03-.06.06-.09.09,0,0-.01.01-.02.02-.02.02-.05.05-.07.08-.01.01-.02.02-.03.04-.02.02-.04.05-.06.07-.01.01-.02.03-.03.04-.02.02-.04.05-.05.07-.01.01-.02.03-.03.04-.02.03-.04.05-.05.08,0,.01-.02.03-.03.04-.02.04-.05.08-.07.12,0,0,0,0,0,0-.03.04-.05.09-.07.14,0,.01-.01.03-.02.04-.02.03-.03.07-.05.1,0,.02-.02.04-.03.06-.01.03-.03.07-.04.1,0,.02-.02.04-.02.06-.01.03-.03.07-.04.11,0,.02-.01.04-.02.06-.01.04-.03.08-.04.13,0,.01,0,.03-.01.04-.02.06-.04.12-.05.18,0,.01,0,.03-.01.04-.01.05-.03.1-.04.14,0,.02-.01.05-.02.07,0,.04-.02.08-.03.13,0,.03-.01.05-.02.08,0,.04-.02.09-.02.13,0,.03,0,.05-.01.08,0,.05-.01.1-.02.14,0,.02,0,.05,0,.07,0,.07-.02.15-.03.22-.22,2.02-.24,4.6-.35,6.79.04-.03.09-.06.13-.08.01,0,.03-.02.04-.03Z"/>
          <path class="cls-fge-5" d="M44.68,28.91c.14-2.17-.05-3.35.08-5.51.06-.6.32-2.04.08-2.22-.02-.01-.04-.03-.07-.04,0,0,0,0-.01,0-.02-.01-.05-.02-.07-.03,0,0,0,0-.01,0-.02,0-.05-.01-.07-.02,0,0,0,0,0,0-.03,0-.05,0-.08,0,0,0-.01,0-.02,0-.03,0-.06,0-.09,0,0,0,0,0,0,0-.03,0-.05,0-.08.01,0,0-.01,0-.02,0-.03,0-.06.02-.09.03,0,0-.01,0-.02,0-.03.01-.06.02-.09.03,0,0,0,0-.01,0-.03.01-.06.03-.09.05,0,0-.01,0-.02.01-.03.02-.06.04-.1.06,0,0,0,0,0,0-.03.02-.06.04-.09.06,0,0-.01,0-.02.02-.03.02-.06.05-.09.08,0,0-.01.01-.02.02-.03.03-.06.05-.09.08,0,0,0,0-.01.01-.03.03-.06.06-.09.1,0,0-.01.02-.02.02-.03.04-.06.07-.09.11,0,0,0,0,0,0-.03.04-.06.08-.08.12,0,0-.01.02-.02.03-.03.04-.06.08-.08.13,0,0,0,.02-.01.02-.02.04-.05.08-.07.13,0,0,0,.02-.01.02-.03.05-.05.1-.07.15,0,.01-.01.02-.02.03-.02.05-.05.11-.07.16-.07.18-.12.28-.18.47-.22.8-.56,1.89-.5,3.37.19,2.2-.04,3.49-.43,5.23.65-.5,1.7-1.58,2.89-2.77Z"/>
        </g>
        <path class="cls-fge-1" d="M21.03,34.29c1.02.3,2.06.57,3.05.94.47.17.92.41,1.31.73.2.16.38.34.53.53.2.25.42.53.51.86.09.33.09.75.02,1.08,0,0,1.82-2.9,4.85-4.76,1.16-.71,1.96-.98,3.83-1.78,2.66-1.14,3.75-2.37,4.91-5.02.71-1.61,1.02-3.29,1.02-5.03,0-1.12-.15-2.21-.57-3.25-.09-.23-.21-.44-.35-.72-.44,1.27-1.27,2.12-2.37,2.7-.8.42-1.64.75-2.47,1.13-1.22.55-2.48,1.03-3.66,1.66-1.37.72-2.43,1.68-3.05,3.08-.11.26-.23.75-.33,1.01,0,.43.07.85.16,1.27.06.27.15.53.24.79,1.16-2.04,2.81-3.62,5.08-4.62.61-.27,1.21-.57,1.82-.86,1.38-.65,2.66-1.44,3.66-2.62,0,0,.03,0,.07,0-.54.96-1.51,2.21-2.43,2.79-.86.55-1.76,1.04-2.66,1.53-1.11.62-2.2,1.27-3.07,2.21-1.17,1.26-1.8,2.23-2.44,3.77-.03-.15-.07-.29-.11-.44-.21-.75-.61-1.44-.77-2.2-.13-.62-.2-1.26-.14-1.89.12-1.3.8-2.43,1.71-3.35,0,0,0,0,.01-.01,1.05-1.05,2.22-2,3.34-2.99,3-2.64,4.42-5.91,4.03-9.87-.23-2.4-1.01-4.65-2.2-6.75-.77-1.36-1.7-2.58-2.94-3.57-.27-.21-.56-.39-.92-.64.33,1.83-.11,3.39-1.06,4.8-.69,1.03-1.51,1.97-2.27,2.95-1.09,1.4-2.25,2.74-3.26,4.2-1.28,1.85-1.82,4.1-1.59,6.32.16,1.53.48,3.02,1.09,4.44.3.7.7,1.35,1.06,2.03.03-.02.07-.03.1-.05-.04-.36-.25-1.15-.29-1.51-.43-4.04.17-7.98,2.74-11.24.57-.72,1.1-1.48,1.65-2.22,1.25-1.68,2.71-2.78,3.12-4.86,0-.01.04-.02.09-.03,0,1.51-.36,2.93-1.1,4.23-.69,1.22-1.46,2.39-2.22,3.57-.95,1.47-1.84,2.96-2.27,4.66-.77,3.06-.67,6.13,0,9.19.17.77.35,1.55.57,2.32.11.39.23.78.36,1.16.13.38.3.75.43,1.14.15.45.22.92.27,1.4.05.54-.08,1.05-.22,1.57-.19.67-.46,1.27-.74,1.9-.1.23-.2.47-.29.71-.02-.13-.05-.28-.12-.59-.53-2.23-1.39-3.77-2.83-5.55-.8-.99-1.83-1.71-2.89-2.38-.85-.54-1.71-1.08-2.52-1.67-.87-.63-1.58-1.99-2.06-2.99.04,0,.06-.01.07,0,.91,1.25,2.12,2.1,3.44,2.82.58.32,1.15.65,1.74.95,2.64,1.36,4.34,3.54,5.32,6.35.09.25.17.5.26.75.03,0,.05,0,.08,0,.02-.56.06-1.12.04-1.67-.05-1.17-.33-2.3-.73-3.39-.53-1.46-1.51-2.7-2.81-3.49-1.13-.68-2.33-1.23-3.5-1.84-.79-.41-1.6-.78-2.36-1.25-1.04-.64-1.81-1.53-2.17-2.85-.15.28-.28.49-.39.71-.47,1.04-.68,2.14-.75,3.27-.1,1.77.11,3.49.71,5.15.99,2.74,2.91,4.46,5.64,5.27Z"/>
        <g>
          <path class="cls-fge-4" d="M20.07,36.81c-1.01-.43-1.98-.72-2.91-1-1-.3-1.91-.57-2.72-.97h0c-.47-.24-.87-.53-1.29-.89-1.08-.9-2.28-2.27-3.45-3.58-1.64-1.85-3.33-3.75-4.48-4.19-.62-.23-1.11-.3-1.44-.21,0,0,0,0-.01,0,0,0,0,0,0,0-.1.03-.19.07-.27.14-.36.3-.35.98-.3,1.28.08.46,1.98,3.5,2.96,5.08-.03-.06-.07-.12-.1-.18.04.06.07.12.1.18.47.76.85,1.35,1.04,1.54.57.59,1.84,1.86,2.87,2.56.22.15.44.28.63.36.07.03.12.08.16.14.06.1.07.22.02.34-.06.13-.19.21-.33.21-.05,0-.11,0-.15-.03-.01,0-.06-.02-.08-.03-.42-.13-.89-.36-1.58-.87-.68-.51-1.47-1.2-2.22-1.96-.36-.36-.62-.85-.9-1.37-.09-.17-.18-.34-.27-.5-.51-.91-1-1.68-1.42-2.35-.93-1.48-1.6-2.55-1.65-3.65-.05-1.29.82-1.73,1.29-1.87.02-.63.08-2.49.18-6.1.06-1.92-.68-2.9-1-3.23-.28-.29-.59-.46-.85-.46-.06,0-.12,0-.17.03-.03.05-.1.24-.16.79-.04.44-.06.95-.08,1.4-.01.35-.02.64-.04.85-.11,1.21-.41,2.62-.71,3.97-.49,2.3-1,4.68-.58,6.05.09.29.19.62.3.97.95,3.17,2.73,9.06,5.74,11.85,1.76,1.63,3.62,2.91,5.69,3.92,1.83.89,3.58,1.47,5.27,2.02,2.33.76,4.52,1.48,6.54,2.93,2.1,1.51,3.76,3.62,5.17,6.62.93-2.04,1.51-3.99,1.7-5.79.2-1.88,0-3.64-.6-5.26-1.34-3.59-4.67-6.53-9.9-8.75Z"/>
          <path class="cls-fge-4" d="M7.7,26.83s0,0,.01,0c0,0,0,0,0,0,0,0,0,0,0,0,0,0,0,0,0,0,0,0,0,0,0,0,0,0,0,0,0,0,0,0,0,0,0,0,0,0,0,0,0,0,0,0,0,0,0,0,0,0,0,0,0,0,0,0,0,0,0,0,0,0,0,0,0,0,0,0,0,0,0,0,0,0,0,0,0,0,0,0,0,0,0,0,0,0,0,0,0,0,0,0,0,0,0,0,0,0,0,0,0,0,0,0,0,0,0,0,0,0,0,0,0,0,0,0,0,0,0,0,.01.01.03.02.05.04,0,0,0,0,0,0,0,0,.01.01.02.02,0,0,0,0,0,0,0,0,.01.01.02.02,0,0,0,0,0,0,0,0,.02.02.03.02,0,0,0,0,0,0,0,0,.02.02.03.03,0,0,0,0,0,0,0,0,.02.02.03.03,0,0,0,0,.01,0,.03.03.06.05.09.09.5.49,1.61,1.65,2.47,2.63-.02-1.25.01-2.53.04-3.79,0-.36.01-.72.02-1.09.02-1.26,0-2.5-.08-3.69,0-.07-.01-.14-.02-.21,0-.02,0-.04,0-.06,0-.05-.01-.09-.02-.14,0-.02,0-.05-.01-.07,0-.04-.01-.08-.02-.12,0-.02,0-.05-.01-.07,0-.04-.02-.08-.03-.12,0-.02-.01-.05-.02-.07-.01-.04-.02-.08-.03-.12,0-.02,0-.03-.01-.05-.02-.06-.03-.11-.05-.17,0,0,0-.02,0-.02-.02-.05-.03-.09-.05-.14,0-.02-.01-.04-.02-.05-.01-.03-.03-.07-.04-.1,0-.02-.02-.04-.02-.06-.01-.03-.03-.06-.04-.09,0-.02-.02-.04-.03-.06-.01-.03-.03-.06-.04-.09,0-.02-.02-.03-.03-.05-.02-.03-.04-.07-.05-.1,0-.01-.01-.02-.02-.03-.02-.04-.05-.08-.08-.12,0,0-.01-.02-.02-.03-.02-.03-.04-.06-.06-.09,0-.01-.02-.03-.03-.04-.02-.02-.03-.05-.05-.07-.01-.01-.02-.03-.03-.04-.02-.02-.03-.04-.05-.06-.01-.01-.02-.03-.03-.04-.02-.02-.04-.04-.06-.06-.01-.01-.02-.02-.03-.03-.02-.02-.05-.05-.07-.07,0,0-.01-.01-.02-.02-.03-.03-.06-.05-.09-.08,0,0-.02-.01-.02-.02-.02-.02-.04-.03-.06-.05-.01,0-.02-.02-.03-.02-.02-.01-.04-.03-.06-.04-.01,0-.02-.02-.03-.02-.02-.01-.04-.02-.06-.03-.01,0-.02-.01-.03-.02-.02-.01-.04-.02-.06-.03-.01,0-.02-.01-.03-.02-.03-.01-.05-.02-.08-.03,0,0,0,0-.01,0-.03-.01-.06-.02-.09-.03,0,0-.02,0-.03,0-.02,0-.04-.01-.06-.02-.01,0-.02,0-.03,0-.02,0-.04,0-.05,0-.01,0-.02,0-.03,0-.02,0-.03,0-.05,0-.01,0-.02,0-.03,0-.01,0-.02,0-.04,0-.02,0-.04,0-.06,0-.01,0-.02,0-.03,0-.02,0-.04,0-.05.01-.01,0-.02,0-.03,0-.02,0-.04.01-.06.02,0,0-.02,0-.03,0-.03.01-.05.02-.08.04-.09.06-.13.25-.15.51,0,.06,0,.12,0,.18,0,.06,0,.13,0,.2,0,.07,0,.14,0,.21,0,.11,0,.22.01.33.03.52.08,1.04.08,1.31h0c0,1.34-.09,2.69-.2,4.04-.01.12-.02.25-.03.37-.02.25-.04.49-.06.74-.02.25-.04.49-.06.74,0,0,.01,0,.02.01,0,0,0,0,0,0Z"/>
          <path class="cls-fge-4" d="M13.72,33.26c-.11-.66-.19-1.25-.25-1.85,0,0,0-.02,0-.03-.03-.35-.05-.7-.05-1.07,0-.05,0-.11,0-.16,0-.27.01-.55.04-.84.02-.23.04-.48.07-.73.02-.19.05-.39.08-.6.02-.19.03-.37.04-.54.05-1.22-.18-2.16-.33-2.87,0-.04-.02-.07-.02-.1,0-.02,0-.03-.01-.05-.03-.11-.07-.2-.11-.33-.02-.06-.04-.12-.06-.18,0-.01,0-.02-.01-.03-.02-.05-.04-.11-.07-.16,0,0,0-.02-.01-.03-.02-.05-.05-.1-.07-.14,0,0,0,0,0-.01-.03-.05-.05-.09-.08-.14,0,0-.01-.02-.02-.03-.03-.04-.05-.09-.08-.13,0,0,0-.01-.01-.02-.03-.04-.05-.08-.08-.11,0,0,0,0-.01-.01-.03-.04-.06-.07-.09-.11,0,0-.01-.01-.02-.02-.03-.03-.06-.07-.09-.1,0,0,0,0-.01,0-.03-.03-.06-.05-.09-.08,0,0-.01,0-.02-.01-.03-.03-.06-.05-.09-.07,0,0-.01,0-.02-.01-.03-.02-.06-.04-.1-.06,0,0,0,0,0,0-.03-.02-.06-.03-.09-.05,0,0-.01,0-.02,0-.03-.01-.06-.03-.09-.04,0,0-.01,0-.02,0-.03-.01-.06-.02-.09-.03,0,0,0,0,0,0-.03,0-.06-.01-.09-.02,0,0-.01,0-.02,0-.03,0-.06,0-.08,0,0,0-.01,0-.02,0-.02,0-.04,0-.06,0,0,0-.01,0-.02,0-.02,0-.05,0-.07.01,0,0,0,0-.01,0-.02,0-.04.01-.06.02,0,0-.01,0-.02,0-.02,0-.04.02-.06.03-.09.06-.13.31-.13.62,0,.26.01.57.03.86,0,.06,0,.12.01.17,0,.03,0,.06,0,.08,0,.05,0,.11.01.16,0,.05,0,.1,0,.15,0,.05,0,.09,0,.13,0,.02,0,.04,0,.06,0,.14,0,.27,0,.4-.02,1.48-.17,2.5-.23,3.82,0,.11-.01.23-.01.35-.01.3-.02.62-.01.96.07.08.14.16.21.24,1.03,1.17,1.93,2.22,2.52,2.73Z"/>
          <path class="cls-fge-4" d="M4.28,25.22s.02,0,.03,0c0,0,.01,0,.02,0,.01,0,.02,0,.04,0,0,0,.01,0,.02,0,.01,0,.03,0,.04,0,0,0,.01,0,.02,0,.01,0,.03,0,.04,0,0,0,.01,0,.02,0,.02,0,.04,0,.06,0,0,0,0,0,.01,0,.05,0,.09.01.14.02,0,0,.01,0,.02,0,.02,0,.04,0,.06.01,0,0,.02,0,.03,0,.02,0,.04,0,.05.01.01,0,.02,0,.03,0,.02,0,.03,0,.05.01.01,0,.02,0,.03,0,.02,0,.03,0,.05.01.01,0,.02,0,.04,0,.02,0,.03,0,.05.01.01,0,.03,0,.04.01.02,0,.03,0,.05.01.01,0,.03,0,.04.01.02,0,.03.01.05.02.01,0,.03,0,.04.01.02,0,.04.01.05.02.01,0,.03.01.04.02.02,0,.04.01.05.02.01,0,.03.01.04.02.02,0,.04.01.06.02.02,0,.03.01.05.02.02,0,.04.02.06.02.02,0,.03.01.05.02.02,0,.04.02.06.03.02,0,.03.01.05.02.02,0,.04.02.06.03.02,0,.03.02.05.02.02,0,.04.02.06.03.02,0,.03.02.05.03.02.01.04.02.06.03.02,0,.03.02.05.03.02.01.04.02.06.03.02,0,.04.02.05.03.02.01.04.02.06.04.02.01.04.02.05.03.02.01.04.03.07.04.02.01.04.02.05.03.02.01.05.03.07.04.02.01.04.02.05.03.02.02.05.03.07.05.02.01.04.02.05.04.03.02.05.03.08.05.02.01.03.02.05.03.03.02.06.04.09.06.01,0,.03.02.04.03.04.03.09.06.13.1.02-2.21.16-4.8.07-6.84,0-.08,0-.15-.01-.22,0-.02,0-.05,0-.07,0-.05,0-.1-.01-.15,0-.03,0-.05,0-.08,0-.04-.01-.09-.02-.13,0-.03,0-.06-.01-.08,0-.04-.01-.08-.02-.12,0-.03,0-.05-.01-.08,0-.04-.02-.08-.02-.12,0-.02,0-.05-.01-.07,0-.05-.02-.09-.03-.14,0-.02,0-.03-.01-.05-.02-.06-.03-.12-.05-.18,0-.02,0-.03-.01-.05-.01-.04-.02-.08-.04-.12,0-.02-.01-.04-.02-.06-.01-.03-.02-.07-.04-.1,0-.02-.02-.04-.03-.07-.01-.03-.02-.06-.04-.09,0-.02-.02-.04-.03-.06-.01-.03-.03-.06-.04-.08,0-.02-.02-.04-.03-.06-.01-.03-.03-.06-.04-.08,0-.02-.02-.03-.03-.05-.02-.04-.04-.07-.06-.1,0-.01-.01-.03-.02-.04-.02-.04-.04-.07-.07-.1-.01-.02-.02-.03-.03-.04-.02-.02-.03-.05-.05-.07-.01-.02-.02-.03-.04-.05-.02-.02-.03-.04-.05-.06-.01-.02-.03-.03-.04-.04-.02-.02-.03-.04-.05-.05-.01-.01-.03-.03-.04-.04-.02-.02-.03-.03-.05-.05-.01-.01-.03-.02-.04-.04-.02-.02-.04-.03-.06-.05-.01,0-.02-.02-.03-.03-.03-.02-.06-.05-.09-.07-.01,0-.02-.01-.03-.02-.02-.01-.04-.03-.06-.04-.01,0-.03-.02-.04-.02-.02-.01-.04-.02-.06-.03-.01,0-.03-.01-.04-.02-.02,0-.04-.02-.05-.03-.01,0-.03-.01-.04-.02-.02,0-.04-.01-.06-.02-.01,0-.03,0-.04-.01-.02,0-.04-.01-.06-.02-.01,0-.02,0-.04,0-.03,0-.06-.01-.08-.02,0,0,0,0-.01,0-.03,0-.06,0-.1-.01-.01,0-.02,0-.03,0-.02,0-.04,0-.06,0-.02,0-.04,0-.06,0-.02,0-.03,0-.05,0-.02,0-.04,0-.06,0-.01,0-.03,0-.04,0-.02,0-.04.01-.07.02-.01,0-.02,0-.04,0-.03.01-.07.02-.1.04-.35.2-.15,2.28-.17,2.95,0,.24-.01.48-.03.73-.01.25-.02.5-.04.75-.05.88-.12,1.8-.19,2.69-.01.13-.02.26-.03.38-.05.51-.09,1-.14,1.48.03,0,.07,0,.1,0,0,0,0,0,0,0Z"/>
        </g>
      </g>
    </g>
  </g>
</svg>