<?xml version="1.0" encoding="UTF-8"?>
<svg id="Capa_2" data-name="Capa 2" xmlns="http://www.w3.org/2000/svg" viewBox="0 0 849.72 257.23">
  <defs>
    <style>
      .cls-1 {
        fill: #1bb5cc;
      }

      .cls-1, .cls-2 {
        fill-rule: evenodd;
        stroke-width: 0px;
      }

      .cls-2 {
        fill: #ffcb4c;
      }
    </style>
  </defs>
  <g id="Capa_2-2" data-name="Capa 2">
    <g>
      <path class="cls-1" d="M670.5,83.71c.47-24.18,7.53-49.62,23.16-65.95C704.25,6.71,718.72-.22,737.75,0c10.55.14,20.57,3.39,29.35,8.78,8.73,5.36,16.2,12.88,21.72,21.59,15.7,24.78,16.56,51.25,8.83,76.45-11.22,36.59-40.92,70.43-69.12,92.17-31.61,24.19-85.57,37.26-144.45,43.1-37.02,3.67-75.98,4.59-112.31,3.99-43.78-.73-83.73-3.73-111.92-6.17-28.34-2.56-70.01-5.68-109.29-8.16-27.19-1.72-53.24-3.15-72.93-3.77-28.5-.94-69.61-2.98-108.31,3.55-24.46,4.13-47.95,11.65-66.6,25.17-.75.56-1.81.41-2.38-.34-.56-.75-.41-1.81.34-2.38,18.72-14.49,42.6-23.04,67.61-28.03,38.96-7.78,80.64-6.91,109.5-6.79,24.17.15,57.9,1.19,91.61,2.68,33.7,1.49,67.38,3.43,91.48,5.1,27.99,2.04,67.66,4.17,111.08,4.63,35.83.38,74.22-.42,110.75-3.76,56.17-5.14,107.97-15.97,138.43-38.61,27.01-19.93,55.73-51.16,67.09-85.39,7.5-22.6,7.37-46.51-6.26-69.23-4.7-7.84-11.16-14.67-18.79-19.62-7.6-4.93-16.34-8.03-25.61-8.38-21.71-.85-37.11,8.87-47.3,23.44-10.41,14.89-15.49,34.72-16.38,53.8-.03.94-.82,1.67-1.75,1.64-.94-.03-1.67-.82-1.64-1.75h0Z"/>
      <path class="cls-1" d="M848.29,256.65c-9.2,1.74-32.13-.59-55.61-4.83-20.66-3.73-41.71-8.96-54.23-13.91-21.82-8.74-54.97-22.21-87.73-40.21-18.99-10.44-37.87-22.36-54.33-35.68-15.18-12.28-28.34-25.77-37.84-40.14-11.17-16.89-17.31-35.06-16.34-54.05,2.14-36.18,29.18-56.12,58.69-56.57,26.09-.4,54.03,14.47,65.67,46.75.34.87-.08,1.86-.95,2.2-.87.34-1.86-.08-2.2-.95-12.42-28.81-38.36-41.27-62.16-39.6-24.33,1.71-46.33,18.65-46.64,48.6-.29,16.25,5.85,31.41,15.69,45.66,9.05,13.1,21.34,25.34,35.29,36.79,15.78,12.96,33.66,24.89,51.65,35.53,31.73,18.76,63.67,33.66,84.81,43.15,11.9,5.41,32.09,11.4,51.93,16.07,22.6,5.33,44.73,9.01,53.76,7.82.93-.15,1.8.48,1.94,1.41.15.93-.48,1.8-1.41,1.95h0Z"/>
      <path class="cls-2" d="M669.47,98.53c-.15-19.77,4.91-40.63,16.68-54.43,8.5-9.97,20.46-16.22,36.38-16.37,8.88-.03,17.35,2.74,24.8,7.39,7.23,4.51,13.38,10.92,18.02,18.31,12.72,20.87,13.85,43.24,7.44,64.4-4.55,15.05-12.98,29.42-23.13,42.14-10.29,12.9-22.43,24.03-34.12,32.64-8.46,6.12-18.67,11.24-30.33,15.31-14.36,5.01-30.79,8.51-48.46,10.88-.92.17-1.81-.45-1.97-1.37-.17-.92.45-1.81,1.37-1.97,16.98-3.83,32.64-8.69,46.2-14.73,10.4-4.63,19.47-9.98,26.8-16.23,10.42-8.73,20.95-19.97,30-32.5,8.55-11.82,15.55-24.89,19.59-38.4,5.26-17.56,5.45-35.97-4.63-53.54-3.33-5.97-7.9-11.23-13.36-15.08-5.47-3.86-11.76-6.43-18.52-6.81-16.35-1.02-28.03,6.48-35.89,17.86-8.14,11.78-12.41,27.42-13.5,42.6-.03.94-.81,1.67-1.75,1.64-.94-.03-1.67-.81-1.64-1.75h0Z"/>
      <path class="cls-2" d="M725.22,218.7c-17.24-6.53-43.41-16.59-69.37-30.25-15.08-7.93-30.06-17.05-43.18-27.31-14.89-11.65-27.44-24.77-35.2-39.01-6.14-11.28-9.19-23.31-8.62-35.75,2-29.57,23.94-45.9,47.9-45.98,20.81-.07,43,12.1,51.83,38.18.34.87-.09,1.86-.96,2.2-.87.34-1.86-.09-2.2-.96-9.94-22.15-29.98-31.41-48.26-29.87-18.15,1.53-34.43,14.37-34.46,36.91-.11,6.2,1.07,12.17,3.08,18,2,5.8,4.9,11.41,8.49,16.9,6.79,10.37,16.04,20.17,26.64,29.35,12.12,10.5,25.88,20.21,39.78,28.9,24.61,15.39,49.41,27.71,65.86,35.57.86.37,1.26,1.37.89,2.23-.37.86-1.37,1.26-2.23.89h0Z"/>
    </g>
  </g>
</svg>