<?xml version="1.0" encoding="UTF-8"?>
<svg id="Capa_2" data-name="Capa 2" xmlns="http://www.w3.org/2000/svg" viewBox="0 0 117.35 117.35">
  <defs>
    <style>
      .cls-1 {
        fill: #fff;
        stroke-width: 0px;
      }
    </style>
  </defs>
  <g id="Capa_2-2" data-name="Capa 2">
    <g>
      <path class="cls-1" d="M58.68,14.57c-.65,0-1.18-.53-1.18-1.18V1.18c0-.65.53-1.18,1.18-1.18s1.18.53,1.18,1.18v12.21c0,.65-.53,1.18-1.18,1.18Z"/>
      <path class="cls-1" d="M41.35,18.02c-.46,0-.9-.27-1.09-.73l-4.67-11.28c-.25-.6.04-1.29.64-1.54.6-.25,1.29.04,1.54.64l4.67,11.28c.25.6-.04,1.29-.64,1.54-.15.06-.3.09-.45.09Z"/>
      <path class="cls-1" d="M26.66,27.83c-.3,0-.6-.12-.83-.35l-8.64-8.64c-.46-.46-.46-1.21,0-1.67.46-.46,1.21-.46,1.67,0l8.64,8.64c.46.46.46,1.21,0,1.67-.23.23-.53.35-.83.35Z"/>
      <path class="cls-1" d="M16.84,42.53c-.15,0-.3-.03-.45-.09l-11.28-4.67c-.6-.25-.89-.94-.64-1.54.25-.6.94-.89,1.54-.64l11.28,4.67c.6.25.89.94.64,1.54-.19.45-.63.73-1.09.73Z"/>
      <path class="cls-1" d="M13.39,59.86H1.18c-.65,0-1.18-.53-1.18-1.18s.53-1.18,1.18-1.18h12.21c.65,0,1.18.53,1.18,1.18s-.53,1.18-1.18,1.18Z"/>
      <path class="cls-1" d="M5.56,81.86c-.46,0-.9-.27-1.09-.73-.25-.6.04-1.29.64-1.54l11.28-4.67c.6-.25,1.29.04,1.54.64.25.6-.04,1.29-.64,1.54l-11.28,4.67c-.15.06-.3.09-.45.09Z"/>
      <path class="cls-1" d="M18.02,100.51c-.3,0-.6-.12-.83-.35-.46-.46-.46-1.21,0-1.67l8.64-8.64c.46-.46,1.21-.46,1.67,0,.46.46.46,1.21,0,1.67l-8.64,8.64c-.23.23-.53.35-.83.35Z"/>
      <path class="cls-1" d="M36.67,112.98c-.15,0-.3-.03-.45-.09-.6-.25-.89-.94-.64-1.54l4.67-11.28c.25-.6.94-.89,1.54-.64.6.25.89.94.64,1.54l-4.67,11.28c-.19.45-.63.73-1.09.73Z"/>
      <path class="cls-1" d="M58.68,117.35c-.65,0-1.18-.53-1.18-1.18v-12.21c0-.65.53-1.18,1.18-1.18s1.18.53,1.18,1.18v12.21c0,.65-.53,1.18-1.18,1.18Z"/>
      <path class="cls-1" d="M80.68,112.98c-.46,0-.9-.27-1.09-.73l-4.67-11.28c-.25-.6.04-1.29.64-1.54.6-.25,1.29.04,1.54.64l4.67,11.28c.25.6-.04,1.29-.64,1.54-.15.06-.3.09-.45.09Z"/>
      <path class="cls-1" d="M99.33,100.51c-.3,0-.6-.12-.83-.35l-8.64-8.64c-.46-.46-.46-1.21,0-1.67.46-.46,1.21-.46,1.67,0l8.64,8.64c.46.46.46,1.21,0,1.67-.23.23-.53.35-.83.35Z"/>
      <path class="cls-1" d="M111.8,81.86c-.15,0-.3-.03-.45-.09l-11.28-4.67c-.6-.25-.89-.94-.64-1.54.25-.6.94-.89,1.54-.64l11.28,4.67c.6.25.89.94.64,1.54-.19.45-.63.73-1.09.73Z"/>
      <path class="cls-1" d="M116.18,59.86h-12.21c-.65,0-1.18-.53-1.18-1.18s.53-1.18,1.18-1.18h12.21c.65,0,1.18.53,1.18,1.18s-.53,1.18-1.18,1.18Z"/>
      <path class="cls-1" d="M100.52,42.53c-.46,0-.9-.27-1.09-.73-.25-.6.04-1.29.64-1.54l11.28-4.67c.6-.25,1.29.04,1.54.64.25.6-.04,1.29-.64,1.54l-11.28,4.67c-.15.06-.3.09-.45.09Z"/>
      <path class="cls-1" d="M90.7,27.83c-.3,0-.6-.12-.83-.35-.46-.46-.46-1.21,0-1.67l8.64-8.64c.46-.46,1.21-.46,1.67,0,.46.46.46,1.21,0,1.67l-8.64,8.64c-.23.23-.53.35-.83.35Z"/>
      <path class="cls-1" d="M76.01,18.02c-.15,0-.3-.03-.45-.09-.6-.25-.89-.94-.64-1.54l4.67-11.28c.25-.6.94-.89,1.54-.64.6.25.89.94.64,1.54l-4.67,11.28c-.19.45-.63.73-1.09.73Z"/>
    </g>
  </g>
</svg>