<?xml version="1.0" encoding="UTF-8"?>
<svg id="Capa_2" data-name="Capa 2" xmlns="http://www.w3.org/2000/svg" viewBox="0 0 139.68 158.68">
  <defs>
    <style>
      .cls-1 {
        fill: #5daf30;
        stroke-width: 0px;
      }
    </style>
  </defs>
  <g id="Capa_2-2" data-name="Capa 2">
    <g>
      <g>
        <path class="cls-1" d="M71.2,158.68c-2.71,0-4.91-2.2-4.91-4.91v-25.97c0-2.71,2.2-4.91,4.91-4.91s4.91,2.2,4.91,4.91v25.97c0,2.71-2.2,4.91-4.91,4.91Z"/>
        <path class="cls-1" d="M71.2,35.78c-2.71,0-4.91-2.2-4.91-4.91V4.91c0-2.71,2.2-4.91,4.91-4.91s4.91,2.2,4.91,4.91v25.96c0,2.71-2.2,4.91-4.91,4.91Z"/>
      </g>
      <g>
        <path class="cls-1" d="M112.29,58.41c-1.7,0-3.35-.88-4.25-2.45-1.35-2.35-.55-5.35,1.8-6.7l22.49-12.98c2.35-1.36,5.35-.55,6.7,1.8,1.36,2.35.55,5.35-1.8,6.7l-22.49,12.98c-.77.45-1.62.66-2.45.66Z"/>
        <path class="cls-1" d="M5.85,119.86c-1.7,0-3.35-.88-4.25-2.45-1.35-2.35-.55-5.35,1.8-6.7l22.49-12.98c2.35-1.36,5.35-.55,6.7,1.8,1.36,2.35.55,5.35-1.8,6.7l-22.49,12.98c-.77.45-1.62.66-2.45.66Z"/>
      </g>
      <g>
        <path class="cls-1" d="M27.39,59.98c-.83,0-1.68-.21-2.45-.66L2.45,46.34c-2.35-1.36-3.15-4.36-1.8-6.7,1.35-2.35,4.35-3.15,6.7-1.8l22.49,12.98c2.35,1.36,3.15,4.36,1.8,6.7-.91,1.57-2.56,2.45-4.25,2.45Z"/>
        <path class="cls-1" d="M133.82,121.43c-.83,0-1.68-.21-2.45-.66l-22.49-12.98c-2.35-1.35-3.15-4.35-1.8-6.7,1.35-2.35,4.35-3.15,6.7-1.8l22.49,12.98c2.35,1.35,3.15,4.35,1.8,6.7-.91,1.57-2.56,2.45-4.25,2.45Z"/>
      </g>
    </g>
  </g>
</svg>