<?xml version="1.0" standalone="no"?>
<!DOCTYPE svg PUBLIC "-//W3C//DTD SVG 1.1//EN" "http://www.w3.org/Graphics/SVG/1.1/DTD/svg11.dtd" >
<svg xmlns="http://www.w3.org/2000/svg" xmlns:xlink="http://www.w3.org/1999/xlink" version="1.1">
<metadata>
Created by FontForge 20201107 at Wed Dec 21 14:27:00 2016
 By 
Copyright (c) 2016 by Alex I. Kuznetsov.

This font is free software. You are allowed to distribute and/or modify it under the terms of either (or both) of the following two licenses (your choice):

1) GNU General Public License version 2 (https://gnu.org/licenses/old-licenses/gpl-2.0.txt)
2) The LaTeX Project Public License version 1.3c or (at your option) any later version (http://www.latex-project.org/lppl.txt)

Contains work kindly released to the open source community by URW++ Design and Development GmbH as "URW Gothic L" (version 001.005) with the following copyright notice: Copyright URW Software, Copyright 1996 by URW.

Original URW fonts can be obtained at the Evolventa website (https://evolventa.github.io).

</metadata>
<defs>
<font id="Evolventa-Oblique" horiz-adv-x="1134" >
  <font-face 
    font-family="Evolventa"
    font-weight="400"
    font-style="oblique"
    font-stretch="normal"
    units-per-em="2048"
    panose-1="2 11 5 2 2 2 2 2 2 4"
    ascent="1638"
    descent="-410"
    x-height="1120"
    cap-height="1513"
    bbox="-809 -492 2611 1999"
    underline-thickness="118"
    underline-position="-315"
    slope="-10.5"
    unicode-range="U+0020-FB04"
  />
<missing-glyph horiz-adv-x="1558" 
d="M1403 0h-1247l280 1513h1247zM455 129l440 498l258 -498h123l14 86l-276 543l479 540l14 86h-123l-442 -495l-256 495h-123l-14 -86l280 -540l-483 -543l-14 -86h123z" />
    <glyph glyph-name="f_f" unicode="ff" horiz-adv-x="1159" 
d="M207 0l182 983h-174l25 137h174q37 199 162 296t342 97l-25 -137q-156 0 -229 -57t-99 -199h365q37 199 162 296t342 97l-25 -137q-156 0 -229 -57t-99 -199h279l-25 -137h-278l-183 -983h-151l182 983h-364l-183 -983h-151z" />
    <glyph glyph-name="f_i" unicode="fi" horiz-adv-x="1003" 
d="M207 0l182 983h-174l25 137h174q37 199 162 296t342 97l-25 -137q-156 0 -229 -57t-99 -199h279l-25 -137h-278l-183 -983h-151zM723 0l207 1120h151l-207 -1120h-151zM956 1255l48 258h151l-47 -258h-152z" />
    <glyph glyph-name="f_l" unicode="fl" horiz-adv-x="1003" 
d="M207 0l182 983h-174l25 137h174q37 199 162 296t342 97l-25 -137q-156 0 -229 -57t-99 -199h279l-25 -137h-278l-183 -983h-151zM723 0l281 1513h151l-281 -1513h-151z" />
    <glyph glyph-name="f_f_i" unicode="ffi" horiz-adv-x="1519" 
d="M207 0l182 983h-174l25 137h174q37 199 162 296t342 97l-25 -137q-156 0 -229 -57t-99 -199h365q37 199 162 296t342 97l-25 -137q-156 0 -229 -57t-99 -199h279l-25 -137h-278l-183 -983h-151l182 983h-364l-183 -983h-151zM1239 0l207 1120h151l-206 -1120h-152z
M1473 1255l47 258h151l-47 -258h-151z" />
    <glyph glyph-name="f_f_l" unicode="ffl" horiz-adv-x="1519" 
d="M207 0l182 983h-174l25 137h174q37 199 162 296t342 97l-25 -137q-156 0 -229 -57t-99 -199h365q37 199 162 296t342 97l-25 -137q-156 0 -229 -57t-99 -199h279l-25 -137h-278l-183 -983h-151l182 983h-364l-183 -983h-151zM1239 0l281 1513h151l-280 -1513h-152z" />
    <glyph glyph-name=".notdef" horiz-adv-x="1558" 
d="M1403 0h-1247l280 1513h1247zM455 129l440 498l258 -498h123l14 86l-276 543l479 540l14 86h-123l-442 -495l-256 495h-123l-14 -86l280 -540l-483 -543l-14 -86h123z" />
    <glyph glyph-name=".null" horiz-adv-x="0" 
 />
    <glyph glyph-name="nonmarkingreturn" horiz-adv-x="682" 
 />
    <glyph glyph-name="space" unicode=" " horiz-adv-x="567" 
 />
    <glyph glyph-name="exclam" unicode="!" horiz-adv-x="604" 
d="M227 0l47 258h152l-47 -258h-152zM303 403l205 1110h151l-204 -1110h-152z" />
    <glyph glyph-name="quotedbl" unicode="&#x22;" horiz-adv-x="632" 
d="M680 1051h-102l86 462h102zM449 1051h-103l86 462h103z" />
    <glyph glyph-name="numbersign" unicode="#" 
d="M1206 610l-22 -125h-277l-178 -485h-135l178 485h-336l-182 -485h-133l182 485h-203l23 125h227l119 318h-254l23 125h276l172 460h131l-170 -460h334l168 460h137l-170 -460h203l-23 -125h-225l-117 -318h252zM936 928h-334l-119 -318h334z" />
    <glyph glyph-name="dollar" unicode="$" 
d="M481 -115l31 174q-285 55 -285 306q0 34 11 102h143q-4 -40 -4 -57q0 -107 59 -166.5t166 -59.5q115 0 203 77.5t110 197.5q5 23 5 55q0 84 -56 143q-48 45 -174 86q-108 35 -158 66.5t-81 83.5q-43 64 -43 162q0 35 6 75q26 139 124.5 236t239.5 125l31 168h135
l-31 -168q129 -20 199 -99t70 -202q0 -32 -6 -70h-144q4 32 4 47q0 93 -51 144t-145 51q-106 0 -180.5 -66t-96.5 -178q-6 -30 -6 -55q0 -65 47 -106t164 -80q102 -35 153 -64t85 -70q69 -78 69 -198q0 -43 -8 -82q-31 -163 -148 -276t-272 -128l-31 -174h-135z" />
    <glyph glyph-name="percent" unicode="%" horiz-adv-x="1587" 
d="M1333 1513h152l-965 -1513h-147zM1315 692q128 0 210.5 -84.5t82.5 -210.5q0 -29 -6 -63q-28 -149 -152.5 -255t-273.5 -106q-130 0 -214.5 84t-84.5 209q0 32 6 66q28 152 153 256t279 104zM1280 557q-90 0 -166.5 -66t-93.5 -157q-4 -28 -4 -41q0 -78 52.5 -131
t131.5 -53q92 0 168.5 65t93.5 158q4 28 4 43q0 79 -52 130.5t-134 51.5zM676 1534q127 0 210 -85t83 -210q0 -31 -6 -65q-28 -149 -152.5 -255t-273.5 -106q-130 0 -214.5 84t-84.5 211q0 32 6 66q28 151 153 255.5t279 104.5zM641 1399q-89 0 -167 -66.5t-95 -158.5
q-4 -28 -4 -41q0 -79 52.5 -132t133.5 -53q91 0 168 65.5t94 157.5q4 28 4 46q0 80 -51 131t-135 51z" />
    <glyph glyph-name="ampersand" unicode="&#x26;" horiz-adv-x="1550" 
d="M1415 985h168l-377 -534l314 -373l-123 -105l-289 340q-123 -180 -245 -260t-273 -80q-180 0 -291 104t-111 269q0 44 9 90q38 208 237 344q77 52 195 107q-62 80 -88.5 139t-26.5 117q0 31 6 61q26 141 147.5 238.5t272.5 97.5q137 0 222 -78t85 -202q0 -32 -6 -66
q-29 -166 -192 -266q-30 -21 -168 -86l235 -283zM1016 422l-299 356q-184 -82 -267.5 -162t-105.5 -196q-6 -27 -6 -58q0 -109 74 -180t192 -71q109 0 203.5 71.5t208.5 239.5zM791 950q145 52 219.5 114t89.5 142q4 24 4 37q0 71 -50.5 115.5t-133.5 44.5q-89 0 -161 -56.5
t-87 -138.5q-2 -12 -2 -32q0 -93 121 -226z" />
    <glyph glyph-name="quotesingle" unicode="'" horiz-adv-x="405" 
d="M449 1051h-103l86 462h103z" />
    <glyph glyph-name="parenleft" unicode="(" horiz-adv-x="755" 
d="M967 1513l-25 -129q-101 -56 -175 -117.5t-146 -150.5q-189 -236 -236 -483q-14 -71 -14 -154q0 -234 112 -420q34 -54 75.5 -96t105.5 -86l-25 -133q-112 43 -188 115t-138 194q-96 190 -96 398q0 98 16 182q37 194 150.5 382t278.5 328q75 64 142 101.5t163 68.5z" />
    <glyph glyph-name="parenright" unicode=")" horiz-adv-x="755" 
d="M23 -256l24 131q101 55 176 117t146 151q189 235 235 484q12 59 12 151q0 237 -112 420q-35 56 -75 97.5t-103 84.5l24 133q113 -43 189 -114.5t137 -192.5q96 -190 96 -397q0 -100 -16 -184q-35 -193 -149 -382t-279 -329q-76 -64 -143.5 -102t-161.5 -68z" />
    <glyph glyph-name="asterisk" unicode="*" horiz-adv-x="870" 
d="M831 1540l87 -57l-152 -189l213 6l-21 -106l-208 4l79 -184l-106 -56l-74 187l-143 -187l-88 58l149 182l-215 -4l21 106l213 -6l-80 189l110 57l76 -184z" />
    <glyph glyph-name="plus" unicode="+" horiz-adv-x="1241" 
d="M672 698l82 443h157l-82 -443h437l-29 -151h-436l-82 -447h-158l82 447h-438l28 151h439z" />
    <glyph glyph-name="comma" unicode="," horiz-adv-x="567" 
d="M162 -137l252 395h151l-252 -395h-151z" />
    <glyph glyph-name="hyphen" unicode="-" horiz-adv-x="679" 
d="M176 606h555l-24 -129h-555z" />
    <glyph glyph-name="period" unicode="." horiz-adv-x="567" 
d="M207 0l47 258h152l-48 -258h-151z" />
    <glyph glyph-name="slash" unicode="/" horiz-adv-x="894" 
d="M33 -262l917 1775h144l-924 -1775h-137z" />
    <glyph glyph-name="zero" unicode="0" 
d="M164 551l80 430q26 139 71 233.5t119 165.5q163 160 418 160q139 0 239 -55t150 -158q37 -75 37 -168q0 -70 -21 -178l-79 -430q-50 -268 -172 -399q-164 -179 -431 -179q-157 0 -260.5 60.5t-146.5 177.5q-23 65 -23 158q0 74 19 182zM1032 575l70 371q20 109 20 182
q0 87 -37 148q-76 127 -256 127q-102 0 -192.5 -45t-147.5 -123q-65 -89 -102 -289l-70 -371q-20 -103 -20 -180q0 -89 31 -149q75 -135 266 -135q109 0 197.5 44.5t142.5 127.5q62 92 98 292z" />
    <glyph glyph-name="one" unicode="1" 
d="M575 0l256 1376h-258l25 137h408l-281 -1513h-150z" />
    <glyph glyph-name="two" unicode="2" 
d="M68 0l24 137l627 512q27 22 47 38t38 31t28.5 23.5t23 20t17 15t15.5 14t13 12.5l14.5 14.5l16.5 16.5q130 124 153 253q7 40 7 64q0 113 -75 182.5t-200 69.5q-99 0 -185 -47t-140 -131q-50 -75 -72 -201h-150q15 79 29.5 122.5t44.5 98.5q78 139 210 217t290 78
q182 0 291.5 -102t109.5 -267q0 -48 -8 -92q-23 -121 -102 -222.5t-267 -254.5l-571 -465h756l-25 -137h-960z" />
    <glyph glyph-name="three" unicode="3" 
d="M528 1137h-149q40 186 163.5 294.5t293.5 108.5q147 0 233 -82.5t86 -218.5q0 -43 -8 -82q-17 -94 -68.5 -164.5t-142.5 -126.5q190 -105 190 -313q0 -50 -8 -94q-25 -134 -108.5 -245.5t-204 -176t-250.5 -64.5q-141 0 -244 66t-143 182q-23 71 -23 139q0 34 11 113h149
q-6 -53 -6 -90q0 -73 31 -133q34 -66 97 -102.5t146 -36.5q140 0 253 98t139 242q6 34 6 65q0 99 -54 171t-147 95q-51 11 -174 13l25 135q59 -4 73 -4q119 0 200 64.5t101 174.5q6 27 6 54q0 84 -51.5 134t-138.5 50q-110 0 -184 -69.5t-99 -196.5z" />
    <glyph glyph-name="four" unicode="4" 
d="M791 0l51 276h-766l24 138l942 1099h179l-205 -1099h139l-25 -138h-139l-51 -276h-149zM866 414l166 891l-758 -891h592z" />
    <glyph glyph-name="five" unicode="5" 
d="M281 768l272 745h682l-25 -137h-561l-151 -418q144 72 272 72q185 0 299.5 -118t114.5 -302q0 -57 -8 -106q-27 -147 -117 -269t-220 -192t-270 -70q-152 0 -262.5 80.5t-150.5 220.5q-17 61 -17 129q0 45 2 72h148q0 -5 -1 -16.5t-1 -16.5q0 -149 82.5 -240t218.5 -91
q154 0 279.5 113.5t156.5 279.5q6 29 6 82q0 136 -81.5 221.5t-215.5 85.5q-179 0 -346 -170z" />
    <glyph glyph-name="six" unicode="6" 
d="M887 1513h174l-455 -526q96 43 185 43q177 0 287 -117t110 -299q0 -42 -10 -104q-43 -233 -215.5 -385t-393.5 -152q-195 0 -315.5 117t-120.5 303q0 45 10 107q22 113 74.5 202.5t192.5 253.5zM731 893q-154 0 -278.5 -111.5t-155.5 -277.5q-8 -39 -8 -84
q0 -138 83 -223.5t220 -85.5q158 0 279 110t153 281q10 52 10 90q0 137 -81.5 219t-221.5 82z" />
    <glyph glyph-name="seven" unicode="7" 
d="M225 0l879 1376h-717l25 137h872l-24 -137l-875 -1376h-160z" />
    <glyph glyph-name="eight" unicode="8" 
d="M500 846q-36 24 -54.5 40.5t-33.5 39.5q-39 62 -39 151q0 35 6 72q31 167 167 279t308 112q153 0 244.5 -84.5t91.5 -224.5q0 -43 -8 -82q-22 -113 -79 -186.5t-157 -116.5q195 -94 195 -307q0 -33 -11 -93q-38 -207 -196 -340t-365 -133q-183 0 -296 106t-113 273
q0 47 8 88q25 136 111 241t221 165zM707 768q-143 0 -252.5 -93t-137.5 -239q-6 -34 -6 -65q0 -116 76.5 -188t204.5 -72q143 0 251 92.5t136 238.5q6 38 6 70q0 117 -74.5 186.5t-203.5 69.5zM823 1403q-107 0 -189 -69t-102 -175q-4 -16 -4 -49q0 -90 58.5 -145.5
t154.5 -55.5q104 0 187.5 71t103.5 177q4 18 4 53q0 88 -57 140.5t-156 52.5z" />
    <glyph glyph-name="nine" unicode="9" 
d="M528 0h-174l455 526q-96 -43 -184 -43q-177 0 -287.5 117t-110.5 299q0 37 11 105q43 233 215 384.5t393 151.5q195 0 315.5 -117t120.5 -303q0 -44 -10 -106q-22 -114 -74.5 -204t-191.5 -253zM817 1403q-154 0 -275 -111.5t-153 -281.5q-8 -41 -8 -86
q0 -136 81.5 -219.5t217.5 -83.5q157 0 282 111t156 278q8 39 8 84q0 138 -84.5 223.5t-224.5 85.5z" />
    <glyph glyph-name="colon" unicode=":" horiz-adv-x="567" 
d="M207 0l47 258h152l-48 -258h-151zM352 780l47 258h152l-47 -258h-152z" />
    <glyph glyph-name="semicolon" unicode=";" horiz-adv-x="567" 
d="M59 -137l252 395h152l-252 -395h-152zM401 780l48 258h151l-47 -258h-152z" />
    <glyph glyph-name="less" unicode="&#x3c;" horiz-adv-x="1241" 
d="M1358 1157l-31 -160l-891 -383l750 -378l-29 -160l-954 473l24 133z" />
    <glyph glyph-name="equal" unicode="=" horiz-adv-x="1241" 
d="M1303 893l-29 -152h-1032l28 152h1033zM1227 487l-29 -151h-1032l29 151h1032z" />
    <glyph glyph-name="greater" unicode="&#x3e;" horiz-adv-x="1241" 
d="M113 76l28 160l895 382l-753 379l30 160l955 -473l-25 -133z" />
    <glyph glyph-name="question" unicode="?" horiz-adv-x="1210" 
d="M535 0l47 258h151l-47 -258h-151zM469 1040h-143q22 104 52 170.5t83 128.5q85 97 197 149t239 52q176 0 282.5 -98.5t106.5 -257.5q0 -47 -8 -88q-19 -100 -74.5 -178t-173.5 -170q-132 -100 -193 -178t-81 -175h-144q25 126 89.5 219t201.5 199q121 97 166 154.5
t59 132.5q5 25 5 61q0 108 -71.5 175t-189.5 67q-96 0 -181.5 -44t-139.5 -122q-44 -61 -82 -197z" />
    <glyph glyph-name="at" unicode="@" horiz-adv-x="1775" 
d="M1561 1176l-295 -570q-9 -17 -23 -45q-41 -83 -45 -103q-1 -4 -2 -9q0 -2 -1 -5.5t-1 -5.5q0 -22 15.5 -34.5t41.5 -12.5q40 0 94.5 26.5t108.5 71.5q94 79 156 182.5t84 217.5q10 55 10 98q0 198 -141.5 323.5t-370.5 125.5q-182 0 -354.5 -91.5t-292.5 -249
t-154 -341.5q-12 -64 -12 -127q0 -238 157.5 -394.5t405.5 -156.5q282 0 518 207l68 -68q-119 -113 -280.5 -177.5t-327.5 -64.5q-142 0 -263.5 48t-206 131.5t-132.5 200.5t-48 251q0 72 15 148q30 161 118.5 307t212 251.5t279.5 167.5t315 62q135 0 254 -45.5t201 -128.5
q143 -143 143 -356q0 -58 -12 -123q-26 -140 -102.5 -264t-194.5 -217q-151 -121 -291 -121q-73 0 -110 27t-49 89q-67 -57 -129 -81.5t-134 -24.5q-107 0 -170 63.5t-63 169.5q0 32 6 70q21 115 85 228t148.5 198t186.5 137.5t195 52.5q98 0 155 -45q21 -15 32.5 -36
t20.5 -60l54 103h125zM1153 1104q-85 0 -181 -73t-169.5 -190.5t-95.5 -238.5q-5 -20 -5 -47q0 -65 35.5 -103t98.5 -38q72 0 138 46.5t140 147.5q61 85 109.5 181.5t58.5 156.5q2 12 2 37q0 57 -34 89t-97 32z" />
    <glyph glyph-name="A" unicode="A" horiz-adv-x="1515" 
d="M23 0l929 1513h170l371 -1513h-166l-125 510h-704l-316 -510h-159zM582 647h587l-163 694z" />
    <glyph glyph-name="B" unicode="B" horiz-adv-x="1175" 
d="M156 0l280 1513h355q137 0 223.5 -21t142.5 -67q88 -76 88 -217q0 -36 -10 -88q-22 -114 -75.5 -189t-149.5 -124q100 -44 147 -111.5t47 -165.5q0 -38 -10 -96q-22 -117 -84.5 -210.5t-151.5 -143.5q-80 -43 -178.5 -61.5t-249.5 -18.5h-374zM332 137h207q223 0 338 56
q59 28 104.5 92t58.5 141q7 44 7 68q0 75 -34.5 127.5t-97.5 74.5q-91 29 -292 29h-181zM467 862h184q102 0 162 8.5t113 30.5q61 26 101 82.5t54 134.5q6 30 6 62q0 101 -55 143q-36 29 -102.5 41t-184.5 12h-182z" />
    <glyph glyph-name="C" unicode="C" horiz-adv-x="1665" 
d="M1483 397h168q-306 -424 -770 -424q-297 0 -481.5 176t-184.5 453q0 79 14 150q41 223 176 403.5t333.5 282.5t420.5 102q235 0 401.5 -112.5t217.5 -307.5h-170q-30 70 -61 110.5t-79 74.5q-134 96 -327 96q-178 0 -340 -84t-272 -231.5t-144 -327.5q-12 -62 -12 -119
q0 -148 67 -268t188.5 -189t274.5 -69q219 0 408 131q82 58 172 153z" />
    <glyph glyph-name="D" unicode="D" horiz-adv-x="1523" 
d="M156 0l280 1513h357q213 0 342.5 -29.5t226.5 -99.5q227 -160 227 -464q0 -74 -16 -168q-40 -217 -164.5 -383.5t-321.5 -264.5q-207 -104 -524 -104h-407zM332 137h211q207 0 343 34t242 112q115 85 191 208t102 267q13 73 13 129q0 130 -53.5 233.5t-151.5 165.5
q-74 47 -181.5 68.5t-273.5 21.5h-211z" />
    <glyph glyph-name="E" unicode="E" horiz-adv-x="1097" 
d="M156 0l280 1513h828l-25 -137h-676l-102 -542h653l-24 -138h-654l-104 -559h676l-25 -137h-827z" />
    <glyph glyph-name="F" unicode="F" horiz-adv-x="993" 
d="M156 0l280 1513h768l-24 -137h-617l-102 -547h594l-25 -137h-594l-129 -692h-151z" />
    <glyph glyph-name="G" unicode="G" horiz-adv-x="1785" 
d="M803 698h1028q-67 -274 -299 -481q-265 -244 -623 -244q-203 0 -361 82.5t-244.5 228.5t-86.5 330q0 77 14 146q30 162 119.5 306.5t215.5 248.5t286 164.5t326 60.5q247 0 422 -118t215 -312h-170q-52 138 -178.5 214.5t-301.5 76.5q-185 0 -352.5 -84.5t-281.5 -232.5
t-148 -328q-10 -51 -10 -119q0 -229 154.5 -376.5t400.5 -147.5q279 0 495 188q142 125 201 260h-846z" />
    <glyph glyph-name="H" unicode="H" horiz-adv-x="1398" 
d="M156 0l280 1513h152l-123 -665h784l123 665h152l-281 -1513h-151l131 711h-785l-131 -711h-151z" />
    <glyph glyph-name="I" unicode="I" horiz-adv-x="462" 
d="M156 0l280 1513h152l-281 -1513h-151z" />
    <glyph glyph-name="J" unicode="J" horiz-adv-x="987" 
d="M1112 1513l-192 -1040q-44 -244 -172.5 -373t-325.5 -129q-162 0 -250 82t-88 232q0 48 4 73h150q-2 -14 -2 -41q0 -97 57 -151.5t158 -54.5q249 0 317 362l193 1040h151z" />
    <glyph glyph-name="K" unicode="K" horiz-adv-x="1210" 
d="M156 0l280 1513h152l-162 -870l862 870h191l-736 -737l455 -776h-190l-383 655l-242 -241l-76 -414h-151z" />
    <glyph glyph-name="L" unicode="L" horiz-adv-x="946" 
d="M156 0l280 1513h152l-256 -1376h626l-24 -137h-778z" />
    <glyph glyph-name="M" unicode="M" horiz-adv-x="1882" 
d="M156 0l280 1513h236l311 -1288l789 1288h235l-281 -1513h-151l250 1348l-819 -1348h-132l-317 1348l-250 -1348h-151z" />
    <glyph glyph-name="N" unicode="N" horiz-adv-x="1515" 
d="M156 0l280 1513h205l614 -1255l234 1255h151l-280 -1513h-152l-655 1331l-246 -1331h-151z" />
    <glyph glyph-name="O" unicode="O" horiz-adv-x="1779" 
d="M1186 1540q140 0 263 -49.5t209 -135.5t135.5 -205.5t49.5 -254.5q0 -57 -14 -139q-39 -211 -179.5 -391.5t-344 -286t-418.5 -105.5q-144 0 -269 49.5t-213 135.5t-138 205.5t-50 254.5q0 68 12 138q39 214 180.5 394.5t348 285t428.5 104.5zM1143 1401q-170 0 -334 -88
t-279 -237t-147 -320q-10 -49 -10 -115q0 -226 152 -377t386 -151q173 0 337.5 86.5t279.5 234.5t147 320q13 67 13 118q0 228 -153 378.5t-392 150.5z" />
    <glyph glyph-name="P" unicode="P" horiz-adv-x="1212" 
d="M156 0l280 1513h418q147 0 236.5 -18t152.5 -61q121 -80 121 -267q0 -53 -12 -112q-22 -115 -77 -204.5t-138 -143.5q-78 -51 -175.5 -73t-250.5 -22h-291l-113 -612h-151zM446 750h281q203 0 299 51q66 32 111.5 99t62.5 157q8 39 8 82q0 160 -125 204q-90 33 -305 33
h-215z" />
    <glyph glyph-name="Q" unicode="Q" horiz-adv-x="1783" 
d="M1714 115l-24 -142q-107 2 -176.5 31t-133.5 100q-221 -131 -477 -131q-150 0 -278 48.5t-217.5 133.5t-140 203.5t-50.5 255.5q0 72 12 142q41 221 181 401t346.5 281.5t437.5 101.5q202 0 357 -80t239 -223t84 -326q0 -77 -14 -151q-66 -355 -359 -570q92 -77 182 -77
q17 0 31 2zM412 442q52 -149 194 -239t322 -90q185 0 350 92q-136 150 -281 215t-340 65q-130 0 -245 -43zM373 571q173 54 334 54q321 0 546 -185q77 -68 158 -149q246 202 295 469q10 51 10 121q0 228 -152.5 374t-398.5 146q-185 0 -352.5 -86t-282 -237t-149.5 -335
q-10 -51 -10 -116q0 -7 1 -26t1 -30z" />
    <glyph glyph-name="R" unicode="R" horiz-adv-x="1243" 
d="M840 565l319 -565h-188l-383 686q244 0 354 29q230 64 277 315q8 39 8 80q0 151 -113 211q-104 55 -338 55h-213l-256 -1376h-151l280 1513h375q295 0 420 -77q151 -100 151 -299q0 -44 -10 -109q-37 -203 -173 -321.5t-359 -141.5z" />
    <glyph glyph-name="S" unicode="S" horiz-adv-x="1019" 
d="M123 424h162q-2 -20 -2 -55q0 -89 41 -150q32 -51 90 -78.5t129 -27.5q130 0 229.5 85t124.5 216q6 30 6 59q0 103 -67 158q-65 51 -218 98q-124 41 -172.5 66.5t-85.5 68.5q-63 69 -63 193q0 35 6 76q34 178 173.5 292.5t322.5 114.5q164 0 260 -89.5t96 -240.5
q0 -22 -8 -80h-158q4 32 4 46q0 103 -59.5 164t-163.5 61q-114 0 -201.5 -74.5t-109.5 -189.5q-4 -32 -4 -47q0 -80 43 -129q26 -26 67 -45t137 -50q108 -35 163.5 -60.5t97.5 -60.5q98 -86 98 -239q0 -45 -8 -84q-35 -193 -188.5 -321t-350.5 -128q-184 0 -289.5 101
t-105.5 274q0 49 4 76z" />
    <glyph glyph-name="T" unicode="T" horiz-adv-x="872" 
d="M360 0l256 1376h-346l25 137h844l-25 -137h-346l-256 -1376h-152z" />
    <glyph glyph-name="U" unicode="U" horiz-adv-x="1341" 
d="M436 1513h152l-174 -944q-19 -112 -19 -161q0 -86 29 -152q31 -66 102.5 -104.5t163.5 -38.5q94 0 180 38.5t142 104.5q92 113 129 313l174 944h151l-174 -944q-28 -145 -70.5 -239t-113.5 -170q-85 -89 -200 -138t-242 -49q-126 0 -225 49t-150 138t-51 213q0 77 22 196
z" />
    <glyph glyph-name="V" unicode="V" horiz-adv-x="1437" 
d="M643 0l-342 1513h166l287 -1325l780 1325h164l-907 -1513h-148z" />
    <glyph glyph-name="W" unicode="W" horiz-adv-x="1966" 
d="M453 0l-152 1513h156l129 -1316l606 1316h143l119 -1316l617 1316h155l-715 -1513h-194l-107 1241l-561 -1241h-196z" />
    <glyph glyph-name="X" unicode="X" horiz-adv-x="1247" 
d="M16 0l658 774l-348 739h178l289 -606l512 606h176l-623 -739l373 -774h-178l-308 647l-550 -647h-179z" />
    <glyph glyph-name="Y" unicode="Y" horiz-adv-x="1212" 
d="M528 0l95 506l-338 1007h168l272 -847l598 847h166l-715 -1007l-94 -506h-152z" />
    <glyph glyph-name="Z" unicode="Z" horiz-adv-x="983" 
d="M35 0l24 137l975 1239h-721l25 137h891l-25 -137l-973 -1239h764l-24 -137h-936z" />
    <glyph glyph-name="bracketleft" unicode="[" horiz-adv-x="718" 
d="M623 -102l-29 -154q-163 49 -250 178q-72 107 -72 240q0 70 19 174l115 610q49 270 237 422q68 57 133 91t146 54l-29 -153q-163 -66 -239.5 -163t-110.5 -279l-103 -556q-18 -94 -18 -167q0 -109 47 -177t154 -120z" />
    <glyph glyph-name="backslash" unicode="\" horiz-adv-x="1239" 
d="M950 0h-143l-354 1513h143z" />
    <glyph glyph-name="bracketright" unicode="]" horiz-adv-x="718" 
d="M330 1360l28 153q162 -48 250 -176q70 -101 70 -241q0 -70 -19 -174l-112 -609q-26 -139 -83 -241t-155 -183q-67 -57 -131 -90t-147 -55l28 154q163 68 240 164.5t111 277.5l102 557q18 95 18 166q0 109 -46.5 177t-153.5 120z" />
    <glyph glyph-name="asciicircum" unicode="^" horiz-adv-x="1241" 
d="M1272 369h-166l-234 983l-602 -983h-166l711 1144h174z" />
    <glyph glyph-name="underscore" unicode="_" horiz-adv-x="1024" 
d="M-25 -137h1024l-22 -119h-1024z" />
    <glyph glyph-name="grave" unicode="`" horiz-adv-x="774" 
d="M512 1589l362 -225l-88 -115l-362 221z" />
    <glyph glyph-name="a" unicode="a" horiz-adv-x="1398" 
d="M1477 1120l-207 -1120h-152l37 197q-110 -120 -219.5 -172t-251.5 -52q-227 0 -366.5 130.5t-139.5 338.5q0 66 10 115q30 165 132.5 300.5t252.5 212.5t316 77q146 0 241 -53.5t158 -171.5l37 198h152zM860 1008q-180 0 -331 -130.5t-185 -314.5q-8 -39 -8 -86
q0 -159 103.5 -261.5t267.5 -102.5q183 0 332 130t184 320q8 41 8 88q0 158 -102.5 257.5t-268.5 99.5z" />
    <glyph glyph-name="b" unicode="b" horiz-adv-x="1396" 
d="M129 0l281 1513h151l-108 -585q92 106 216 162.5t265 56.5q218 0 354.5 -133t136.5 -340q0 -48 -10 -113q-30 -166 -132 -300.5t-251.5 -211t-316.5 -76.5q-138 0 -243.5 58t-156.5 162l-34 -193h-152zM897 1008q-186 0 -336.5 -130t-185.5 -319q-8 -39 -8 -84
q0 -157 102.5 -259.5t265.5 -102.5q190 0 341 128.5t186 321.5q8 41 8 92q0 158 -102 255.5t-271 97.5z" />
    <glyph glyph-name="c" unicode="c" horiz-adv-x="1325" 
d="M1135 330h172q-66 -91 -115.5 -142.5t-112.5 -93.5q-177 -121 -387 -121q-227 0 -369.5 135t-142.5 345q0 45 10 110q29 160 133.5 294.5t257.5 212t318 77.5q190 0 321.5 -99t168.5 -268h-170q-44 110 -134 169t-215 59q-187 0 -339 -130t-187 -319q-8 -39 -8 -84
q0 -158 104.5 -260t270.5 -102q120 0 217.5 50t206.5 167z" />
    <glyph glyph-name="d" unicode="d" horiz-adv-x="1402" 
d="M1554 1513l-280 -1513h-152l37 203q-109 -122 -218 -176t-249 -54q-229 0 -371.5 132.5t-142.5 340.5q0 49 10 111q30 165 133 300.5t254.5 212.5t319.5 77q268 0 401 -205l107 571h151zM858 1008q-180 0 -330 -130.5t-184 -316.5q-8 -39 -8 -84q0 -158 105 -261
t272 -103q180 0 333 132t187 318q8 39 8 82q0 158 -107 260.5t-276 102.5z" />
    <glyph glyph-name="e" unicode="e" horiz-adv-x="1331" 
d="M1346 510h-1014q-2 -16 -2 -51q0 -149 102.5 -247.5t261.5 -98.5q128 0 249 70.5t190 185.5h157q-94 -177 -263.5 -286.5t-352.5 -109.5q-218 0 -356 135.5t-138 344.5q0 47 10 112q29 160 131 294t250 211t308 77q166 0 289.5 -82t170.5 -223q27 -86 27 -156
q0 -59 -20 -176zM362 647h859q-7 167 -106.5 264t-262.5 97q-160 0 -295 -100t-195 -261z" />
    <glyph glyph-name="f" unicode="f" horiz-adv-x="643" 
d="M207 0l182 983h-174l25 137h174q37 199 162 296t342 97l-25 -137q-156 0 -229 -57t-99 -199h279l-25 -137h-278l-183 -983h-151z" />
    <glyph glyph-name="g" unicode="g" horiz-adv-x="1378" 
d="M1456 1120l-170 -919q-31 -164 -73 -264t-113 -177q-91 -97 -218.5 -148.5t-273.5 -51.5q-212 0 -337 104t-150 301h147q26 -70 42.5 -101.5t41.5 -58.5q100 -106 279 -106q130 0 235 53t168 150q65 101 92 250l15 75q-91 -129 -207 -191.5t-268 -62.5q-217 0 -352.5 132
t-135.5 337q0 48 10 113q31 168 130.5 303.5t244.5 212t307 76.5q143 0 239 -54t159 -171l37 198h151zM842 1008q-177 0 -320 -126.5t-178 -314.5q-8 -44 -8 -96q0 -159 97 -258.5t257 -99.5q183 0 330 131.5t184 326.5q8 41 8 88q0 156 -101.5 252.5t-268.5 96.5z" />
    <glyph glyph-name="h" unicode="h" horiz-adv-x="1249" 
d="M129 0l281 1513h151l-100 -538q72 83 172.5 127.5t214.5 44.5q123 0 216 -45t140 -127q45 -80 45 -201q0 -73 -18 -172l-111 -602h-151l110 602q15 74 15 131q0 99 -41 160q-35 54 -100.5 84.5t-143.5 30.5q-88 0 -171 -39t-140 -107q-39 -45 -62 -101.5t-41 -146.5
l-114 -614h-152z" />
    <glyph glyph-name="i" unicode="i" horiz-adv-x="409" 
d="M129 0l207 1120h151l-206 -1120h-152zM362 1255l48 258h151l-47 -258h-152z" />
    <glyph glyph-name="j" unicode="j" horiz-adv-x="415" 
d="M494 1120l-193 -1042q-31 -168 -79.5 -254t-147.5 -148q-104 -63 -240 -69l29 145q129 7 192 79t95 247l192 1042h152zM369 1255l47 258h151l-47 -258h-151z" />
    <glyph glyph-name="k" unicode="k" horiz-adv-x="1028" 
d="M129 0l281 1513h151l-199 -1073l648 680h186l-541 -563l363 -557h-189l-288 449l-217 -218l-43 -231h-152z" />
    <glyph glyph-name="l" unicode="l" horiz-adv-x="409" 
d="M129 0l281 1513h151l-280 -1513h-152z" />
    <glyph glyph-name="m" unicode="m" horiz-adv-x="1921" 
d="M129 0l207 1120h151l-22 -129q82 85 160 120.5t184 35.5q128 0 205 -50.5t121 -164.5q92 112 195 163.5t233 51.5q114 0 199 -43t128 -123q41 -74 41 -172q0 -58 -16 -143l-123 -666h-152l121 649q13 73 13 119q0 81 -33 139q-28 47 -84 74t-127 27q-81 0 -156.5 -36.5
t-128.5 -99.5q-62 -77 -88 -223l-121 -649h-151l121 653q12 65 12 115q0 84 -41 143q-32 46 -87 71.5t-122 25.5q-141 0 -238.5 -94t-128.5 -261l-120 -653h-152z" />
    <glyph glyph-name="n" unicode="n" horiz-adv-x="1249" 
d="M129 0l207 1120h151l-26 -145q172 172 393 172q118 0 207.5 -44.5t140.5 -129.5q47 -81 47 -195q0 -81 -20 -190l-109 -588h-151l108 588q17 100 17 151q0 92 -39 154q-35 55 -99.5 85t-146.5 30q-92 0 -175 -38t-140 -106q-38 -45 -60 -100.5t-39 -147.5l-114 -616h-152
z" />
    <glyph glyph-name="o" unicode="o" horiz-adv-x="1341" 
d="M893 1147q215 0 346 -131t131 -338q0 -60 -12 -121q-46 -252 -238.5 -418t-439.5 -166q-225 0 -363.5 131.5t-138.5 339.5q0 56 12 115q23 126 88 235t157.5 186.5t211.5 122t246 44.5zM854 1008q-184 0 -330.5 -128.5t-181.5 -322.5q-8 -41 -8 -90q0 -158 100 -256
t266 -98q185 0 327 124.5t177 317.5q10 58 10 98q0 159 -98 257t-262 98z" />
    <glyph glyph-name="p" unicode="p" horiz-adv-x="1396" 
d="M336 1120h151l-34 -192q185 219 481 219q220 0 355.5 -132.5t135.5 -340.5q0 -66 -10 -115q-23 -122 -88.5 -230.5t-159 -186.5t-212 -123.5t-242.5 -45.5q-140 0 -242 56.5t-156 163.5l-108 -586h-152zM895 1008q-184 0 -334.5 -130t-185.5 -319q-8 -41 -8 -86
q0 -158 102 -259t266 -101q189 0 339.5 126.5t185.5 315.5q10 55 10 94q0 161 -103 260t-272 99z" />
    <glyph glyph-name="q" unicode="q" horiz-adv-x="1396" 
d="M1475 1120l-281 -1513h-152l109 586q-192 -220 -475 -220q-221 0 -359.5 134.5t-138.5 341.5q0 32 12 110q30 164 132.5 299t252 212t314.5 77q145 0 246.5 -56t152.5 -163l35 192h152zM864 1008q-187 0 -337 -129.5t-185 -321.5q-8 -41 -8 -88q0 -158 101.5 -257
t266.5 -99q189 0 341.5 128.5t187.5 317.5q8 41 8 88q0 159 -103.5 260t-271.5 101z" />
    <glyph glyph-name="r" unicode="r" horiz-adv-x="616" 
d="M129 0l207 1120h151l-28 -159q61 92 145 136t207 50l-29 -150q-322 -30 -381 -344l-120 -653h-152z" />
    <glyph glyph-name="s" unicode="s" horiz-adv-x="794" 
d="M98 330h150q-4 -32 -4 -45q0 -83 44.5 -127.5t129.5 -44.5q83 0 146.5 54.5t78.5 139.5q4 16 4 45q0 53 -39 89t-143 81q-111 51 -134 64t-52 45q-52 58 -52 143q0 37 4 57q25 136 132 226t245 90q121 0 191.5 -67.5t70.5 -180.5q0 -19 -4 -55h-153q2 10 2 30
q0 65 -34.5 99.5t-100.5 34.5q-68 0 -123.5 -47.5t-67.5 -114.5q-4 -20 -4 -31q0 -72 80 -119q9 -4 26 -12t57 -26.5t109 -49.5q148 -67 148 -217q0 -31 -6 -69q-29 -154 -141.5 -251.5t-264.5 -97.5q-142 0 -222.5 74.5t-80.5 204.5q0 24 8 78z" />
    <glyph glyph-name="t" unicode="t" horiz-adv-x="694" 
d="M266 0l183 983h-242l24 137h242l74 393h151l-73 -393h252l-25 -137h-252l-182 -983h-152z" />
    <glyph glyph-name="u" unicode="u" horiz-adv-x="1245" 
d="M1323 1120l-207 -1120h-151l32 174q-77 -104 -172 -152.5t-225 -48.5t-222 48.5t-136 140.5q-37 70 -37 172q0 65 20 182l111 604h151l-110 -604q-17 -90 -17 -145q0 -71 23 -125q28 -63 94.5 -98t157.5 -35q185 0 309 139q86 102 121 293l106 575h152z" />
    <glyph glyph-name="v" unicode="v" 
d="M487 0l-264 1120h154l219 -942l575 942h154l-678 -1120h-160z" />
    <glyph glyph-name="w" unicode="w" horiz-adv-x="1701" 
d="M442 0l-221 1120h152l182 -938l414 801h125l114 -801l539 938h147l-641 -1120h-161l-107 743l-379 -743h-164z" />
    <glyph glyph-name="x" unicode="x" horiz-adv-x="983" 
d="M16 0l496 571l-289 549h172l223 -432l381 432h175l-492 -549l285 -571h-174l-218 449l-387 -449h-172z" />
    <glyph glyph-name="y" unicode="y" horiz-adv-x="1097" 
d="M197 -393l262 430l-234 1083h166l191 -893l542 893h162l-928 -1513h-161z" />
    <glyph glyph-name="z" unicode="z" horiz-adv-x="870" 
d="M20 0l25 137l776 846h-598l25 137h770l-23 -129l-772 -854h651l-24 -137h-830z" />
    <glyph glyph-name="braceleft" unicode="{" horiz-adv-x="718" 
d="M373 627l35 -13q60 -25 85 -58.5t25 -92.5q0 -32 -10 -90l-66 -348q-6 -35 -6 -56q0 -44 26.5 -63t90.5 -25l22 -2l-24 -137q-102 1 -142 9.5t-73 33.5q-60 45 -60 145q0 45 9 97l65 348q8 39 8 71q0 51 -30 74t-107 37l27 141q103 17 141 52.5t55 130.5l64 348
q34 181 139 241q41 24 84 32t148 11l-25 -137q-95 -9 -117 -20q-51 -25 -71 -125l-64 -348q-20 -107 -61 -159.5t-129 -82.5q-28 -9 -39 -14z" />
    <glyph glyph-name="bar" unicode="|" horiz-adv-x="1376" 
d="M1034 1513l-280 -1513h-131l280 1513h131z" />
    <glyph glyph-name="braceright" unicode="}" horiz-adv-x="712" 
d="M580 627l-35 14q-60 25 -85.5 59t-25.5 93q0 32 10 90l64 348q1 5 2.5 15t2.5 18t1 14q0 45 -14 65q-15 23 -103 31l-20 2l24 137q120 -3 168.5 -17.5t79.5 -57.5q27 -42 27 -113q0 -38 -10 -96l-64 -348q-8 -39 -8 -74q0 -50 29 -73.5t102 -35.5l-29 -141
q-99 -17 -135 -51.5t-53 -130.5l-66 -348q-31 -168 -114 -228q-45 -33 -95 -44.5t-159 -12.5l24 137l23 2q58 5 83 13t40 28q28 36 41 103l65 348q20 106 61 157.5t130 83.5z" />
    <glyph glyph-name="asciitilde" unicode="~" horiz-adv-x="1241" 
d="M1194 799l74 -97q-72 -104 -162 -166.5t-168 -62.5q-69 0 -180 53l-105 45q-62 28 -86.5 35.5t-54.5 7.5q-82 0 -150 -71q-27 -29 -92 -113l-67 96q99 133 176 189.5t162 56.5q67 0 149 -39l123 -55q64 -28 95 -37.5t61 -9.5q50 0 103 39.5t122 128.5z" />
    <glyph glyph-name="uni00A0" unicode="&#xa0;" horiz-adv-x="567" 
 />
    <glyph glyph-name="exclamdown" unicode="&#xa1;" horiz-adv-x="604" 
d="M154 -393l206 1114h152l-207 -1114h-151zM387 862l47 258h152l-47 -258h-152z" />
    <glyph glyph-name="cent" unicode="&#xa2;" 
d="M553 127l35 182q-162 13 -260.5 119t-98.5 264q0 44 9 90q35 192 181.5 323.5t344.5 151.5l35 191h135l-35 -191q129 -19 213.5 -101t106.5 -208h-170q-65 172 -263 172q-145 0 -258 -95.5t-139 -240.5q-6 -34 -6 -65q0 -119 77 -197t199 -78q84 0 157.5 35t158.5 115
h166q-63 -112 -177.5 -190t-240.5 -95l-35 -182h-135z" />
    <glyph glyph-name="sterling" unicode="&#xa3;" 
d="M121 0l24 137h285q104 94 131 238q8 54 8 76q0 63 -31.5 118.5t-111.5 141.5h-258l27 137h153q-16 78 -16 119t8 82q40 215 200 353t371 138q195 0 312.5 -107.5t117.5 -285.5q0 -6 -1 -19.5t-1 -19.5h-141q-4 139 -86 217t-223 78q-148 0 -258 -97.5t-139 -254.5
q-9 -43 -9 -76q0 -50 29 -127h582l-27 -137h-440q94 -129 94 -260q0 -24 -8 -74q-18 -103 -105 -240h117q185 0 285 80q50 41 86.5 104.5t48.5 127.5q6 34 6 77v23h147q2 -18 2 -47q0 -28 -6 -66q-20 -106 -81.5 -198.5t-149.5 -149.5q-137 -88 -358 -88h-584z" />
    <glyph glyph-name="currency" unicode="&#xa4;" 
d="M248 1012l133 110l72 -86q92 53 164 75t157 22q173 0 291 -95l104 86l91 -112l-101 -86q47 -94 47 -201q0 -62 -10 -111q-34 -184 -154 -301l72 -86l-131 -108l-68 86q-100 -58 -171.5 -80.5t-159.5 -22.5t-151.5 23t-135.5 80l-102 -86l-89 110l99 84q-47 87 -47 197
q0 62 10 111q17 91 53.5 163t100.5 142zM748 989q-155 0 -280.5 -106.5t-154.5 -264.5q-6 -38 -6 -73q0 -131 85.5 -213t225.5 -82q155 0 279.5 105.5t153.5 262.5q8 54 8 80q0 133 -83.5 212t-227.5 79z" />
    <glyph glyph-name="yen" unicode="&#xa5;" 
d="M532 0l91 485h-430l24 138h375l-66 188h-288l26 137h215l-198 565h155l297 -843l598 843h156l-404 -565h211l-26 -137h-285l-133 -188h369l-25 -138h-422l-90 -485h-150z" />
    <glyph glyph-name="brokenbar" unicode="&#xa6;" horiz-adv-x="1376" 
d="M1034 1513l-112 -604h-131l112 604h131zM866 604l-112 -604h-131l112 604h131z" />
    <glyph glyph-name="section" unicode="&#xa7;" horiz-adv-x="1259" 
d="M1219 1241h-146q-3 162 -184 162q-94 0 -163.5 -54t-84.5 -139q-4 -24 -4 -34q0 -91 92 -142l295 -151q174 -91 174 -238q0 -35 -4 -53q-15 -84 -69.5 -160t-141.5 -133q64 -82 64 -166q0 -22 -7 -57q-29 -157 -157.5 -261t-294.5 -104q-160 0 -256 94.5t-96 249.5
q0 35 6 76h139q-2 -14 -2 -43q0 -110 62.5 -175t170.5 -65q104 0 187 64.5t100 159.5q4 20 4 30q0 50 -37.5 92t-120.5 87l-266 143q-97 53 -137.5 101.5t-40.5 113.5q0 25 6 55q34 188 234 312q-47 64 -47 137q0 29 6 63q26 145 143.5 239.5t269.5 94.5q139 0 223.5 -73.5
t84.5 -192.5q0 -21 -2 -33zM958 748l-352 182q-60 -37 -102.5 -94.5t-52.5 -118.5q-2 -10 -2 -29q0 -72 86 -119l368 -196q57 37 97.5 91t50.5 109q4 24 4 35q0 92 -97 140z" />
    <glyph glyph-name="dieresis" unicode="&#xa8;" horiz-adv-x="755" 
d="M436 1534h152l-49 -258h-152zM737 1534h152l-49 -258h-152z" />
    <glyph glyph-name="copyright" unicode="&#xa9;" horiz-adv-x="1529" 
d="M1124 535h154q-82 -109 -198 -170.5t-242 -61.5q-162 0 -266.5 107t-104.5 268q0 45 8 84q35 190 191 322.5t344 132.5q129 0 221 -62t135 -178h-152q-79 125 -223 125q-135 0 -250 -99.5t-141 -240.5q-6 -35 -6 -64q0 -119 76 -199.5t192 -80.5q142 0 262 117z
M1059 1540q184 0 331 -84.5t228.5 -231t81.5 -325.5q0 -57 -14 -143q-39 -213 -177 -393t-337.5 -285t-411.5 -105q-141 0 -263 49t-206.5 133.5t-133 203t-48.5 253.5q0 70 12 144q40 216 178.5 396t340 284t419.5 104zM1022 1434q-177 0 -346 -91.5t-287.5 -248
t-152.5 -338.5q-11 -59 -11 -125q0 -237 155.5 -394t397.5 -157q181 0 351.5 90.5t289 246t152.5 339.5q12 68 12 129q0 238 -156.5 393.5t-404.5 155.5z" />
    <glyph glyph-name="ordfeminine" unicode="&#xaa;" horiz-adv-x="755" 
d="M963 1513l-111 -595h-98l16 92q-57 -57 -110 -82t-119 -25q-111 0 -183.5 74t-72.5 184q0 38 4 56q23 128 131 218.5t237 90.5q63 0 117 -29.5t74 -75.5l16 92h99zM639 1425q-80 0 -153.5 -63t-88.5 -145q-4 -24 -4 -37q0 -73 49.5 -124.5t120.5 -51.5q80 0 152.5 62.5
t87.5 145.5q4 28 4 41q0 74 -47.5 123t-120.5 49zM205 758h631l-21 -105h-631z" />
    <glyph glyph-name="guillemotleft" unicode="&#xab;" horiz-adv-x="870" 
d="M350 203l-153 411l305 408l110 -66l-256 -342l127 -344zM705 203l-158 411l309 408l111 -66l-256 -342l127 -344z" />
    <glyph glyph-name="logicalnot" unicode="&#xac;" horiz-adv-x="1241" 
d="M270 893h1033l-111 -590h-148l82 440h-884z" />
    <glyph glyph-name="uni00AD" unicode="&#xad;" horiz-adv-x="679" 
d="M176 606h555l-24 -129h-555z" />
    <glyph glyph-name="registered" unicode="&#xae;" horiz-adv-x="1529" 
d="M1145 322h-156l-219 413l-78 -413h-125l162 876h270q162 0 224 -74q47 -56 47 -147q0 -29 -6 -59q-44 -234 -306 -269zM772 748h90q119 0 188.5 43.5t84.5 126.5q4 20 4 32q0 60 -45 94.5t-123 34.5h-137zM1059 1540q184 0 331 -84.5t228.5 -231t81.5 -325.5
q0 -57 -14 -143q-39 -213 -177 -393t-337.5 -285t-411.5 -105q-141 0 -263 49t-206.5 133.5t-133 203t-48.5 253.5q0 70 12 144q40 216 178.5 396t340 284t419.5 104zM1022 1434q-177 0 -346 -91.5t-287.5 -248t-152.5 -338.5q-11 -59 -11 -125q0 -237 155.5 -394
t397.5 -157q181 0 351.5 90.5t289 246t152.5 339.5q12 68 12 129q0 238 -156.5 393.5t-404.5 155.5z" />
    <glyph glyph-name="macron" unicode="&#xaf;" horiz-adv-x="993" 
d="M420 1448h690l-25 -131h-690z" />
    <glyph glyph-name="degree" unicode="&#xb0;" horiz-adv-x="819" 
d="M678 1405q110 0 179 -70.5t69 -179.5q0 -29 -6 -63q-25 -132 -131.5 -223t-235.5 -91q-113 0 -183.5 72t-70.5 182q0 32 6 62q25 131 132.5 221t240.5 90zM649 1288q-79 0 -146.5 -58t-82.5 -138q-4 -24 -4 -37q0 -68 44.5 -114t114.5 -46q80 0 146.5 57t81.5 140
q4 24 4 38q0 69 -44 113.5t-114 44.5z" />
    <glyph glyph-name="plusminus" unicode="&#xb1;" horiz-adv-x="1241" 
d="M682 756l82 442h158l-82 -442h436l-27 -152h-436l-65 -350h-158l65 350h-438l27 152h438zM1165 152l-28 -152h-1033l29 152h1032z" />
    <glyph glyph-name="uni00B2" unicode="&#xb2;" horiz-adv-x="679" 
d="M133 590l21 104l391 307q88 69 129 107q77 74 88 137q2 10 2 29q0 61 -45 102t-113 41q-60 0 -114 -33t-82 -86q-22 -40 -33 -104h-123l4 25q28 140 131 225.5t244 85.5q113 0 185.5 -68t72.5 -170q0 -27 -6 -51q-14 -73 -65 -139t-165 -152l-317 -248h444l-22 -112h-627
z" />
    <glyph glyph-name="uni00B3" unicode="&#xb3;" horiz-adv-x="679" 
d="M446 1260h-124q25 124 106.5 197t196.5 73q93 0 152 -56t59 -143q0 -5 -5 -45q-9 -52 -33.5 -88.5t-80.5 -79.5q104 -73 104 -188q0 -29 -6 -56q-23 -123 -132 -212t-237 -89q-85 0 -151 42t-92 112q-17 41 -17 88q0 26 7 84h124q-4 -27 -4 -65q0 -34 19 -70
q46 -78 133 -78q76 0 143.5 55t81.5 129q2 10 2 33q0 55 -31 95.5t-83 52.5q-31 8 -119 8l20 110q20 -2 41 -2q78 0 128 33t61 92q2 8 2 25q0 45 -30 72.5t-79 27.5q-57 0 -97 -37.5t-54 -101.5z" />
    <glyph glyph-name="acute" unicode="&#xb4;" horiz-adv-x="768" 
d="M403 1364l441 238l47 -119l-438 -234z" />
    <glyph glyph-name="mu" unicode="&#xb5;" horiz-adv-x="1245" 
d="M1323 1120l-207 -1120h-151l32 174q-138 -201 -372 -201q-110 0 -191 52t-121 149l-106 -567h-152l281 1513h151l-106 -575q-19 -111 -19 -166t15.5 -93.5t50.5 -78.5q40 -45 98 -70.5t121 -25.5q85 0 164.5 37.5t136.5 103.5q82 101 117 293l106 575h152z" />
    <glyph glyph-name="paragraph" unicode="&#xb6;" horiz-adv-x="1155" 
d="M414 -272l186 999q-154 15 -239 98.5t-85 216.5q0 38 9 82q19 104 80.5 189.5t154.5 136.5q109 63 293 63h473l-332 -1785h-153l307 1648h-234l-307 -1648h-153z" />
    <glyph glyph-name="periodcentered" unicode="&#xb7;" horiz-adv-x="567" 
d="M293 469l49 258h152l-50 -258h-151z" />
    <glyph glyph-name="cedilla" unicode="&#xb8;" horiz-adv-x="663" 
d="M254 0h74l-58 -96q44 16 72 16q60 0 94.5 -35t34.5 -92q0 -13 -4 -37q-15 -85 -75 -138.5t-140 -53.5q-71 0 -111 38.5t-43 110.5l92 11q3 -34 23 -53t55 -19q40 0 71 26.5t38 67.5q2 8 2 27q0 37 -20.5 58.5t-55.5 21.5q-48 0 -98 -50l-53 35z" />
    <glyph glyph-name="uni00B9" unicode="&#xb9;" horiz-adv-x="679" 
d="M463 590l151 811h-153l20 112h277l-172 -923h-123z" />
    <glyph glyph-name="ordmasculine" unicode="&#xba;" horiz-adv-x="755" 
d="M664 1526q111 0 184.5 -74.5t73.5 -181.5q0 -21 -7 -53q-23 -128 -132 -220t-238 -92q-113 0 -186.5 73t-73.5 181q0 28 6 55q25 129 134 220.5t239 91.5zM639 1425q-84 0 -154.5 -61t-85.5 -147q-4 -28 -4 -41q0 -74 47.5 -122t122.5 -48q85 0 155 60t87 148q4 28 4 41
q0 74 -48 122t-124 48zM207 758h624l-20 -105h-625z" />
    <glyph glyph-name="guillemotright" unicode="&#xbb;" horiz-adv-x="870" 
d="M594 203l-109 67l258 344l-129 342l131 66l158 -408zM240 203l-109 67l258 344l-129 342l131 66l162 -408z" />
    <glyph glyph-name="onequarter" unicode="&#xbc;" horiz-adv-x="1701" 
d="M1436 0l30 162h-473l19 102l585 660h134l-121 -650h86l-21 -112h-86l-30 -162h-123zM1487 274l86 461l-406 -461h320zM432 0l979 1513h113l-981 -1513h-111zM469 590l152 811h-154l20 112h277l-172 -923h-123z" />
    <glyph glyph-name="onehalf" unicode="&#xbd;" horiz-adv-x="1701" 
d="M422 0l979 1513h112l-981 -1513h-110zM459 590l151 811h-153l20 112h277l-172 -923h-123zM1036 0l19 104l391 308q106 83 131 106q74 71 86 137q4 20 4 29q0 61 -45 102t-113 41q-60 0 -115 -33t-83 -85q-19 -35 -31 -105h-123l4 25q28 140 131 225.5t244 85.5
q113 0 184.5 -68t71.5 -170q0 -35 -4 -51q-14 -73 -65 -139t-164 -152l-320 -247h444l-20 -113h-627z" />
    <glyph glyph-name="threequarters" unicode="&#xbe;" horiz-adv-x="1701" 
d="M1436 0l30 162h-473l19 102l585 660h134l-121 -650h86l-21 -112h-86l-30 -162h-123zM1487 274l86 461l-406 -461h320zM489 0l979 1513h113l-981 -1513h-111zM446 1260h-124q25 124 106.5 197t196.5 73q93 0 152 -56t59 -143q0 -5 -5 -45q-9 -52 -33.5 -88.5t-80.5 -79.5
q104 -73 104 -188q0 -29 -6 -56q-23 -123 -132 -212t-237 -89q-85 0 -151 42t-92 112q-19 46 -19 90q0 33 9 82h124q-4 -27 -4 -65q0 -34 19 -70q46 -78 133 -78q76 0 143.5 55t81.5 129q2 10 2 33q0 55 -31 95.5t-83 52.5q-31 8 -119 8l20 110q20 -2 41 -2q78 0 128 33
t61 92q2 8 2 25q0 45 -30 72.5t-79 27.5q-57 0 -97 -37.5t-54 -101.5z" />
    <glyph glyph-name="questiondown" unicode="&#xbf;" horiz-adv-x="1210" 
d="M883 1120l-47 -258h-152l47 258h152zM948 80h144q-20 -101 -51 -168.5t-85 -130.5q-85 -97 -197 -149t-239 -52q-176 0 -282.5 99t-106.5 258q0 47 8 88q19 99 75 177t175 171q133 100 195 178.5t82 173.5h143l-6 -31q-17 -98 -109 -219q-32 -41 -66 -73t-112 -95
q-122 -98 -166.5 -155t-58.5 -132q-6 -30 -6 -61q0 -108 71.5 -175t190.5 -67q94 0 179.5 44t139.5 122q47 64 82 197z" />
    <glyph glyph-name="Agrave" unicode="&#xc0;" horiz-adv-x="1515" 
d="M23 0l929 1513h170l371 -1513h-166l-125 510h-704l-316 -510h-159zM582 647h587l-163 694zM885 1962l362 -225l-88 -115l-362 221z" />
    <glyph glyph-name="Aacute" unicode="&#xc1;" horiz-adv-x="1515" 
d="M23 0l929 1513h170l371 -1513h-166l-125 510h-704l-316 -510h-159zM582 647h587l-163 694zM915 1737l441 237l47 -119l-438 -233z" />
    <glyph glyph-name="Acircumflex" unicode="&#xc2;" horiz-adv-x="1515" 
d="M23 0l929 1513h170l371 -1513h-166l-125 510h-704l-316 -510h-159zM582 647h587l-163 694zM700 1649l347 258h135l243 -258h-182l-147 151l-209 -151h-187z" />
    <glyph glyph-name="Atilde" unicode="&#xc3;" horiz-adv-x="1515" 
d="M23 0l929 1513h170l371 -1513h-166l-125 510h-704l-316 -510h-159zM582 647h587l-163 694zM1339 1864l50 -95q-33 -40 -93.5 -70t-111.5 -30q-41 0 -127 45q-51 21 -78 21q-29 0 -51 -10t-68 -44l-16 -12l-49 94q95 101 209 101q28 0 49.5 -6.5t64.5 -28.5q68 -29 92 -29
q56 0 129 64z" />
    <glyph glyph-name="Adieresis" unicode="&#xc4;" horiz-adv-x="1515" 
d="M23 0l929 1513h170l371 -1513h-166l-125 510h-704l-316 -510h-159zM582 647h587l-163 694zM887 1907h151l-49 -258h-151zM1188 1907h151l-49 -258h-151z" />
    <glyph glyph-name="Aring" unicode="&#xc5;" horiz-adv-x="1515" 
d="M23 0l929 1513h170l371 -1513h-166l-125 510h-704l-316 -510h-159zM582 647h587l-163 694zM1130 1999q67 0 110.5 -44.5t43.5 -109.5q0 -23 -2 -35q-13 -78 -79 -133t-144 -55q-68 0 -113 44.5t-45 109.5q0 8 4 32q15 80 80.5 135.5t144.5 55.5zM1110 1915
q-42 0 -78 -31.5t-43 -75.5q-2 -6 -2 -18q0 -37 24 -60.5t62 -23.5q43 0 80.5 30.5t44.5 71.5q2 6 2 21q0 37 -25.5 61.5t-64.5 24.5z" />
    <glyph glyph-name="AE" unicode="&#xc6;" horiz-adv-x="2031" 
d="M23 0l1327 1513h848l-25 -137h-653l-103 -542h631l-25 -138h-630l-105 -559h654l-25 -137h-805l94 512h-555l-448 -512h-180zM774 649h459l123 670z" />
    <glyph glyph-name="Ccedilla" unicode="&#xc7;" horiz-adv-x="1665" 
d="M874 -27l-71 -112q43 14 74 14q61 0 95 -35t34 -96q0 -6 -5 -41q-15 -86 -77.5 -140.5t-145.5 -54.5q-72 0 -114 39t-50 113l101 14q6 -37 24.5 -53t53.5 -16q43 0 72.5 25.5t37.5 68.5q2 8 2 22q0 34 -21.5 55t-56.5 21q-48 0 -98 -45l-55 37l121 186q-129 20 -206 51
t-151 91q-223 184 -223 481q0 80 14 154q41 223 176 403.5t333.5 282.5t420.5 102q235 0 401.5 -112.5t217.5 -307.5h-170q-30 70 -61 110.5t-79 74.5q-134 96 -327 96q-178 0 -340 -84t-272 -231.5t-144 -327.5q-12 -62 -12 -119q0 -148 67 -268t188.5 -189t274.5 -69
q219 0 408 131q82 58 172 153h168q-148 -209 -344.5 -316.5t-432.5 -107.5z" />
    <glyph glyph-name="Egrave" unicode="&#xc8;" horiz-adv-x="1097" 
d="M156 0l280 1513h828l-25 -137h-676l-102 -542h653l-24 -138h-654l-104 -559h676l-25 -137h-827zM696 1962l363 -225l-88 -115l-363 221z" />
    <glyph glyph-name="Eacute" unicode="&#xc9;" horiz-adv-x="1097" 
d="M156 0l280 1513h828l-25 -137h-676l-102 -542h653l-24 -138h-654l-104 -559h676l-25 -137h-827zM727 1737l440 237l47 -119l-438 -233z" />
    <glyph glyph-name="Ecircumflex" unicode="&#xca;" horiz-adv-x="1097" 
d="M156 0l280 1513h828l-25 -137h-676l-102 -542h653l-24 -138h-654l-104 -559h676l-25 -137h-827zM512 1649l346 258h135l244 -258h-182l-148 151l-209 -151h-186z" />
    <glyph glyph-name="Edieresis" unicode="&#xcb;" horiz-adv-x="1097" 
d="M156 0l280 1513h828l-25 -137h-676l-102 -542h653l-24 -138h-654l-104 -559h676l-25 -137h-827zM698 1907h152l-49 -258h-152zM999 1907h152l-49 -258h-152z" />
    <glyph glyph-name="Igrave" unicode="&#xcc;" horiz-adv-x="462" 
d="M156 0l280 1513h152l-281 -1513h-151zM426 1962l362 -225l-88 -115l-362 221z" />
    <glyph glyph-name="Iacute" unicode="&#xcd;" horiz-adv-x="462" 
d="M156 0l280 1513h152l-281 -1513h-151zM319 1737l441 237l47 -119l-438 -233z" />
    <glyph glyph-name="Icircumflex" unicode="&#xce;" horiz-adv-x="462" 
d="M156 0l280 1513h152l-281 -1513h-151zM174 1649l346 258h135l244 -258h-182l-148 151l-209 -151h-186z" />
    <glyph glyph-name="Idieresis" unicode="&#xcf;" horiz-adv-x="462" 
d="M158 0l280 1513h152l-281 -1513h-151zM360 1907h152l-49 -258h-152zM662 1907h151l-49 -258h-152z" />
    <glyph glyph-name="Eth" unicode="&#xd0;" horiz-adv-x="1617" 
d="M381 711h-197l27 137h197l122 665h357q213 0 342.5 -29.5t226.5 -99.5q227 -160 227 -464q0 -74 -16 -168q-40 -217 -164.5 -383.5t-320.5 -264.5q-207 -104 -525 -104h-407zM532 711l-106 -574h211q207 0 343.5 34t242.5 112q115 85 191 208t102 267q12 68 12 129
q0 130 -53.5 233.5t-151.5 165.5q-74 47 -181.5 68.5t-273.5 21.5h-211l-98 -528h420l-27 -137h-420z" />
    <glyph glyph-name="Ntilde" unicode="&#xd1;" horiz-adv-x="1515" 
d="M156 0l280 1513h205l614 -1255l234 1255h151l-280 -1513h-152l-655 1331l-246 -1331h-151zM1348 1864l49 -95q-33 -40 -93.5 -70t-111.5 -30q-41 0 -127 45q-51 21 -78 21q-29 0 -51 -10t-68 -44l-16 -12l-49 94q95 101 209 101q28 0 49.5 -6.5t64.5 -28.5q68 -29 93 -29
q56 0 129 64z" />
    <glyph glyph-name="Ograve" unicode="&#xd2;" horiz-adv-x="1779" 
d="M1186 1540q140 0 263 -49.5t209 -135.5t135.5 -205.5t49.5 -254.5q0 -57 -14 -139q-39 -211 -179.5 -391.5t-344 -286t-418.5 -105.5q-144 0 -269 49.5t-213 135.5t-138 205.5t-50 254.5q0 68 12 138q39 214 180.5 394.5t348 285t428.5 104.5zM1143 1401q-170 0 -334 -88
t-279 -237t-147 -320q-10 -49 -10 -115q0 -226 152 -377t386 -151q173 0 337.5 86.5t279.5 234.5t147 320q13 67 13 118q0 228 -153 378.5t-392 150.5zM1016 1962l362 -225l-88 -115l-362 221z" />
    <glyph glyph-name="Oacute" unicode="&#xd3;" horiz-adv-x="1779" 
d="M1186 1540q140 0 263 -49.5t209 -135.5t135.5 -205.5t49.5 -254.5q0 -57 -14 -139q-39 -211 -179.5 -391.5t-344 -286t-418.5 -105.5q-144 0 -269 49.5t-213 135.5t-138 205.5t-50 254.5q0 68 12 138q39 214 180.5 394.5t348 285t428.5 104.5zM1143 1401q-170 0 -334 -88
t-279 -237t-147 -320q-10 -49 -10 -115q0 -226 152 -377t386 -151q173 0 337.5 86.5t279.5 234.5t147 320q13 67 13 118q0 228 -153 378.5t-392 150.5zM1047 1737l440 237l47 -119l-438 -233z" />
    <glyph glyph-name="Ocircumflex" unicode="&#xd4;" horiz-adv-x="1779" 
d="M1186 1540q140 0 263 -49.5t209 -135.5t135.5 -205.5t49.5 -254.5q0 -57 -14 -139q-39 -211 -179.5 -391.5t-344 -286t-418.5 -105.5q-144 0 -269 49.5t-213 135.5t-138 205.5t-50 254.5q0 68 12 138q39 214 180.5 394.5t348 285t428.5 104.5zM1143 1401q-170 0 -334 -88
t-279 -237t-147 -320q-10 -49 -10 -115q0 -226 152 -377t386 -151q173 0 337.5 86.5t279.5 234.5t147 320q13 67 13 118q0 228 -153 378.5t-392 150.5zM831 1649l347 258h135l243 -258h-182l-147 151l-209 -151h-187z" />
    <glyph glyph-name="Otilde" unicode="&#xd5;" horiz-adv-x="1779" 
d="M1186 1540q140 0 263 -49.5t209 -135.5t135.5 -205.5t49.5 -254.5q0 -57 -14 -139q-39 -211 -179.5 -391.5t-344 -286t-418.5 -105.5q-144 0 -269 49.5t-213 135.5t-138 205.5t-50 254.5q0 68 12 138q39 214 180.5 394.5t348 285t428.5 104.5zM1143 1401q-170 0 -334 -88
t-279 -237t-147 -320q-10 -49 -10 -115q0 -226 152 -377t386 -151q173 0 337.5 86.5t279.5 234.5t147 320q13 67 13 118q0 228 -153 378.5t-392 150.5zM1487 1864l49 -95q-33 -40 -93.5 -70t-111.5 -30q-41 0 -127 45q-51 21 -78 21q-29 0 -50.5 -10t-67.5 -44l-17 -12
l-49 94q95 101 209 101q28 0 50.5 -6.5t64.5 -28.5q68 -29 92 -29q56 0 129 64z" />
    <glyph glyph-name="Odieresis" unicode="&#xd6;" horiz-adv-x="1779" 
d="M1186 1540q140 0 263 -49.5t209 -135.5t135.5 -205.5t49.5 -254.5q0 -57 -14 -139q-39 -211 -179.5 -391.5t-344 -286t-418.5 -105.5q-144 0 -269 49.5t-213 135.5t-138 205.5t-50 254.5q0 68 12 138q39 214 180.5 394.5t348 285t428.5 104.5zM1143 1401q-170 0 -334 -88
t-279 -237t-147 -320q-10 -49 -10 -115q0 -226 152 -377t386 -151q173 0 337.5 86.5t279.5 234.5t147 320q13 67 13 118q0 228 -153 378.5t-392 150.5zM1018 1907h151l-49 -258h-151zM1319 1907h151l-49 -258h-151z" />
    <glyph glyph-name="multiply" unicode="&#xd7;" horiz-adv-x="1241" 
d="M840 612l334 -409l-125 -105l-334 410l-486 -410l-88 105l486 409l-332 412l125 104l334 -409l485 409l88 -104z" />
    <glyph glyph-name="Oslash" unicode="&#xd8;" horiz-adv-x="1777" 
d="M154 -86l237 254q-174 171 -174 440q0 79 14 150q40 216 178 395.5t338.5 283t419.5 103.5q118 0 225.5 -30.5t174.5 -84.5l239 256l95 -86l-234 -252q176 -173 176 -430q0 -77 -14 -151q-30 -162 -119 -308.5t-214 -251.5t-283 -167t-320 -62q-233 0 -399 113l-240 -256
zM502 283l960 1030q-130 88 -321 88q-132 0 -259.5 -50.5t-228.5 -137t-173 -207.5t-97 -256q-12 -64 -12 -123q0 -195 131 -344zM1559 1229l-961 -1030q78 -46 151.5 -66t163.5 -20q176 0 339 85t275.5 233t145.5 325q15 84 15 131q0 189 -129 342z" />
    <glyph glyph-name="Ugrave" unicode="&#xd9;" horiz-adv-x="1341" 
d="M436 1513h152l-174 -944q-19 -112 -19 -161q0 -86 29 -152q31 -66 102.5 -104.5t163.5 -38.5q94 0 180 38.5t142 104.5q92 113 129 313l174 944h151l-174 -944q-28 -145 -70.5 -239t-113.5 -170q-85 -89 -200 -138t-242 -49q-126 0 -225 49t-150 138t-51 213q0 77 22 196
zM797 1962l362 -225l-88 -115l-362 221z" />
    <glyph glyph-name="Uacute" unicode="&#xda;" horiz-adv-x="1341" 
d="M436 1513h152l-174 -944q-19 -112 -19 -161q0 -86 29 -152q31 -66 102.5 -104.5t163.5 -38.5q94 0 180 38.5t142 104.5q92 113 129 313l174 944h151l-174 -944q-28 -145 -70.5 -239t-113.5 -170q-85 -89 -200 -138t-242 -49q-126 0 -225 49t-150 138t-51 213q0 77 22 196
zM827 1737l441 237l47 -119l-438 -233z" />
    <glyph glyph-name="Ucircumflex" unicode="&#xdb;" horiz-adv-x="1341" 
d="M436 1513h152l-174 -944q-19 -112 -19 -161q0 -86 29 -152q31 -66 102.5 -104.5t163.5 -38.5q94 0 180 38.5t142 104.5q92 113 129 313l174 944h151l-174 -944q-28 -145 -70.5 -239t-113.5 -170q-85 -89 -200 -138t-242 -49q-126 0 -225 49t-150 138t-51 213q0 77 22 196
zM612 1649l346 258h136l243 -258h-182l-147 151l-209 -151h-187z" />
    <glyph glyph-name="Udieresis" unicode="&#xdc;" horiz-adv-x="1341" 
d="M436 1513h152l-174 -944q-19 -112 -19 -161q0 -86 29 -152q31 -66 102.5 -104.5t163.5 -38.5q94 0 180 38.5t142 104.5q92 113 129 313l174 944h151l-174 -944q-28 -145 -70.5 -239t-113.5 -170q-85 -89 -200 -138t-242 -49q-126 0 -225 49t-150 138t-51 213q0 77 22 196
zM799 1907h151l-49 -258h-151zM1100 1907h151l-49 -258h-151z" />
    <glyph glyph-name="Yacute" unicode="&#xdd;" horiz-adv-x="1212" 
d="M528 0l95 506l-338 1007h168l272 -847l598 847h166l-715 -1007l-94 -506h-152zM764 1737l440 237l47 -119l-438 -233z" />
    <glyph glyph-name="Thorn" unicode="&#xde;" horiz-adv-x="1212" 
d="M156 0l280 1513h137l-51 -272h281q146 0 236 -18.5t153 -61.5q121 -80 121 -266q0 -64 -10 -113q-22 -114 -78.5 -204t-139.5 -144q-78 -51 -174 -72.5t-249 -21.5h-291l-64 -340h-151zM395 477h281q205 0 301 51q65 32 110 99t62 157q8 39 8 82q0 161 -125 205
q-90 33 -305 33h-215z" />
    <glyph glyph-name="germandbls" unicode="&#xdf;" 
d="M121 0l182 985q25 133 58 221t85 154q63 83 164 131.5t213 48.5q163 0 263 -95t100 -247q0 -45 -8 -84q-20 -110 -77 -186.5t-157 -130.5q105 -35 159 -110.5t54 -184.5q0 -50 -8 -94q-35 -188 -177 -311.5t-323 -123.5q-268 0 -336 250l-41 -223h-151zM350 416h105
q-6 -35 -6 -64q0 -108 60 -173.5t161 -65.5q115 0 208.5 83.5t116.5 206.5q4 23 4 64q0 113 -82 174t-235 61q-31 0 -94 -4l26 138h27q154 0 257 77t128 209q4 20 4 58q0 99 -62.5 160t-166.5 61q-73 0 -140 -35t-106 -94q-36 -53 -58 -116t-42 -171z" />
    <glyph glyph-name="agrave" unicode="&#xe0;" horiz-adv-x="1398" 
d="M1477 1120l-207 -1120h-152l37 197q-110 -120 -219.5 -172t-251.5 -52q-227 0 -366.5 130.5t-139.5 338.5q0 66 10 115q30 165 132.5 300.5t252.5 212.5t316 77q146 0 241 -53.5t158 -171.5l37 198h152zM860 1008q-180 0 -331 -130.5t-185 -314.5q-8 -39 -8 -86
q0 -159 103.5 -261.5t267.5 -102.5q183 0 332 130t184 320q8 41 8 88q0 158 -102.5 257.5t-268.5 99.5zM776 1589l363 -225l-88 -115l-363 221z" />
    <glyph glyph-name="aacute" unicode="&#xe1;" horiz-adv-x="1398" 
d="M1477 1120l-207 -1120h-152l37 197q-110 -120 -219.5 -172t-251.5 -52q-227 0 -366.5 130.5t-139.5 338.5q0 66 10 115q30 165 132.5 300.5t252.5 212.5t316 77q146 0 241 -53.5t158 -171.5l37 198h152zM860 1008q-180 0 -331 -130.5t-185 -314.5q-8 -39 -8 -86
q0 -159 103.5 -261.5t267.5 -102.5q183 0 332 130t184 320q8 41 8 88q0 158 -102.5 257.5t-268.5 99.5zM807 1364l440 238l47 -119l-438 -234z" />
    <glyph glyph-name="acircumflex" unicode="&#xe2;" horiz-adv-x="1398" 
d="M1477 1120l-207 -1120h-152l37 197q-110 -120 -219.5 -172t-251.5 -52q-227 0 -366.5 130.5t-139.5 338.5q0 66 10 115q30 165 132.5 300.5t252.5 212.5t316 77q146 0 241 -53.5t158 -171.5l37 198h152zM860 1008q-180 0 -331 -130.5t-185 -314.5q-8 -39 -8 -86
q0 -159 103.5 -261.5t267.5 -102.5q183 0 332 130t184 320q8 41 8 88q0 158 -102.5 257.5t-268.5 99.5zM592 1276l346 258h135l244 -258h-182l-148 151l-209 -151h-186z" />
    <glyph glyph-name="atilde" unicode="&#xe3;" horiz-adv-x="1398" 
d="M1477 1120l-207 -1120h-152l37 197q-110 -120 -219.5 -172t-251.5 -52q-227 0 -366.5 130.5t-139.5 338.5q0 66 10 115q30 165 132.5 300.5t252.5 212.5t316 77q146 0 241 -53.5t158 -171.5l37 198h152zM860 1008q-180 0 -331 -130.5t-185 -314.5q-8 -39 -8 -86
q0 -159 103.5 -261.5t267.5 -102.5q183 0 332 130t184 320q8 41 8 88q0 158 -102.5 257.5t-268.5 99.5zM1225 1491l49 -94q-33 -40 -94 -70.5t-111 -30.5q-41 0 -127 45q-51 21 -78 21q-29 0 -51.5 -9.5t-67.5 -43.5l-16 -13l-49 95q94 100 209 100q28 0 50.5 -6.5
t64.5 -28.5q68 -29 92 -29q56 0 129 64z" />
    <glyph glyph-name="adieresis" unicode="&#xe4;" horiz-adv-x="1398" 
d="M1477 1120l-207 -1120h-152l37 197q-110 -120 -219.5 -172t-251.5 -52q-227 0 -366.5 130.5t-139.5 338.5q0 66 10 115q30 165 132.5 300.5t252.5 212.5t316 77q146 0 241 -53.5t158 -171.5l37 198h152zM860 1008q-180 0 -331 -130.5t-185 -314.5q-8 -39 -8 -86
q0 -159 103.5 -261.5t267.5 -102.5q183 0 332 130t184 320q8 41 8 88q0 158 -102.5 257.5t-268.5 99.5zM778 1534h152l-49 -258h-152zM1079 1534h152l-49 -258h-152z" />
    <glyph glyph-name="aring" unicode="&#xe5;" horiz-adv-x="1398" 
d="M1477 1120l-207 -1120h-152l37 197q-110 -120 -219.5 -172t-251.5 -52q-227 0 -366.5 130.5t-139.5 338.5q0 66 10 115q30 165 132.5 300.5t252.5 212.5t316 77q146 0 241 -53.5t158 -171.5l37 198h152zM860 1008q-180 0 -331 -130.5t-185 -314.5q-8 -39 -8 -86
q0 -159 103.5 -261.5t267.5 -102.5q183 0 332 130t184 320q8 41 8 88q0 158 -102.5 257.5t-268.5 99.5zM1022 1626q67 0 111.5 -44t44.5 -109q0 -11 -4 -35q-13 -78 -79.5 -133.5t-144.5 -55.5q-68 0 -112.5 44.5t-44.5 109.5q0 9 4 33q15 80 80.5 135t144.5 55zM1004 1542
q-42 0 -79 -31t-44 -75q-2 -6 -2 -19q0 -37 25 -60.5t63 -23.5q43 0 79 31t44 72q2 6 2 20q0 37 -24.5 61.5t-63.5 24.5z" />
    <glyph glyph-name="ae" unicode="&#xe6;" horiz-adv-x="2369" 
d="M2384 506h-1014q-2 -14 -2 -39q0 -154 104.5 -254t266.5 -100q129 0 247 68.5t187 183.5h158q-91 -175 -261 -283.5t-356 -108.5q-267 0 -411 215l-35 -188h-146l35 188q-117 -114 -230.5 -164.5t-252.5 -50.5q-221 0 -358.5 132t-137.5 339q0 64 10 113q22 114 83 221.5
t151 188.5q198 180 467 180q148 0 245.5 -53.5t159.5 -167.5l35 194h146l-35 -194q113 114 229 167.5t252 53.5q158 0 275.5 -74t173.5 -207q34 -81 34 -174q0 -80 -20 -186zM1401 643h860q0 166 -99.5 265.5t-263.5 99.5q-167 0 -305 -101.5t-192 -263.5zM864 1008
q-122 0 -233 -59t-186.5 -161.5t-98.5 -226.5q-8 -41 -8 -88q0 -158 100.5 -259t263.5 -101q189 0 341.5 130.5t187.5 323.5q10 52 10 90q0 158 -103 254.5t-274 96.5z" />
    <glyph glyph-name="ccedilla" unicode="&#xe7;" horiz-adv-x="1325" 
d="M698 -27l-57 -92q39 15 70 15q61 0 95 -34t34 -93q0 -25 -2 -37q-15 -84 -77.5 -137.5t-142.5 -53.5q-69 0 -108.5 39t-40.5 111l92 10q6 -72 76 -72q41 0 72 27t39 68q2 8 2 24q0 37 -21.5 58.5t-58.5 21.5q-49 0 -95 -49l-55 37l103 161q-201 22 -322 152t-121 322
q0 47 10 112q29 160 133.5 294.5t257.5 212t318 77.5q190 0 321.5 -99t168.5 -268h-170q-44 110 -134 169t-215 59q-187 0 -339 -130t-187 -319q-8 -39 -8 -84q0 -158 104.5 -260t270.5 -102q120 0 217.5 50t206.5 167h172q-116 -172 -270.5 -263t-338.5 -94z" />
    <glyph glyph-name="egrave" unicode="&#xe8;" horiz-adv-x="1331" 
d="M1346 510h-1014q-2 -16 -2 -51q0 -149 102.5 -247.5t261.5 -98.5q128 0 249 70.5t190 185.5h157q-94 -177 -263.5 -286.5t-352.5 -109.5q-218 0 -356 135.5t-138 344.5q0 47 10 112q29 160 131 294t250 211t308 77q166 0 289.5 -82t170.5 -223q27 -86 27 -156
q0 -59 -20 -176zM362 647h859q-7 167 -106.5 264t-262.5 97q-160 0 -295 -100t-195 -261zM733 1589l363 -225l-88 -115l-363 221z" />
    <glyph glyph-name="eacute" unicode="&#xe9;" horiz-adv-x="1331" 
d="M1346 510h-1014q-2 -16 -2 -51q0 -149 102.5 -247.5t261.5 -98.5q128 0 249 70.5t190 185.5h157q-94 -177 -263.5 -286.5t-352.5 -109.5q-218 0 -356 135.5t-138 344.5q0 47 10 112q29 160 131 294t250 211t308 77q166 0 289.5 -82t170.5 -223q27 -86 27 -156
q0 -59 -20 -176zM362 647h859q-7 167 -106.5 264t-262.5 97q-160 0 -295 -100t-195 -261zM756 1364l440 238l47 -119l-438 -234z" />
    <glyph glyph-name="ecircumflex" unicode="&#xea;" horiz-adv-x="1331" 
d="M1346 510h-1014q-2 -16 -2 -51q0 -149 102.5 -247.5t261.5 -98.5q128 0 249 70.5t190 185.5h157q-94 -177 -263.5 -286.5t-352.5 -109.5q-218 0 -356 135.5t-138 344.5q0 47 10 112q29 160 131 294t250 211t308 77q166 0 289.5 -82t170.5 -223q27 -86 27 -156
q0 -59 -20 -176zM362 647h859q-7 167 -106.5 264t-262.5 97q-160 0 -295 -100t-195 -261zM549 1276l346 258h135l244 -258h-182l-148 151l-209 -151h-186z" />
    <glyph glyph-name="edieresis" unicode="&#xeb;" horiz-adv-x="1331" 
d="M1346 510h-1014q-2 -16 -2 -51q0 -149 102.5 -247.5t261.5 -98.5q128 0 249 70.5t190 185.5h157q-94 -177 -263.5 -286.5t-352.5 -109.5q-218 0 -356 135.5t-138 344.5q0 47 10 112q29 160 131 294t250 211t308 77q166 0 289.5 -82t170.5 -223q27 -86 27 -156
q0 -59 -20 -176zM362 647h859q-7 167 -106.5 264t-262.5 97q-160 0 -295 -100t-195 -261zM733 1534h152l-49 -258h-152zM1034 1534h152l-49 -258h-152z" />
    <glyph glyph-name="igrave" unicode="&#xec;" horiz-adv-x="409" 
d="M129 0l207 1120h151l-206 -1120h-152zM330 1589l362 -225l-88 -115l-362 221z" />
    <glyph glyph-name="iacute" unicode="&#xed;" horiz-adv-x="409" 
d="M129 0l207 1120h151l-206 -1120h-152zM225 1364l441 238l47 -119l-439 -234z" />
    <glyph glyph-name="icircumflex" unicode="&#xee;" horiz-adv-x="409" 
d="M129 0l207 1120h151l-206 -1120h-152zM78 1276l346 258h135l244 -258h-182l-148 151l-209 -151h-186z" />
    <glyph glyph-name="idieresis" unicode="&#xef;" horiz-adv-x="409" 
d="M264 1534h152l-49 -258h-152zM565 1534h152l-49 -258h-152zM131 0l207 1120h151l-206 -1120h-152z" />
    <glyph glyph-name="eth" unicode="&#xf0;" horiz-adv-x="1341" 
d="M713 1489l118 59q64 -52 119 -112l211 86l64 -90l-199 -80q89 -91 211 -252q139 -193 139 -387q0 -73 -14 -142q-50 -264 -239.5 -431t-442.5 -167q-226 0 -364 131.5t-138 339.5q0 56 12 117q46 247 237.5 412.5t430.5 165.5q52 0 90.5 -7.5t100.5 -29.5
q-78 97 -99 121.5t-61 66.5l-193 -80l-57 95l176 71q-15 18 -59 68q-15 14 -43 45zM854 1008q-184 0 -330.5 -128.5t-181.5 -322.5q-8 -41 -8 -90q0 -158 100.5 -256t267.5 -98q185 0 325 123.5t177 318.5q10 58 10 98q0 159 -98 257t-262 98z" />
    <glyph glyph-name="ntilde" unicode="&#xf1;" horiz-adv-x="1249" 
d="M129 0l207 1120h151l-26 -145q172 172 393 172q118 0 207.5 -44.5t140.5 -129.5q47 -81 47 -195q0 -81 -20 -190l-109 -588h-151l108 588q17 100 17 151q0 92 -39 154q-35 55 -99.5 85t-146.5 30q-92 0 -175 -38t-140 -106q-38 -45 -60 -100.5t-39 -147.5l-114 -616h-152
zM1116 1491l49 -94q-33 -40 -93.5 -70.5t-110.5 -30.5q-41 0 -127 45q-51 21 -78 21q-29 0 -51.5 -9.5t-67.5 -43.5l-16 -13l-50 95q94 100 209 100q28 0 50.5 -6.5t64.5 -28.5q68 -29 92 -29q56 0 129 64z" />
    <glyph glyph-name="ograve" unicode="&#xf2;" horiz-adv-x="1341" 
d="M893 1147q215 0 346 -131t131 -338q0 -60 -12 -121q-46 -252 -238.5 -418t-439.5 -166q-225 0 -363.5 131.5t-138.5 339.5q0 56 12 115q23 126 88 235t157.5 186.5t211.5 122t246 44.5zM854 1008q-184 0 -330.5 -128.5t-181.5 -322.5q-8 -41 -8 -90q0 -158 100 -256
t266 -98q185 0 327 124.5t177 317.5q10 58 10 98q0 159 -98 257t-262 98zM727 1589l363 -225l-89 -115l-362 221z" />
    <glyph glyph-name="oacute" unicode="&#xf3;" horiz-adv-x="1341" 
d="M893 1147q215 0 346 -131t131 -338q0 -60 -12 -121q-46 -252 -238.5 -418t-439.5 -166q-225 0 -363.5 131.5t-138.5 339.5q0 56 12 115q23 126 88 235t157.5 186.5t211.5 122t246 44.5zM854 1008q-184 0 -330.5 -128.5t-181.5 -322.5q-8 -41 -8 -90q0 -158 100 -256
t266 -98q185 0 327 124.5t177 317.5q10 58 10 98q0 159 -98 257t-262 98zM758 1364l440 238l47 -119l-438 -234z" />
    <glyph glyph-name="ocircumflex" unicode="&#xf4;" horiz-adv-x="1341" 
d="M893 1147q215 0 346 -131t131 -338q0 -60 -12 -121q-46 -252 -238.5 -418t-439.5 -166q-225 0 -363.5 131.5t-138.5 339.5q0 56 12 115q23 126 88 235t157.5 186.5t211.5 122t246 44.5zM854 1008q-184 0 -330.5 -128.5t-181.5 -322.5q-8 -41 -8 -90q0 -158 100 -256
t266 -98q185 0 327 124.5t177 317.5q10 58 10 98q0 159 -98 257t-262 98zM543 1276l346 258h135l244 -258h-183l-147 151l-209 -151h-186z" />
    <glyph glyph-name="otilde" unicode="&#xf5;" horiz-adv-x="1341" 
d="M893 1147q215 0 346 -131t131 -338q0 -60 -12 -121q-46 -252 -238.5 -418t-439.5 -166q-225 0 -363.5 131.5t-138.5 339.5q0 56 12 115q23 126 88 235t157.5 186.5t211.5 122t246 44.5zM854 1008q-184 0 -330.5 -128.5t-181.5 -322.5q-8 -41 -8 -90q0 -158 100 -256
t266 -98q185 0 327 124.5t177 317.5q10 58 10 98q0 159 -98 257t-262 98zM1190 1491l49 -94q-33 -40 -94 -70.5t-111 -30.5q-41 0 -127 45q-51 21 -78 21q-29 0 -50.5 -9.5t-67.5 -43.5l-17 -13l-49 95q94 100 209 100q28 0 50.5 -6.5t64.5 -28.5q68 -29 92 -29q56 0 129 64
z" />
    <glyph glyph-name="odieresis" unicode="&#xf6;" horiz-adv-x="1341" 
d="M893 1147q215 0 346 -131t131 -338q0 -60 -12 -121q-46 -252 -238.5 -418t-439.5 -166q-225 0 -363.5 131.5t-138.5 339.5q0 56 12 115q23 126 88 235t157.5 186.5t211.5 122t246 44.5zM854 1008q-184 0 -330.5 -128.5t-181.5 -322.5q-8 -41 -8 -90q0 -158 100 -256
t266 -98q185 0 327 124.5t177 317.5q10 58 10 98q0 159 -98 257t-262 98zM729 1534h152l-50 -258h-151zM1030 1534h152l-49 -258h-152z" />
    <glyph glyph-name="divide" unicode="&#xf7;" horiz-adv-x="1241" 
d="M864 838h-178l33 178h178zM752 229h-179l33 179h178zM1266 698l-29 -151h-1032l28 151h1033z" />
    <glyph glyph-name="oslash" unicode="&#xf8;" horiz-adv-x="1337" 
d="M150 2l131 137q-103 149 -103 297q0 67 10 121q30 162 133 297.5t253 214t311 78.5t282 -84l146 154l92 -87l-141 -151q106 -118 106 -285q0 -58 -12 -119q-50 -263 -243 -432.5t-445 -169.5q-86 0 -152 19t-143 65l-131 -137zM385 248l682 710q-89 50 -207 50
q-184 0 -333.5 -133t-186.5 -330q-8 -44 -8 -94q0 -100 53 -203zM1159 872l-682 -710q57 -28 101 -38.5t104 -10.5q193 0 338.5 128t183.5 332q10 62 10 103q0 105 -55 196z" />
    <glyph glyph-name="ugrave" unicode="&#xf9;" horiz-adv-x="1245" 
d="M1323 1120l-207 -1120h-151l32 174q-77 -104 -172 -152.5t-225 -48.5t-222 48.5t-136 140.5q-37 70 -37 172q0 65 20 182l111 604h151l-110 -604q-17 -90 -17 -145q0 -71 23 -125q28 -63 94.5 -98t157.5 -35q185 0 309 139q86 102 121 293l106 575h152zM680 1589
l362 -225l-88 -115l-362 221z" />
    <glyph glyph-name="uacute" unicode="&#xfa;" horiz-adv-x="1245" 
d="M1323 1120l-207 -1120h-151l32 174q-77 -104 -172 -152.5t-225 -48.5t-222 48.5t-136 140.5q-37 70 -37 172q0 65 20 182l111 604h151l-110 -604q-17 -90 -17 -145q0 -71 23 -125q28 -63 94.5 -98t157.5 -35q185 0 309 139q86 102 121 293l106 575h152zM711 1364l440 238
l47 -119l-438 -234z" />
    <glyph glyph-name="ucircumflex" unicode="&#xfb;" horiz-adv-x="1245" 
d="M1323 1120l-207 -1120h-151l32 174q-77 -104 -172 -152.5t-225 -48.5t-222 48.5t-136 140.5q-37 70 -37 172q0 65 20 182l111 604h151l-110 -604q-17 -90 -17 -145q0 -71 23 -125q28 -63 94.5 -98t157.5 -35q185 0 309 139q86 102 121 293l106 575h152zM496 1276l346 258
h135l244 -258h-183l-147 151l-209 -151h-186z" />
    <glyph glyph-name="udieresis" unicode="&#xfc;" horiz-adv-x="1245" 
d="M1323 1120l-207 -1120h-151l32 174q-77 -104 -172 -152.5t-225 -48.5t-222 48.5t-136 140.5q-37 70 -37 172q0 65 20 182l111 604h151l-110 -604q-17 -90 -17 -145q0 -71 23 -125q28 -63 94.5 -98t157.5 -35q185 0 309 139q86 102 121 293l106 575h152zM682 1534h152
l-50 -258h-151zM983 1534h152l-50 -258h-151z" />
    <glyph glyph-name="yacute" unicode="&#xfd;" horiz-adv-x="1097" 
d="M197 -393l262 430l-234 1083h166l191 -893l542 893h162l-928 -1513h-161zM651 1364l441 238l47 -119l-439 -234z" />
    <glyph glyph-name="thorn" unicode="&#xfe;" horiz-adv-x="1396" 
d="M410 1513h151l-108 -585q185 219 481 219q220 0 355.5 -132.5t135.5 -340.5q0 -66 -10 -115q-23 -122 -88.5 -230.5t-159 -186.5t-212 -123.5t-242.5 -45.5q-140 0 -242 56.5t-156 163.5l-108 -586h-152zM895 1008q-184 0 -334.5 -130t-185.5 -319q-8 -41 -8 -86
q0 -158 102 -259t266 -101q189 0 339.5 126.5t185.5 315.5q10 55 10 94q0 161 -103 260t-272 99z" />
    <glyph glyph-name="ydieresis" unicode="&#xff;" horiz-adv-x="1097" 
d="M197 -393l262 430l-234 1083h166l191 -893l542 893h162l-928 -1513h-161zM602 1534h152l-49 -258h-152zM903 1534h152l-49 -258h-152z" />
    <glyph glyph-name="dotlessi" unicode="&#x131;" horiz-adv-x="409" 
d="M129 0l207 1120h151l-206 -1120h-152z" />
    <glyph glyph-name="Lslash" unicode="&#x141;" horiz-adv-x="1058" 
d="M250 0l115 621l-226 -162l31 170l227 164l133 720h152l-115 -620l377 272l-31 -172l-378 -270l-109 -586h627l-25 -137h-778z" />
    <glyph glyph-name="lslash" unicode="&#x142;" horiz-adv-x="614" 
d="M233 0l132 709l-181 -109l29 148l178 108l123 657h152l-109 -589l188 112l-28 -149l-189 -111l-143 -776h-152z" />
    <glyph glyph-name="OE" unicode="&#x152;" horiz-adv-x="2445" 
d="M1806 1513h805l-24 -137h-654l-102 -542h631l-25 -138h-631l-104 -559h653l-24 -137h-805l57 309q-125 -164 -297 -250t-379 -86q-311 0 -500.5 175.5t-189.5 457.5q0 80 14 154q40 220 176 398.5t337 280t425 101.5q214 0 365 -85t217 -243zM1135 1401q-133 0 -259 -49
t-225.5 -133.5t-170 -204t-95.5 -254.5q-12 -64 -12 -125q0 -229 150.5 -375.5t394.5 -146.5q180 0 339.5 83t268 231t143.5 333q12 70 12 135q0 229 -147 367.5t-399 138.5z" />
    <glyph glyph-name="oe" unicode="&#x153;" horiz-adv-x="2328" 
d="M2339 508h-1000q-4 -40 -4 -59q0 -97 60 -183q108 -153 313 -153q263 0 432 254h152q-71 -154 -230 -271q-166 -123 -370 -123q-177 0 -301.5 82t-167.5 228q-121 -161 -253.5 -235.5t-295.5 -74.5q-221 0 -357.5 134t-136.5 342q0 63 10 112q30 163 131 298t248 211.5
t308 76.5q165 0 275 -73t175 -226q229 299 557 299q216 0 349.5 -127.5t133.5 -327.5q0 -44 -10 -106q-1 -7 -3.5 -18t-7 -29t-7.5 -31zM1364 645h858q0 163 -100 263t-267 100q-157 0 -288 -97t-203 -266zM848 1008q-180 0 -324.5 -128.5t-179.5 -320.5q-8 -41 -8 -88
q0 -157 100.5 -257.5t261.5 -100.5q180 0 324.5 129t179.5 321q8 44 8 92q0 157 -99 255t-263 98z" />
    <glyph glyph-name="Scaron" unicode="&#x160;" horiz-adv-x="1019" 
d="M123 424h162q-2 -20 -2 -55q0 -89 41 -150q32 -51 90 -78.5t129 -27.5q130 0 229.5 85t124.5 216q6 30 6 59q0 103 -67 158q-65 51 -218 98q-124 41 -172.5 66.5t-85.5 68.5q-63 69 -63 193q0 35 6 76q34 178 173.5 292.5t322.5 114.5q164 0 260 -89.5t96 -240.5
q0 -22 -8 -80h-158q4 32 4 46q0 103 -59.5 164t-163.5 61q-114 0 -201.5 -74.5t-109.5 -189.5q-4 -32 -4 -47q0 -80 43 -129q26 -26 67 -45t137 -50q108 -35 163.5 -60.5t97.5 -60.5q98 -86 98 -239q0 -45 -8 -84q-35 -193 -188.5 -321t-350.5 -128q-184 0 -289.5 101
t-105.5 274q0 49 4 76zM1247 1907l-346 -258h-135l-244 258h183l147 -152l209 152h186z" />
    <glyph glyph-name="scaron" unicode="&#x161;" horiz-adv-x="794" 
d="M100 330h150q-4 -32 -4 -45q0 -83 44.5 -127.5t129.5 -44.5q83 0 146.5 54.5t78.5 139.5q4 16 4 45q0 53 -39 89t-143 81q-111 51 -134 64t-52 45q-52 58 -52 143q0 37 4 57q25 136 132 226t245 90q121 0 191.5 -67.5t70.5 -180.5q0 -19 -4 -55h-153q2 10 2 30
q0 65 -34.5 99.5t-100.5 34.5q-68 0 -123.5 -47.5t-67.5 -114.5q-4 -20 -4 -31q0 -72 80 -119q9 -4 26 -12t57 -26.5t109 -49.5q148 -67 148 -217q0 -31 -6 -69q-29 -154 -141.5 -251.5t-264.5 -97.5q-142 0 -222.5 74.5t-80.5 204.5q0 24 8 78zM1044 1534l-346 -258h-135
l-244 258h183l147 -152l209 152h186z" />
    <glyph glyph-name="Ydieresis" unicode="&#x178;" horiz-adv-x="1212" 
d="M528 0l95 506l-338 1007h168l272 -847l598 847h166l-715 -1007l-94 -506h-152zM735 1907h152l-49 -258h-152zM1036 1907h152l-49 -258h-152z" />
    <glyph glyph-name="Zcaron" unicode="&#x17d;" horiz-adv-x="983" 
d="M35 0l24 137l975 1239h-721l25 137h891l-25 -137l-973 -1239h764l-24 -137h-936zM1227 1907l-346 -258h-136l-243 258h182l147 -152l209 152h187z" />
    <glyph glyph-name="zcaron" unicode="&#x17e;" horiz-adv-x="870" 
d="M20 0l25 137l776 846h-598l25 137h770l-23 -129l-772 -854h651l-24 -137h-830zM1081 1534l-346 -258h-135l-244 258h183l147 -152l209 152h186z" />
    <glyph glyph-name="florin" unicode="&#x192;" 
d="M1024 1196h229l-49 -137h-229l-328 -883q-68 -182 -113.5 -258t-119.5 -131q-133 -100 -316 -100q-67 0 -116 14l49 131q55 -8 96 -8q144 0 221.5 74t159.5 290l326 871h-232l51 137h228l18 47q83 223 211 330q58 47 128 74.5t132 27.5q14 0 57 -6l-47 -135q-40 4 -43 4
q-181 0 -295 -295z" />
    <glyph glyph-name="uni0237" unicode="&#x237;" horiz-adv-x="415" 
d="M494 1120l-193 -1042q-31 -168 -79.5 -254t-147.5 -148q-104 -63 -240 -69l29 145q129 7 192 79t95 247l192 1042h152z" />
    <glyph glyph-name="circumflex" unicode="&#x2c6;" horiz-adv-x="1028" 
d="M387 1276l346 258h135l244 -258h-182l-148 151l-209 -151h-186z" />
    <glyph glyph-name="caron" unicode="&#x2c7;" horiz-adv-x="1028" 
d="M1161 1534l-346 -258h-135l-244 258h182l148 -152l209 152h186z" />
    <glyph glyph-name="breve" unicode="&#x2d8;" horiz-adv-x="927" 
d="M434 1522h131q0 -39 7.5 -59.5t27.5 -35.5q50 -32 121 -32t133 32q27 15 43 36t29 59h131q-28 -76 -59.5 -118t-82.5 -73q-88 -55 -217 -55q-137 0 -200.5 59.5t-63.5 186.5z" />
    <glyph glyph-name="dotaccent" unicode="&#x2d9;" horiz-adv-x="454" 
d="M436 1534h150l-47 -258h-152z" />
    <glyph glyph-name="ring" unicode="&#x2da;" horiz-adv-x="679" 
d="M643 1626q67 0 111.5 -44t44.5 -109q0 -11 -4 -35q-13 -78 -79.5 -133.5t-144.5 -55.5q-68 0 -112.5 44.5t-44.5 109.5q0 9 4 33q15 80 80.5 135t144.5 55zM625 1542q-42 0 -79 -31t-44 -75q-2 -6 -2 -19q0 -37 25 -60.5t63 -23.5q43 0 79 31t44 72q2 6 2 20
q0 37 -24.5 61.5t-63.5 24.5z" />
    <glyph glyph-name="ogonek" unicode="&#x2db;" horiz-adv-x="618" 
d="M299 0h104q-76 -47 -127 -102.5t-59 -98.5q-2 -6 -2 -16q0 -37 28.5 -59.5t75.5 -22.5q50 0 97 20l-19 -94q-65 -18 -104 -18q-82 0 -132 42t-50 109q0 21 2 33q20 119 186 207z" />
    <glyph glyph-name="tilde" unicode="&#x2dc;" horiz-adv-x="899" 
d="M956 1491l50 -94q-33 -40 -94 -70.5t-111 -30.5q-41 0 -127 45q-51 21 -78 21q-29 0 -51.5 -9.5t-67.5 -43.5l-16 -13l-49 95q94 100 209 100q28 0 49.5 -6.5t64.5 -28.5q68 -29 92 -29q56 0 129 64z" />
    <glyph glyph-name="hungarumlaut" unicode="&#x2dd;" horiz-adv-x="1130" 
d="M401 1346l398 251l57 -100l-401 -248zM803 1346l397 251l57 -100l-401 -248z" />
    <glyph glyph-name="gravecomb" unicode="&#x300;" horiz-adv-x="0" 
d="M-614 1589l362 -225l-88 -115l-362 221z" />
    <glyph glyph-name="acutecomb" unicode="&#x301;" horiz-adv-x="0" 
d="M-584 1364l441 238l47 -119l-438 -234z" />
    <glyph glyph-name="uni0302" unicode="&#x302;" horiz-adv-x="0" 
d="M-799 1276l346 258h135l244 -258h-182l-148 151l-209 -151h-186z" />
    <glyph glyph-name="tildecomb" unicode="&#x303;" horiz-adv-x="0" 
d="M-152 1491l50 -94q-33 -40 -94 -70.5t-111 -30.5q-41 0 -127 45q-51 21 -78 21q-29 0 -51.5 -9.5t-67.5 -43.5l-16 -13l-49 95q94 100 209 100q28 0 49.5 -6.5t64.5 -28.5q68 -29 92 -29q56 0 129 64z" />
    <glyph glyph-name="uni0304" unicode="&#x304;" horiz-adv-x="0" 
d="M-747 1448h690l-25 -131h-690z" />
    <glyph glyph-name="uni0306" unicode="&#x306;" horiz-adv-x="0" 
d="M-699 1522h131q0 -39 7.5 -59.5t27.5 -35.5q50 -32 121 -32t133 32q27 15 43 36t29 59h131q-28 -76 -59.5 -118t-82.5 -73q-88 -55 -217 -55q-137 0 -200.5 59.5t-63.5 186.5z" />
    <glyph glyph-name="uni0307" unicode="&#x307;" horiz-adv-x="0" 
d="M-461 1534h150l-47 -258h-152z" />
    <glyph glyph-name="uni0308" unicode="&#x308;" horiz-adv-x="0" 
d="M-613 1534h152l-49 -258h-152zM-312 1534h152l-49 -258h-152z" />
    <glyph glyph-name="uni030A" unicode="&#x30a;" horiz-adv-x="0" 
d="M-367 1626q67 0 111.5 -44t44.5 -109q0 -11 -4 -35q-13 -78 -79.5 -133.5t-144.5 -55.5q-68 0 -112.5 44.5t-44.5 109.5q0 9 4 33q15 80 80.5 135t144.5 55zM-385 1542q-42 0 -79 -31t-44 -75q-2 -6 -2 -19q0 -37 25 -60.5t63 -23.5q43 0 79 31t44 72q2 6 2 20
q0 37 -24.5 61.5t-63.5 24.5z" />
    <glyph glyph-name="uni030B" unicode="&#x30b;" horiz-adv-x="0" 
d="M-809 1346l398 251l57 -100l-401 -248zM-407 1346l397 251l57 -100l-401 -248z" />
    <glyph glyph-name="uni030C" unicode="&#x30c;" horiz-adv-x="0" 
d="M-25 1534l-346 -258h-135l-244 258h182l148 -152l209 152h186z" />
    <glyph glyph-name="uni0400" unicode="&#x400;" horiz-adv-x="1097" 
d="M156 0l280 1513h828l-25 -137h-676l-102 -542h653l-24 -138h-654l-104 -559h676l-25 -137h-827zM696 1962l363 -225l-88 -115l-363 221z" />
    <glyph glyph-name="uni0401" unicode="&#x401;" horiz-adv-x="1097" 
d="M156 0l280 1513h828l-25 -137h-676l-102 -542h653l-24 -138h-654l-104 -559h676l-25 -137h-827zM698 1907h152l-49 -258h-152zM999 1907h152l-49 -258h-152z" />
    <glyph glyph-name="uni0402" unicode="&#x402;" horiz-adv-x="1372" 
d="M741 111q252 0 364 74t148 274q7 44 7 69q0 128 -86 185q-42 29 -91 40t-139 11h-291l-141 -764h-152l256 1376h-346l25 137h885l-25 -137h-387l-88 -475h301q135 0 206 -21t132 -73q96 -81 96 -246q0 -55 -8 -102q-33 -180 -111 -285t-216.5 -153t-362.5 -48z" />
    <glyph glyph-name="uni0403" unicode="&#x403;" horiz-adv-x="909" 
d="M579 1737l441 238l47 -119l-438 -234zM1151 1376h-588l-256 -1376h-151l280 1513h740z" />
    <glyph glyph-name="uni0404" unicode="&#x404;" horiz-adv-x="1665" 
d="M1483 397h168q-306 -424 -770 -424q-297 0 -481.5 176t-184.5 453q0 79 14 150q41 223 176 403.5t333.5 282.5t420.5 102q235 0 401.5 -112.5t217.5 -307.5h-170q-124 281 -467 281q-249 0 -456.5 -158.5t-281.5 -402.5h959l-25 -138h-960q-4 -40 -4 -61
q0 -148 66.5 -268.5t188 -190t275.5 -69.5q171 0 311.5 75t268.5 209z" />
    <glyph glyph-name="uni0405" unicode="&#x405;" horiz-adv-x="1019" 
d="M123 424h162q-2 -20 -2 -55q0 -89 41 -150q32 -51 90 -78.5t129 -27.5q130 0 229.5 85t124.5 216q6 30 6 59q0 103 -67 158q-65 51 -218 98q-124 41 -172.5 66.5t-85.5 68.5q-63 69 -63 193q0 35 6 76q34 178 173.5 292.5t322.5 114.5q164 0 260 -89.5t96 -240.5
q0 -22 -8 -80h-158q4 32 4 46q0 103 -59.5 164t-163.5 61q-114 0 -201.5 -74.5t-109.5 -189.5q-4 -32 -4 -47q0 -80 43 -129q26 -26 67 -45t137 -50q108 -35 163.5 -60.5t97.5 -60.5q98 -86 98 -239q0 -45 -8 -84q-35 -193 -188.5 -321t-350.5 -128q-184 0 -289.5 101
t-105.5 274q0 49 4 76z" />
    <glyph glyph-name="uni0406" unicode="&#x406;" horiz-adv-x="462" 
d="M156 0l280 1513h152l-281 -1513h-151z" />
    <glyph glyph-name="uni0407" unicode="&#x407;" horiz-adv-x="462" 
d="M158 0l280 1513h152l-281 -1513h-151zM360 1907h152l-49 -258h-152zM662 1907h151l-49 -258h-152z" />
    <glyph glyph-name="uni0408" unicode="&#x408;" horiz-adv-x="987" 
d="M1112 1513l-192 -1040q-44 -244 -172.5 -373t-325.5 -129q-162 0 -250 82t-88 232q0 48 4 73h150q-2 -14 -2 -41q0 -97 57 -151.5t158 -54.5q249 0 317 362l193 1040h151z" />
    <glyph glyph-name="uni0409" unicode="&#x409;" horiz-adv-x="2164" 
d="M1399 733l-111 -596h215q206 0 318 31q86 25 143.5 96t77.5 176q6 38 6 70q0 124 -86 174q-80 49 -283 49h-280zM1356 1319l-1153 -1319h-180l1327 1513h194l-119 -643h291q154 0 242.5 -20.5t148.5 -69.5q99 -79 99 -239q0 -35 -11 -99q-23 -126 -87.5 -220t-159.5 -144
q-78 -41 -175.5 -59.5t-242.5 -18.5h-418z" />
    <glyph glyph-name="uni040A" unicode="&#x40a;" horiz-adv-x="2082" 
d="M1317 733l-111 -596h215q206 0 318 31q86 25 143.5 96t77.5 176q6 38 6 70q0 124 -86 174q-80 49 -283 49h-280zM1165 733h-723l-135 -733h-151l280 1513h152l-119 -643h723l119 643h151l-119 -643h291q154 0 242.5 -20.5t148.5 -69.5q99 -79 99 -239q0 -41 -10 -99
q-23 -125 -87.5 -219.5t-160.5 -144.5q-78 -41 -175.5 -59.5t-242.5 -18.5h-418z" />
    <glyph glyph-name="uni040B" unicode="&#x40b;" horiz-adv-x="1443" 
d="M1296 0h-151l86 463q6 34 6 67q0 62 -23 111t-63 76q-76 51 -229 51q-130 0 -269 -8l-141 -760h-152l256 1376h-346l25 137h885l-25 -137h-387l-90 -479q200 8 278 8q227 0 338 -94q47 -40 73 -104t26 -142q0 -38 -11 -102z" />
    <glyph glyph-name="uni040C" unicode="&#x40c;" horiz-adv-x="1210" 
d="M690 1737l441 238l47 -119l-438 -234zM993 0l-555 705l-131 -705h-151l280 1513h152l-129 -694l819 694h201l-887 -749l606 -764h-205z" />
    <glyph glyph-name="uni040D" unicode="&#x40d;" horiz-adv-x="1515" 
d="M801 1962l362 -225l-88 -115l-362 221zM1489 1513h151l-280 -1513h-152l240 1288l-1141 -1288h-151l280 1513h152l-240 -1288z" />
    <glyph glyph-name="uni040E" unicode="&#x40e;" horiz-adv-x="1155" 
d="M590 1907h153q-6 -27 -6 -52q0 -131 160 -131q188 0 223 183h154q-99 -277 -393 -277q-291 0 -291 277zM1415 1513l-930 -1513h-159l245 401l-270 1112h160l225 -925l569 925h160z" />
    <glyph glyph-name="uni040F" unicode="&#x40f;" horiz-adv-x="1368" 
d="M1341 1513h152l-281 -1513h-444l-82 -279h-106l20 279h-444l280 1513h152l-256 -1376h753z" />
    <glyph glyph-name="uni0410" unicode="&#x410;" horiz-adv-x="1515" 
d="M23 0l929 1513h170l371 -1513h-166l-125 510h-704l-316 -510h-159zM582 647h587l-163 694z" />
    <glyph glyph-name="uni0411" unicode="&#x411;" horiz-adv-x="1198" 
d="M446 748l-114 -611h209q207 0 307 33q84 26 141.5 99t77.5 180q6 40 6 75q0 126 -82 174q-74 50 -272 50h-273zM563 1376l-92 -491h285q150 0 236 -21t145 -71q94 -79 94 -236q0 -44 -10 -106q-23 -127 -87.5 -223.5t-158.5 -147.5q-77 -43 -171.5 -61.5t-236.5 -18.5
h-411l280 1513h887l-25 -137h-735z" />
    <glyph glyph-name="uni0412" unicode="&#x412;" horiz-adv-x="1175" 
d="M156 0l280 1513h355q137 0 223.5 -21t142.5 -67q88 -76 88 -217q0 -36 -10 -88q-22 -114 -75.5 -189t-149.5 -124q100 -44 147 -111.5t47 -165.5q0 -38 -10 -96q-22 -117 -84.5 -210.5t-151.5 -143.5q-80 -43 -178.5 -61.5t-249.5 -18.5h-374zM332 137h207q223 0 338 56
q59 28 104.5 92t58.5 141q7 44 7 68q0 75 -34.5 127.5t-97.5 74.5q-91 29 -292 29h-181zM467 862h184q102 0 162 8.5t113 30.5q61 26 101 82.5t54 134.5q6 30 6 62q0 101 -55 143q-36 29 -102.5 41t-184.5 12h-182z" />
    <glyph glyph-name="uni0413" unicode="&#x413;" horiz-adv-x="909" 
d="M1151 1376h-588l-256 -1376h-151l280 1513h740z" />
    <glyph glyph-name="uni0414" unicode="&#x414;" horiz-adv-x="1736" 
d="M379 137h1028l-291 1204zM1724 137l-75 -416h-107l-6 279h-1335l-109 -279h-106l75 416h156l846 1376h172l334 -1376h155z" />
    <glyph glyph-name="uni0415" unicode="&#x415;" horiz-adv-x="1097" 
d="M156 0l280 1513h828l-25 -137h-676l-102 -542h653l-24 -138h-654l-104 -559h676l-25 -137h-827z" />
    <glyph glyph-name="uni0416" unicode="&#x416;" horiz-adv-x="1699" 
d="M926 0h-152l133 717l-704 -717h-191l754 764l-473 749h188l443 -706l131 706h151l-131 -706l705 706h188l-751 -749l471 -764h-191l-438 717z" />
    <glyph glyph-name="uni0417" unicode="&#x417;" horiz-adv-x="1060" 
d="M590 889q161 0 261.5 64.5t123.5 185.5q4 32 4 47q0 91 -58.5 152t-150.5 61q-105 0 -194 -77t-109 -183h-158q31 164 174 282.5t312 118.5q151 0 248.5 -94.5t97.5 -233.5q0 -19 -8 -69q-12 -67 -46.5 -124t-79.5 -94t-91 -60.5t-91 -33.5q97 -21 174.5 -109t77.5 -216
q0 -36 -6 -74q-23 -124 -106.5 -230t-204.5 -167.5t-250 -61.5q-173 0 -286 110t-113 273q0 40 6 80h162q-5 -25 -5 -59q0 -112 73.5 -186t189.5 -74q131 0 239 93t133 226q9 56 9 68q0 65 -28 114t-77.5 77.5t-111.5 42.5t-136 14z" />
    <glyph glyph-name="uni0418" unicode="&#x418;" horiz-adv-x="1515" 
d="M1489 1513h151l-280 -1513h-152l240 1288l-1141 -1288h-151l280 1513h152l-240 -1288z" />
    <glyph glyph-name="uni0419" unicode="&#x419;" horiz-adv-x="1515" 
d="M770 1907h153q-6 -27 -6 -52q0 -131 160 -131q188 0 223 183h154q-99 -277 -393 -277q-291 0 -291 277zM1489 1513h151l-280 -1513h-152l240 1288l-1141 -1288h-151l280 1513h152l-240 -1288z" />
    <glyph glyph-name="uni041A" unicode="&#x41a;" horiz-adv-x="1210" 
d="M993 0l-555 705l-131 -705h-151l280 1513h152l-129 -694l819 694h201l-887 -749l606 -764h-205z" />
    <glyph glyph-name="uni041B" unicode="&#x41b;" horiz-adv-x="1515" 
d="M1329 0l-323 1341l-820 -1341h-163l931 1513h168l371 -1513h-164z" />
    <glyph glyph-name="uni041C" unicode="&#x41c;" horiz-adv-x="1882" 
d="M156 0l280 1513h236l311 -1288l789 1288h235l-281 -1513h-151l250 1348l-819 -1348h-132l-317 1348l-250 -1348h-151z" />
    <glyph glyph-name="uni041D" unicode="&#x41d;" horiz-adv-x="1398" 
d="M156 0l280 1513h152l-123 -665h784l123 665h152l-281 -1513h-151l131 711h-785l-131 -711h-151z" />
    <glyph glyph-name="uni041E" unicode="&#x41e;" horiz-adv-x="1779" 
d="M1186 1540q140 0 263 -49.5t209 -135.5t135.5 -205.5t49.5 -254.5q0 -57 -14 -139q-39 -211 -179.5 -391.5t-344 -286t-418.5 -105.5q-144 0 -269 49.5t-213 135.5t-138 205.5t-50 254.5q0 68 12 138q39 214 180.5 394.5t348 285t428.5 104.5zM1143 1401q-170 0 -334 -88
t-279 -237t-147 -320q-10 -49 -10 -115q0 -226 152 -377t386 -151q173 0 337.5 86.5t279.5 234.5t147 320q13 67 13 118q0 228 -153 378.5t-392 150.5z" />
    <glyph glyph-name="uni041F" unicode="&#x41f;" horiz-adv-x="1370" 
d="M307 0h-151l280 1513h1059l-281 -1513h-151l256 1376h-756z" />
    <glyph glyph-name="uni0420" unicode="&#x420;" horiz-adv-x="1212" 
d="M156 0l280 1513h418q147 0 236.5 -18t152.5 -61q121 -80 121 -267q0 -53 -12 -112q-22 -115 -77 -204.5t-138 -143.5q-78 -51 -175.5 -73t-250.5 -22h-291l-113 -612h-151zM446 750h281q203 0 299 51q66 32 111.5 99t62.5 157q8 39 8 82q0 160 -125 204q-90 33 -305 33
h-215z" />
    <glyph glyph-name="uni0421" unicode="&#x421;" horiz-adv-x="1665" 
d="M1483 397h168q-306 -424 -770 -424q-297 0 -481.5 176t-184.5 453q0 79 14 150q41 223 176 403.5t333.5 282.5t420.5 102q235 0 401.5 -112.5t217.5 -307.5h-170q-30 70 -61 110.5t-79 74.5q-134 96 -327 96q-178 0 -340 -84t-272 -231.5t-144 -327.5q-12 -62 -12 -119
q0 -148 67 -268t188.5 -189t274.5 -69q219 0 408 131q82 58 172 153z" />
    <glyph glyph-name="uni0422" unicode="&#x422;" horiz-adv-x="872" 
d="M360 0l256 1376h-346l25 137h844l-25 -137h-346l-256 -1376h-152z" />
    <glyph glyph-name="uni0423" unicode="&#x423;" horiz-adv-x="1155" 
d="M1415 1513l-930 -1513h-159l245 401l-270 1112h160l225 -925l569 925h160z" />
    <glyph glyph-name="uni0424" unicode="&#x424;" horiz-adv-x="1662" 
d="M1174 1432q263 -21 416 -175t153 -374q0 -51 -10 -113q-50 -268 -270.5 -452t-534.5 -207l-21 -111h-151l20 111q-267 20 -419 166.5t-152 369.5q0 59 12 123q23 125 93.5 240t174.5 204t244 147.5t293 70.5l14 81h152zM954 250q247 23 416.5 167.5t208.5 352.5
q8 41 8 90q0 171 -117 291.5t-323 140.5zM995 1292q-243 -23 -414.5 -172t-209.5 -350q-11 -60 -11 -96q0 -173 117 -288.5t326 -135.5z" />
    <glyph glyph-name="uni0425" unicode="&#x425;" horiz-adv-x="1247" 
d="M16 0l658 774l-348 739h178l289 -606l512 606h176l-623 -739l373 -774h-178l-308 647l-550 -647h-179z" />
    <glyph glyph-name="uni0426" unicode="&#x426;" horiz-adv-x="1445" 
d="M1323 1513h152l-256 -1376h198l-76 -416h-106l-6 279h-1073l280 1513h152l-256 -1376h735z" />
    <glyph glyph-name="uni0427" unicode="&#x427;" horiz-adv-x="1218" 
d="M369 1513h153l-86 -469q-10 -55 -10 -92q0 -122 72 -166q85 -55 272 -55q97 0 281 23l141 759h151l-280 -1513h-152l115 616q-176 -22 -291 -22q-120 0 -221.5 24.5t-159.5 73.5q-86 74 -86 226q0 42 15 126z" />
    <glyph glyph-name="uni0428" unicode="&#x428;" horiz-adv-x="1835" 
d="M1679 0h-1523l280 1513h152l-256 -1376h534l256 1376h152l-256 -1376h534l256 1376h152z" />
    <glyph glyph-name="uni0429" unicode="&#x429;" horiz-adv-x="1931" 
d="M1808 1513h152l-256 -1376h199l-76 -416h-107l-6 279h-1558l280 1513h152l-256 -1376h534l256 1376h152l-256 -1376h534z" />
    <glyph glyph-name="uni042A" unicode="&#x42a;" horiz-adv-x="1550" 
d="M784 733l-110 -596h215q205 0 317 31q86 25 143.5 96t77.5 176q7 44 7 70q0 124 -86 174q-80 49 -283 49h-281zM930 1513l-119 -643h291q154 0 242.5 -20.5t148.5 -69.5q98 -79 98 -239q0 -41 -10 -99q-23 -125 -87.5 -219.5t-160.5 -144.5q-78 -41 -175.5 -59.5
t-242.5 -18.5h-417l256 1376h-484l25 137h635z" />
    <glyph glyph-name="uni042B" unicode="&#x42b;" horiz-adv-x="1660" 
d="M1354 0l280 1513h152l-281 -1513h-151zM436 1513h152l-119 -643h291q154 0 242.5 -20.5t148.5 -69.5q98 -79 98 -239q0 -41 -10 -99q-23 -125 -87.5 -219.5t-160.5 -144.5q-78 -41 -175.5 -59.5t-242.5 -18.5h-417zM442 733l-110 -596h215q205 0 317 31q86 25 143.5 96
t77.5 176q7 44 7 70q0 124 -86 174q-80 49 -283 49h-281z" />
    <glyph glyph-name="uni042C" unicode="&#x42c;" horiz-adv-x="1208" 
d="M436 1513h152l-119 -643h291q154 0 242.5 -20.5t148.5 -69.5q98 -79 98 -239q0 -41 -10 -99q-23 -125 -87.5 -219.5t-160.5 -144.5q-78 -41 -175.5 -59.5t-242.5 -18.5h-417zM442 733l-110 -596h215q205 0 317 31q86 25 143.5 96t77.5 176q7 44 7 70q0 124 -86 174
q-80 49 -283 49h-281z" />
    <glyph glyph-name="uni042D" unicode="&#x42d;" horiz-adv-x="1665" 
d="M330 397q76 -134 189 -209t284 -75q164 0 320 78t269.5 213t157.5 298h-960l24 138h959q0 7 1 21.5t1 21.5q0 228 -147 373t-384 145q-343 0 -573 -281h-170q124 195 331.5 307.5t442.5 112.5q195 0 344 -79.5t229.5 -222.5t80.5 -327q0 -77 -15 -159
q-40 -218 -176.5 -396.5t-337.5 -280.5t-424 -102q-463 0 -614 424h168z" />
    <glyph glyph-name="uni042E" unicode="&#x42e;" horiz-adv-x="2238" 
d="M1595 1415q-180 0 -349.5 -89.5t-285.5 -239.5t-149 -324q-12 -61 -12 -123q0 -114 40.5 -214t112 -172t175.5 -113.5t225 -41.5q181 0 350 89t284 239t148 326q12 62 12 120q0 152 -68.5 275.5t-195 195.5t-287.5 72zM1620 1552q148 0 276 -50t216.5 -137t139 -207.5
t50.5 -258.5q0 -57 -14 -143q-30 -160 -121 -307t-219.5 -254t-292 -170.5t-330.5 -63.5q-151 0 -278.5 49t-216 135t-138 207t-49.5 262q0 48 6 97h-211l-131 -711h-151l280 1513h152l-123 -665h213q43 146 137.5 276t219 224t277.5 149t308 55z" />
    <glyph glyph-name="uni042F" unicode="&#x42f;" horiz-adv-x="1243" 
d="M1079 770l113 606h-209q-216 0 -307 -30q-83 -25 -140 -98t-77 -181q-8 -54 -8 -74q0 -128 81 -174q77 -49 275 -49h272zM1087 0h-151l117 633h-287l-537 -633h-178l547 643q-131 16 -209 82q-96 81 -96 236q0 42 10 104q23 127 87.5 224t158.5 147q77 41 171 59t236 18
h412z" />
    <glyph glyph-name="uni0430" unicode="&#x430;" horiz-adv-x="1398" 
d="M1477 1120l-207 -1120h-152l37 197q-110 -120 -219.5 -172t-251.5 -52q-227 0 -366.5 130.5t-139.5 338.5q0 66 10 115q30 165 132.5 300.5t252.5 212.5t316 77q146 0 241 -53.5t158 -171.5l37 198h152zM860 1008q-180 0 -331 -130.5t-185 -314.5q-8 -39 -8 -86
q0 -159 103.5 -261.5t267.5 -102.5q183 0 332 130t184 320q8 41 8 88q0 158 -102.5 257.5t-268.5 99.5z" />
    <glyph glyph-name="uni0431" unicode="&#x431;" horiz-adv-x="1368" 
d="M1477 1475l-471 -43q-260 -25 -421 -172.5t-214 -403.5l6 -2q76 128 208.5 210.5t319.5 82.5q218 0 355 -133t137 -340q0 -42 -11 -113q-30 -166 -132 -300.5t-251.5 -211t-316.5 -76.5q-192 0 -315 99q-88 69 -126 157t-38 213q0 135 51 408q63 342 248.5 518t511.5 205
l485 41zM707 113q189 0 340 129.5t186 322.5q8 41 8 88q0 156 -101 255.5t-266 99.5q-187 0 -335.5 -128t-182.5 -315q-8 -44 -8 -96q0 -158 97 -257t262 -99z" />
    <glyph glyph-name="uni0432" unicode="&#x432;" horiz-adv-x="1095" 
d="M377 520l-72 -383h289q88 0 156.5 19t117.5 64t62 114q4 24 4 37q0 149 -268 149h-289zM1118 825q-15 -81 -75 -140t-119 -83q166 -65 166 -213q0 -23 -7 -55q-27 -144 -159.5 -239t-315.5 -95h-479l207 1120h448q159 0 248.5 -62t89.5 -175q0 -38 -4 -58zM973 825
q2 10 2 29q0 129 -240 129h-272l-62 -326h273q123 0 202.5 42t96.5 126z" />
    <glyph glyph-name="uni0433" unicode="&#x433;" horiz-adv-x="727" 
d="M909 1120l-24 -137h-422l-182 -983h-152l207 1120h573z" />
    <glyph glyph-name="uni0434" unicode="&#x434;" horiz-adv-x="1372" 
d="M1178 0h-983l-103 -258h-104l71 395h146l602 983h172l238 -983h145l-72 -395h-104zM1057 137l-195 811l-497 -811h692z" />
    <glyph glyph-name="uni0435" unicode="&#x435;" horiz-adv-x="1331" 
d="M1346 510h-1014q-2 -16 -2 -51q0 -149 102.5 -247.5t261.5 -98.5q128 0 249 70.5t190 185.5h157q-94 -177 -263.5 -286.5t-352.5 -109.5q-218 0 -356 135.5t-138 344.5q0 47 10 112q29 160 131 294t250 211t308 77q166 0 289.5 -82t170.5 -223q27 -86 27 -156
q0 -59 -20 -176zM362 647h859q-7 167 -106.5 264t-262.5 97q-160 0 -295 -100t-195 -261z" />
    <glyph glyph-name="uni0436" unicode="&#x436;" horiz-adv-x="1437" 
d="M850 1120h151l-94 -508l537 508h190l-579 -545l372 -575h-190l-342 537l-100 -537h-152l100 537l-542 -537h-191l586 575l-379 545h191l348 -508z" />
    <glyph glyph-name="uni0437" unicode="&#x437;" horiz-adv-x="983" 
d="M500 528l22 125q148 0 231 49.5t99 135.5q2 8 2 24q0 61 -51 102.5t-129 41.5q-86 0 -151.5 -48.5t-84.5 -119.5h-153q31 132 149 220.5t268 88.5q135 0 221.5 -72.5t86.5 -185.5q0 -35 -4 -51q-15 -80 -78 -148t-148 -92q87 -25 141 -81.5t54 -141.5q0 -24 -6 -51
q-28 -147 -168 -249t-314 -102q-159 0 -257.5 86t-98.5 217q0 32 2 48h154v-23q0 -82 60.5 -135t162.5 -53q112 0 200 61.5t105 149.5q4 20 4 30q0 77 -79 125.5t-240 48.5z" />
    <glyph glyph-name="uni0438" unicode="&#x438;" horiz-adv-x="1243" 
d="M1169 1120h152l-207 -1120h-151l167 905l-849 -905h-152l207 1120h151l-168 -905z" />
    <glyph glyph-name="uni0439" unicode="&#x439;" horiz-adv-x="1243" 
d="M592 1528h152q-4 -18 -4 -51q0 -121 133 -121q157 0 190 172h152q-48 -134 -141 -200t-220 -66q-126 0 -194 65.5t-68 200.5zM1169 1120h152l-207 -1120h-151l167 905l-849 -905h-152l207 1120h151l-168 -905z" />
    <glyph glyph-name="uni043A" unicode="&#x43a;" horiz-adv-x="999" 
d="M336 1120h151l-92 -499l604 499h197l-659 -542l452 -578h-198l-412 528l-98 -528h-152z" />
    <glyph glyph-name="uni043B" unicode="&#x43b;" horiz-adv-x="1153" 
d="M1143 0h-160l-229 948l-584 -948h-160l688 1120h170z" />
    <glyph glyph-name="uni043C" unicode="&#x43c;" horiz-adv-x="1511" 
d="M129 0l207 1120h235l224 -909l559 909h235l-207 -1120h-151l176 954l-586 -954h-131l-233 954l-176 -954h-152z" />
    <glyph glyph-name="uni043D" unicode="&#x43d;" horiz-adv-x="1232" 
d="M1104 0h-152l92 502h-671l-92 -502h-152l207 1120h151l-88 -481h672l88 481h152z" />
    <glyph glyph-name="uni043E" unicode="&#x43e;" horiz-adv-x="1341" 
d="M893 1147q215 0 346 -131t131 -338q0 -60 -12 -121q-46 -252 -238.5 -418t-439.5 -166q-225 0 -363.5 131.5t-138.5 339.5q0 56 12 115q23 126 88 235t157.5 186.5t211.5 122t246 44.5zM854 1008q-184 0 -330.5 -128.5t-181.5 -322.5q-8 -41 -8 -90q0 -158 100 -256
t266 -98q185 0 327 124.5t177 317.5q10 58 10 98q0 159 -98 257t-262 98z" />
    <glyph glyph-name="uni043F" unicode="&#x43f;" horiz-adv-x="1222" 
d="M1094 0h-152l182 983h-661l-182 -983h-152l207 1120h964z" />
    <glyph glyph-name="uni0440" unicode="&#x440;" horiz-adv-x="1396" 
d="M336 1120h151l-34 -192q185 219 481 219q220 0 355.5 -132.5t135.5 -340.5q0 -66 -10 -115q-23 -122 -88.5 -230.5t-159 -186.5t-212 -123.5t-242.5 -45.5q-140 0 -242 56.5t-156 163.5l-108 -586h-152zM895 1008q-184 0 -334.5 -130t-185.5 -319q-8 -41 -8 -86
q0 -158 102 -259t266 -101q189 0 339.5 126.5t185.5 315.5q10 55 10 94q0 161 -103 260t-272 99z" />
    <glyph glyph-name="uni0441" unicode="&#x441;" horiz-adv-x="1325" 
d="M1135 330h172q-66 -91 -115.5 -142.5t-112.5 -93.5q-177 -121 -387 -121q-227 0 -369.5 135t-142.5 345q0 45 10 110q29 160 133.5 294.5t257.5 212t318 77.5q190 0 321.5 -99t168.5 -268h-170q-44 110 -134 169t-215 59q-187 0 -339 -130t-187 -319q-8 -39 -8 -84
q0 -158 104.5 -260t270.5 -102q120 0 217.5 50t206.5 167z" />
    <glyph glyph-name="uni0442" unicode="&#x442;" horiz-adv-x="786" 
d="M944 983h-291l-182 -983h-152l183 983h-295l24 137h738z" />
    <glyph glyph-name="uni0443" unicode="&#x443;" horiz-adv-x="1097" 
d="M197 -393l262 430l-234 1083h166l191 -893l542 893h162l-928 -1513h-161z" />
    <glyph glyph-name="uni0444" unicode="&#x444;" horiz-adv-x="1605" 
d="M1008 1513h151l-67 -368q283 -13 416.5 -122.5t133.5 -313.5q0 -76 -14 -150q-51 -274 -233.5 -421.5t-520.5 -162.5l-69 -368h-152l70 368q-284 13 -418.5 123t-134.5 312q0 64 16 149q51 275 234 423t520 163zM913 1006q-262 -13 -398 -123.5t-175 -323.5
q-12 -65 -12 -119q0 -153 100.5 -233t319.5 -92zM899 115q263 13 400 122.5t176 321.5q10 54 10 119q0 154 -100.5 235t-319.5 93z" />
    <glyph glyph-name="uni0445" unicode="&#x445;" horiz-adv-x="983" 
d="M16 0l496 571l-289 549h172l223 -432l381 432h175l-492 -549l285 -571h-174l-218 449l-387 -449h-172z" />
    <glyph glyph-name="uni0446" unicode="&#x446;" horiz-adv-x="1273" 
d="M1280 1120l-182 -983h182l-72 -395h-104l-8 258h-967l207 1120h151l-182 -983h641l182 983h152z" />
    <glyph glyph-name="uni0447" unicode="&#x447;" horiz-adv-x="1071" 
d="M1149 1120l-207 -1120h-151l81 446q-173 -20 -354 -20q-55 0 -114.5 17.5t-92.5 45.5q-84 66 -84 199q0 32 11 92l61 340h152l-62 -340q-8 -39 -8 -73q0 -82 62 -113t221 -31q89 0 235 19l98 538h152z" />
    <glyph glyph-name="uni0448" unicode="&#x448;" horiz-adv-x="1642" 
d="M1513 0h-1384l207 1120h151l-182 -983h465l182 983h152l-182 -983h464l183 983h151z" />
    <glyph glyph-name="uni0449" unicode="&#x449;" horiz-adv-x="1714" 
d="M1720 1120l-182 -983h182l-71 -395h-105l-8 258h-1407l207 1120h151l-182 -983h465l182 983h152l-182 -983h464l183 983h151z" />
    <glyph glyph-name="uni044A" unicode="&#x44a;" horiz-adv-x="1292" 
d="M985 672q154 0 241 -75t87 -198q0 -28 -6 -63q-27 -147 -149.5 -241.5t-297.5 -94.5h-481l182 983h-354l24 137h506l-82 -448h330zM629 535l-74 -398h291q268 0 307 199q0 3 3 20t3 25q0 154 -239 154h-291z" />
    <glyph glyph-name="uni044B" unicode="&#x44b;" horiz-adv-x="1390" 
d="M379 535l-74 -398h270q269 0 308 199q0 3 3 20t3 25q0 154 -240 154h-270zM715 672q154 0 240.5 -75t86.5 -198q0 -28 -6 -63q-27 -147 -149.5 -241.5t-296.5 -94.5h-461l207 1120h151l-81 -448h309zM1468 1120l-206 -1120h-152l207 1120h151z" />
    <glyph glyph-name="uni044C" unicode="&#x44c;" horiz-adv-x="1042" 
d="M379 535l-74 -398h291q268 0 307 199q0 3 3 20t3 25q0 154 -239 154h-291zM735 672q154 0 241 -75t87 -198q0 -28 -6 -63q-27 -147 -149.5 -241.5t-297.5 -94.5h-481l207 1120h151l-81 -448h329z" />
    <glyph glyph-name="uni044D" unicode="&#x44d;" horiz-adv-x="1318" 
d="M313 317q46 -95 132.5 -149.5t203.5 -54.5q172 0 318.5 110t199.5 275h-667l24 137h666q0 2 1 5t1 5q0 158 -104 260.5t-267 102.5q-245 0 -420 -215h-174q104 166 267 260t352 94q222 0 362 -135.5t140 -341.5q0 -39 -11 -107q-46 -250 -253.5 -420t-465.5 -170
q-186 0 -305.5 92t-173.5 252h174z" />
    <glyph glyph-name="uni044E" unicode="&#x44e;" horiz-adv-x="1755" 
d="M1262 1016q-192 0 -343 -129t-188 -324q-10 -58 -10 -98q0 -163 103 -262t276 -99q189 0 334 127t182 324q10 55 10 96q0 161 -100 263t-264 102zM1288 1155q224 0 360 -131.5t136 -343.5q0 -58 -12 -123q-31 -168 -131.5 -303.5t-248 -212t-313.5 -76.5
q-234 0 -374 133.5t-140 347.5q0 38 2 56h-194l-92 -502h-152l207 1120h151l-88 -481h195q68 224 263.5 370t430.5 146z" />
    <glyph glyph-name="uni044F" unicode="&#x44f;" horiz-adv-x="1034" 
d="M862 590l74 393h-260q-271 0 -307 -197q-4 -28 -4 -43q0 -153 237 -153h260zM590 453l-400 -453h-172l410 465q-105 24 -162 93t-57 165q0 29 6 63q27 145 150 239.5t297 94.5h450l-207 -1120h-151l84 453h-248z" />
    <glyph glyph-name="uni0450" unicode="&#x450;" horiz-adv-x="1331" 
d="M1346 510h-1014q-2 -16 -2 -51q0 -149 102.5 -247.5t261.5 -98.5q128 0 249 70.5t190 185.5h157q-94 -177 -263.5 -286.5t-352.5 -109.5q-218 0 -356 135.5t-138 344.5q0 47 10 112q29 160 131 294t250 211t308 77q166 0 289.5 -82t170.5 -223q27 -86 27 -156
q0 -59 -20 -176zM362 647h859q-7 167 -106.5 264t-262.5 97q-160 0 -295 -100t-195 -261zM733 1589l363 -225l-88 -115l-363 221z" />
    <glyph glyph-name="uni0451" unicode="&#x451;" horiz-adv-x="1331" 
d="M1346 510h-1014q-2 -16 -2 -51q0 -149 102.5 -247.5t261.5 -98.5q128 0 249 70.5t190 185.5h157q-94 -177 -263.5 -286.5t-352.5 -109.5q-218 0 -356 135.5t-138 344.5q0 47 10 112q29 160 131 294t250 211t308 77q166 0 289.5 -82t170.5 -223q27 -86 27 -156
q0 -59 -20 -176zM362 647h859q-7 167 -106.5 264t-262.5 97q-160 0 -295 -100t-195 -261zM733 1534h152l-49 -258h-152zM1034 1534h152l-49 -258h-152z" />
    <glyph glyph-name="uni0452" unicode="&#x452;" horiz-adv-x="1355" 
d="M778 -371l27 138q59 0 106.5 18t75.5 43t48 59.5t28 60t12 52.5l82 438q12 59 12 131q0 99 -41 160q-75 115 -223 115q-168 0 -291 -146q-39 -45 -61.5 -101t-40.5 -146l-84 -451h-152l218 1176h-252l26 137h252l37 200h152l-37 -200h383l-27 -137h-383l-67 -365
q149 172 366 172q237 0 336 -172q45 -80 45 -201q0 -84 -16 -172l-82 -438q-8 -42 -25.5 -86.5t-53.5 -97t-84 -93t-122.5 -67.5t-163.5 -27z" />
    <glyph glyph-name="uni0453" unicode="&#x453;" horiz-adv-x="727" 
d="M471 1364l441 238l47 -119l-438 -234zM909 1120l-24 -137h-422l-182 -983h-152l207 1120h573z" />
    <glyph glyph-name="uni0454" unicode="&#x454;" horiz-adv-x="1318" 
d="M1124 317h174q-111 -160 -265.5 -252t-340.5 -92q-227 0 -369.5 135t-142.5 345q0 45 10 110q29 160 133.5 294.5t257.5 212t318 77.5q189 0 317 -94t170 -260h-174q-45 105 -131.5 160t-210.5 55q-167 0 -309.5 -105.5t-198.5 -267.5h666l-24 -137h-668v-23
q0 -157 104.5 -259.5t270.5 -102.5q117 0 225 54.5t188 149.5z" />
    <glyph glyph-name="uni0455" unicode="&#x455;" horiz-adv-x="794" 
d="M98 330h150q-4 -32 -4 -45q0 -83 44.5 -127.5t129.5 -44.5q83 0 146.5 54.5t78.5 139.5q4 16 4 45q0 53 -39 89t-143 81q-111 51 -134 64t-52 45q-52 58 -52 143q0 37 4 57q25 136 132 226t245 90q121 0 191.5 -67.5t70.5 -180.5q0 -19 -4 -55h-153q2 10 2 30
q0 65 -34.5 99.5t-100.5 34.5q-68 0 -123.5 -47.5t-67.5 -114.5q-4 -20 -4 -31q0 -72 80 -119q9 -4 26 -12t57 -26.5t109 -49.5q148 -67 148 -217q0 -31 -6 -69q-29 -154 -141.5 -251.5t-264.5 -97.5q-142 0 -222.5 74.5t-80.5 204.5q0 24 8 78z" />
    <glyph glyph-name="uni0456" unicode="&#x456;" horiz-adv-x="409" 
d="M129 0l207 1120h151l-206 -1120h-152zM362 1255l48 258h151l-47 -258h-152z" />
    <glyph glyph-name="uni0457" unicode="&#x457;" horiz-adv-x="409" 
d="M264 1534h152l-49 -258h-152zM565 1534h152l-49 -258h-152zM131 0l207 1120h151l-206 -1120h-152z" />
    <glyph glyph-name="uni0458" unicode="&#x458;" horiz-adv-x="415" 
d="M494 1120l-193 -1042q-31 -168 -79.5 -254t-147.5 -148q-104 -63 -240 -69l29 145q129 7 192 79t95 247l192 1042h152zM369 1255l47 258h151l-47 -258h-151z" />
    <glyph glyph-name="uni0459" unicode="&#x459;" horiz-adv-x="1740" 
d="M1434 672q154 0 240.5 -75t86.5 -198q0 -28 -6 -63q-27 -147 -149.5 -241.5t-296.5 -94.5h-482l172 926l-811 -926h-178l981 1120h195l-82 -448h330zM1077 535l-73 -398h290q269 0 308 199q0 3 3 20t3 25q0 154 -240 154h-291z" />
    <glyph glyph-name="uni045A" unicode="&#x45a;" horiz-adv-x="1804" 
d="M1497 672q154 0 241 -75t87 -198q0 -28 -6 -63q-27 -147 -149.5 -241.5t-297.5 -94.5h-481l98 535h-610l-98 -535h-152l207 1120h151l-81 -448h610l82 448h151l-82 -448h330zM1141 535l-74 -398h291q268 0 307 199q0 3 3 20t3 25q0 154 -239 154h-291z" />
    <glyph glyph-name="uni045B" unicode="&#x45b;" horiz-adv-x="1355" 
d="M494 1176h-252l26 137h252l37 200h152l-37 -200h383l-27 -137h-383l-67 -365q149 172 366 172q237 0 336 -172q45 -80 45 -201q0 -84 -16 -172l-82 -438h-152l82 438q12 59 12 131q0 99 -41 160q-75 115 -223 115q-168 0 -291 -146q-39 -45 -61.5 -101t-40.5 -146
l-84 -451h-152z" />
    <glyph glyph-name="uni045C" unicode="&#x45c;" horiz-adv-x="999" 
d="M587 1364l441 238l47 -119l-438 -234zM336 1120h151l-92 -499l604 499h197l-659 -542l452 -578h-198l-412 528l-98 -528h-152z" />
    <glyph glyph-name="uni045D" unicode="&#x45d;" horiz-adv-x="1243" 
d="M666 1589l362 -225l-88 -115l-362 221zM1169 1120h152l-207 -1120h-151l167 905l-849 -905h-152l207 1120h151l-168 -905z" />
    <glyph glyph-name="uni045E" unicode="&#x45e;" horiz-adv-x="1097" 
d="M520 1528h152q-4 -18 -4 -51q0 -121 133 -121q157 0 190 172h152q-48 -134 -141 -200t-220 -66q-126 0 -194 65.5t-68 200.5zM197 -393l262 430l-234 1083h166l191 -893l542 893h162l-928 -1513h-161z" />
    <glyph glyph-name="uni045F" unicode="&#x45f;" horiz-adv-x="1204" 
d="M1282 1120l-207 -1120h-391l-80 -268h-102l18 268h-391l207 1120h151l-182 -983h643l182 983h152z" />
    <glyph glyph-name="uni0462" unicode="&#x462;" horiz-adv-x="1415" 
d="M670 733l-111 -596h209q198 0 307 31q84 25 140.5 96t76.5 176q6 41 6 74q0 121 -81 170q-77 49 -275 49h-272zM664 1513h151l-43 -231h420l-25 -137h-419l-52 -275h285q147 0 234.5 -21t146.5 -69q94 -79 94 -235q0 -41 -10 -103q-23 -126 -86.5 -220t-157.5 -144
q-77 -42 -171 -60t-236 -18h-412l213 1145h-358l24 137h359z" />
    <glyph glyph-name="uni0463" unicode="&#x463;" horiz-adv-x="1214" 
d="M907 672q154 0 241 -75t87 -198q0 -28 -6 -63q-27 -147 -149.5 -241.5t-297.5 -94.5h-481l182 983h-276l24 137h277l74 393h151l-74 -393h318l-25 -137h-317l-57 -311h329zM551 535l-74 -398h291q268 0 307 199q0 3 3 20t3 25q0 154 -239 154h-291z" />
    <glyph glyph-name="uni0490" unicode="&#x490;" horiz-adv-x="909" 
d="M1151 1376h-588l-256 -1376h-151l280 1513h602l74 226h105z" />
    <glyph glyph-name="uni0491" unicode="&#x491;" horiz-adv-x="727" 
d="M946 1315l-61 -332h-422l-182 -983h-152l207 1120h440l70 195h100z" />
    <glyph glyph-name="uni2000" unicode="&#x2000;" horiz-adv-x="1024" 
 />
    <glyph glyph-name="uni2001" unicode="&#x2001;" horiz-adv-x="2048" 
 />
    <glyph glyph-name="uni2002" unicode="&#x2002;" horiz-adv-x="1024" 
 />
    <glyph glyph-name="uni2003" unicode="&#x2003;" horiz-adv-x="2048" 
 />
    <glyph glyph-name="uni2004" unicode="&#x2004;" horiz-adv-x="681" 
 />
    <glyph glyph-name="uni2005" unicode="&#x2005;" horiz-adv-x="512" 
 />
    <glyph glyph-name="uni2006" unicode="&#x2006;" horiz-adv-x="342" 
 />
    <glyph glyph-name="uni2007" unicode="&#x2007;" 
 />
    <glyph glyph-name="uni2008" unicode="&#x2008;" horiz-adv-x="567" 
 />
    <glyph glyph-name="uni2009" unicode="&#x2009;" horiz-adv-x="342" 
 />
    <glyph glyph-name="uni200A" unicode="&#x200a;" horiz-adv-x="114" 
 />
    <glyph glyph-name="uni200B" unicode="&#x200b;" horiz-adv-x="0" 
 />
    <glyph glyph-name="uni200C" unicode="&#x200c;" horiz-adv-x="0" 
 />
    <glyph glyph-name="uni200D" unicode="&#x200d;" horiz-adv-x="0" 
 />
    <glyph glyph-name="uni2010" unicode="&#x2010;" horiz-adv-x="679" 
d="M176 606h555l-24 -129h-555z" />
    <glyph glyph-name="uni2011" unicode="&#x2011;" horiz-adv-x="679" 
d="M176 606h555l-24 -129h-555z" />
    <glyph glyph-name="figuredash" unicode="&#x2012;" 
d="M176 606h1010l-25 -129h-1009z" />
    <glyph glyph-name="endash" unicode="&#x2013;" horiz-adv-x="1024" 
d="M113 606h1024l-25 -129h-1024z" />
    <glyph glyph-name="emdash" unicode="&#x2014;" horiz-adv-x="2048" 
d="M113 606h2048l-25 -129h-2048z" />
    <glyph glyph-name="uni2015" unicode="&#x2015;" horiz-adv-x="2048" 
d="M113 606h2048l-25 -129h-2048z" />
    <glyph glyph-name="quoteleft" unicode="&#x2018;" horiz-adv-x="718" 
d="M739 1120h-151l-107 393h152z" />
    <glyph glyph-name="quoteright" unicode="&#x2019;" horiz-adv-x="718" 
d="M393 1120l254 393h152l-254 -393h-152z" />
    <glyph glyph-name="quotesinglbase" unicode="&#x201a;" horiz-adv-x="724" 
d="M158 -137l252 395h151l-252 -395h-151z" />
    <glyph glyph-name="quotedblleft" unicode="&#x201c;" horiz-adv-x="1028" 
d="M1038 1120h-151l-107 393h152zM735 1120h-151l-107 393h152z" />
    <glyph glyph-name="quotedblright" unicode="&#x201d;" horiz-adv-x="991" 
d="M385 1120l254 393h152l-254 -393h-152zM680 1120l254 393h151l-254 -393h-151z" />
    <glyph glyph-name="quotedblbase" unicode="&#x201e;" horiz-adv-x="1028" 
d="M158 -137l252 395h151l-252 -395h-151zM459 -137l252 395h151l-252 -395h-151z" />
    <glyph glyph-name="dagger" unicode="&#x2020;" horiz-adv-x="1132" 
d="M918 1513l-78 -415h374l-24 -135h-375l-229 -1235h-152l230 1235h-365l25 135h364l78 415h152z" />
    <glyph glyph-name="daggerdbl" unicode="&#x2021;" horiz-adv-x="1132" 
d="M920 1513l-68 -360h373l-27 -143h-373l-34 -189h372l-26 -143h-373l-176 -950h-152l176 950h-366l26 143h367l35 189h-367l27 143h366l68 360h152z" />
    <glyph glyph-name="bullet" unicode="&#x2022;" horiz-adv-x="1241" 
d="M811 999q135 0 222 -88t87 -221q0 -32 -6 -69q-29 -157 -159.5 -268t-288.5 -111q-137 0 -226.5 88t-89.5 221q0 33 6 70q29 160 160.5 269t294.5 109z" />
    <glyph glyph-name="ellipsis" unicode="&#x2026;" horiz-adv-x="2048" 
d="M266 0l47 258h152l-47 -258h-152zM948 0l47 258h152l-47 -258h-152zM1630 0l47 258h152l-47 -258h-152z" />
    <glyph glyph-name="perthousand" unicode="&#x2030;" horiz-adv-x="2404" 
d="M1333 1513h152l-965 -1513h-147zM1315 692q128 0 210.5 -84.5t82.5 -210.5q0 -29 -6 -63q-28 -149 -152.5 -255t-273.5 -106q-130 0 -214.5 84t-84.5 209q0 32 6 66q28 152 153 256t279 104zM1280 557q-90 0 -166.5 -66t-93.5 -157q-4 -28 -4 -41q0 -78 52.5 -131
t131.5 -53q92 0 168.5 65t93.5 158q4 28 4 43q0 79 -52 130.5t-134 51.5zM2132 692q128 0 210.5 -84.5t82.5 -210.5q0 -29 -6 -63q-28 -149 -152.5 -255t-273.5 -106q-130 0 -214.5 84t-84.5 209q0 32 6 66q28 152 153 256t279 104zM2097 557q-90 0 -166.5 -66t-93.5 -157
q-4 -28 -4 -41q0 -78 52.5 -131t131.5 -53q92 0 168.5 65t93.5 158q5 35 5 43q0 79 -52 130.5t-135 51.5zM676 1534q127 0 210 -85t83 -210q0 -31 -6 -65q-28 -149 -152.5 -255t-273.5 -106q-130 0 -214.5 84t-84.5 211q0 32 6 66q28 151 153 255.5t279 104.5zM641 1399
q-89 0 -167 -66.5t-95 -158.5q-4 -28 -4 -41q0 -79 52.5 -132t133.5 -53q91 0 168 65.5t94 157.5q4 28 4 46q0 80 -51 131t-135 51z" />
    <glyph glyph-name="guilsinglleft" unicode="&#x2039;" horiz-adv-x="514" 
d="M348 203l-151 411l303 408l110 -66l-254 -342l125 -344z" />
    <glyph glyph-name="guilsinglright" unicode="&#x203a;" horiz-adv-x="514" 
d="M240 203l-109 67l256 344l-127 342l131 66l154 -408z" />
    <glyph glyph-name="fraction" unicode="&#x2044;" horiz-adv-x="339" 
d="M-236 0l981 1513h111l-981 -1513h-111z" />
    <glyph glyph-name="Euro" unicode="&#x20ac;" horiz-adv-x="1781" 
d="M1628 137q-229 -164 -512 -164q-280 0 -459.5 156.5t-203.5 409.5h-258l86 137h174q0 8 10 76q9 43 14 61h-233l86 137h192q111 264 349 427t522 163q178 0 318 -66.5t224 -187.5l-98 -158q-31 67 -60.5 106t-74.5 71q-134 96 -328 96q-219 0 -408.5 -124.5
t-285.5 -326.5h1047l-87 -137h-1009q-3 -8 -5 -17.5t-4 -20.5t-3 -17q-11 -52 -13 -82h948l-86 -137h-854q34 -189 176.5 -307.5t346.5 -118.5q147 0 283 64t245 169z" />
    <glyph glyph-name="uni20BD" unicode="&#x20bd;" 
d="M504 750h211q167 0 248 51q55 32 94.5 99t56.5 157q8 47 8 96q0 148 -94 190q-73 33 -250 33h-157zM303 485l23 127h-138l27 138h137l142 763h358q123 0 191 -18t118 -61q53 -41 84 -113.5t31 -165.5q0 -42 -10 -100q-45 -237 -193 -348q-68 -51 -152.5 -73t-215.5 -22
h-228l-22 -127h407l-24 -137h-408l-65 -348h-152l66 348h-138l25 137h137z" />
    <glyph glyph-name="uni2116" unicode="&#x2116;" horiz-adv-x="2156" 
d="M1997 1526q111 0 184.5 -74.5t73.5 -181.5q0 -26 -6 -53q-23 -128 -132.5 -220t-238.5 -92q-113 0 -186.5 73t-73.5 181q0 28 6 55q25 129 134 220.5t239 91.5zM1966 1397q-73 0 -132 -52.5t-73 -127.5q-4 -24 -4 -35q0 -63 42 -105.5t106 -42.5q73 0 132.5 52.5
t73.5 127.5q3 18 3 35q0 63 -42 105.5t-106 42.5zM1544 784h625l-25 -137h-624zM156 0l280 1513h205l533 -1234l229 1234h151l-280 -1513h-152l-571 1311l-244 -1311h-151z" />
    <glyph glyph-name="trademark" unicode="&#x2122;" horiz-adv-x="2048" 
d="M2202 1513l-152 -817h-131l131 705l-451 -705h-86l-178 707l-131 -707h-131l152 817h223l151 -581l386 581h217zM1126 1513l-22 -118h-295l-129 -699h-131l129 699h-291l23 118h716z" />
    <glyph glyph-name="minus" unicode="&#x2212;" horiz-adv-x="1241" 
d="M1266 698l-29 -151h-1032l28 151h1033z" />
    <glyph glyph-name="zero.fitted" unicode="&#xe000;" horiz-adv-x="1136" 
d="M164 551l80 430q26 139 71 233.5t119 165.5q163 160 418 160q139 0 239 -55t150 -158q37 -75 37 -168q0 -70 -21 -178l-79 -430q-50 -268 -172 -399q-164 -179 -431 -179q-157 0 -260.5 60.5t-146.5 177.5q-23 65 -23 158q0 74 19 182zM1032 575l70 371q20 109 20 182
q0 87 -37 148q-76 127 -256 127q-102 0 -192.5 -45t-147.5 -123q-65 -89 -102 -289l-70 -371q-20 -103 -20 -180q0 -89 31 -149q75 -135 266 -135q109 0 197.5 44.5t142.5 127.5q62 92 98 292z" />
    <glyph glyph-name="one.fitted" unicode="&#xe001;" horiz-adv-x="684" 
d="M321 0l256 1376h-258l25 137h408l-281 -1513h-150z" />
    <glyph glyph-name="two.fitted" unicode="&#xe002;" horiz-adv-x="1107" 
d="M70 0l24 137l627 512q27 22 47 38t38 31t28.5 23.5t23 20t17 15t15.5 14t13 12.5l14.5 14.5l16.5 16.5q130 124 153 253q7 40 7 64q0 113 -75 182.5t-200 69.5q-99 0 -185 -47t-140 -131q-50 -75 -72 -201h-150q15 79 29.5 122.5t44.5 98.5q78 139 210 217t290 78
q182 0 291.5 -102t109.5 -267q0 -48 -8 -92q-23 -121 -102 -222.5t-267 -254.5l-571 -465h756l-25 -137h-960z" />
    <glyph glyph-name="three.fitted" unicode="&#xe003;" horiz-adv-x="1095" 
d="M526 1137h-149q40 186 163.5 294.5t293.5 108.5q147 0 233 -82.5t86 -218.5q0 -43 -8 -82q-17 -94 -68.5 -164.5t-142.5 -126.5q190 -105 190 -313q0 -50 -8 -94q-25 -134 -108.5 -245.5t-204 -176t-250.5 -64.5q-141 0 -244 66t-143 182q-23 71 -23 139q0 34 11 113h149
q-6 -53 -6 -90q0 -73 31 -133q34 -66 97 -102.5t146 -36.5q140 0 253 98t139 242q6 34 6 65q0 99 -54 171t-147 95q-51 11 -174 13l25 135q59 -4 73 -4q119 0 200 64.5t101 174.5q6 27 6 54q0 84 -51.5 134t-138.5 50q-110 0 -184 -69.5t-99 -196.5z" />
    <glyph glyph-name="four.fitted" unicode="&#xe004;" horiz-adv-x="1169" 
d="M824 0l51 276h-766l24 138l942 1099h179l-205 -1099h139l-25 -138h-139l-51 -276h-149zM899 414l166 891l-758 -891h592z" />
    <glyph glyph-name="five.fitted" unicode="&#xe005;" 
d="M281 768l272 745h682l-25 -137h-561l-151 -418q144 72 272 72q185 0 299.5 -118t114.5 -302q0 -57 -8 -106q-27 -147 -117 -269t-220 -192t-270 -70q-152 0 -262.5 80.5t-150.5 220.5q-17 61 -17 129q0 45 2 72h148q0 -5 -1 -16.5t-1 -16.5q0 -149 82.5 -240t218.5 -91
q154 0 279.5 113.5t156.5 279.5q6 29 6 82q0 136 -81.5 221.5t-215.5 85.5q-179 0 -346 -170z" />
    <glyph glyph-name="six.fitted" unicode="&#xe006;" horiz-adv-x="1138" 
d="M889 1513h174l-455 -526q96 43 185 43q177 0 287 -117t110 -299q0 -42 -10 -104q-43 -233 -215.5 -385t-393.5 -152q-195 0 -315.5 117t-120.5 303q0 45 10 107q22 113 74.5 202.5t192.5 253.5zM733 893q-154 0 -278.5 -111.5t-155.5 -277.5q-8 -39 -8 -84
q0 -138 83 -223.5t220 -85.5q158 0 279 110t153 281q10 52 10 90q0 137 -81.5 219t-221.5 82z" />
    <glyph glyph-name="seven.fitted" unicode="&#xe007;" horiz-adv-x="940" 
d="M131 0l879 1376h-717l25 137h872l-24 -137l-875 -1376h-160z" />
    <glyph glyph-name="eight.fitted" unicode="&#xe008;" horiz-adv-x="1093" 
d="M480 846q-36 24 -54.5 40.5t-33.5 39.5q-39 62 -39 151q0 35 6 72q31 167 167 279t308 112q153 0 244.5 -84.5t91.5 -224.5q0 -43 -8 -82q-22 -113 -79 -186.5t-157 -116.5q195 -94 195 -307q0 -33 -11 -93q-38 -207 -196 -340t-365 -133q-183 0 -296 106t-113 273
q0 47 8 88q25 136 111 241t221 165zM687 768q-143 0 -252.5 -93t-137.5 -239q-6 -34 -6 -65q0 -116 76.5 -188t204.5 -72q143 0 251 92.5t136 238.5q6 38 6 70q0 117 -74.5 186.5t-203.5 69.5zM803 1403q-107 0 -189 -69t-102 -175q-4 -16 -4 -49q0 -90 58.5 -145.5
t154.5 -55.5q104 0 187.5 71t103.5 177q4 18 4 53q0 88 -57 140.5t-156 52.5z" />
    <glyph glyph-name="nine.fitted" unicode="&#xe009;" horiz-adv-x="1138" 
d="M530 0h-174l455 526q-96 -43 -184 -43q-177 0 -287.5 117t-110.5 299q0 37 11 105q43 233 215 384.5t393 151.5q195 0 315.5 -117t120.5 -303q0 -44 -10 -106q-22 -114 -74.5 -204t-191.5 -253zM819 1403q-154 0 -275 -111.5t-153 -281.5q-8 -41 -8 -86
q0 -136 81.5 -219.5t217.5 -83.5q157 0 282 111t156 278q8 39 8 84q0 138 -84.5 223.5t-224.5 85.5z" />
    <glyph glyph-name="breve.cyrlc" unicode="&#xe080;" horiz-adv-x="927" 
d="M434 1528h152q-4 -18 -4 -51q0 -121 133 -121q157 0 190 172h152q-48 -134 -141 -200t-220 -66q-126 0 -194 65.5t-68 200.5z" />
    <glyph glyph-name="breve.cyruc" unicode="&#xe081;" horiz-adv-x="987" 
d="M506 1907h153q-6 -27 -6 -52q0 -131 160 -131q188 0 223 183h154q-99 -277 -393 -277q-291 0 -291 277z" />
    <glyph glyph-name="uni0306.cyr" unicode="&#xe082;" horiz-adv-x="0" 
d="M-699 1528h152q-4 -18 -4 -51q0 -121 133 -121q157 0 190 172h152q-48 -134 -141 -200t-220 -66q-126 0 -194 65.5t-68 200.5z" />
    <glyph glyph-name="i.dotless" unicode="&#xe090;" horiz-adv-x="409" 
d="M129 0l207 1120h151l-206 -1120h-152z" />
    <glyph glyph-name="j.dotless" unicode="&#xe091;" horiz-adv-x="415" 
d="M494 1120l-193 -1042q-31 -168 -79.5 -254t-147.5 -148q-104 -63 -240 -69l29 145q129 7 192 79t95 247l192 1042h152z" />
    <glyph glyph-name="uni0456.dotless" unicode="&#xe092;" horiz-adv-x="409" 
d="M129 0l207 1120h151l-206 -1120h-152z" />
    <glyph glyph-name="uni0458.dotless" unicode="&#xe093;" horiz-adv-x="415" 
d="M494 1120l-193 -1042q-31 -168 -79.5 -254t-147.5 -148q-104 -63 -240 -69l29 145q129 7 192 79t95 247l192 1042h152z" />
    <glyph glyph-name="uni0431.serbian" unicode="&#xe0a0;" horiz-adv-x="1341" 
d="M672 1071v4l-156 62q-74 31 -109.5 71.5t-35.5 104.5q0 26 6 53q20 102 102.5 163.5t186.5 61.5h833l-24 -137h-834q-47 0 -76 -26.5t-37 -67.5q-2 -8 -2 -21q0 -25 16 -41t52 -30l504 -207q270 -114 270 -395q0 -58 -12 -123q-46 -246 -237.5 -408t-438.5 -162
q-226 0 -365 128.5t-139 332.5q0 49 10 111q34 185 157 327t329 199zM846 979q-181 0 -326 -124.5t-180 -311.5q-8 -39 -8 -86q0 -153 101 -248.5t267 -95.5q185 0 326 120.5t176 307.5q8 41 8 88q0 157 -100.5 253.5t-263.5 96.5z" />
    </font>
</defs>
</svg>
