<?xml version="1.0" standalone="no"?>
<!DOCTYPE svg PUBLIC "-//W3C//DTD SVG 1.1//EN" "http://www.w3.org/Graphics/SVG/1.1/DTD/svg11.dtd" >
<svg xmlns="http://www.w3.org/2000/svg" xmlns:xlink="http://www.w3.org/1999/xlink" version="1.1">
<metadata>
Created by FontForge 20201107 at Wed Dec 21 14:27:00 2016
 By 
Copyright (c) 2016 by Alex I. Kuznetsov.

This font is free software. You are allowed to distribute and/or modify it under the terms of either (or both) of the following two licenses (your choice):

1) GNU General Public License version 2 (https://gnu.org/licenses/old-licenses/gpl-2.0.txt)
2) The LaTeX Project Public License version 1.3c or (at your option) any later version (http://www.latex-project.org/lppl.txt)

Contains work kindly released to the open source community by URW++ Design and Development GmbH as "URW Gothic L" (version 001.005) with the following copyright notice: Copyright URW Software, Copyright 1996 by URW.

Original URW fonts can be obtained at the Evolventa website (https://evolventa.github.io).

</metadata>
<defs>
<font id="Evolventa-BoldOblique" horiz-adv-x="1146" >
  <font-face 
    font-family="Evolventa"
    font-weight="700"
    font-style="oblique"
    font-stretch="normal"
    units-per-em="2048"
    panose-1="2 11 7 2 2 2 2 2 2 4"
    ascent="1638"
    descent="-410"
    x-height="1135"
    cap-height="1513"
    bbox="-936 -514 2630 2048"
    underline-thickness="184"
    underline-position="-374"
    slope="-10.5"
    unicode-range="U+0020-FB04"
  />
<missing-glyph horiz-adv-x="1558" 
d="M1403 0h-1247l280 1513h1247zM475 129l418 487l240 -487h143l18 107l-270 522l465 520l18 106h-143l-420 -485l-237 485h-144l-18 -106l274 -520l-469 -522l-18 -107h143z" />
    <glyph glyph-name="f_f" unicode="ff" horiz-adv-x="1159" 
d="M139 0l164 887h-98l43 227h98q31 110 62.5 170t85.5 109q126 120 301 120q34 0 67 -4l-49 -258h-29q-78 0 -114.5 -30t-51.5 -107h285q31 110 62.5 170t85.5 109q126 120 301 120q34 0 67 -4l-49 -258h-29q-78 0 -114 -30t-51 -107h153l-43 -227h-153l-164 -887h-273
l164 887h-285l-163 -887h-273z" />
    <glyph glyph-name="f_i" unicode="fi" horiz-adv-x="1079" 
d="M139 0l164 887h-98l43 227h98q31 110 62.5 170t85.5 109q126 120 301 120q34 0 67 -4l-49 -258h-29q-78 0 -114.5 -30t-51.5 -107h154l-43 -227h-154l-163 -887h-273zM696 0l211 1135h273l-211 -1135h-273zM930 1257l47 256h272l-47 -256h-272z" />
    <glyph glyph-name="f_l" unicode="fl" horiz-adv-x="1079" 
d="M696 0l281 1513h272l-280 -1513h-273zM139 0l164 887h-98l43 227h98q31 110 62.5 170t85.5 109q126 120 301 120q34 0 67 -4l-49 -258h-29q-78 0 -114.5 -30t-51.5 -107h154l-43 -227h-154l-163 -887h-273z" />
    <glyph glyph-name="f_f_i" unicode="ffi" horiz-adv-x="1636" 
d="M1253 0l211 1135h273l-211 -1135h-273zM1487 1257l47 256h272l-47 -256h-272zM139 0l164 887h-98l43 227h98q31 110 62.5 170t85.5 109q126 120 301 120q34 0 67 -4l-49 -258h-29q-78 0 -114.5 -30t-51.5 -107h285q31 110 62.5 170t85.5 109q126 120 301 120q34 0 67 -4
l-49 -258h-29q-78 0 -114 -30t-51 -107h153l-43 -227h-153l-164 -887h-273l164 887h-285l-163 -887h-273z" />
    <glyph glyph-name="f_f_l" unicode="ffl" horiz-adv-x="1636" 
d="M1253 0l281 1513h272l-280 -1513h-273zM139 0l164 887h-98l43 227h98q31 110 62.5 170t85.5 109q126 120 301 120q34 0 67 -4l-49 -258h-29q-78 0 -114.5 -30t-51.5 -107h285q31 110 62.5 170t85.5 109q126 120 301 120q34 0 67 -4l-49 -258h-29q-78 0 -114 -30t-51 -107
h153l-43 -227h-153l-164 -887h-273l164 887h-285l-163 -887h-273z" />
    <glyph glyph-name=".notdef" horiz-adv-x="1558" 
d="M1403 0h-1247l280 1513h1247zM475 129l418 487l240 -487h143l18 107l-270 522l465 520l18 106h-143l-420 -485l-237 485h-144l-18 -106l274 -520l-469 -522l-18 -107h143z" />
    <glyph glyph-name=".null" horiz-adv-x="0" 
 />
    <glyph glyph-name="nonmarkingreturn" horiz-adv-x="682" 
 />
    <glyph glyph-name="space" unicode=" " horiz-adv-x="573" 
 />
    <glyph glyph-name="exclam" unicode="!" horiz-adv-x="657" 
d="M264 385l209 1128h272l-208 -1128h-273zM193 0l49 262h272l-49 -262h-272z" />
    <glyph glyph-name="quotedbl" unicode="&#x22;" horiz-adv-x="690" 
d="M754 1051h-156l86 462h156zM481 1051h-155l86 462h155z" />
    <glyph glyph-name="numbersign" unicode="#" 
d="M688 1513h184l-141 -446h178l142 446h184l-141 -446h182l-39 -203h-211l-57 -182h182l-39 -205h-209l-153 -477h-185l154 477h-178l-152 -477h-186l153 477h-198l39 205h225l57 182h-196l39 203h225zM666 864l-60 -182h178l58 182h-176z" />
    <glyph glyph-name="dollar" unicode="$" 
d="M221 510h275q-2 -10 -2 -33q0 -67 37.5 -105t103.5 -38q74 0 133 48.5t72 121.5q4 28 4 39q0 61 -58 104q-24 18 -47.5 29t-150.5 63q-205 84 -205 285q0 45 8 84q28 146 118.5 245.5t221.5 127.5l51 272h260l-51 -272q87 -17 141 -97t54 -190q0 -32 -6 -66h-258
q-3 127 -109 127q-54 0 -94.5 -36.5t-50.5 -94.5q-4 -20 -4 -32q0 -61 41 -91q22 -20 52.5 -35.5t104.5 -45.5q85 -32 127 -56t70 -55q63 -69 63 -195q0 -53 -8 -100q-29 -159 -129 -269.5t-250 -150.5l-51 -270h-260l51 270q-125 36 -194.5 121.5t-69.5 198.5q0 32 6 69z
" />
    <glyph glyph-name="percent" unicode="%" horiz-adv-x="1761" 
d="M1366 1513h211l-907 -1513h-209zM1477 713q133 0 220 -87.5t87 -215.5q0 -32 -6 -66q-29 -154 -157 -262.5t-282 -108.5q-136 0 -222.5 85.5t-86.5 215.5q0 34 6 68q29 157 156.5 264t284.5 107zM1434 496q-61 0 -113 -44.5t-64 -107.5q-2 -10 -2 -29q0 -53 34.5 -87.5
t88.5 -34.5q63 0 116 44t65 107q2 10 2 29q0 53 -35.5 88t-91.5 35zM705 1540q133 0 220 -87t87 -216q0 -31 -6 -66q-29 -154 -158 -262t-283 -108q-135 0 -221 85.5t-86 215.5q0 32 6 67q29 157 156.5 264t284.5 107zM662 1323q-61 0 -113 -44.5t-64 -107.5q-2 -10 -2 -28
q0 -53 34.5 -88t88.5 -35q63 0 115.5 44t64.5 107q2 10 2 29q0 53 -35 88t-91 35z" />
    <glyph glyph-name="ampersand" unicode="&#x26;" horiz-adv-x="1392" 
d="M1208 887h305l-344 -449l217 -288l-227 -177l-174 228q-122 -130 -213.5 -179t-212.5 -49q-183 0 -298.5 110.5t-115.5 281.5q0 45 9 92q26 139 111.5 241t250.5 189q-45 62 -63.5 108t-18.5 97q0 32 6 73q29 158 159.5 266.5t291.5 108.5q148 0 239 -84t91 -217
q0 -28 -7 -72q-27 -153 -145 -262q-41 -39 -162 -108l109 -154zM772 985q92 42 130.5 80t49.5 94q2 10 2 27q0 44 -28.5 71t-75.5 27q-56 0 -98.5 -35.5t-51.5 -89.5q-2 -10 -2 -26q0 -60 74 -148zM836 406l-189 253q-105 -44 -157.5 -95.5t-65.5 -123.5q-4 -28 -4 -39
q0 -71 47 -114t125 -43q69 0 121 35t123 127z" />
    <glyph glyph-name="quotesingle" unicode="'" horiz-adv-x="417" 
d="M481 1051h-155l86 462h155z" />
    <glyph glyph-name="parenleft" unicode="(" horiz-adv-x="731" 
d="M639 16l-53 -297q-90 32 -151.5 80.5t-121.5 134.5q-143 208 -143 490q0 96 18 190q41 221 164.5 422t300.5 334q64 48 120 78t145 65l-56 -294q-159 -107 -261 -262.5t-136 -342.5q-14 -82 -14 -141q0 -145 50 -268.5t138 -188.5z" />
    <glyph glyph-name="parenright" unicode=")" horiz-adv-x="731" 
d="M319 1217l56 296q90 -32 151 -80.5t121 -134.5q144 -210 144 -489q0 -91 -19 -191q-41 -221 -164.5 -421t-300.5 -334q-110 -83 -264 -144l53 295q160 107 263 262.5t137 341.5q12 70 12 142q0 144 -50.5 268t-138.5 189z" />
    <glyph glyph-name="asterisk" unicode="*" horiz-adv-x="837" 
d="M473 1446l141 65l58 -176l127 178l106 -73l-141 -170l201 12l-27 -147l-197 10l78 -164l-131 -78l-63 180l-121 -180l-121 64l141 182l-202 -14l26 145l201 -10z" />
    <glyph glyph-name="plus" unicode="+" horiz-adv-x="1228" 
d="M655 881l74 399h246l-74 -399h393l-45 -242h-393l-74 -399h-245l73 399h-393l45 242h393z" />
    <glyph glyph-name="comma" unicode="," horiz-adv-x="575" 
d="M152 0l49 262h272l-51 -276q-33 -172 -180 -244q-62 -29 -144 -29l25 137q66 12 100 39t43 74q4 20 4 37h-118z" />
    <glyph glyph-name="hyphen" unicode="-" horiz-adv-x="690" 
d="M147 469l46 242h567l-45 -242h-568z" />
    <glyph glyph-name="period" unicode="." horiz-adv-x="575" 
d="M152 0l49 262h272l-49 -262h-272z" />
    <glyph glyph-name="slash" unicode="/" horiz-adv-x="942" 
d="M-25 -262l992 1775h192l-991 -1775h-193z" />
    <glyph glyph-name="zero" unicode="0" 
d="M1272 1034l-98 -528q-46 -252 -202.5 -392.5t-389.5 -140.5q-278 0 -389 193q-48 86 -48 199q0 61 15 141l94 514q44 239 207.5 379.5t396.5 140.5q199 0 311.5 -104t112.5 -285q0 -66 -10 -117zM526 1020l-92 -506q-10 -55 -10 -92q0 -97 49 -148t145 -51q231 0 283 285
l94 512q9 44 9 80q0 92 -48.5 141t-140.5 49q-111 0 -188.5 -72t-100.5 -198z" />
    <glyph glyph-name="one" unicode="1" 
d="M487 0l234 1257h-191l48 256h462l-280 -1513h-273z" />
    <glyph glyph-name="two" unicode="2" 
d="M84 0l45 240l633 510q109 87 162 158t67 145q6 27 6 51q0 82 -49.5 134t-130.5 52q-106 0 -186 -82t-105 -217h-268q22 114 56 191.5t92 146.5q85 99 205.5 155t248.5 56q185 0 298.5 -109.5t113.5 -283.5q0 -54 -8 -98q-26 -140 -110 -250.5t-277 -261.5l-363 -281h596
l-47 -256h-979z" />
    <glyph glyph-name="three" unicode="3" 
d="M596 729l49 262q100 3 154 23q90 38 108 133q2 10 2 33q0 50 -29 80t-79 30q-57 0 -94 -33t-60 -104h-276q25 95 59 153t94 111q138 123 320 123q153 0 246.5 -91t93.5 -235q0 -42 -8 -81q-17 -89 -59 -151.5t-116 -109.5q175 -85 175 -284q0 -39 -11 -107
q-27 -145 -114 -261t-215 -181.5t-273 -65.5q-198 0 -318 114.5t-120 299.5q0 35 6 72h275q0 -3 -1.5 -10.5t-1.5 -10.5q0 -99 54 -157t149 -58q103 0 184 71.5t101 180.5q4 18 4 51q0 95 -67 149t-187 54h-45z" />
    <glyph glyph-name="four" unicode="4" 
d="M104 449l893 1064h230l-193 -1042h160l-45 -244h-160l-43 -227h-272l43 227h-654zM762 471l106 584l-483 -584h377z" />
    <glyph glyph-name="five" unicode="5" 
d="M246 723l289 790h684l-48 -256h-479l-100 -278q109 43 201 43q179 0 287 -112t108 -292q0 -63 -10 -112q-43 -229 -217.5 -381t-395.5 -152q-194 0 -318 116.5t-124 297.5q0 20 4 66h272q2 -111 53.5 -170.5t149.5 -59.5q110 0 194 78t107 201q6 30 6 59q0 93 -54.5 152
t-145.5 59q-65 0 -118 -26t-116 -89z" />
    <glyph glyph-name="six" unicode="6" 
d="M874 1513h326l-463 -538q61 20 127 20q155 0 247.5 -100.5t92.5 -265.5q0 -64 -10 -113q-44 -238 -218 -390.5t-401 -152.5q-200 0 -322 116t-122 302q0 43 10 105q20 111 71.5 206t156.5 218zM709 758q-107 0 -191 -76t-106 -193q-4 -20 -4 -57q0 -95 58 -152t157 -57
q108 0 189 74t103 192q7 35 7 60q0 95 -57 152t-156 57z" />
    <glyph glyph-name="seven" unicode="7" 
d="M164 0l807 1257h-604l47 256h891l-48 -256l-786 -1257h-307z" />
    <glyph glyph-name="eight" unicode="8" 
d="M442 842q-43 57 -61.5 104t-18.5 101q0 33 9 77q32 173 175 294.5t316 121.5q156 0 251 -92t95 -238q0 -43 -8 -82q-33 -183 -180 -286q74 -50 104 -92q50 -71 50 -183q0 -43 -9 -92q-40 -215 -209.5 -358.5t-384.5 -143.5q-189 0 -306.5 114t-117.5 290q0 35 11 96
q29 158 135 264q55 58 149 105zM815 1290q-64 0 -118 -48.5t-66 -117.5q-4 -20 -4 -32q0 -57 36 -94t93 -37q64 0 117 48t67 119q4 24 4 33q0 57 -35.5 93t-93.5 36zM700 698q-95 0 -174 -69t-98 -168q-4 -32 -4 -45q0 -84 53.5 -138.5t140.5 -54.5q97 0 175.5 69t97.5 171
q4 32 4 45q0 83 -54.5 136.5t-140.5 53.5z" />
    <glyph glyph-name="nine" unicode="9" 
d="M551 0h-326l465 539q-74 -25 -127 -25q-153 0 -245.5 103.5t-92.5 269.5q0 39 11 110q44 238 216.5 390.5t397.5 152.5q200 0 322 -117t122 -303q0 -42 -10 -104q-20 -109 -71.5 -204t-155.5 -218zM801 1290q-104 0 -184.5 -74.5t-102.5 -191.5q-6 -30 -6 -59
q0 -94 56 -151.5t151 -57.5q108 0 192.5 75t106.5 193q4 20 4 59q0 94 -58 150.5t-159 56.5z" />
    <glyph glyph-name="colon" unicode=":" horiz-adv-x="575" 
d="M152 0l49 262h272l-49 -262h-272zM291 756l51 272h272l-51 -272h-272z" />
    <glyph glyph-name="semicolon" unicode=";" horiz-adv-x="575" 
d="M152 0l49 262h272l-51 -276q-13 -75 -42 -123t-85 -88q-82 -62 -197 -62l25 137q68 12 101 39.5t42 79.5l6 31h-120zM291 756l51 272h272l-51 -272h-272z" />
    <glyph glyph-name="less" unicode="&#x3c;" horiz-adv-x="1228" 
d="M1354 1192l-45 -240l-758 -321l639 -326l-45 -237l-957 460l37 201z" />
    <glyph glyph-name="equal" unicode="=" horiz-adv-x="1228" 
d="M1329 1071l-45 -242h-1032l45 242h1032zM1255 672l-45 -242h-1032l45 242h1032z" />
    <glyph glyph-name="greater" unicode="&#x3e;" horiz-adv-x="1228" 
d="M109 68l45 237l759 322l-641 325l45 240l957 -463l-37 -201z" />
    <glyph glyph-name="question" unicode="?" horiz-adv-x="1062" 
d="M721 383h-272q24 132 59.5 213.5t100.5 152t186 156.5q106 77 125 174q2 14 2 39q0 68 -44.5 110t-117.5 42q-83 0 -138.5 -50t-89.5 -155h-272q28 104 65.5 175t96.5 130q82 82 184 126t209 44q172 0 277.5 -104t105.5 -269q0 -52 -8 -96q-19 -103 -78.5 -181.5
t-198.5 -184.5q-98 -72 -132.5 -130t-59.5 -192zM377 0l49 262h272l-49 -262h-272z" />
    <glyph glyph-name="at" unicode="@" horiz-adv-x="1667" 
d="M1473 1174l-179 -605q-3 -6 -8 -26q-2 -8 -2 -21q0 -20 11 -28.5t36 -8.5q82 0 162.5 107.5t108.5 253.5q10 54 10 125q0 205 -129.5 327.5t-352.5 122.5q-184 0 -347.5 -84.5t-274.5 -234t-146 -334.5q-12 -62 -12 -123q0 -109 36 -205.5t103 -165.5
q69 -72 180.5 -111.5t241.5 -39.5q177 0 324 96l72 -123q-96 -66 -195.5 -94.5t-230.5 -28.5q-405 0 -582 285q-96 155 -96 358q0 82 14 156q41 223 178 406t336.5 287t419.5 104q219 0 376.5 -102t211.5 -277q24 -80 24 -186q0 -92 -18 -191q-41 -222 -186 -360t-338 -138
q-165 0 -183 111q-50 -58 -110 -84.5t-142 -26.5q-131 0 -203.5 76.5t-72.5 210.5q0 41 10 103q38 205 181 341t321 136q83 0 132 -26.5t87 -92.5l35 111h197zM1018 952q-85 0 -158 -66.5t-90 -158.5q-6 -30 -6 -55q0 -66 34 -103t97 -37q89 0 158 65.5t88 168.5q6 30 6 55
q0 63 -33 97t-96 34z" />
    <glyph glyph-name="A" unicode="A" horiz-adv-x="1515" 
d="M14 0l912 1513h221l354 -1513h-309l-90 391h-539l-239 -391h-310zM717 659h323l-77 459z" />
    <glyph glyph-name="B" unicode="B" horiz-adv-x="1202" 
d="M145 0l281 1513h311q173 0 258.5 -16.5t145.5 -62.5q110 -82 110 -242q0 -43 -8 -82q-20 -108 -70 -173t-149 -112q69 -31 104 -59t60 -72q33 -59 33 -149q0 -45 -9 -94q-22 -120 -94.5 -218t-181.5 -155q-150 -78 -387 -78h-404zM475 268h139q148 0 223.5 45.5
t94.5 145.5q4 32 4 43q0 153 -256 153h-133zM598 930h90q127 0 191 36.5t79 118.5q5 30 5 35q0 119 -193 119h-115z" />
    <glyph glyph-name="C" unicode="C" horiz-adv-x="1642" 
d="M1317 422h330q-128 -207 -338 -328t-443 -121q-145 0 -269.5 49t-211 134t-135.5 204t-49 256q0 60 14 146q39 211 177 390t336.5 283.5t408.5 104.5q143 0 267.5 -47.5t213.5 -136.5q60 -60 92 -119.5t59 -157.5h-313q-59 100 -144.5 145.5t-217.5 45.5
q-236 0 -408 -166q-70 -67 -120.5 -159t-67.5 -185q-11 -60 -11 -94q0 -180 119 -301t303 -121q109 0 202.5 40.5t205.5 137.5z" />
    <glyph glyph-name="D" unicode="D" horiz-adv-x="1431" 
d="M145 0l281 1513h346q370 0 531 -118q103 -74 156.5 -194.5t53.5 -272.5q0 -76 -16 -174q-43 -234 -177.5 -412.5t-330.5 -263.5q-99 -42 -212 -60t-279 -18h-353zM475 268h62q242 0 381 68q112 55 191.5 168t104.5 250q11 72 11 110q0 112 -44 197t-126 129
q-58 31 -134.5 43t-207.5 12h-56z" />
    <glyph glyph-name="E" unicode="E" horiz-adv-x="1073" 
d="M145 0l281 1513h813l-49 -268h-533l-67 -356h510l-49 -268h-510l-66 -353h533l-50 -268h-813z" />
    <glyph glyph-name="F" unicode="F" horiz-adv-x="1013" 
d="M145 0l281 1513h770l-49 -268h-490l-67 -356h467l-49 -268h-467l-115 -621h-281z" />
    <glyph glyph-name="G" unicode="G" horiz-adv-x="1755" 
d="M793 510l49 262h989l-6 -37q-28 -146 -109.5 -282.5t-206.5 -245.5q-270 -234 -616 -234q-203 0 -361 82.5t-244.5 228.5t-86.5 330q0 77 14 146q39 215 178 394t341 282.5t421 103.5q163 0 304 -60t233.5 -168t115.5 -243h-329q-52 98 -149.5 149.5t-229.5 51.5
q-108 0 -210.5 -38.5t-182.5 -109.5q-77 -70 -134.5 -169t-76.5 -197q-9 -49 -9 -99q0 -182 121.5 -297.5t317.5 -115.5q150 0 279 70t214 196h-626z" />
    <glyph glyph-name="H" unicode="H" horiz-adv-x="1392" 
d="M145 0l281 1513h281l-113 -610h541l112 610h281l-281 -1513h-280l116 635h-540l-117 -635h-281z" />
    <glyph glyph-name="I" unicode="I" horiz-adv-x="571" 
d="M145 0l281 1513h281l-281 -1513h-281z" />
    <glyph glyph-name="J" unicode="J" horiz-adv-x="1011" 
d="M866 1513h281l-201 -1079q-40 -214 -171.5 -337.5t-321.5 -123.5q-98 0 -177.5 38t-125.5 106q-52 73 -52 168q0 19 4 73h281q6 -114 113 -114q135 0 172 198z" />
    <glyph glyph-name="K" unicode="K" horiz-adv-x="1257" 
d="M145 0l281 1513h281l-121 -653l590 653h337l-706 -743l426 -770h-338l-346 666l-123 -666h-281z" />
    <glyph glyph-name="L" unicode="L" horiz-adv-x="929" 
d="M145 0l281 1513h281l-232 -1245h463l-49 -268h-744z" />
    <glyph glyph-name="M" unicode="M" horiz-adv-x="1871" 
d="M145 0l281 1513h385l195 -1146l616 1146h385l-281 -1513h-280l211 1135l-606 -1135h-230l-184 1135l-211 -1135h-281z" />
    <glyph glyph-name="N" unicode="N" horiz-adv-x="1517" 
d="M145 0l281 1513h319l422 -1101l205 1101h281l-281 -1513h-313l-428 1100l-205 -1100h-281z" />
    <glyph glyph-name="O" unicode="O" horiz-adv-x="1724" 
d="M1159 1540q187 0 335 -83.5t229 -228.5t81 -325q0 -71 -12 -145q-30 -163 -117.5 -308.5t-210.5 -250t-279.5 -165.5t-318.5 -61q-193 0 -345.5 82.5t-236 227.5t-83.5 327q0 87 12 146q30 163 119 308.5t214.5 249.5t285.5 165t327 61zM1092 1270q-207 0 -380.5 -149.5
t-213.5 -362.5q-11 -60 -11 -99q0 -181 118.5 -298t307.5 -117q215 0 384 145t210 365q11 68 11 104q0 183 -117 297.5t-309 114.5z" />
    <glyph glyph-name="P" unicode="P" horiz-adv-x="1173" 
d="M145 0l281 1513h375q155 0 240 -17t145 -60q131 -96 131 -285q0 -42 -10 -104q-25 -135 -101.5 -245t-185.5 -165q-68 -34 -155.5 -48t-241.5 -14h-91l-106 -575h-281zM582 844h82q129 0 196 20q63 17 106.5 64.5t55.5 111.5q4 32 4 47q0 55 -25.5 93t-74.5 51
q-57 14 -174 14h-95z" />
    <glyph glyph-name="Q" unicode="Q" horiz-adv-x="1769" 
d="M1749 225l-47 -254q-16 -2 -39 -2q-96 0 -172.5 28.5t-161.5 94.5q-93 -56 -208.5 -87.5t-229.5 -31.5q-150 0 -279.5 49t-219 134t-140.5 204t-51 256q0 56 14 142q30 162 119.5 307t215 249.5t286 165t327.5 60.5q150 0 276 -47t212.5 -130.5t135 -201t48.5 -256.5
q0 -81 -14 -155q-54 -294 -273 -486q78 -45 144 -45q16 0 57 6zM1128 283q-112 105 -217.5 151.5t-230.5 46.5q-62 0 -150 -16q66 -114 165.5 -167.5t242.5 -53.5q59 0 98.5 8t91.5 31zM1354 418q145 124 182 327q10 62 10 107q0 186 -119.5 302t-314.5 116
q-224 0 -400.5 -147.5t-217.5 -368.5q-7 -30 -9 -70q114 27 238 27q181 0 349 -78t282 -215z" />
    <glyph glyph-name="R" unicode="R" horiz-adv-x="1236" 
d="M145 0l281 1513h436q161 0 250 -26.5t152 -93.5q92 -100 92 -256q0 -44 -10 -109q-44 -231 -232 -364q-56 -39 -109 -61.5t-141 -43.5l305 -559h-346l-291 580l-106 -580h-281zM573 791h138q162 0 245 54.5t105 174.5q6 27 6 51q0 80 -51 125q-55 49 -234 49h-125z" />
    <glyph glyph-name="S" unicode="S" horiz-adv-x="1073" 
d="M119 432h293q0 -5 -1 -15.5t-1 -15.5q0 -157 172 -157q91 0 157.5 51t81.5 133q4 28 4 43q0 70 -51 115q-29 25 -62.5 41t-172.5 71q-121 47 -183.5 132t-62.5 198q0 53 6 82q34 180 185 305t335 125q110 0 198.5 -45.5t133.5 -126.5q43 -74 43 -174q0 -38 -6 -84h-291
q0 5 1 15t1 14q0 63 -33.5 97t-97.5 34q-69 0 -120.5 -43t-63.5 -111q-2 -10 -2 -26q0 -71 63 -113q12 -9 33.5 -18.5t118.5 -47.5q105 -43 149.5 -69.5t81.5 -67.5q86 -92 86 -227q0 -47 -8 -88q-38 -205 -204 -345.5t-370 -140.5q-124 0 -222 51t-148 142q-47 84 -47 186
q0 51 4 80z" />
    <glyph glyph-name="T" unicode="T" horiz-adv-x="870" 
d="M295 0l231 1245h-280l49 268h842l-50 -268h-280l-232 -1245h-280z" />
    <glyph glyph-name="U" unicode="U" horiz-adv-x="1312" 
d="M426 1513h281l-179 -958q-16 -91 -16 -131q0 -43 14 -78q20 -47 66.5 -74.5t107.5 -27.5q62 0 118 27t95 75q29 38 45 82t31 127l178 958h281l-178 -958q-24 -135 -67.5 -227.5t-115.5 -167.5q-87 -88 -201.5 -137.5t-234.5 -49.5q-136 0 -241.5 63.5t-149.5 172.5
q-31 79 -31 168q0 70 19 178z" />
    <glyph glyph-name="V" unicode="V" horiz-adv-x="1421" 
d="M598 0l-309 1513h295l194 -1151l621 1151h295l-867 -1513h-229z" />
    <glyph glyph-name="W" unicode="W" horiz-adv-x="1873" 
d="M469 0l-164 1513h287l70 -1056l454 1056h205l57 -1056l465 1056h287l-723 -1513h-223l-58 1001l-436 -1001h-221z" />
    <glyph glyph-name="X" unicode="X" horiz-adv-x="1402" 
d="M14 0l660 754l-379 759h334l254 -528l460 528h326l-665 -759l385 -754h-326l-266 522l-449 -522h-334z" />
    <glyph glyph-name="Y" unicode="Y" horiz-adv-x="1304" 
d="M512 0l104 559l-321 954h303l207 -696l463 696h303l-674 -954l-104 -559h-281z" />
    <glyph glyph-name="Z" unicode="Z" horiz-adv-x="1069" 
d="M104 238l762 1007h-542l49 268h876l-47 -251l-753 -994h608l-49 -268h-947z" />
    <glyph glyph-name="bracketleft" unicode="[" horiz-adv-x="641" 
d="M846 1513l-55 -301q-60 -23 -93.5 -47t-56.5 -61q-59 -95 -86 -246l-98 -522q-11 -54 -11 -109q0 -53 13 -100q10 -38 35 -61.5t75 -45.5l-55 -301q-120 28 -193 86.5t-116 159.5q-37 87 -37 209q0 86 22 209l99 530q55 290 248 451q64 55 129.5 86.5t179.5 62.5z" />
    <glyph glyph-name="backslash" unicode="\" horiz-adv-x="985" 
d="M922 0h-193l-385 1513h193z" />
    <glyph glyph-name="bracketright" unicode="]" horiz-adv-x="641" 
d="M25 -281l55 301q59 23 92 47.5t57 61.5q59 95 86 246l97 522q10 49 10 109q0 56 -12 100q-10 38 -34.5 61t-74.5 45l55 301q120 -28 193.5 -86t116.5 -159q34 -80 34 -209q0 -98 -20 -209l-98 -531q-54 -286 -248 -450q-64 -55 -130 -87.5t-179 -62.5z" />
    <glyph glyph-name="asciicircum" unicode="^" horiz-adv-x="1228" 
d="M455 641l-195 102l510 770h250l223 -770l-231 -102l-174 565z" />
    <glyph glyph-name="underscore" unicode="_" horiz-adv-x="1024" 
d="M-18 -98h1024l-35 -185h-1024z" />
    <glyph glyph-name="grave" unicode="`" horiz-adv-x="833" 
d="M412 1509l149 181l406 -273l-140 -162z" />
    <glyph glyph-name="a" unicode="a" horiz-adv-x="1366" 
d="M1466 1135l-211 -1135h-249l26 147q-98 -94 -192.5 -134t-214.5 -40q-215 0 -345 128.5t-130 336.5q0 60 12 125q31 171 130 307.5t245.5 213.5t312.5 77q123 0 203.5 -42t134.5 -136l29 152h249zM827 911q-142 0 -253 -100t-140 -254q-6 -37 -6 -72q0 -119 75.5 -190.5
t205.5 -71.5q148 0 256.5 94t136.5 246q8 54 8 76q0 123 -77 197.5t-206 74.5z" />
    <glyph glyph-name="b" unicode="b" horiz-adv-x="1363" 
d="M111 0l280 1513h273l-91 -483q95 79 181 112.5t198 33.5q214 0 343.5 -131.5t129.5 -342.5q0 -62 -12 -127q-44 -233 -207 -403q-193 -199 -456 -199q-126 0 -209.5 39.5t-153.5 132.5l-27 -145h-249zM864 926q-142 0 -252 -100t-139 -255q-8 -54 -8 -75q0 -123 75 -198
t203 -75q147 0 257 96.5t139 251.5q6 41 6 80q0 125 -75.5 200t-205.5 75z" />
    <glyph glyph-name="c" unicode="c" horiz-adv-x="1280" 
d="M989 373h307q-106 -191 -272 -295.5t-365 -104.5q-223 0 -365 137.5t-142 348.5q0 46 10 108q46 250 251 422t457 172q122 0 225.5 -43.5t170.5 -124.5q44 -52 65 -102.5t35 -134.5h-307q-51 155 -236 155q-142 0 -249.5 -95.5t-135.5 -246.5q-8 -50 -8 -71
q0 -122 75 -198.5t197 -76.5q85 0 153.5 36t133.5 114z" />
    <glyph glyph-name="d" unicode="d" horiz-adv-x="1361" 
d="M1532 1513l-281 -1513h-250l27 147q-100 -92 -195 -133t-210 -41q-211 0 -341 133.5t-130 342.5q0 59 12 120q31 167 131.5 306.5t245.5 220t301 80.5q107 0 194.5 -38t134.5 -104l89 479h272zM831 926q-138 0 -251.5 -100.5t-141.5 -247.5q-6 -37 -6 -70
q0 -124 77.5 -204.5t201.5 -80.5q138 0 252.5 101t142.5 247q6 41 6 76q0 125 -76.5 202t-204.5 77z" />
    <glyph glyph-name="e" unicode="e" horiz-adv-x="1298" 
d="M1313 446h-879q6 -103 79 -163t194 -60q85 0 146 25.5t124 87.5h297q-40 -79 -119 -158q-214 -205 -487 -205q-229 0 -372.5 135.5t-143.5 346.5q0 46 10 108q30 164 134.5 301.5t257 217t316.5 79.5q220 0 353 -133t133 -348q0 -56 -13 -129q-12 -61 -30 -105zM471 686
h629q-6 109 -76.5 167t-196.5 58q-122 0 -213 -57.5t-143 -167.5z" />
    <glyph glyph-name="f" unicode="f" horiz-adv-x="602" 
d="M139 0l164 887h-98l43 227h98q31 110 62.5 170t85.5 109q126 120 301 120q34 0 67 -4l-49 -258h-29q-78 0 -114.5 -30t-51.5 -107h154l-43 -227h-154l-163 -887h-273z" />
    <glyph glyph-name="g" unicode="g" horiz-adv-x="1357" 
d="M1198 1135h260l-172 -920q-31 -170 -80.5 -281t-130.5 -190q-200 -197 -500 -197q-209 0 -344 95t-172 266h310q47 -66 107 -93.5t155 -27.5q303 0 385 363q-97 -94 -191.5 -135.5t-214.5 -41.5q-209 0 -333.5 129t-124.5 340q0 62 12 133q46 252 236 419t431 167
q242 0 340 -170zM811 911q-140 0 -243 -95.5t-132 -252.5q-8 -39 -8 -84q0 -119 69.5 -187.5t194.5 -68.5q148 0 253 93.5t134 250.5q8 54 8 78q0 122 -74 194t-202 72z" />
    <glyph glyph-name="h" unicode="h" horiz-adv-x="1222" 
d="M111 0l280 1513h273l-84 -456q72 56 145 81t162 25q125 0 213.5 -48.5t126.5 -139.5q28 -70 28 -150q0 -78 -20 -184l-119 -641h-272l106 580q17 97 17 149q0 97 -42 139.5t-134 42.5q-145 0 -224 -114q-50 -70 -78 -222l-106 -575h-272z" />
    <glyph glyph-name="i" unicode="i" horiz-adv-x="493" 
d="M111 0l211 1135h272l-211 -1135h-272zM344 1257l47 256h273l-48 -256h-272z" />
    <glyph glyph-name="j" unicode="j" horiz-adv-x="522" 
d="M350 1135h273l-197 -1059q-23 -127 -67.5 -212.5t-118.5 -144.5q-124 -98 -283 -98l49 264q79 13 102.5 44.5t45.5 152.5zM373 1257l47 256h272l-47 -256h-272z" />
    <glyph glyph-name="k" unicode="k" horiz-adv-x="1140" 
d="M111 0l280 1513h273l-170 -913l462 535h326l-510 -555l365 -580h-367l-289 530l-98 -530h-272z" />
    <glyph glyph-name="l" unicode="l" horiz-adv-x="493" 
d="M111 0l280 1513h273l-281 -1513h-272z" />
    <glyph glyph-name="m" unicode="m" horiz-adv-x="1918" 
d="M111 0l211 1135h249l-20 -107q74 72 146.5 102.5t172.5 30.5q119 0 189.5 -41t111.5 -135q86 92 181 134t215 42q134 0 227.5 -49.5t130.5 -140.5q25 -67 25 -158q0 -61 -17 -158l-121 -655h-272l115 623q14 82 14 118q0 67 -27 105q-44 65 -147 65q-136 0 -215 -114
q-46 -67 -78 -238l-104 -559h-273l115 623q14 82 14 118q0 65 -24 103q-45 67 -156 67q-147 0 -219 -123q-37 -62 -68 -229l-104 -559h-272z" />
    <glyph glyph-name="n" unicode="n" horiz-adv-x="1224" 
d="M111 0l211 1135h251l-20 -109q89 74 167.5 104.5t176.5 30.5q248 0 330 -174q30 -68 30 -153q0 -87 -26 -226l-113 -608h-272l102 555q21 114 21 178q0 72 -25 111q-43 67 -147 67q-143 0 -224 -110q-32 -39 -52 -97t-40 -169l-98 -535h-272z" />
    <glyph glyph-name="o" unicode="o" horiz-adv-x="1320" 
d="M881 1161q218 0 357.5 -139t139.5 -348q0 -47 -10 -109q-29 -160 -135 -296.5t-259.5 -216t-316.5 -79.5q-221 0 -363 138.5t-142 347.5q0 44 10 106q30 163 136 300.5t261 216.5t322 79zM823 911q-132 0 -246.5 -101.5t-140.5 -242.5q-6 -35 -6 -65q0 -120 75.5 -199.5
t194.5 -79.5q136 0 252 100.5t142 241.5q6 34 6 68q0 121 -77.5 199.5t-199.5 78.5z" />
    <glyph glyph-name="p" unicode="p" horiz-adv-x="1355" 
d="M41 -379l281 1514h249l-24 -134q163 160 401 160q214 0 341.5 -128t127.5 -335q0 -62 -12 -127q-31 -170 -129.5 -306.5t-242.5 -214t-306 -77.5q-104 0 -181 32t-143 101l-90 -485h-272zM860 911q-138 0 -249.5 -99.5t-139.5 -248.5q-6 -35 -6 -67q0 -120 76.5 -196.5
t199.5 -76.5q137 0 249 99t138 243q9 56 9 74q0 121 -76 196.5t-201 75.5z" />
    <glyph glyph-name="q" unicode="q" horiz-adv-x="1357" 
d="M1208 1135h250l-280 -1514h-273l90 488q-160 -136 -366 -136q-213 0 -345 134.5t-132 343.5q0 59 12 120q46 247 243.5 418.5t436.5 171.5q124 0 205.5 -41.5t132.5 -130.5zM827 911q-138 0 -250.5 -100t-140.5 -246q-6 -38 -6 -71q0 -121 76 -196t201 -75
q140 0 250.5 96.5t138.5 243.5q8 54 8 76q0 122 -75 197t-202 75z" />
    <glyph glyph-name="r" unicode="r" horiz-adv-x="675" 
d="M111 0l211 1135h249l-20 -111q69 80 125.5 108.5t144.5 28.5h21l-49 -262q-244 -6 -293 -268l-117 -631h-272z" />
    <glyph glyph-name="s" unicode="s" horiz-adv-x="897" 
d="M98 360h275q6 -72 35.5 -104.5t89.5 -32.5q54 0 94 31.5t49 79.5q2 6 2 18q0 46 -37 70q-26 19 -131 57q-138 50 -199 111.5t-61 154.5q0 20 8 70q28 146 155 246t286 100q88 0 160.5 -35t113.5 -98q41 -61 41 -139q0 -30 -6 -68h-266q-3 90 -91 90q-44 0 -78 -27.5
t-42 -68.5q0 -2 -1 -7t-1 -7q0 -41 41 -62q27 -12 131 -47q138 -44 199 -104.5t61 -153.5q0 -34 -6 -74q-31 -163 -169.5 -275t-308.5 -112q-105 0 -190 44.5t-125 119.5q-33 65 -33 150q0 19 4 73z" />
    <glyph glyph-name="t" unicode="t" horiz-adv-x="620" 
d="M160 0l164 887h-134l48 248h133l69 378h273l-70 -378h164l-47 -248h-164l-164 -887h-272z" />
    <glyph glyph-name="u" unicode="u" horiz-adv-x="1226" 
d="M1327 1135l-211 -1135h-252l21 109q-93 -75 -170.5 -105.5t-179.5 -30.5q-115 0 -197.5 46.5t-122.5 132.5q-35 75 -35 167q0 73 25 207l112 609h273l-105 -555q-20 -109 -20 -179q0 -69 24 -110q47 -68 146 -68q71 0 132 28.5t99 80.5q29 38 48 97.5t40 170.5l101 535
h272z" />
    <glyph glyph-name="v" unicode="v" horiz-adv-x="1142" 
d="M463 0l-246 1135h303l123 -752l397 752h308l-668 -1135h-217z" />
    <glyph glyph-name="w" unicode="w" horiz-adv-x="1599" 
d="M412 0l-195 1135h293l74 -693l319 693h217l58 -693l335 693h291l-620 -1135h-170l-78 735l-356 -735h-168z" />
    <glyph glyph-name="x" unicode="x" horiz-adv-x="1142" 
d="M6 0l510 586l-246 549h308l141 -342l264 342h307l-448 -549l295 -586h-328l-166 389l-309 -389h-328z" />
    <glyph glyph-name="y" unicode="y" horiz-adv-x="1163" 
d="M139 -379l303 485l-225 1029h311l115 -736l412 736h313l-936 -1514h-293z" />
    <glyph glyph-name="z" unicode="z" horiz-adv-x="987" 
d="M61 0l45 244l621 647h-442l45 244h768l-45 -244l-621 -647h539l-45 -244h-865z" />
    <glyph glyph-name="braceleft" unicode="{" horiz-adv-x="686" 
d="M674 1141l-47 -252q-22 -120 -73 -178t-159 -86q76 -21 111 -60t35 -110q0 -29 -11 -93l-47 -251q-14 -86 -14 -115q0 -52 28.5 -70t108.5 -24l-31 -164q-33 -2 -88 -2q-126 0 -185.5 46.5t-59.5 147.5q0 35 10 90l59 322q6 34 6 61q0 63 -33 97t-102 43l31 166
q88 10 137 59t66 141l59 322q28 149 109 217t233 68q39 0 88 -3l-31 -163q-39 -3 -63.5 -7t-46 -14t-33.5 -22.5t-23 -37t-18 -53t-16 -75.5z" />
    <glyph glyph-name="bar" unicode="|" horiz-adv-x="1226" 
d="M1016 1513l-281 -1513h-243l280 1513h244z" />
    <glyph glyph-name="braceright" unicode="}" horiz-adv-x="686" 
d="M244 111l47 251q22 120 73.5 178.5t159.5 86.5q-76 21 -110.5 60t-34.5 110q0 45 8 92l47 252q15 92 15 114q0 52 -29 70.5t-109 24.5l31 163q50 3 88 3q126 0 186 -47t60 -148q0 -35 -10 -90l-60 -322q-6 -35 -6 -61q0 -63 33 -96.5t102 -42.5l-30 -166
q-87 -10 -136.5 -59t-66.5 -142l-60 -322q-28 -149 -109 -216.5t-233 -67.5q-55 0 -88 2l31 164q59 5 89.5 12.5t53.5 32t34 59.5t24 105z" />
    <glyph glyph-name="asciitilde" unicode="~" horiz-adv-x="1228" 
d="M1159 862l103 -151q-105 -132 -181 -186t-159 -54q-72 0 -179 49l-102 45q-86 39 -123 39q-58 0 -110 -49q-3 -3 -5 -5.5t-7 -8.5t-11.5 -14t-22 -26.5t-34.5 -41.5q-5 -3 -11 -11t-8 -10l-100 154q87 111 125 147q47 50 106 77.5t117 27.5q74 0 152 -33l127 -55
q76 -34 93.5 -39.5t43.5 -5.5q35 0 84.5 39.5t101.5 111.5z" />
    <glyph glyph-name="uni00A0" unicode="&#xa0;" horiz-adv-x="573" 
 />
    <glyph glyph-name="exclamdown" unicode="&#xa1;" horiz-adv-x="657" 
d="M604 750l-209 -1129h-272l209 1129h272zM676 1135l-49 -263h-273l49 263h273z" />
    <glyph glyph-name="cent" unicode="&#xa2;" 
d="M727 80h-256l41 223q-74 17 -123 47.5t-88 85.5q-76 98 -76 246q0 38 11 98q20 105 79 200.5t146 164.5q54 41 103.5 64t123.5 42l41 213h256l-41 -213q126 -32 201 -125t80 -219h-291q-23 43 -69 68.5t-103 25.5q-92 0 -164.5 -64t-91.5 -161q-4 -32 -4 -45
q0 -79 50.5 -128.5t133.5 -49.5q100 0 188 82h300q-150 -268 -406 -332z" />
    <glyph glyph-name="sterling" unicode="&#xa3;" 
d="M84 0l47 256h285q54 70 69 147q4 18 4 52q0 83 -81 180h-291l49 256h119q-13 50 -13 88q0 35 9 78q37 203 204.5 343t372.5 140q182 0 292 -105t110 -276q0 -27 -3 -51h-276q-4 87 -48 134.5t-118 47.5q-92 0 -168.5 -70t-95.5 -173q-6 -27 -6 -52q0 -57 33 -104h423
l-49 -256h-219q31 -98 31 -156q0 -32 -6 -69q-12 -68 -56 -154q82 0 138 27q50 26 83 71t42 97q4 18 4 49q0 36 -4 61h270q6 -38 6 -61q0 -13 -4 -45q-19 -100 -76 -190.5t-141 -153.5q-83 -62 -173 -86.5t-231 -24.5h-532z" />
    <glyph glyph-name="currency" unicode="&#xa4;" 
d="M272 1176l195 163l76 -90q139 74 276 74q143 0 256 -74l109 88l127 -166l-103 -88q37 -90 37 -165q0 -36 -10 -101q-14 -78 -41.5 -135t-85.5 -127l70 -88l-189 -164l-74 86q-143 -76 -282 -76t-254 76l-107 -86l-131 166l103 88q-35 101 -35 168q0 32 10 94
q13 74 37 124.5t86 139.5zM774 1077q-107 0 -198 -75.5t-111 -180.5q-4 -32 -4 -47q0 -93 62 -154t157 -61q107 0 196 75t109 181q4 18 4 51q0 93 -59.5 152t-155.5 59z" />
    <glyph glyph-name="yen" unicode="&#xa5;" 
d="M432 0l72 383h-402l33 180h402l-76 215h-287l35 180h192l-186 555h305l199 -698l459 698h315l-395 -555h188l-35 -180h-286l-156 -215h403l-32 -180h-404l-71 -383h-273z" />
    <glyph glyph-name="brokenbar" unicode="&#xa6;" horiz-adv-x="1228" 
d="M1016 1513l-115 -618h-244l115 618h244zM850 618l-115 -618h-243l114 618h244z" />
    <glyph glyph-name="section" unicode="&#xa7;" 
d="M1221 1153h-258q0 72 -36 104.5t-114 32.5q-65 0 -107 -26.5t-51 -73.5q-2 -6 -2 -19q0 -68 101 -122l305 -166q62 -34 96.5 -94.5t34.5 -133.5q0 -30 -6 -57q-15 -85 -68.5 -160t-138.5 -131q63 -77 63 -172q0 -35 -6 -72q-31 -169 -174.5 -277t-337.5 -108
q-242 0 -344 168q-49 80 -49 187q0 22 4 80h275q-1 -10 -3.5 -23.5t-4 -22t-1.5 -14.5q0 -12 7 -33q15 -43 58.5 -67.5t106.5 -24.5q77 0 135 37.5t68 95.5q2 8 2 25q0 33 -26.5 58.5t-98.5 66.5l-301 172q-153 86 -153 250q0 37 6 78q17 95 67.5 165.5t147.5 133.5
q-29 59 -29 120q0 20 8 70q28 151 159 245.5t314 94.5q174 0 263.5 -87.5t89.5 -258.5q0 -6 -1 -20t-1 -21zM825 694l-276 152q-50 -34 -73.5 -61.5t-29.5 -59.5q0 -3 -1 -8t-1 -8q0 -57 101 -113l280 -156q88 55 101 129q2 6 2 21q0 27 -22 49t-81 55z" />
    <glyph glyph-name="dieresis" unicode="&#xa8;" horiz-adv-x="964" 
d="M371 1290l49 273h272l-49 -273h-272zM801 1290l49 273h272l-49 -273h-272z" />
    <glyph glyph-name="copyright" unicode="&#xa9;" horiz-adv-x="1619" 
d="M1143 655h227q-64 -150 -198.5 -241.5t-290.5 -91.5q-164 0 -268.5 101.5t-104.5 256.5q0 43 8 82q34 186 186 313t340 127q156 0 261.5 -97.5t105.5 -240.5h-227q-12 68 -59.5 108t-116.5 40q-97 0 -176 -71t-99 -177q-4 -18 -4 -53q0 -88 50 -143.5t134 -55.5
q136 0 232 143zM1104 1540q186 0 335 -85t231.5 -232t82.5 -326q0 -55 -14 -141q-39 -212 -178 -392.5t-340 -285.5t-414 -105q-190 0 -341.5 84t-235 230t-83.5 327q0 62 13 142q40 216 179.5 396t342 284t422.5 104zM1059 1382q-166 0 -324 -84t-268 -228t-141 -312
q-13 -84 -13 -113q0 -218 147 -363t374 -145q127 0 252.5 49.5t224.5 132.5t170 197.5t94 239.5q12 61 12 116q0 221 -147.5 365.5t-380.5 144.5z" />
    <glyph glyph-name="ordfeminine" unicode="&#xaa;" horiz-adv-x="782" 
d="M977 1513l-113 -610h-135l14 84q-96 -104 -227 -104q-105 0 -171 72.5t-66 185.5q0 21 8 71q25 136 129.5 230t230.5 94q120 0 180 -102l15 79h135zM637 1384q-68 0 -126 -52.5t-71 -125.5q-2 -12 -2 -32q0 -61 38 -100.5t99 -39.5q71 0 128.5 50.5t70.5 125.5q2 12 2 37
q0 62 -38 99.5t-101 37.5zM184 635l27 143h637l-27 -143h-637z" />
    <glyph glyph-name="guillemotleft" unicode="&#xab;" horiz-adv-x="942" 
d="M854 221l-236 268l39 205l334 267l-47 -252l-158 -117l115 -119zM418 221l-236 268l39 205l334 267l-47 -252l-158 -117l115 -119z" />
    <glyph glyph-name="logicalnot" unicode="&#xac;" horiz-adv-x="1228" 
d="M270 969h1033l-111 -596h-234l68 362h-799z" />
    <glyph glyph-name="uni00AD" unicode="&#xad;" horiz-adv-x="690" 
d="M147 469l46 242h567l-45 -242h-568z" />
    <glyph glyph-name="registered" unicode="&#xae;" horiz-adv-x="1619" 
d="M578 340l155 846h268q105 0 158 -13.5t90 -48.5q68 -65 68 -172q0 -27 -6 -57q-20 -104 -90 -176.5t-168 -89.5l176 -289h-248l-145 274l-52 -274h-206zM862 762h76q68 0 111 31t53 88q2 8 2 26q0 88 -121 88h-78zM1104 1540q186 0 335 -85t231.5 -232t82.5 -326
q0 -55 -14 -141q-39 -212 -178 -392.5t-340 -285.5t-414 -105q-190 0 -341.5 84t-235 230t-83.5 327q0 62 13 142q40 216 179.5 396t342 284t422.5 104zM1059 1382q-166 0 -324 -84t-268 -228t-141 -312q-13 -84 -13 -113q0 -218 147 -363t374 -145q127 0 252.5 49.5
t224.5 132.5t170 197.5t94 239.5q12 61 12 116q0 221 -147.5 365.5t-380.5 144.5z" />
    <glyph glyph-name="macron" unicode="&#xaf;" horiz-adv-x="829" 
d="M377 1327l39 205h567l-39 -205h-567z" />
    <glyph glyph-name="degree" unicode="&#xb0;" horiz-adv-x="819" 
d="M678 1405q110 0 179 -70.5t69 -179.5q0 -29 -6 -63q-25 -132 -131.5 -223t-235.5 -91q-113 0 -183.5 72t-70.5 182q0 32 6 62q25 131 132.5 221t240.5 90zM649 1288q-79 0 -146.5 -58t-82.5 -138q-4 -24 -4 -37q0 -68 44.5 -114t114.5 -46q80 0 146.5 57t81.5 140
q4 24 4 38q0 69 -44 113.5t-114 44.5z" />
    <glyph glyph-name="plusminus" unicode="&#xb1;" horiz-adv-x="1228" 
d="M666 938l73 399h246l-74 -399h394l-45 -242h-394l-63 -338h-246l64 338h-394l45 242h394zM1176 242l-46 -242h-1032l45 242h1033z" />
    <glyph glyph-name="uni00B2" unicode="&#xb2;" horiz-adv-x="688" 
d="M139 606l29 152l403 303q75 58 107 95.5t39 78.5q2 8 2 25q0 48 -32 78t-85 30q-69 0 -117 -46t-65 -130h-178q14 73 35.5 121t60.5 90q52 60 129.5 93.5t161.5 33.5q122 0 197 -67t75 -175q0 -30 -6 -57q-31 -164 -238 -307l-221 -154h371l-31 -164h-637z" />
    <glyph glyph-name="uni00B3" unicode="&#xb3;" horiz-adv-x="688" 
d="M453 1036l30 168q94 1 136 20.5t51 65.5v15q0 28 -20.5 45.5t-53.5 17.5q-40 0 -63.5 -19t-38.5 -63h-183q19 63 41.5 99.5t63.5 68.5q90 74 207 74q102 0 165.5 -56t63.5 -145q0 -15 -4 -47q-18 -97 -98 -152q98 -51 98 -172q0 -27 -6 -57q-25 -134 -135 -221.5
t-252 -87.5q-131 0 -209 71t-78 187q0 15 4 43h180q0 -139 133 -139q66 0 117.5 40t61.5 101q2 8 2 27q0 55 -45 85.5t-125 30.5h-43z" />
    <glyph glyph-name="acute" unicode="&#xb4;" horiz-adv-x="831" 
d="M469 1255l-76 160l510 275l76 -189z" />
    <glyph glyph-name="mu" unicode="&#xb5;" horiz-adv-x="1230" 
d="M403 106l-90 -485h-272l281 1514h272l-100 -535q-23 -124 -23 -176q0 -47 23 -92q54 -109 174 -109q60 0 115.5 29t90.5 80q47 68 84 268l101 535h272l-211 -1135h-252l21 109q-76 -74 -139 -105t-140 -31q-72 0 -121 31.5t-86 101.5z" />
    <glyph glyph-name="paragraph" unicode="&#xb6;" horiz-adv-x="1228" 
d="M444 -262l174 938q-162 3 -255 90.5t-93 234.5q0 45 9 91q23 122 96 217.5t182 146.5q126 57 356 57h447l-330 -1775h-207l289 1556h-172l-289 -1556h-207z" />
    <glyph glyph-name="periodcentered" unicode="&#xb7;" horiz-adv-x="575" 
d="M266 614l49 273h275l-51 -273h-273z" />
    <glyph glyph-name="cedilla" unicode="&#xb8;" horiz-adv-x="663" 
d="M223 0h107l-66 -119q44 15 64 15q67 0 109 -47.5t42 -118.5q0 -13 -4 -41q-17 -91 -82 -147t-153 -56q-77 0 -124.5 48.5t-47.5 125.5h125q15 -61 67 -61q33 0 60.5 27.5t35.5 66.5q2 6 2 18q0 31 -17.5 51.5t-45.5 20.5q-23 0 -42.5 -12t-47.5 -43l-96 53z" />
    <glyph glyph-name="uni00B9" unicode="&#xb9;" horiz-adv-x="688" 
d="M399 606l138 744h-121l30 163h302l-168 -907h-181z" />
    <glyph glyph-name="ordmasculine" unicode="&#xba;" horiz-adv-x="751" 
d="M666 1536q113 0 184.5 -73t71.5 -183q0 -37 -4 -57q-25 -132 -134 -225t-239 -93q-114 0 -188 74.5t-74 185.5q0 30 6 60q25 131 134.5 221t242.5 90zM631 1393q-66 0 -123.5 -49.5t-69.5 -118.5q-4 -24 -4 -35q0 -59 38 -96t101 -37q70 0 125.5 48t69.5 120q2 10 2 30
q0 59 -39 98.5t-100 39.5zM180 637l27 143h629l-27 -143h-629z" />
    <glyph glyph-name="guillemotright" unicode="&#xbb;" horiz-adv-x="942" 
d="M170 221l47 252l160 119l-117 117l47 252l236 -267l-39 -205zM606 221l47 252l160 119l-117 117l47 252l236 -267l-39 -205z" />
    <glyph glyph-name="onequarter" unicode="&#xbc;" horiz-adv-x="1720" 
d="M362 0l908 1513h194l-907 -1513h-195zM999 272l543 635h152l-115 -616h98l-28 -156h-99l-24 -135h-180l24 135h-397zM1399 291l59 315l-268 -315h209zM338 606l137 744h-121l31 163h301l-168 -907h-180z" />
    <glyph glyph-name="onehalf" unicode="&#xbd;" horiz-adv-x="1720" 
d="M311 0l908 1513h194l-907 -1513h-195zM330 606l137 744h-121l31 163h301l-168 -907h-180zM963 0l28 152l404 303q74 58 106 95.5t39 78.5q2 8 2 24q0 48 -32 78.5t-85 30.5q-69 0 -117 -46t-65 -130h-178q13 72 35 120t61 91q52 60 130.5 93.5t162.5 33.5q122 0 196 -67
t74 -175q0 -39 -4 -57q-31 -164 -239 -308l-221 -153h370l-31 -164h-636z" />
    <glyph glyph-name="threequarters" unicode="&#xbe;" horiz-adv-x="1720" 
d="M516 0l907 1513h195l-907 -1513h-195zM1092 272l542 635h152l-115 -616h98l-28 -156h-99l-24 -135h-180l24 135h-397zM1491 291l59 315l-268 -315h209zM459 1036l30 168q94 1 136 20.5t51 65.5v15q0 28 -20.5 45.5t-53.5 17.5q-40 0 -63.5 -19t-38.5 -63h-183
q19 63 41.5 99.5t63.5 68.5q90 74 207 74q102 0 165.5 -56t63.5 -145q0 -15 -4 -47q-18 -97 -98 -152q98 -51 98 -172q0 -27 -6 -57q-25 -134 -135 -221.5t-252 -87.5q-131 0 -209 71t-78 187q0 15 4 43h180q0 -68 34 -103.5t100 -35.5t117 40t61 101q2 8 2 27
q0 55 -45 85.5t-125 30.5h-43z" />
    <glyph glyph-name="questiondown" unicode="&#xbf;" horiz-adv-x="1062" 
d="M553 752h272l-6 -31q-39 -204 -141 -320q-41 -48 -72.5 -75t-126.5 -97q-107 -79 -125 -174q-4 -28 -4 -39q0 -68 45.5 -109.5t118.5 -41.5q164 0 225 205h273q-30 -108 -66.5 -178.5t-93.5 -127.5q-81 -81 -185 -125.5t-210 -44.5q-172 0 -277.5 104t-105.5 269
q0 41 10 96q19 103 79 183t197 184q96 72 132.5 129t56.5 166zM897 1135l-49 -263h-273l50 263h272z" />
    <glyph glyph-name="Agrave" unicode="&#xc0;" horiz-adv-x="1515" 
d="M14 0l912 1513h221l354 -1513h-309l-90 391h-539l-239 -391h-310zM717 659h323l-77 459zM750 1868l149 180l406 -272l-140 -162z" />
    <glyph glyph-name="Aacute" unicode="&#xc1;" horiz-adv-x="1515" 
d="M14 0l912 1513h221l354 -1513h-309l-90 391h-539l-239 -391h-310zM717 659h323l-77 459zM944 1614l-74 160l508 274l76 -188z" />
    <glyph glyph-name="Acircumflex" unicode="&#xc2;" horiz-adv-x="1515" 
d="M14 0l912 1513h221l354 -1513h-309l-90 391h-539l-239 -391h-310zM717 659h323l-77 459zM655 1649l355 282h219l244 -282h-297l-84 131l-136 -131h-301z" />
    <glyph glyph-name="Atilde" unicode="&#xc3;" horiz-adv-x="1515" 
d="M14 0l912 1513h221l354 -1513h-309l-90 391h-539l-239 -391h-310zM717 659h323l-77 459zM838 1661l-80 164q63 54 113.5 75t115.5 21q34 0 55 -5t62 -24q54 -22 92 -22q80 0 152 69l79 -165q-60 -60 -110.5 -86.5t-104.5 -26.5q-40 0 -114 27q-61 24 -107 24
q-40 0 -64.5 -8t-88.5 -43z" />
    <glyph glyph-name="Adieresis" unicode="&#xc4;" horiz-adv-x="1515" 
d="M14 0l912 1513h221l354 -1513h-309l-90 391h-539l-239 -391h-310zM717 659h323l-77 459zM713 1649l51 272h272l-51 -272h-272zM1143 1649l51 272h272l-51 -272h-272z" />
    <glyph glyph-name="Aring" unicode="&#xc5;" horiz-adv-x="1515" 
d="M14 0l912 1513h221l354 -1513h-309l-90 391h-539l-239 -391h-310zM717 659h323l-77 459zM1137 2030q75 0 123.5 -49.5t48.5 -122.5q0 -27 -2 -39q-17 -88 -90.5 -149.5t-161.5 -61.5q-77 0 -125.5 49t-48.5 123q0 15 4 39q17 88 90 149.5t162 61.5zM1106 1892
q-29 0 -53.5 -21t-30.5 -52q0 -2 -1 -7.5t-1 -7.5q0 -26 16.5 -42.5t44.5 -16.5q31 0 56.5 21.5t31.5 52.5v14q0 27 -17 43t-46 16z" />
    <glyph glyph-name="AE" unicode="&#xc6;" horiz-adv-x="1810" 
d="M4 0l1278 1513h694l-49 -268h-446l-68 -356h424l-49 -268h-424l-66 -353h447l-49 -268h-727l71 391h-397l-301 -391h-338zM856 659h236l71 392z" />
    <glyph glyph-name="Ccedilla" unicode="&#xc7;" horiz-adv-x="1642" 
d="M825 -27l-51 -92q44 15 64 15q67 0 109 -47.5t42 -118.5q0 -13 -4 -41q-17 -91 -82 -147t-153 -56q-77 0 -124.5 48.5t-47.5 125.5h127q12 -61 65 -61q34 0 61 27t35 67q2 6 2 18q0 31 -17.5 51.5t-45.5 20.5q-23 0 -42.5 -12t-45.5 -43l-99 53l107 205
q-232 37 -377 215.5t-145 421.5q0 69 12 139q39 211 177 390t336.5 283.5t408.5 104.5q143 0 267.5 -47.5t213.5 -136.5q60 -60 92 -119.5t59 -157.5h-313q-59 100 -144.5 145.5t-217.5 45.5q-236 0 -408 -166q-70 -67 -120.5 -159t-67.5 -185q-11 -60 -11 -94
q0 -180 119 -301t303 -121q109 0 202.5 40.5t205.5 137.5h330q-130 -210 -341.5 -329.5t-451.5 -119.5h-29z" />
    <glyph glyph-name="Egrave" unicode="&#xc8;" horiz-adv-x="1073" 
d="M145 0l281 1513h813l-49 -268h-533l-67 -356h510l-49 -268h-510l-66 -353h533l-50 -268h-813zM530 1868l150 180l405 -272l-139 -162z" />
    <glyph glyph-name="Eacute" unicode="&#xc9;" horiz-adv-x="1073" 
d="M145 0l281 1513h813l-49 -268h-533l-67 -356h510l-49 -268h-510l-66 -353h533l-50 -268h-813zM766 1614l-74 160l508 274l76 -188z" />
    <glyph glyph-name="Ecircumflex" unicode="&#xca;" horiz-adv-x="1073" 
d="M145 0l281 1513h813l-49 -268h-533l-67 -356h510l-49 -268h-510l-66 -353h533l-50 -268h-813zM442 1649l355 282h219l244 -282h-297l-84 131l-136 -131h-301z" />
    <glyph glyph-name="Edieresis" unicode="&#xcb;" horiz-adv-x="1073" 
d="M145 0l281 1513h813l-49 -268h-533l-67 -356h510l-49 -268h-510l-66 -353h533l-50 -268h-813zM506 1649l51 272h272l-51 -272h-272zM936 1649l51 272h273l-52 -272h-272z" />
    <glyph glyph-name="Igrave" unicode="&#xcc;" horiz-adv-x="571" 
d="M145 0l281 1513h281l-281 -1513h-281zM360 1868l150 180l405 -272l-139 -162z" />
    <glyph glyph-name="Iacute" unicode="&#xcd;" horiz-adv-x="571" 
d="M145 0l281 1513h281l-281 -1513h-281zM418 1614l-74 160l508 274l76 -188z" />
    <glyph glyph-name="Icircumflex" unicode="&#xce;" horiz-adv-x="571" 
d="M145 0l281 1513h281l-281 -1513h-281zM182 1649l355 282h219l243 -282h-297l-84 131l-135 -131h-301z" />
    <glyph glyph-name="Idieresis" unicode="&#xcf;" horiz-adv-x="571" 
d="M145 0l281 1513h281l-281 -1513h-281zM240 1649l51 272h272l-51 -272h-272zM670 1649l51 272h272l-51 -272h-272z" />
    <glyph glyph-name="Eth" unicode="&#xd0;" horiz-adv-x="1523" 
d="M238 0l118 645h-196l41 219h196l121 649h346q370 0 531 -118q103 -74 157 -194.5t54 -272.5q0 -70 -17 -174q-43 -234 -177 -412.5t-331 -263.5q-99 -42 -212 -60t-279 -18h-352zM567 268h62q247 0 383 68q110 56 190 169t105 249q10 65 10 110q0 112 -44 197t-126 129
q-58 31 -134.5 43t-207.5 12h-55l-72 -381h315l-41 -219h-315z" />
    <glyph glyph-name="Ntilde" unicode="&#xd1;" horiz-adv-x="1517" 
d="M145 0l281 1513h319l422 -1101l205 1101h281l-281 -1513h-313l-428 1100l-205 -1100h-281zM852 1661l-80 164q63 54 113.5 75t115.5 21q34 0 55 -5t62 -24q54 -22 92 -22q80 0 152 69l80 -165q-60 -60 -110.5 -86.5t-104.5 -26.5q-41 0 -115 27q-61 24 -106 24
q-40 0 -65 -8t-89 -43z" />
    <glyph glyph-name="Ograve" unicode="&#xd2;" horiz-adv-x="1724" 
d="M1159 1540q187 0 335 -83.5t229 -228.5t81 -325q0 -71 -12 -145q-30 -163 -117.5 -308.5t-210.5 -250t-279.5 -165.5t-318.5 -61q-193 0 -345.5 82.5t-236 227.5t-83.5 327q0 87 12 146q30 163 119 308.5t214.5 249.5t285.5 165t327 61zM1092 1270q-207 0 -380.5 -149.5
t-213.5 -362.5q-11 -60 -11 -99q0 -181 118.5 -298t307.5 -117q215 0 384 145t210 365q11 68 11 104q0 183 -117 297.5t-309 114.5zM924 1868l149 180l406 -272l-140 -162z" />
    <glyph glyph-name="Oacute" unicode="&#xd3;" horiz-adv-x="1724" 
d="M1159 1540q187 0 335 -83.5t229 -228.5t81 -325q0 -71 -12 -145q-30 -163 -117.5 -308.5t-210.5 -250t-279.5 -165.5t-318.5 -61q-193 0 -345.5 82.5t-236 227.5t-83.5 327q0 87 12 146q30 163 119 308.5t214.5 249.5t285.5 165t327 61zM1092 1270q-207 0 -380.5 -149.5
t-213.5 -362.5q-11 -60 -11 -99q0 -181 118.5 -298t307.5 -117q215 0 384 145t210 365q11 68 11 104q0 183 -117 297.5t-309 114.5zM981 1614l-74 160l508 274l76 -188z" />
    <glyph glyph-name="Ocircumflex" unicode="&#xd4;" horiz-adv-x="1724" 
d="M1159 1540q187 0 335 -83.5t229 -228.5t81 -325q0 -71 -12 -145q-30 -163 -117.5 -308.5t-210.5 -250t-279.5 -165.5t-318.5 -61q-193 0 -345.5 82.5t-236 227.5t-83.5 327q0 87 12 146q30 163 119 308.5t214.5 249.5t285.5 165t327 61zM1092 1270q-207 0 -380.5 -149.5
t-213.5 -362.5q-11 -60 -11 -99q0 -181 118.5 -298t307.5 -117q215 0 384 145t210 365q11 68 11 104q0 183 -117 297.5t-309 114.5zM760 1649l354 282h219l244 -282h-297l-84 131l-135 -131h-301z" />
    <glyph glyph-name="Otilde" unicode="&#xd5;" horiz-adv-x="1724" 
d="M1159 1540q187 0 335 -83.5t229 -228.5t81 -325q0 -71 -12 -145q-30 -163 -117.5 -308.5t-210.5 -250t-279.5 -165.5t-318.5 -61q-193 0 -345.5 82.5t-236 227.5t-83.5 327q0 87 12 146q30 163 119 308.5t214.5 249.5t285.5 165t327 61zM1092 1270q-207 0 -380.5 -149.5
t-213.5 -362.5q-11 -60 -11 -99q0 -181 118.5 -298t307.5 -117q215 0 384 145t210 365q11 68 11 104q0 183 -117 297.5t-309 114.5zM942 1661l-80 164q63 54 114 75t116 21q34 0 54.5 -5t61.5 -24q54 -22 92 -22q80 0 152 69l80 -165q-60 -60 -110.5 -86.5t-104.5 -26.5
q-41 0 -115 27q-61 24 -106 24q-40 0 -65 -8t-89 -43z" />
    <glyph glyph-name="Odieresis" unicode="&#xd6;" horiz-adv-x="1724" 
d="M1159 1540q187 0 335 -83.5t229 -228.5t81 -325q0 -71 -12 -145q-30 -163 -117.5 -308.5t-210.5 -250t-279.5 -165.5t-318.5 -61q-193 0 -345.5 82.5t-236 227.5t-83.5 327q0 87 12 146q30 163 119 308.5t214.5 249.5t285.5 165t327 61zM1092 1270q-207 0 -380.5 -149.5
t-213.5 -362.5q-11 -60 -11 -99q0 -181 118.5 -298t307.5 -117q215 0 384 145t210 365q11 68 11 104q0 183 -117 297.5t-309 114.5zM817 1649l51 272h273l-51 -272h-273zM1247 1649l51 272h273l-51 -272h-273z" />
    <glyph glyph-name="multiply" unicode="&#xd7;" horiz-adv-x="1228" 
d="M922 750l282 -349l-198 -168l-283 349l-414 -349l-137 168l414 349l-285 348l201 168l282 -348l414 348l135 -168z" />
    <glyph glyph-name="Oslash" unicode="&#xd8;" horiz-adv-x="1730" 
d="M1806 1522l-159 -185q163 -175 163 -432q0 -86 -12 -147q-40 -218 -176.5 -398t-335 -283.5t-416.5 -103.5q-180 0 -331 74l-156 -180l-172 133l154 178q-164 178 -164 438q0 60 14 142q39 214 177.5 393.5t339.5 284t417 104.5q170 0 326 -72l161 189zM1448 1106
l-711 -830q85 -32 181 -32q215 0 385 146t210 364q11 64 11 100q0 137 -76 252zM565 412l711 827q-85 31 -176 31q-214 0 -388 -148.5t-214 -363.5q-11 -57 -11 -92q0 -141 78 -254z" />
    <glyph glyph-name="Ugrave" unicode="&#xd9;" horiz-adv-x="1312" 
d="M426 1513h281l-179 -958q-16 -91 -16 -131q0 -43 14 -78q20 -47 66.5 -74.5t107.5 -27.5q62 0 118 27t95 75q29 38 45 82t31 127l178 958h281l-178 -958q-24 -135 -67.5 -227.5t-115.5 -167.5q-87 -88 -201.5 -137.5t-234.5 -49.5q-136 0 -241.5 63.5t-149.5 172.5
q-31 79 -31 168q0 70 19 178zM635 1868l149 180l406 -272l-139 -162z" />
    <glyph glyph-name="Uacute" unicode="&#xda;" horiz-adv-x="1312" 
d="M426 1513h281l-179 -958q-16 -91 -16 -131q0 -43 14 -78q20 -47 66.5 -74.5t107.5 -27.5q62 0 118 27t95 75q29 38 45 82t31 127l178 958h281l-178 -958q-24 -135 -67.5 -227.5t-115.5 -167.5q-87 -88 -201.5 -137.5t-234.5 -49.5q-136 0 -241.5 63.5t-149.5 172.5
q-31 79 -31 168q0 70 19 178zM858 1614l-74 160l508 274l76 -188z" />
    <glyph glyph-name="Ucircumflex" unicode="&#xdb;" horiz-adv-x="1312" 
d="M426 1513h281l-179 -958q-16 -91 -16 -131q0 -43 14 -78q20 -47 66.5 -74.5t107.5 -27.5q62 0 118 27t95 75q29 38 45 82t31 127l178 958h281l-178 -958q-24 -135 -67.5 -227.5t-115.5 -167.5q-87 -88 -201.5 -137.5t-234.5 -49.5q-136 0 -241.5 63.5t-149.5 172.5
q-31 79 -31 168q0 70 19 178zM553 1649l354 282h219l244 -282h-297l-84 131l-135 -131h-301z" />
    <glyph glyph-name="Udieresis" unicode="&#xdc;" horiz-adv-x="1312" 
d="M426 1513h281l-179 -958q-16 -91 -16 -131q0 -43 14 -78q20 -47 66.5 -74.5t107.5 -27.5q62 0 118 27t95 75q29 38 45 82t31 127l178 958h281l-178 -958q-24 -135 -67.5 -227.5t-115.5 -167.5q-87 -88 -201.5 -137.5t-234.5 -49.5q-136 0 -241.5 63.5t-149.5 172.5
q-31 79 -31 168q0 70 19 178zM610 1649l52 272h272l-51 -272h-273zM1040 1649l52 272h272l-51 -272h-273z" />
    <glyph glyph-name="Yacute" unicode="&#xdd;" horiz-adv-x="1304" 
d="M512 0l104 559l-321 954h303l207 -696l463 696h303l-674 -954l-104 -559h-281zM854 1614l-74 160l508 274l76 -188z" />
    <glyph glyph-name="Thorn" unicode="&#xde;" horiz-adv-x="1179" 
d="M145 0l281 1513h281l-50 -268h95q154 0 239.5 -17.5t145.5 -60.5q129 -94 129 -284q0 -37 -11 -105q-25 -136 -101 -245.5t-185 -165.5q-68 -34 -155.5 -48t-240.5 -14h-90l-57 -305h-281zM532 573h82q126 0 197 21q63 17 106.5 64.5t55.5 113.5q4 32 4 47q0 55 -25.5 93
t-74.5 51q-57 14 -177 14h-94z" />
    <glyph glyph-name="germandbls" unicode="&#xdf;" horiz-adv-x="1261" 
d="M111 0l184 997q35 191 125 320q75 104 188.5 163.5t239.5 59.5q168 0 272.5 -96t104.5 -248q0 -24 -8 -78q-19 -102 -68.5 -170t-136.5 -112q70 -17 108.5 -36t77.5 -55q94 -91 94 -221q0 -43 -8 -82q-38 -206 -196.5 -337.5t-368.5 -131.5q-249 0 -328 189l-31 -162
h-249zM455 387h168q0 -71 45.5 -117.5t115.5 -46.5q79 0 143 56.5t79 140.5q4 28 4 43q0 102 -86 147q-41 21 -91.5 28t-162.5 7h-23l45 242h23q79 0 142.5 60t80.5 151q6 24 6 49q0 66 -38 104.5t-105 38.5q-179 0 -228 -260z" />
    <glyph glyph-name="agrave" unicode="&#xe0;" horiz-adv-x="1366" 
d="M1466 1135l-211 -1135h-249l26 147q-98 -94 -192.5 -134t-214.5 -40q-215 0 -345 128.5t-130 336.5q0 60 12 125q31 171 130 307.5t245.5 213.5t312.5 77q123 0 203.5 -42t134.5 -136l29 152h249zM827 911q-142 0 -253 -100t-140 -254q-6 -37 -6 -72q0 -119 75.5 -190.5
t205.5 -71.5q148 0 256.5 94t136.5 246q8 54 8 76q0 123 -77 197.5t-206 74.5zM625 1509l149 181l404 -273l-138 -162z" />
    <glyph glyph-name="aacute" unicode="&#xe1;" horiz-adv-x="1366" 
d="M1466 1135l-211 -1135h-249l26 147q-98 -94 -192.5 -134t-214.5 -40q-215 0 -345 128.5t-130 336.5q0 60 12 125q31 171 130 307.5t245.5 213.5t312.5 77q123 0 203.5 -42t134.5 -136l29 152h249zM827 911q-142 0 -253 -100t-140 -254q-6 -37 -6 -72q0 -119 75.5 -190.5
t205.5 -71.5q148 0 256.5 94t136.5 246q8 54 8 76q0 123 -77 197.5t-206 74.5zM834 1255l-76 160l510 275l75 -189z" />
    <glyph glyph-name="acircumflex" unicode="&#xe2;" horiz-adv-x="1366" 
d="M1466 1135l-211 -1135h-249l26 147q-98 -94 -192.5 -134t-214.5 -40q-215 0 -345 128.5t-130 336.5q0 60 12 125q31 171 130 307.5t245.5 213.5t312.5 77q123 0 203.5 -42t134.5 -136l29 152h249zM827 911q-142 0 -253 -100t-140 -254q-6 -37 -6 -72q0 -119 75.5 -190.5
t205.5 -71.5q148 0 256.5 94t136.5 246q8 54 8 76q0 123 -77 197.5t-206 74.5zM535 1290l352 283h219l246 -283h-297l-84 131l-135 -131h-301z" />
    <glyph glyph-name="atilde" unicode="&#xe3;" horiz-adv-x="1366" 
d="M1466 1135l-211 -1135h-249l26 147q-98 -94 -192.5 -134t-214.5 -40q-215 0 -345 128.5t-130 336.5q0 60 12 125q31 171 130 307.5t245.5 213.5t312.5 77q123 0 203.5 -42t134.5 -136l29 152h249zM827 911q-142 0 -253 -100t-140 -254q-6 -37 -6 -72q0 -119 75.5 -190.5
t205.5 -71.5q148 0 256.5 94t136.5 246q8 54 8 76q0 123 -77 197.5t-206 74.5zM717 1303l-80 163q63 54 113 75.5t114 21.5q34 0 56 -5.5t63 -23.5q56 -23 92 -23q77 0 150 70l80 -166q-60 -60 -109.5 -86t-103.5 -26q-46 0 -117 26q-64 25 -105 25q-40 0 -64.5 -8
t-88.5 -43z" />
    <glyph glyph-name="adieresis" unicode="&#xe4;" horiz-adv-x="1366" 
d="M1466 1135l-211 -1135h-249l26 147q-98 -94 -192.5 -134t-214.5 -40q-215 0 -345 128.5t-130 336.5q0 60 12 125q31 171 130 307.5t245.5 213.5t312.5 77q123 0 203.5 -42t134.5 -136l29 152h249zM827 911q-142 0 -253 -100t-140 -254q-6 -37 -6 -72q0 -119 75.5 -190.5
t205.5 -71.5q148 0 256.5 94t136.5 246q8 54 8 76q0 123 -77 197.5t-206 74.5zM592 1290l49 273h272l-49 -273h-272zM1022 1290l49 273h272l-49 -273h-272z" />
    <glyph glyph-name="aring" unicode="&#xe5;" horiz-adv-x="1366" 
d="M1466 1135l-211 -1135h-249l26 147q-98 -94 -192.5 -134t-214.5 -40q-215 0 -345 128.5t-130 336.5q0 60 12 125q31 171 130 307.5t245.5 213.5t312.5 77q123 0 203.5 -42t134.5 -136l29 152h249zM827 911q-142 0 -253 -100t-140 -254q-6 -37 -6 -72q0 -119 75.5 -190.5
t205.5 -71.5q148 0 256.5 94t136.5 246q8 54 8 76q0 123 -77 197.5t-206 74.5zM1016 1671q76 0 125 -49.5t49 -122.5q0 -15 -4 -39q-17 -88 -89.5 -149.5t-160.5 -61.5q-77 0 -126.5 49t-49.5 123q0 15 4 39q17 88 90 149.5t162 61.5zM987 1534q-29 0 -54.5 -21.5
t-31.5 -52.5v-14q0 -27 16.5 -43.5t43.5 -16.5q31 0 56.5 21.5t31.5 52.5q0 2 1 7.5t1 7.5q0 26 -17.5 42.5t-46.5 16.5z" />
    <glyph glyph-name="ae" unicode="&#xe6;" horiz-adv-x="2205" 
d="M1874 336h297q-80 -156 -248 -259.5t-342 -103.5q-113 0 -189 36t-130 114l-23 -123h-250l23 123q-85 -83 -166.5 -116.5t-198.5 -33.5q-222 0 -358.5 132t-136.5 341q0 66 10 117q31 167 133.5 304t252.5 215.5t314 78.5q110 0 184.5 -32.5t131.5 -106.5l22 113h250
l-23 -113q86 73 173 106t196 33q209 0 340 -130t131 -331q0 -48 -10 -110q-12 -71 -43 -141h-877q15 -106 88.5 -166t188.5 -60q77 0 138.5 26.5t121.5 86.5zM821 911q-135 0 -246 -98.5t-137 -243.5q-8 -50 -8 -73q0 -121 74 -197t196 -76q138 0 247.5 97.5t137.5 244.5
q9 56 9 74q0 121 -75.5 196.5t-197.5 75.5zM1366 690h623q-18 221 -267 221q-235 0 -356 -221z" />
    <glyph glyph-name="ccedilla" unicode="&#xe7;" horiz-adv-x="1280" 
d="M645 -27l-57 -92q36 15 67 15q66 0 106 -44.5t40 -115.5q0 -13 -4 -45q-17 -94 -81 -149.5t-153 -55.5q-77 0 -123.5 48.5t-46.5 125.5h123q12 -61 68 -61q34 0 60 25t34 63q2 8 2 22q0 31 -17.5 49.5t-46.5 18.5q-44 0 -88 -49l-96 53l123 201q-185 34 -294 164
t-109 313q0 46 10 108q46 250 251 422t457 172q122 0 225.5 -43.5t170.5 -124.5q44 -52 65 -102.5t35 -134.5h-307q-51 155 -236 155q-142 0 -249.5 -95.5t-135.5 -246.5q-8 -50 -8 -71q0 -122 75 -198.5t197 -76.5q85 0 153.5 36t133.5 114h307q-101 -191 -271 -295.5
t-380 -104.5z" />
    <glyph glyph-name="egrave" unicode="&#xe8;" horiz-adv-x="1298" 
d="M1313 446h-879q6 -103 79 -163t194 -60q85 0 146 25.5t124 87.5h297q-40 -79 -119 -158q-214 -205 -487 -205q-229 0 -372.5 135.5t-143.5 346.5q0 46 10 108q30 164 134.5 301.5t257 217t316.5 79.5q220 0 353 -133t133 -348q0 -56 -13 -129q-12 -61 -30 -105zM471 686
h629q-6 109 -76.5 167t-196.5 58q-122 0 -213 -57.5t-143 -167.5zM569 1509l150 181l403 -273l-137 -162z" />
    <glyph glyph-name="eacute" unicode="&#xe9;" horiz-adv-x="1298" 
d="M1313 446h-879q6 -103 79 -163t194 -60q85 0 146 25.5t124 87.5h297q-40 -79 -119 -158q-214 -205 -487 -205q-229 0 -372.5 135.5t-143.5 346.5q0 46 10 108q30 164 134.5 301.5t257 217t316.5 79.5q220 0 353 -133t133 -348q0 -56 -13 -129q-12 -61 -30 -105zM471 686
h629q-6 109 -76.5 167t-196.5 58q-122 0 -213 -57.5t-143 -167.5zM799 1255l-76 160l510 275l76 -189z" />
    <glyph glyph-name="ecircumflex" unicode="&#xea;" horiz-adv-x="1298" 
d="M1313 446h-879q6 -103 79 -163t194 -60q85 0 146 25.5t124 87.5h297q-40 -79 -119 -158q-214 -205 -487 -205q-229 0 -372.5 135.5t-143.5 346.5q0 46 10 108q30 164 134.5 301.5t257 217t316.5 79.5q220 0 353 -133t133 -348q0 -56 -13 -129q-12 -61 -30 -105zM471 686
h629q-6 109 -76.5 167t-196.5 58q-122 0 -213 -57.5t-143 -167.5zM494 1290l352 283h219l246 -283h-297l-84 131l-135 -131h-301z" />
    <glyph glyph-name="edieresis" unicode="&#xeb;" horiz-adv-x="1298" 
d="M1313 446h-879q6 -103 79 -163t194 -60q85 0 146 25.5t124 87.5h297q-40 -79 -119 -158q-214 -205 -487 -205q-229 0 -372.5 135.5t-143.5 346.5q0 46 10 108q30 164 134.5 301.5t257 217t316.5 79.5q220 0 353 -133t133 -348q0 -56 -13 -129q-12 -61 -30 -105zM471 686
h629q-6 109 -76.5 167t-196.5 58q-122 0 -213 -57.5t-143 -167.5zM553 1290l49 273h272l-49 -273h-272zM983 1290l49 273h273l-50 -273h-272z" />
    <glyph glyph-name="igrave" unicode="&#xec;" horiz-adv-x="493" 
d="M111 0l211 1135h272l-211 -1135h-272zM248 1509l149 181l404 -273l-137 -162z" />
    <glyph glyph-name="iacute" unicode="&#xed;" horiz-adv-x="493" 
d="M111 0l211 1135h272l-211 -1135h-272zM305 1255l-76 160l510 275l76 -189z" />
    <glyph glyph-name="icircumflex" unicode="&#xee;" horiz-adv-x="493" 
d="M111 0l211 1135h272l-211 -1135h-272zM78 1290l352 283h219l246 -283h-297l-84 131l-135 -131h-301z" />
    <glyph glyph-name="idieresis" unicode="&#xef;" horiz-adv-x="493" 
d="M111 0l211 1135h272l-211 -1135h-272zM135 1290l49 273h273l-49 -273h-273zM565 1290l49 273h273l-49 -273h-273z" />
    <glyph glyph-name="eth" unicode="&#xf0;" horiz-adv-x="1320" 
d="M616 1477l224 71q2 -2 12.5 -9.5t15.5 -12.5l54 -47q10 -5 32 -27l195 82l65 -100l-174 -72q94 -95 136.5 -146t80.5 -114q125 -201 125 -400q0 -69 -10 -120q-31 -168 -136.5 -308t-259 -220.5t-319.5 -80.5q-220 0 -361.5 140.5t-141.5 349.5q0 44 10 106
q29 159 137 298.5t258 209.5q55 26 129 44t127 18q48 0 135 -19q-7 8 -15 18t-16.5 22t-13.5 18q-43 53 -84 94l-192 -82l-66 94l174 76q-82 82 -121 117zM823 911q-132 0 -246.5 -101.5t-140.5 -242.5q-6 -35 -6 -65q0 -120 75.5 -199.5t194.5 -79.5q136 0 252 100.5
t142 241.5q6 34 6 68q0 121 -77.5 199.5t-199.5 78.5z" />
    <glyph glyph-name="ntilde" unicode="&#xf1;" horiz-adv-x="1224" 
d="M111 0l211 1135h251l-20 -109q89 74 167.5 104.5t176.5 30.5q248 0 330 -174q30 -68 30 -153q0 -87 -26 -226l-113 -608h-272l102 555q21 114 21 178q0 72 -25 111q-43 67 -147 67q-143 0 -224 -110q-32 -39 -52 -97t-40 -169l-98 -535h-272zM608 1303l-80 163
q63 54 113.5 75.5t114.5 21.5q34 0 55.5 -5t62.5 -24q56 -23 93 -23q76 0 149 70l80 -166q-60 -60 -109.5 -86t-103.5 -26q-46 0 -117 26q-64 25 -104 25t-65 -8t-89 -43z" />
    <glyph glyph-name="ograve" unicode="&#xf2;" horiz-adv-x="1320" 
d="M881 1161q218 0 357.5 -139t139.5 -348q0 -47 -10 -109q-29 -160 -135 -296.5t-259.5 -216t-316.5 -79.5q-221 0 -363 138.5t-142 347.5q0 44 10 106q30 163 136 300.5t261 216.5t322 79zM823 911q-132 0 -246.5 -101.5t-140.5 -242.5q-6 -35 -6 -65q0 -120 75.5 -199.5
t194.5 -79.5q136 0 252 100.5t142 241.5q6 34 6 68q0 121 -77.5 199.5t-199.5 78.5zM588 1509l149 181l404 -273l-137 -162z" />
    <glyph glyph-name="oacute" unicode="&#xf3;" horiz-adv-x="1320" 
d="M881 1161q218 0 357.5 -139t139.5 -348q0 -47 -10 -109q-29 -160 -135 -296.5t-259.5 -216t-316.5 -79.5q-221 0 -363 138.5t-142 347.5q0 44 10 106q30 163 136 300.5t261 216.5t322 79zM823 911q-132 0 -246.5 -101.5t-140.5 -242.5q-6 -35 -6 -65q0 -120 75.5 -199.5
t194.5 -79.5q136 0 252 100.5t142 241.5q6 34 6 68q0 121 -77.5 199.5t-199.5 78.5zM782 1255l-75 160l510 275l75 -189z" />
    <glyph glyph-name="ocircumflex" unicode="&#xf4;" horiz-adv-x="1320" 
d="M881 1161q218 0 357.5 -139t139.5 -348q0 -47 -10 -109q-29 -160 -135 -296.5t-259.5 -216t-316.5 -79.5q-221 0 -363 138.5t-142 347.5q0 44 10 106q30 163 136 300.5t261 216.5t322 79zM823 911q-132 0 -246.5 -101.5t-140.5 -242.5q-6 -35 -6 -65q0 -120 75.5 -199.5
t194.5 -79.5q136 0 252 100.5t142 241.5q6 34 6 68q0 121 -77.5 199.5t-199.5 78.5zM492 1290l352 283h219l246 -283h-297l-84 131l-135 -131h-301z" />
    <glyph glyph-name="otilde" unicode="&#xf5;" horiz-adv-x="1320" 
d="M881 1161q218 0 357.5 -139t139.5 -348q0 -47 -10 -109q-29 -160 -135 -296.5t-259.5 -216t-316.5 -79.5q-221 0 -363 138.5t-142 347.5q0 44 10 106q30 163 136 300.5t261 216.5t322 79zM823 911q-132 0 -246.5 -101.5t-140.5 -242.5q-6 -35 -6 -65q0 -120 75.5 -199.5
t194.5 -79.5q136 0 252 100.5t142 241.5q6 34 6 68q0 121 -77.5 199.5t-199.5 78.5zM680 1303l-80 163q63 54 113 75.5t114 21.5q34 0 56 -5.5t63 -23.5q56 -23 92 -23q77 0 150 70l80 -166q-60 -60 -109.5 -86t-103.5 -26q-46 0 -117 26q-64 25 -104 25t-65 -8t-89 -43z
" />
    <glyph glyph-name="odieresis" unicode="&#xf6;" horiz-adv-x="1320" 
d="M881 1161q218 0 357.5 -139t139.5 -348q0 -47 -10 -109q-29 -160 -135 -296.5t-259.5 -216t-316.5 -79.5q-221 0 -363 138.5t-142 347.5q0 44 10 106q30 163 136 300.5t261 216.5t322 79zM823 911q-132 0 -246.5 -101.5t-140.5 -242.5q-6 -35 -6 -65q0 -120 75.5 -199.5
t194.5 -79.5q136 0 252 100.5t142 241.5q6 34 6 68q0 121 -77.5 199.5t-199.5 78.5zM549 1290l49 273h272l-49 -273h-272zM979 1290l49 273h272l-49 -273h-272z" />
    <glyph glyph-name="divide" unicode="&#xf7;" horiz-adv-x="1228" 
d="M956 1102h-276l49 268h277zM780 150h-276l49 268h276zM1294 881l-45 -242h-1032l45 242h1032z" />
    <glyph glyph-name="oslash" unicode="&#xf8;" horiz-adv-x="1323" 
d="M113 -20l149 172q-110 128 -110 309q0 44 10 106q30 161 136.5 298t261 216.5t319.5 79.5q114 0 215 -43l135 158l155 -119l-131 -149q127 -142 127 -330q0 -49 -10 -111q-30 -161 -135.5 -298t-259 -216.5t-316.5 -79.5q-134 0 -247 58l-146 -168zM457 379l450 522
q-36 10 -78 10q-136 0 -250.5 -100.5t-140.5 -241.5q-6 -35 -6 -63q0 -63 25 -127zM1063 784l-467 -540q56 -21 106 -21q136 0 252 100.5t142 241.5q6 37 6 68q0 83 -39 151z" />
    <glyph glyph-name="ugrave" unicode="&#xf9;" horiz-adv-x="1226" 
d="M1327 1135l-211 -1135h-252l21 109q-93 -75 -170.5 -105.5t-179.5 -30.5q-115 0 -197.5 46.5t-122.5 132.5q-35 75 -35 167q0 73 25 207l112 609h273l-105 -555q-20 -109 -20 -179q0 -69 24 -110q47 -68 146 -68q71 0 132 28.5t99 80.5q29 38 48 97.5t40 170.5l101 535
h272zM524 1509l150 181l403 -273l-137 -162z" />
    <glyph glyph-name="uacute" unicode="&#xfa;" horiz-adv-x="1226" 
d="M1327 1135l-211 -1135h-252l21 109q-93 -75 -170.5 -105.5t-179.5 -30.5q-115 0 -197.5 46.5t-122.5 132.5q-35 75 -35 167q0 73 25 207l112 609h273l-105 -555q-20 -109 -20 -179q0 -69 24 -110q47 -68 146 -68q71 0 132 28.5t99 80.5q29 38 48 97.5t40 170.5l101 535
h272zM748 1255l-76 160l510 275l75 -189z" />
    <glyph glyph-name="ucircumflex" unicode="&#xfb;" horiz-adv-x="1226" 
d="M1327 1135l-211 -1135h-252l21 109q-93 -75 -170.5 -105.5t-179.5 -30.5q-115 0 -197.5 46.5t-122.5 132.5q-35 75 -35 167q0 73 25 207l112 609h273l-105 -555q-20 -109 -20 -179q0 -69 24 -110q47 -68 146 -68q71 0 132 28.5t99 80.5q29 38 48 97.5t40 170.5l101 535
h272zM442 1290l353 283h219l246 -283h-297l-84 131l-136 -131h-301z" />
    <glyph glyph-name="udieresis" unicode="&#xfc;" horiz-adv-x="1226" 
d="M1327 1135l-211 -1135h-252l21 109q-93 -75 -170.5 -105.5t-179.5 -30.5q-115 0 -197.5 46.5t-122.5 132.5q-35 75 -35 167q0 73 25 207l112 609h273l-105 -555q-20 -109 -20 -179q0 -69 24 -110q47 -68 146 -68q71 0 132 28.5t99 80.5q29 38 48 97.5t40 170.5l101 535
h272zM500 1290l49 273h272l-49 -273h-272zM930 1290l49 273h272l-49 -273h-272z" />
    <glyph glyph-name="yacute" unicode="&#xfd;" horiz-adv-x="1163" 
d="M139 -379l303 485l-225 1029h311l115 -736l412 736h313l-936 -1514h-293zM647 1255l-76 160l510 275l76 -189z" />
    <glyph glyph-name="thorn" unicode="&#xfe;" horiz-adv-x="1355" 
d="M391 1513h273l-93 -499q159 147 379 147q212 0 338.5 -128t126.5 -337q0 -62 -12 -129q-47 -259 -236.5 -426.5t-435.5 -167.5q-219 0 -325 148l-93 -500h-272zM860 911q-138 0 -249.5 -99t-139.5 -245q-6 -37 -6 -71q0 -121 75 -197t199 -76q138 0 249.5 99t139.5 245
q9 56 9 72q0 121 -76.5 196.5t-200.5 75.5z" />
    <glyph glyph-name="ydieresis" unicode="&#xff;" horiz-adv-x="1163" 
d="M139 -379l303 485l-225 1029h311l115 -736l412 736h313l-936 -1514h-293zM471 1290l49 273h273l-50 -273h-272zM901 1290l49 273h273l-49 -273h-273z" />
    <glyph glyph-name="dotlessi" unicode="&#x131;" horiz-adv-x="493" 
d="M111 0l211 1135h272l-211 -1135h-272z" />
    <glyph glyph-name="Lslash" unicode="&#x141;" horiz-adv-x="991" 
d="M231 0l105 559l-227 -162l47 254l227 162l129 700h281l-101 -542l332 225l-47 -252l-332 -227l-84 -455h463l-49 -262h-744z" />
    <glyph glyph-name="lslash" unicode="&#x142;" horiz-adv-x="702" 
d="M223 0l121 649l-190 -127l39 203l188 129l123 659h272l-98 -526l190 129l-37 -203l-190 -129l-145 -784h-273z" />
    <glyph glyph-name="OE" unicode="&#x152;" horiz-adv-x="2166" 
d="M2052 0h-731l31 166q-101 -94 -231 -143.5t-273 -49.5q-291 0 -470 174.5t-179 450.5q0 82 14 156q41 222 174 402t327.5 282t411.5 102q312 0 445 -194l31 167h731l-49 -268h-447l-68 -356h424l-49 -268h-424l-65 -353h446zM1069 1270q-132 0 -254 -68.5t-207 -188
t-112 -263.5q-11 -64 -11 -103q0 -178 113 -290.5t295 -112.5q210 0 373 144t204 366q13 63 13 114q0 182 -112 292t-302 110z" />
    <glyph glyph-name="oe" unicode="&#x153;" horiz-adv-x="2199" 
d="M1876 334h291q-91 -165 -254.5 -263t-347.5 -98q-145 0 -253 60t-165 172q-104 -119 -224 -175.5t-268 -56.5q-226 0 -364.5 133t-138.5 345q0 65 10 116q30 163 134 300t255.5 215.5t314.5 78.5q203 0 322 -110q40 -35 94 -117q120 120 236 173.5t254 53.5
q192 0 325 -102q166 -126 166 -350q0 -59 -12 -127q-8 -48 -37 -136h-879q15 -103 88 -163t185 -60q72 0 145 30.5t123 80.5zM823 911q-135 0 -247 -99.5t-138 -242.5q-8 -50 -8 -69q0 -122 77 -199.5t204 -77.5q137 0 247 98t138 244q8 50 8 72q0 122 -77 198t-204 76z
M1368 686h619q-21 225 -267 225q-232 0 -352 -225z" />
    <glyph glyph-name="Scaron" unicode="&#x160;" horiz-adv-x="1073" 
d="M119 432h293q0 -5 -1 -15.5t-1 -15.5q0 -157 172 -157q91 0 157.5 51t81.5 133q4 28 4 43q0 70 -51 115q-29 25 -62.5 41t-172.5 71q-121 47 -183.5 132t-62.5 198q0 53 6 82q34 180 185 305t335 125q110 0 198.5 -45.5t133.5 -126.5q43 -74 43 -174q0 -38 -6 -84h-291
q0 5 1 15t1 14q0 63 -33.5 97t-97.5 34q-69 0 -120.5 -43t-63.5 -111q-2 -10 -2 -26q0 -71 63 -113q12 -9 33.5 -18.5t118.5 -47.5q105 -43 149.5 -69.5t81.5 -67.5q86 -92 86 -227q0 -47 -8 -88q-38 -205 -204 -345.5t-370 -140.5q-124 0 -222 51t-148 142q-47 84 -47 186
q0 51 4 80zM485 1931h301l86 -131l134 131h297l-351 -282h-219z" />
    <glyph glyph-name="scaron" unicode="&#x161;" horiz-adv-x="897" 
d="M98 360h275q6 -72 35.5 -104.5t89.5 -32.5q54 0 94 31.5t49 79.5q2 6 2 18q0 46 -37 70q-26 19 -131 57q-138 50 -199 111.5t-61 154.5q0 20 8 70q28 146 155 246t286 100q88 0 160.5 -35t113.5 -98q41 -61 41 -139q0 -30 -6 -68h-266q-3 90 -91 90q-44 0 -78 -27.5
t-42 -68.5q0 -2 -1 -7t-1 -7q0 -41 41 -62q27 -12 131 -47q138 -44 199 -104.5t61 -153.5q0 -34 -6 -74q-31 -163 -169.5 -275t-308.5 -112q-105 0 -190 44.5t-125 119.5q-33 65 -33 150q0 19 4 73zM332 1573h301l86 -131l133 131h297l-348 -283h-219z" />
    <glyph glyph-name="Ydieresis" unicode="&#x178;" horiz-adv-x="1304" 
d="M512 0l104 559l-321 954h303l207 -696l463 696h303l-674 -954l-104 -559h-281zM606 1649l51 272h273l-51 -272h-273zM1036 1649l51 272h273l-51 -272h-273z" />
    <glyph glyph-name="Zcaron" unicode="&#x17d;" horiz-adv-x="1069" 
d="M104 238l762 1007h-542l49 268h876l-47 -251l-753 -994h608l-49 -268h-947zM485 1931h301l86 -131l134 131h297l-351 -282h-219z" />
    <glyph glyph-name="zcaron" unicode="&#x17e;" horiz-adv-x="987" 
d="M61 0l45 244l621 647h-442l45 244h768l-45 -244l-621 -647h539l-45 -244h-865zM389 1573h301l86 -131l133 131h297l-348 -283h-219z" />
    <glyph glyph-name="florin" unicode="&#x192;" 
d="M1008 1198h188l-82 -235h-190l-265 -746q-64 -179 -113 -261.5t-124 -141.5q-152 -119 -352 -119q-60 0 -117 14l84 238q36 -8 65 -8q134 0 203 90q45 53 109 233l252 701h-193l82 235h193l20 53q50 125 82 178.5t90 108.5q75 71 170.5 109.5t196.5 38.5q17 0 57 -7
l-86 -239h-21q-122 0 -192 -115q-25 -41 -57 -127z" />
    <glyph glyph-name="uni0237" unicode="&#x237;" horiz-adv-x="522" 
d="M350 1135h273l-197 -1059q-23 -127 -67.5 -212.5t-118.5 -144.5q-124 -98 -283 -98l49 264q79 13 102.5 44.5t45.5 152.5z" />
    <glyph glyph-name="circumflex" unicode="&#x2c6;" horiz-adv-x="1079" 
d="M371 1290l352 283h219l246 -283h-297l-84 131l-135 -131h-301z" />
    <glyph glyph-name="caron" unicode="&#x2c7;" horiz-adv-x="1079" 
d="M422 1573h301l86 -131l133 131h297l-348 -283h-219z" />
    <glyph glyph-name="breve" unicode="&#x2d8;" horiz-adv-x="937" 
d="M424 1575h201q21 -88 123 -88q112 0 143 88h209q-29 -129 -136 -207t-253 -78q-139 0 -215 63t-76 179q0 15 4 43z" />
    <glyph glyph-name="dotaccent" unicode="&#x2d9;" horiz-adv-x="534" 
d="M371 1290l49 273h274l-51 -273h-272z" />
    <glyph glyph-name="ring" unicode="&#x2da;" horiz-adv-x="684" 
d="M653 1671q76 0 125 -49.5t49 -122.5q0 -15 -4 -39q-17 -88 -89.5 -149.5t-160.5 -61.5q-77 0 -126.5 49t-49.5 123q0 15 4 39q17 88 90 149.5t162 61.5zM625 1534q-29 0 -54.5 -21.5t-31.5 -52.5v-14q0 -27 16 -43.5t43 -16.5q31 0 56.5 21.5t31.5 52.5q0 2 1 7.5t1 7.5
q0 27 -17 43t-46 16z" />
    <glyph glyph-name="ogonek" unicode="&#x2db;" horiz-adv-x="634" 
d="M307 0h144q-88 -55 -122 -89.5t-42 -76.5q0 -2 -1 -7t-1 -7q0 -31 24.5 -51.5t63.5 -20.5q34 0 88 21l-29 -158q-74 -29 -141 -29q-93 0 -148 45t-55 119q0 11 4 39q24 132 215 215z" />
    <glyph glyph-name="tilde" unicode="&#x2dc;" horiz-adv-x="940" 
d="M483 1303l-80 163q63 54 113.5 75.5t114.5 21.5q34 0 56 -5.5t63 -23.5q56 -23 92 -23q76 0 149 70l80 -166q-60 -60 -109.5 -86t-103.5 -26q-46 0 -117 26q-64 25 -104 25t-65 -8t-89 -43z" />
    <glyph glyph-name="hungarumlaut" unicode="&#x2dd;" horiz-adv-x="1398" 
d="M389 1397l485 293l97 -164l-504 -271zM969 1397l487 293l94 -164l-501 -271z" />
    <glyph glyph-name="gravecomb" unicode="&#x300;" horiz-adv-x="0" 
d="M-733 1509l149 181l406 -273l-140 -162z" />
    <glyph glyph-name="acutecomb" unicode="&#x301;" horiz-adv-x="0" 
d="M-539 1255l-76 160l510 275l76 -189z" />
    <glyph glyph-name="uni0302" unicode="&#x302;" horiz-adv-x="0" 
d="M-829 1290l352 283h219l246 -283h-297l-84 131l-135 -131h-301z" />
    <glyph glyph-name="tildecomb" unicode="&#x303;" horiz-adv-x="0" 
d="M-641 1303l-80 163q63 54 113.5 75.5t114.5 21.5q34 0 56 -5.5t63 -23.5q56 -23 92 -23q76 0 149 70l80 -166q-60 -60 -109.5 -86t-103.5 -26q-46 0 -117 26q-64 25 -104 25t-65 -8t-89 -43z" />
    <glyph glyph-name="uni0304" unicode="&#x304;" horiz-adv-x="0" 
d="M-698 1327l39 205h567l-39 -205h-567z" />
    <glyph glyph-name="uni0306" unicode="&#x306;" horiz-adv-x="0" 
d="M-706 1575h201q21 -88 123 -88q112 0 143 88h209q-29 -129 -136 -207t-253 -78q-139 0 -215 63t-76 179q0 15 4 43z" />
    <glyph glyph-name="uni0307" unicode="&#x307;" horiz-adv-x="0" 
d="M-557 1290l49 273h274l-51 -273h-272z" />
    <glyph glyph-name="uni0308" unicode="&#x308;" horiz-adv-x="0" 
d="M-772 1290l49 273h272l-49 -273h-272zM-342 1290l49 273h272l-49 -273h-272z" />
    <glyph glyph-name="uni030A" unicode="&#x30a;" horiz-adv-x="0" 
d="M-351 1671q76 0 125 -49.5t49 -122.5q0 -15 -4 -39q-17 -88 -89.5 -149.5t-160.5 -61.5q-77 0 -126.5 49t-49.5 123q0 15 4 39q17 88 90 149.5t162 61.5zM-379 1534q-29 0 -54.5 -21.5t-31.5 -52.5v-14q0 -27 16 -43.5t43 -16.5q31 0 56.5 21.5t31.5 52.5q0 2 1 7.5
t1 7.5q0 27 -17 43t-46 16z" />
    <glyph glyph-name="uni030B" unicode="&#x30b;" horiz-adv-x="0" 
d="M-936 1397l485 293l97 -164l-504 -271zM-356 1397l487 293l94 -164l-501 -271z" />
    <glyph glyph-name="uni030C" unicode="&#x30c;" horiz-adv-x="0" 
d="M-778 1573h301l86 -131l133 131h297l-348 -283h-219z" />
    <glyph glyph-name="uni0400" unicode="&#x400;" horiz-adv-x="1073" 
d="M145 0l281 1513h813l-49 -268h-533l-67 -356h510l-49 -268h-510l-66 -353h533l-50 -268h-813zM530 1868l150 180l405 -272l-139 -162z" />
    <glyph glyph-name="uni0401" unicode="&#x401;" horiz-adv-x="1073" 
d="M145 0l281 1513h813l-49 -268h-533l-67 -356h510l-49 -268h-510l-66 -353h533l-50 -268h-813zM506 1649l51 272h272l-51 -272h-272zM936 1649l51 272h273l-52 -272h-272z" />
    <glyph glyph-name="uni0402" unicode="&#x402;" horiz-adv-x="1419" 
d="M815 -27l49 269q101 0 192.5 60.5t110.5 162.5q4 24 4 37q0 38 -18 66t-47 44t-74.5 25.5t-90.5 12.5t-105 3h-119l-121 -653h-281l232 1245h-301l49 268h944l-49 -268h-363l-61 -323h100q174 0 266.5 -13t155.5 -47q82 -44 126 -125.5t44 -185.5q0 -48 -8 -92
q-17 -93 -60.5 -172.5t-104.5 -136.5t-137.5 -97.5t-160.5 -60t-172 -19.5z" />
    <glyph glyph-name="uni0403" unicode="&#x403;" horiz-adv-x="956" 
d="M665 1613l-76 160l510 275l76 -189zM1174 1245h-517l-231 -1245h-281l281 1513h797z" />
    <glyph glyph-name="uni0404" unicode="&#x404;" horiz-adv-x="1642" 
d="M1317 422h330q-128 -207 -338 -328t-443 -121q-145 0 -269.5 49t-211 134t-135.5 204t-49 256q0 60 14 146q39 211 177 390t336.5 283.5t408.5 104.5q143 0 267.5 -47.5t213.5 -136.5q60 -60 92 -119.5t59 -157.5h-313q-59 100 -144.5 145.5t-217.5 45.5
q-236 0 -408 -166q-92 -89 -145 -207h743l-49 -268h-746q12 -168 128.5 -276.5t291.5 -108.5q109 0 202.5 40.5t205.5 137.5z" />
    <glyph glyph-name="uni0405" unicode="&#x405;" horiz-adv-x="1073" 
d="M119 432h293q0 -5 -1 -15.5t-1 -15.5q0 -157 172 -157q91 0 157.5 51t81.5 133q4 28 4 43q0 70 -51 115q-29 25 -62.5 41t-172.5 71q-121 47 -183.5 132t-62.5 198q0 53 6 82q34 180 185 305t335 125q110 0 198.5 -45.5t133.5 -126.5q43 -74 43 -174q0 -38 -6 -84h-291
q0 5 1 15t1 14q0 63 -33.5 97t-97.5 34q-69 0 -120.5 -43t-63.5 -111q-2 -10 -2 -26q0 -71 63 -113q12 -9 33.5 -18.5t118.5 -47.5q105 -43 149.5 -69.5t81.5 -67.5q86 -92 86 -227q0 -47 -8 -88q-38 -205 -204 -345.5t-370 -140.5q-124 0 -222 51t-148 142q-47 84 -47 186
q0 51 4 80z" />
    <glyph glyph-name="uni0406" unicode="&#x406;" horiz-adv-x="571" 
d="M145 0l281 1513h281l-281 -1513h-281z" />
    <glyph glyph-name="uni0407" unicode="&#x407;" horiz-adv-x="571" 
d="M145 0l281 1513h281l-281 -1513h-281zM240 1649l51 272h272l-51 -272h-272zM670 1649l51 272h272l-51 -272h-272z" />
    <glyph glyph-name="uni0408" unicode="&#x408;" horiz-adv-x="1011" 
d="M866 1513h281l-201 -1079q-40 -214 -171.5 -337.5t-321.5 -123.5q-98 0 -177.5 38t-125.5 106q-52 73 -52 168q0 19 4 73h281q6 -114 113 -114q135 0 172 198z" />
    <glyph glyph-name="uni0409" unicode="&#x409;" horiz-adv-x="2072" 
d="M342 0h-338l1245 1513h281l-111 -591h101q174 0 266.5 -13t155.5 -47q82 -44 125.5 -125.5t43.5 -185.5q0 -48 -8 -92q-23 -126 -97.5 -225t-188.5 -158q-83 -42 -186 -59t-277 -17h-385l194 1051zM1370 653l-72 -385h113q137 0 219 15q77 17 128 65.5t63 116.5
q2 10 2 29q0 51 -33.5 87.5t-93.5 51.5q-76 20 -228 20h-98z" />
    <glyph glyph-name="uni040A" unicode="&#x40a;" horiz-adv-x="2056" 
d="M145 0l281 1513h281l-111 -591h526l111 591h280l-110 -591h100q174 0 266.5 -13t155.5 -47q82 -44 126 -125.5t44 -185.5q0 -48 -8 -92q-23 -126 -98 -225t-189 -158q-83 -42 -186 -59t-277 -17h-385l121 653h-526l-121 -653h-281zM1354 653l-72 -385h113q136 0 219 15
q77 17 127.5 65t62.5 117q2 10 2 29q0 51 -33.5 87.5t-93.5 51.5q-76 20 -227 20h-98z" />
    <glyph glyph-name="uni040B" unicode="&#x40b;" horiz-adv-x="1437" 
d="M1051 0l86 459q4 18 4 51q0 82 -62 114.5t-188 32.5q-114 0 -174 -8l-121 -649h-281l232 1245h-301l49 268h944l-49 -268h-363l-61 -327q65 8 260 8q177 0 289 -96.5t112 -268.5q0 -53 -8 -102l-86 -459h-282z" />
    <glyph glyph-name="uni040C" unicode="&#x40c;" horiz-adv-x="1257" 
d="M784 1613l-76 160l510 275l76 -189zM145 0l281 1513h281l-121 -653l590 653h337l-706 -743l426 -770h-338l-346 666l-123 -666h-281z" />
    <glyph glyph-name="uni040D" unicode="&#x40d;" horiz-adv-x="1511" 
d="M684 1867l149 181l406 -273l-140 -162zM1362 1513h285l-281 -1513h-279l195 1049l-852 -1049h-285l281 1513h279l-195 -1048z" />
    <glyph glyph-name="uni040E" unicode="&#x40e;" horiz-adv-x="1226" 
d="M606 1919h235q-6 -30 -6 -57q0 -53 26 -76t79 -23q65 0 102.5 36.5t52.5 119.5h236q-51 -142 -162 -215.5t-254 -73.5t-226 73.5t-83 215.5zM584 0h-267l230 397l-258 1116h303l156 -770l448 770h303z" />
    <glyph glyph-name="uni040F" unicode="&#x40f;" horiz-adv-x="1363" 
d="M1499 1513l-280 -1513h-390l-108 -297h-189l3 297h-390l281 1513h281l-232 -1245h512l232 1245h280z" />
    <glyph glyph-name="uni0410" unicode="&#x410;" horiz-adv-x="1515" 
d="M14 0l912 1513h221l354 -1513h-309l-90 391h-539l-239 -391h-310zM717 659h323l-77 459z" />
    <glyph glyph-name="uni0411" unicode="&#x411;" horiz-adv-x="1226" 
d="M551 678l-76 -410h103q113 0 200 17q70 17 118 68.5t62 123.5q5 30 5 35q0 53 -30.5 91.5t-84.5 51.5q-81 23 -207 23h-90zM657 1245l-55 -299h94q166 0 252.5 -13t145.5 -48q74 -44 114.5 -126t40.5 -186q0 -55 -8 -102q-25 -129 -96.5 -231t-179.5 -162
q-77 -44 -176 -61t-265 -17h-379l281 1513h911l-49 -268h-631z" />
    <glyph glyph-name="uni0412" unicode="&#x412;" horiz-adv-x="1202" 
d="M145 0l281 1513h311q173 0 258.5 -16.5t145.5 -62.5q110 -82 110 -242q0 -43 -8 -82q-20 -108 -70 -173t-149 -112q69 -31 104 -59t60 -72q33 -59 33 -149q0 -45 -9 -94q-22 -120 -94.5 -218t-181.5 -155q-150 -78 -387 -78h-404zM475 268h139q148 0 223.5 45.5
t94.5 145.5q4 32 4 43q0 153 -256 153h-133zM598 930h90q127 0 191 36.5t79 118.5q5 30 5 35q0 119 -193 119h-115z" />
    <glyph glyph-name="uni0413" unicode="&#x413;" horiz-adv-x="956" 
d="M1174 1245h-517l-231 -1245h-281l281 1513h797z" />
    <glyph glyph-name="uni0414" unicode="&#x414;" horiz-adv-x="1720" 
d="M1636 -297h-196l-2 297h-1155l-113 -297h-197l105 565h201l749 1245h225l287 -1245h201zM569 268h680l-186 830z" />
    <glyph glyph-name="uni0415" unicode="&#x415;" horiz-adv-x="1073" 
d="M145 0l281 1513h813l-49 -268h-533l-67 -356h510l-49 -268h-510l-66 -353h533l-50 -268h-813z" />
    <glyph glyph-name="uni0416" unicode="&#x416;" horiz-adv-x="1869" 
d="M1227 819l565 694h334l-643 -743l362 -770h-334l-305 707l-131 -707h-280l131 707l-568 -707h-333l649 770l-369 743h334l307 -694l129 694h281z" />
    <glyph glyph-name="uni0417" unicode="&#x417;" horiz-adv-x="1134" 
d="M584 676l45 246q281 0 315 174q4 20 4 30q0 62 -42 104t-109 42q-75 0 -137 -52t-76 -124h-273q34 185 190 314.5t345 129.5q166 0 272.5 -103.5t106.5 -260.5q0 -44 -8 -80q-18 -98 -83 -179t-163 -110q83 -31 131.5 -112.5t48.5 -176.5q0 -39 -4 -57
q-37 -201 -210 -344.5t-380 -143.5q-183 0 -300.5 115t-117.5 287q0 47 8 86h283q-4 -28 -4 -41q0 -76 50.5 -126t129.5 -50q91 0 166 63t92 154q4 18 4 53q0 88 -69.5 125t-214.5 37z" />
    <glyph glyph-name="uni0418" unicode="&#x418;" horiz-adv-x="1511" 
d="M1362 1513h285l-281 -1513h-279l195 1049l-852 -1049h-285l281 1513h279l-195 -1048z" />
    <glyph glyph-name="uni0419" unicode="&#x419;" horiz-adv-x="1511" 
d="M750 1919h235q-6 -30 -6 -57q0 -53 26 -76t79 -23q65 0 102.5 36.5t52.5 119.5h236q-51 -142 -162 -215.5t-254 -73.5t-226 73.5t-83 215.5zM1362 1513h285l-281 -1513h-279l195 1049l-852 -1049h-285l281 1513h279l-195 -1048z" />
    <glyph glyph-name="uni041A" unicode="&#x41a;" horiz-adv-x="1257" 
d="M145 0l281 1513h281l-121 -653l590 653h337l-706 -743l426 -770h-338l-346 666l-123 -666h-281z" />
    <glyph glyph-name="uni041B" unicode="&#x41b;" horiz-adv-x="1515" 
d="M967 1128l-650 -1128h-303l914 1513h221l352 -1513h-303z" />
    <glyph glyph-name="uni041C" unicode="&#x41c;" horiz-adv-x="1871" 
d="M145 0l281 1513h385l195 -1146l616 1146h385l-281 -1513h-280l211 1135l-606 -1135h-230l-184 1135l-211 -1135h-281z" />
    <glyph glyph-name="uni041D" unicode="&#x41d;" horiz-adv-x="1392" 
d="M145 0l281 1513h281l-113 -610h541l112 610h281l-281 -1513h-280l116 635h-540l-117 -635h-281z" />
    <glyph glyph-name="uni041E" unicode="&#x41e;" horiz-adv-x="1724" 
d="M1159 1540q187 0 335 -83.5t229 -228.5t81 -325q0 -71 -12 -145q-30 -163 -117.5 -308.5t-210.5 -250t-279.5 -165.5t-318.5 -61q-193 0 -345.5 82.5t-236 227.5t-83.5 327q0 87 12 146q30 163 119 308.5t214.5 249.5t285.5 165t327 61zM1092 1270q-207 0 -380.5 -149.5
t-213.5 -362.5q-11 -60 -11 -99q0 -181 118.5 -298t307.5 -117q215 0 384 145t210 365q11 68 11 104q0 183 -117 297.5t-309 114.5z" />
    <glyph glyph-name="uni041F" unicode="&#x41f;" horiz-adv-x="1363" 
d="M145 0l281 1513h1073l-280 -1513h-281l231 1245h-512l-231 -1245h-281z" />
    <glyph glyph-name="uni0420" unicode="&#x420;" horiz-adv-x="1173" 
d="M145 0l281 1513h375q155 0 240 -17t145 -60q131 -96 131 -285q0 -42 -10 -104q-25 -135 -101.5 -245t-185.5 -165q-68 -34 -155.5 -48t-241.5 -14h-91l-106 -575h-281zM582 844h82q129 0 196 20q63 17 106.5 64.5t55.5 111.5q4 32 4 47q0 55 -25.5 93t-74.5 51
q-57 14 -174 14h-95z" />
    <glyph glyph-name="uni0421" unicode="&#x421;" horiz-adv-x="1642" 
d="M1317 422h330q-128 -207 -338 -328t-443 -121q-145 0 -269.5 49t-211 134t-135.5 204t-49 256q0 60 14 146q39 211 177 390t336.5 283.5t408.5 104.5q143 0 267.5 -47.5t213.5 -136.5q60 -60 92 -119.5t59 -157.5h-313q-59 100 -144.5 145.5t-217.5 45.5
q-236 0 -408 -166q-70 -67 -120.5 -159t-67.5 -185q-11 -60 -11 -94q0 -180 119 -301t303 -121q109 0 202.5 40.5t205.5 137.5z" />
    <glyph glyph-name="uni0422" unicode="&#x422;" horiz-adv-x="870" 
d="M295 0l231 1245h-280l49 268h842l-50 -268h-280l-232 -1245h-280z" />
    <glyph glyph-name="uni0423" unicode="&#x423;" horiz-adv-x="1226" 
d="M584 0h-267l230 397l-258 1116h303l156 -770l448 770h303z" />
    <glyph glyph-name="uni0424" unicode="&#x424;" horiz-adv-x="1660" 
d="M1184 1149l-142 -758q161 36 277 140t141 239q6 30 6 64q0 115 -76 199.5t-206 115.5zM762 391l141 756q-161 -36 -276 -139t-140 -238q-6 -30 -6 -63q0 -115 76 -200t205 -116zM954 1423l17 90h280l-16 -90q234 -37 376 -185t142 -357q0 -49 -10 -111
q-30 -163 -137.5 -303t-267.5 -231.5t-345 -118.5l-22 -117h-281l23 117q-234 37 -376 185t-142 357q0 49 10 111q30 163 137.5 303t267.5 231.5t344 118.5z" />
    <glyph glyph-name="uni0425" unicode="&#x425;" horiz-adv-x="1402" 
d="M14 0l660 754l-379 759h334l254 -528l460 528h326l-665 -759l385 -754h-326l-266 522l-449 -522h-334z" />
    <glyph glyph-name="uni0426" unicode="&#x426;" horiz-adv-x="1468" 
d="M1198 1513h281l-232 -1245h226l-105 -565h-197l-2 297h-1024l281 1513h281l-232 -1245h492z" />
    <glyph glyph-name="uni0427" unicode="&#x427;" horiz-adv-x="1284" 
d="M383 1513h281l-82 -438q-11 -72 -11 -100q0 -85 44.5 -122.5t142.5 -37.5q144 0 256 23l125 675h280l-280 -1513h-281l107 580q-200 -33 -308 -33q-87 0 -153 15.5t-119.5 50.5t-82 99t-28.5 154q0 62 15 138z" />
    <glyph glyph-name="uni0428" unicode="&#x428;" horiz-adv-x="1832" 
d="M1688 0h-1543l281 1513h281l-232 -1245h350l232 1245h280l-231 -1245h350l232 1245h280z" />
    <glyph glyph-name="uni0429" unicode="&#x429;" horiz-adv-x="1957" 
d="M1737 268h225l-104 -565h-197l-2 297h-1514l281 1513h281l-232 -1245h350l232 1245h280l-231 -1245h350l232 1245h280z" />
    <glyph glyph-name="uni042A" unicode="&#x42a;" horiz-adv-x="1456" 
d="M754 653l-72 -385h113q137 0 219 15q77 17 127.5 65t62.5 117q2 10 2 29q0 51 -33.5 87.5t-93.5 51.5q-76 20 -227 20h-98zM584 1245h-338l49 268h618l-110 -591h100q174 0 266.5 -13t155.5 -47q82 -44 126 -125.5t44 -185.5q0 -48 -8 -92q-23 -126 -98 -225t-189 -158
q-83 -42 -186 -59t-277 -17h-385z" />
    <glyph glyph-name="uni042B" unicode="&#x42b;" horiz-adv-x="1771" 
d="M426 1513h281l-111 -591h100q174 0 266.5 -13t155.5 -47q82 -44 126 -125.5t44 -185.5q0 -48 -8 -92q-23 -126 -98 -225t-189 -158q-83 -42 -186 -59t-277 -17h-385zM547 653l-72 -385h113q136 0 219 15q77 17 127.5 65t62.5 117q2 10 2 29q0 51 -33.5 87.5t-93.5 51.5
q-76 20 -227 20h-98zM1907 1513l-281 -1513h-280l280 1513h281z" />
    <glyph glyph-name="uni042C" unicode="&#x42c;" horiz-adv-x="1249" 
d="M426 1513h281l-111 -591h100q174 0 266.5 -13t155.5 -47q82 -44 126 -125.5t44 -185.5q0 -48 -8 -92q-23 -126 -98 -225t-189 -158q-83 -42 -186 -59t-277 -17h-385zM547 653l-72 -385h113q136 0 219 15q77 17 127.5 65t62.5 117q2 10 2 29q0 51 -33.5 87.5t-93.5 51.5
q-76 20 -227 20h-98z" />
    <glyph glyph-name="uni042D" unicode="&#x42d;" horiz-adv-x="1642" 
d="M481 422q75 -96 154 -137t188 -41q175 0 332 108.5t231 276.5h-745l49 268h744q-9 121 -68 207q-110 166 -346 166q-132 0 -234 -45.5t-198 -145.5h-314q60 95 115 155t139 122q254 184 547 184q186 0 334.5 -84t230.5 -229.5t82 -323.5q0 -67 -12 -141
q-40 -216 -180 -397.5t-342.5 -286.5t-419.5 -105q-233 0 -399 121t-217 328h329z" />
    <glyph glyph-name="uni042E" unicode="&#x42e;" horiz-adv-x="2271" 
d="M1628 1282q-139 0 -270 -70t-221.5 -190.5t-116.5 -263.5q-10 -58 -10 -101q0 -186 122 -306t314 -120q220 0 393.5 149.5t214.5 373.5q10 62 10 106q0 187 -119.5 304.5t-316.5 117.5zM1696 1552q190 0 340 -84.5t232.5 -232t82.5 -330.5q0 -88 -12 -147
q-41 -221 -180 -404t-340.5 -288t-421.5 -105q-147 0 -273.5 49t-214.5 135t-138 205.5t-50 257.5v27h-178l-117 -635h-281l281 1513h281l-113 -610h182q68 186 207 333.5t325.5 231.5t387.5 84z" />
    <glyph glyph-name="uni042F" unicode="&#x42f;" horiz-adv-x="1239" 
d="M965 815l79 430h-98q-117 0 -192 -16q-67 -17 -113.5 -72t-60.5 -131q-5 -35 -5 -41q0 -55 27.5 -94.5t77.5 -52.5q74 -23 199 -23h86zM1094 0h-281l100 547h-114l-430 -547h-324l465 578q-39 11 -74 32q-71 45 -110 127.5t-39 186.5q0 46 10 108q25 130 96.5 235
t177.5 167q76 44 171 61.5t255 17.5h377z" />
    <glyph glyph-name="uni0430" unicode="&#x430;" horiz-adv-x="1366" 
d="M1466 1135l-211 -1135h-249l26 147q-98 -94 -192.5 -134t-214.5 -40q-215 0 -345 128.5t-130 336.5q0 60 12 125q31 171 130 307.5t245.5 213.5t312.5 77q123 0 203.5 -42t134.5 -136l29 152h249zM827 911q-142 0 -253 -100t-140 -254q-6 -37 -6 -72q0 -119 75.5 -190.5
t205.5 -71.5q148 0 256.5 94t136.5 246q8 54 8 76q0 123 -77 197.5t-206 74.5z" />
    <glyph glyph-name="uni0431" unicode="&#x431;" horiz-adv-x="1333" 
d="M834 895q-132 0 -245.5 -98t-139.5 -236q-7 -40 -7 -65q0 -119 76 -196t195 -77q137 0 252 98t141 238q6 35 6 64q0 119 -77.5 195.5t-200.5 76.5zM887 1139q219 0 360.5 -136t141.5 -341q0 -50 -9 -103q-29 -160 -134.5 -295t-258.5 -213t-317 -78q-155 0 -274 68.5
t-175 198.5q-35 80 -35 204q0 131 52 406q127 692 763 741l502 39l-47 -244l-489 -40q-222 -19 -348.5 -123.5t-163.5 -298.5l2 -2q54 78 175.5 147.5t254.5 69.5z" />
    <glyph glyph-name="uni0432" unicode="&#x432;" horiz-adv-x="1107" 
d="M547 887l-37 -203h192q84 0 132 27.5t57 74.5q2 6 2 17q0 39 -39.5 61.5t-114.5 22.5h-192zM473 485l-45 -237h248q62 0 106.5 32.5t53.5 86.5q2 8 2 22q0 43 -31.5 69.5t-85.5 26.5h-248zM981 590q58 -23 95.5 -68t37.5 -112q0 -15 -4 -43q-28 -154 -158 -260.5
t-303 -106.5h-538l211 1135h466q171 0 271 -70.5t100 -204.5q0 -20 -8 -74q-12 -65 -61 -119t-109 -77z" />
    <glyph glyph-name="uni0433" unicode="&#x433;" horiz-adv-x="790" 
d="M965 1135l-47 -248h-371l-164 -887h-272l211 1135h643z" />
    <glyph glyph-name="uni0434" unicode="&#x434;" horiz-adv-x="1384" 
d="M1315 -270h-195l-8 270h-838l-106 -270h-197l95 518h174l544 887h238l213 -887h174zM952 248l-118 512l-312 -512h430z" />
    <glyph glyph-name="uni0435" unicode="&#x435;" horiz-adv-x="1298" 
d="M1313 446h-879q6 -103 79 -163t194 -60q85 0 146 25.5t124 87.5h297q-40 -79 -119 -158q-214 -205 -487 -205q-229 0 -372.5 135.5t-143.5 346.5q0 46 10 108q30 164 134.5 301.5t257 217t316.5 79.5q220 0 353 -133t133 -348q0 -56 -13 -129q-12 -61 -30 -105zM471 686
h629q-6 109 -76.5 167t-196.5 58q-122 0 -213 -57.5t-143 -167.5z" />
    <glyph glyph-name="uni0436" unicode="&#x436;" horiz-adv-x="1677" 
d="M1087 606l455 529h318l-512 -564l325 -571h-332l-268 528l-98 -528h-273l99 528l-465 -528h-332l539 571l-303 564h317l258 -529l98 529h273z" />
    <glyph glyph-name="uni0437" unicode="&#x437;" horiz-adv-x="978" 
d="M498 498l32 180q105 0 160 28.5t68 98.5q2 6 2 18q0 39 -30 65.5t-79 26.5q-56 0 -97.5 -31t-61.5 -79h-256q39 153 168.5 255.5t291.5 102.5q145 0 238.5 -84.5t93.5 -212.5q0 -31 -6 -61q-12 -70 -68.5 -130t-132.5 -77v-2q71 -19 116.5 -76t45.5 -127q0 -11 -4 -35
q-19 -105 -93 -193.5t-183 -140t-226 -51.5q-162 0 -263 98t-101 242q0 31 2 45h270v-12q0 -55 37.5 -89t99.5 -34q66 0 119.5 39t63.5 96q4 24 4 35q0 33 -14.5 54.5t-46 32t-64.5 14t-86 4.5z" />
    <glyph glyph-name="uni0438" unicode="&#x438;" horiz-adv-x="1275" 
d="M1100 1135h276l-211 -1135h-270l139 750l-647 -750h-276l211 1135h270l-139 -750z" />
    <glyph glyph-name="uni0439" unicode="&#x439;" horiz-adv-x="1275" 
d="M584 1528h207q-4 -18 -4 -51q0 -50 25.5 -72.5t82.5 -22.5q69 0 107 35t51 111h207q-95 -266 -387 -266q-289 0 -289 266zM1100 1135h276l-211 -1135h-270l139 750l-647 -750h-276l211 1135h270l-139 -750z" />
    <glyph glyph-name="uni043A" unicode="&#x43a;" horiz-adv-x="1134" 
d="M111 0l211 1135h272l-98 -523l491 523h330l-557 -564l370 -571h-354l-297 522l-96 -522h-272z" />
    <glyph glyph-name="uni043B" unicode="&#x43b;" horiz-adv-x="1171" 
d="M1165 0h-291l-149 754l-428 -754h-291l684 1135h213z" />
    <glyph glyph-name="uni043C" unicode="&#x43c;" horiz-adv-x="1527" 
d="M887 236h-160l-205 514l-139 -750h-272l211 1135h311l233 -582l451 582h311l-211 -1135h-272l139 750z" />
    <glyph glyph-name="uni043D" unicode="&#x43d;" horiz-adv-x="1265" 
d="M1155 0h-272l84 449h-500l-84 -449h-272l211 1135h272l-82 -439h500l82 439h272z" />
    <glyph glyph-name="uni043E" unicode="&#x43e;" horiz-adv-x="1320" 
d="M881 1161q218 0 357.5 -139t139.5 -348q0 -47 -10 -109q-29 -160 -135 -296.5t-259.5 -216t-316.5 -79.5q-221 0 -363 138.5t-142 347.5q0 44 10 106q30 163 136 300.5t261 216.5t322 79zM823 911q-132 0 -246.5 -101.5t-140.5 -242.5q-6 -35 -6 -65q0 -120 75.5 -199.5
t194.5 -79.5q136 0 252 100.5t142 241.5q6 34 6 68q0 121 -77.5 199.5t-199.5 78.5z" />
    <glyph glyph-name="uni043F" unicode="&#x43f;" horiz-adv-x="1265" 
d="M1155 0h-272l164 887h-500l-164 -887h-272l211 1135h1044z" />
    <glyph glyph-name="uni0440" unicode="&#x440;" horiz-adv-x="1355" 
d="M41 -379l281 1514h249l-24 -134q163 160 401 160q214 0 341.5 -128t127.5 -335q0 -62 -12 -127q-31 -170 -129.5 -306.5t-242.5 -214t-306 -77.5q-104 0 -181 32t-143 101l-90 -485h-272zM860 911q-138 0 -249.5 -99.5t-139.5 -248.5q-6 -35 -6 -67q0 -120 76.5 -196.5
t199.5 -76.5q137 0 249 99t138 243q9 56 9 74q0 121 -76 196.5t-201 75.5z" />
    <glyph glyph-name="uni0441" unicode="&#x441;" horiz-adv-x="1280" 
d="M989 373h307q-106 -191 -272 -295.5t-365 -104.5q-223 0 -365 137.5t-142 348.5q0 46 10 108q46 250 251 422t457 172q122 0 225.5 -43.5t170.5 -124.5q44 -52 65 -102.5t35 -134.5h-307q-51 155 -236 155q-142 0 -249.5 -95.5t-135.5 -246.5q-8 -50 -8 -71
q0 -122 75 -198.5t197 -76.5q85 0 153.5 36t133.5 114z" />
    <glyph glyph-name="uni0442" unicode="&#x442;" horiz-adv-x="874" 
d="M1001 887h-264l-164 -887h-272l164 887h-264l47 248h801z" />
    <glyph glyph-name="uni0443" unicode="&#x443;" horiz-adv-x="1163" 
d="M139 -379l303 485l-225 1029h311l115 -736l412 736h313l-936 -1514h-293z" />
    <glyph glyph-name="uni0444" unicode="&#x444;" horiz-adv-x="1595" 
d="M942 1513h272l-65 -358q258 -21 379 -131t121 -305q0 -61 -17 -154q-49 -265 -218 -412t-484 -173l-66 -359h-272l65 359q-257 21 -378 130t-121 304q0 77 14 151q48 265 219.5 414t485.5 176zM829 903q-172 -23 -264 -106.5t-119 -231.5q-8 -41 -8 -86q0 -106 65 -168
t202 -80zM977 231q173 21 263.5 103.5t117.5 230.5q8 41 8 88q0 106 -63.5 168t-200.5 82z" />
    <glyph glyph-name="uni0445" unicode="&#x445;" horiz-adv-x="1142" 
d="M6 0l510 586l-246 549h308l141 -342l264 342h307l-448 -549l295 -586h-328l-166 389l-309 -389h-328z" />
    <glyph glyph-name="uni0446" unicode="&#x446;" horiz-adv-x="1355" 
d="M1323 1135l-166 -887h217l-94 -518h-197l-8 270h-964l211 1135h272l-166 -887h457l166 887h272z" />
    <glyph glyph-name="uni0447" unicode="&#x447;" horiz-adv-x="1093" 
d="M1194 1135l-211 -1135h-272l75 408q-150 -27 -256 -27q-155 0 -238 80.5t-83 228.5q0 54 12 115l62 330h272l-61 -330q-9 -61 -9 -70q0 -61 36.5 -83.5t127.5 -22.5q94 0 182 18l91 488h272z" />
    <glyph glyph-name="uni0448" unicode="&#x448;" horiz-adv-x="1705" 
d="M1595 0h-1484l211 1135h272l-166 -887h334l166 887h272l-166 -887h334l166 887h272z" />
    <glyph glyph-name="uni0449" unicode="&#x449;" horiz-adv-x="1839" 
d="M1858 248l-95 -518h-196l-8 270h-1448l211 1135h272l-166 -887h334l166 887h272l-166 -887h334l166 887h272l-166 -887h218z" />
    <glyph glyph-name="uni044A" unicode="&#x44a;" horiz-adv-x="1269" 
d="M969 745q153 0 242 -86t89 -217q0 -34 -6 -69q-28 -155 -159 -264t-304 -109h-499l164 887h-295l47 248h567l-74 -390h228zM696 498l-47 -250h209q61 0 107 35.5t55 89.5q2 8 2 24q0 45 -32 73t-85 28h-209z" />
    <glyph glyph-name="uni044B" unicode="&#x44b;" horiz-adv-x="1488" 
d="M475 498l-47 -250h209q61 0 107 35.5t55 89.5q2 8 2 24q0 45 -32 73t-85 28h-209zM748 745q153 0 242 -86t89 -217q0 -34 -6 -69q-28 -155 -159 -264t-304 -109h-499l211 1135h272l-74 -390h228zM1106 0l211 1135h272l-211 -1135h-272z" />
    <glyph glyph-name="uni044C" unicode="&#x44c;" horiz-adv-x="1048" 
d="M475 498l-47 -250h209q61 0 107 35.5t55 89.5q2 8 2 24q0 45 -32 73t-85 28h-209zM748 745q153 0 242 -86t89 -217q0 -34 -6 -69q-28 -155 -159 -264t-304 -109h-499l211 1135h272l-74 -390h228z" />
    <glyph glyph-name="uni044D" unicode="&#x44d;" horiz-adv-x="1267" 
d="M434 342q37 -62 87.5 -90.5t125.5 -28.5q109 0 205 62.5t149 165.5h-479l43 239h482q-12 102 -83.5 161.5t-183.5 59.5q-163 0 -268 -125h-313q102 170 267 272.5t361 102.5q222 0 361 -135.5t139 -345.5q0 -54 -12 -113q-30 -162 -136 -299t-260 -216t-319 -79
q-192 0 -317 96t-166 273h317z" />
    <glyph glyph-name="uni044E" unicode="&#x44e;" horiz-adv-x="1783" 
d="M1280 920q-135 0 -253 -104.5t-144 -248.5q-6 -35 -6 -67q0 -122 77.5 -203.5t198.5 -81.5q140 0 258.5 102.5t144.5 247.5q7 44 7 70q0 124 -79 204.5t-204 80.5zM1337 1169q221 0 362.5 -141t141.5 -354q0 -47 -10 -109q-30 -162 -137.5 -300.5t-263 -219t-320.5 -80.5
q-146 0 -262 63.5t-181 174t-67 246.5h-133l-84 -449h-272l211 1135h272l-82 -439h135q84 206 276.5 339.5t413.5 133.5z" />
    <glyph glyph-name="uni044F" unicode="&#x44f;" horiz-adv-x="1050" 
d="M786 641l45 246h-178q-61 0 -105.5 -34.5t-53.5 -88.5q-2 -8 -2 -25q0 -45 31 -71.5t85 -26.5h178zM399 418q-88 35 -137 109t-49 169q0 34 6 68q28 154 159 262.5t304 108.5h469l-211 -1135h-272l73 393h-65l-314 -393h-327z" />
    <glyph glyph-name="uni0450" unicode="&#x450;" horiz-adv-x="1298" 
d="M1313 446h-879q6 -103 79 -163t194 -60q85 0 146 25.5t124 87.5h297q-40 -79 -119 -158q-214 -205 -487 -205q-229 0 -372.5 135.5t-143.5 346.5q0 46 10 108q30 164 134.5 301.5t257 217t316.5 79.5q220 0 353 -133t133 -348q0 -56 -13 -129q-12 -61 -30 -105zM471 686
h629q-6 109 -76.5 167t-196.5 58q-122 0 -213 -57.5t-143 -167.5zM569 1509l150 181l403 -273l-137 -162z" />
    <glyph glyph-name="uni0451" unicode="&#x451;" horiz-adv-x="1298" 
d="M1313 446h-879q6 -103 79 -163t194 -60q85 0 146 25.5t124 87.5h297q-40 -79 -119 -158q-214 -205 -487 -205q-229 0 -372.5 135.5t-143.5 346.5q0 46 10 108q30 164 134.5 301.5t257 217t316.5 79.5q220 0 353 -133t133 -348q0 -56 -13 -129q-12 -61 -30 -105zM471 686
h629q-6 109 -76.5 167t-196.5 58q-122 0 -213 -57.5t-143 -167.5zM553 1290l49 273h272l-49 -273h-272zM983 1290l49 273h273l-50 -273h-272z" />
    <glyph glyph-name="uni0452" unicode="&#x452;" horiz-adv-x="1382" 
d="M1276 0q-20 -105 -104.5 -193.5t-197.5 -137t-224 -48.5l45 248q80 0 140 43t73 115l65 352q17 97 17 149q0 97 -42.5 140t-134.5 43q-143 0 -223 -115q-50 -71 -78 -221l-69 -375h-273l211 1135h-243l43 239h243l27 139h272l-26 -139h286l-43 -239h-286l-54 -279
q139 107 310 107q125 0 213.5 -49t126.5 -140q28 -70 28 -149t-20 -185z" />
    <glyph glyph-name="uni0453" unicode="&#x453;" horiz-adv-x="790" 
d="M555 1255l-76 160l510 275l76 -189zM965 1135l-47 -248h-371l-164 -887h-272l211 1135h643z" />
    <glyph glyph-name="uni0454" unicode="&#x454;" horiz-adv-x="1267" 
d="M956 342h318q-106 -177 -266.5 -273t-352.5 -96q-223 0 -365.5 138t-142.5 348q0 40 11 108q46 250 251 422t457 172q197 0 324.5 -102.5t165.5 -272.5h-314q-57 125 -223 125q-112 0 -205 -59.5t-143 -161.5h481l-43 -239h-479q15 -103 87 -165.5t181 -62.5
q145 0 258 119z" />
    <glyph glyph-name="uni0455" unicode="&#x455;" horiz-adv-x="897" 
d="M98 360h275q6 -72 35.5 -104.5t89.5 -32.5q54 0 94 31.5t49 79.5q2 6 2 18q0 46 -37 70q-26 19 -131 57q-138 50 -199 111.5t-61 154.5q0 20 8 70q28 146 155 246t286 100q88 0 160.5 -35t113.5 -98q41 -61 41 -139q0 -30 -6 -68h-266q-3 90 -91 90q-44 0 -78 -27.5
t-42 -68.5q0 -2 -1 -7t-1 -7q0 -41 41 -62q27 -12 131 -47q138 -44 199 -104.5t61 -153.5q0 -34 -6 -74q-31 -163 -169.5 -275t-308.5 -112q-105 0 -190 44.5t-125 119.5q-33 65 -33 150q0 19 4 73z" />
    <glyph glyph-name="uni0456" unicode="&#x456;" horiz-adv-x="493" 
d="M111 0l211 1135h272l-211 -1135h-272zM344 1257l47 256h273l-48 -256h-272z" />
    <glyph glyph-name="uni0457" unicode="&#x457;" horiz-adv-x="493" 
d="M111 0l211 1135h272l-211 -1135h-272zM135 1290l49 273h273l-49 -273h-273zM565 1290l49 273h273l-49 -273h-273z" />
    <glyph glyph-name="uni0458" unicode="&#x458;" horiz-adv-x="522" 
d="M350 1135h273l-197 -1059q-23 -127 -67.5 -212.5t-118.5 -144.5q-124 -98 -283 -98l49 264q79 13 102.5 44.5t45.5 152.5zM373 1257l47 256h272l-47 -256h-272z" />
    <glyph glyph-name="uni0459" unicode="&#x459;" horiz-adv-x="1665" 
d="M1364 745q153 0 242.5 -86t89.5 -217q0 -34 -6 -69q-28 -155 -159 -264t-304 -109h-500l127 684l-539 -684h-311l934 1135h272l-73 -390h227zM1092 498l-48 -250h209q61 0 107 35.5t55 89.5q2 8 2 24q0 45 -32 73t-85 28h-208z" />
    <glyph glyph-name="uni045A" unicode="&#x45a;" horiz-adv-x="1796" 
d="M1495 745q153 0 242.5 -86t89.5 -217q0 -34 -6 -69q-28 -155 -159 -264t-304 -109h-500l84 449h-475l-84 -449h-272l211 1135h272l-82 -439h475l82 439h272l-73 -390h227zM1223 498l-47 -250h208q61 0 107 35.5t55 89.5q2 8 2 24q0 45 -31.5 73t-84.5 28h-209z" />
    <glyph glyph-name="uni045B" unicode="&#x45b;" horiz-adv-x="1382" 
d="M481 1135h-243l43 239h243l27 139h272l-26 -139h286l-43 -239h-286l-54 -279q139 107 310 107q125 0 213.5 -49t126.5 -140q28 -70 28 -149t-20 -185l-82 -440h-272l69 379q17 97 17 149q0 97 -42.5 140t-134.5 43q-143 0 -223 -115q-50 -71 -78 -221l-69 -375h-273z" />
    <glyph glyph-name="uni045C" unicode="&#x45c;" horiz-adv-x="1134" 
d="M747 1255l-76 160l510 275l76 -189zM111 0l211 1135h272l-98 -523l491 523h330l-557 -564l370 -571h-354l-297 522l-96 -522h-272z" />
    <glyph glyph-name="uni045D" unicode="&#x45d;" horiz-adv-x="1275" 
d="M565 1509l149 181l406 -273l-140 -162zM1100 1135h276l-211 -1135h-270l139 750l-647 -750h-276l211 1135h270l-139 -750z" />
    <glyph glyph-name="uni045E" unicode="&#x45e;" horiz-adv-x="1163" 
d="M526 1528h207q-4 -18 -4 -51q0 -50 25.5 -72.5t82.5 -22.5q69 0 107 35t51 111h207q-95 -266 -387 -266q-289 0 -289 266zM139 -379l303 485l-225 1029h311l115 -736l412 736h313l-936 -1514h-293z" />
    <glyph glyph-name="uni045F" unicode="&#x45f;" horiz-adv-x="1265" 
d="M322 1135h272l-166 -887h500l166 887h272l-211 -1135h-373l-108 -285h-189l-2 285h-372z" />
    <glyph glyph-name="uni0462" unicode="&#x462;" horiz-adv-x="1374" 
d="M668 633l-68 -365h113q137 0 219 15q78 18 127 61.5t61 110.5q2 10 2 28q0 98 -129 129q-79 21 -227 21h-98zM551 1513h280l-30 -165h295l-49 -269h-295l-33 -178h100q174 0 265.5 -12.5t154.5 -46.5q83 -44 127.5 -122.5t44.5 -180.5q0 -49 -8 -90q-46 -250 -285 -373
q-83 -42 -186 -59t-277 -17h-385l201 1079h-256l49 269h256z" />
    <glyph glyph-name="uni0463" unicode="&#x463;" horiz-adv-x="1212" 
d="M909 731q153 0 242.5 -84t89.5 -213q0 -32 -6 -67q-28 -154 -158 -260.5t-303 -106.5h-500l172 928h-237l45 248h238l63 337h272l-63 -337h258l-45 -248h-258l-37 -197h227zM637 483l-45 -235h209q62 0 106.5 32.5t53.5 86.5q2 8 2 22q0 43 -31.5 68.5t-85.5 25.5h-209z
" />
    <glyph glyph-name="uni0490" unicode="&#x490;" horiz-adv-x="956" 
d="M1083 1751h183l-92 -506h-517l-231 -1245h-281l281 1513h549z" />
    <glyph glyph-name="uni0491" unicode="&#x491;" horiz-adv-x="790" 
d="M842 1370h166l-90 -483h-371l-164 -887h-272l211 1135h413z" />
    <glyph glyph-name="uni2000" unicode="&#x2000;" horiz-adv-x="1024" 
 />
    <glyph glyph-name="uni2001" unicode="&#x2001;" horiz-adv-x="2048" 
 />
    <glyph glyph-name="uni2002" unicode="&#x2002;" horiz-adv-x="1024" 
 />
    <glyph glyph-name="uni2003" unicode="&#x2003;" horiz-adv-x="2048" 
 />
    <glyph glyph-name="uni2004" unicode="&#x2004;" horiz-adv-x="681" 
 />
    <glyph glyph-name="uni2005" unicode="&#x2005;" horiz-adv-x="512" 
 />
    <glyph glyph-name="uni2006" unicode="&#x2006;" horiz-adv-x="342" 
 />
    <glyph glyph-name="uni2007" unicode="&#x2007;" 
 />
    <glyph glyph-name="uni2008" unicode="&#x2008;" horiz-adv-x="575" 
 />
    <glyph glyph-name="uni2009" unicode="&#x2009;" horiz-adv-x="342" 
 />
    <glyph glyph-name="uni200A" unicode="&#x200a;" horiz-adv-x="114" 
 />
    <glyph glyph-name="uni200B" unicode="&#x200b;" horiz-adv-x="0" 
 />
    <glyph glyph-name="uni200C" unicode="&#x200c;" horiz-adv-x="0" 
 />
    <glyph glyph-name="uni200D" unicode="&#x200d;" horiz-adv-x="0" 
 />
    <glyph glyph-name="uni2010" unicode="&#x2010;" horiz-adv-x="690" 
d="M147 469l46 242h567l-45 -242h-568z" />
    <glyph glyph-name="uni2011" unicode="&#x2011;" horiz-adv-x="690" 
d="M147 469l46 242h567l-45 -242h-568z" />
    <glyph glyph-name="figuredash" unicode="&#x2012;" 
d="M147 469l46 242h1024l-46 -242h-1024z" />
    <glyph glyph-name="endash" unicode="&#x2013;" horiz-adv-x="1024" 
d="M86 469l45 242h1024l-45 -242h-1024z" />
    <glyph glyph-name="emdash" unicode="&#x2014;" horiz-adv-x="2048" 
d="M86 469l45 242h2048l-45 -242h-2048z" />
    <glyph glyph-name="uni2015" unicode="&#x2015;" horiz-adv-x="2048" 
d="M86 469l45 242h2048l-45 -242h-2048z" />
    <glyph glyph-name="quoteleft" unicode="&#x2018;" horiz-adv-x="600" 
d="M664 1227l-52 -273h-272l53 287q14 74 43 123t84 88q85 61 197 61l-25 -137q-67 -12 -100.5 -38.5t-42.5 -75.5q-4 -16 -4 -35h119z" />
    <glyph glyph-name="quoteright" unicode="&#x2019;" horiz-adv-x="600" 
d="M395 1251l49 262h273l-53 -286q-33 -172 -181 -244q-62 -29 -143 -29l27 138q67 12 100.5 40t42.5 80q4 20 4 39h-119z" />
    <glyph glyph-name="quotesinglbase" unicode="&#x201a;" horiz-adv-x="600" 
d="M164 0l49 262h272l-51 -276q-33 -172 -180 -244q-62 -29 -143 -29l24 137q66 12 100.5 39t43.5 74q4 20 4 37h-119z" />
    <glyph glyph-name="quotedblleft" unicode="&#x201c;" horiz-adv-x="1024" 
d="M664 1227l-52 -273h-272l53 287q14 74 43 123t84 88q85 61 197 61l-25 -137q-68 -12 -101 -38t-42 -76q-4 -16 -4 -35h119zM1087 1227l-51 -273h-272l53 287q14 74 43 123t84 88q85 61 197 61l-25 -137q-66 -12 -100 -38.5t-43 -73.5q-4 -20 -4 -37h118z" />
    <glyph glyph-name="quotedblright" unicode="&#x201d;" horiz-adv-x="1024" 
d="M395 1251l49 262h273l-53 -286q-33 -172 -181 -244q-62 -29 -143 -29l27 138q66 12 100 40t43 80q4 20 4 39h-119zM819 1251l49 262h273l-54 -286q-33 -172 -180 -244q-64 -29 -143 -29l27 138q67 12 100.5 40t42.5 80q4 20 4 39h-119z" />
    <glyph glyph-name="quotedblbase" unicode="&#x201e;" horiz-adv-x="1024" 
d="M164 0l49 262h272l-51 -276q-33 -172 -180 -244q-62 -29 -143 -29l24 137q66 12 100.5 39t43.5 74q4 20 4 37h-119zM588 0l49 262h272l-51 -276q-33 -172 -180 -244q-62 -29 -143 -29l24 137q66 12 100 39t43 74q5 25 5 37h-119z" />
    <glyph glyph-name="dagger" unicode="&#x2020;" horiz-adv-x="1140" 
d="M989 1513l-69 -378h329l-45 -242h-330l-215 -1155h-272l215 1155h-334l45 242h334l70 378h272z" />
    <glyph glyph-name="daggerdbl" unicode="&#x2021;" horiz-adv-x="1140" 
d="M987 1513l-55 -303h332l-45 -241h-332l-37 -195h332l-45 -242h-332l-148 -794h-272l147 794h-331l45 242h332l36 195h-331l45 241h331l56 303h272z" />
    <glyph glyph-name="bullet" unicode="&#x2022;" horiz-adv-x="1228" 
d="M803 991q123 0 201.5 -79.5t78.5 -200.5q0 -44 -4 -64q-26 -144 -147 -245t-264 -101q-125 0 -205 81t-80 202q0 41 4 61q26 145 147 245.5t269 100.5z" />
    <glyph glyph-name="ellipsis" unicode="&#x2026;" horiz-adv-x="2048" 
d="M205 0l49 262h272l-49 -262h-272zM887 0l49 262h272l-49 -262h-272zM1569 0l49 262h272l-49 -262h-272z" />
    <glyph glyph-name="perthousand" unicode="&#x2030;" horiz-adv-x="2607" 
d="M1366 1513h211l-907 -1513h-209zM2322 713q133 0 220.5 -87.5t87.5 -215.5q0 -26 -7 -66q-29 -154 -157 -262.5t-281 -108.5q-136 0 -222.5 85.5t-86.5 215.5q0 34 6 68q29 157 156 264t284 107zM2279 496q-61 0 -112.5 -44.5t-63.5 -107.5q-2 -10 -2 -29
q0 -53 34.5 -87.5t88.5 -34.5q63 0 115.5 44t64.5 107q2 10 2 29q0 53 -35.5 88t-91.5 35zM1477 713q133 0 220 -87.5t87 -215.5q0 -32 -6 -66q-29 -154 -157 -262.5t-282 -108.5q-136 0 -222.5 85.5t-86.5 215.5q0 34 6 68q29 157 156.5 264t284.5 107zM1434 496
q-61 0 -113 -44.5t-64 -107.5q-2 -10 -2 -29q0 -53 34.5 -87.5t88.5 -34.5q63 0 116 44t65 107q2 10 2 29q0 53 -35.5 88t-91.5 35zM705 1540q133 0 220 -87t87 -216q0 -31 -6 -66q-29 -154 -158 -262t-283 -108q-135 0 -221 85.5t-86 215.5q0 32 6 67q29 157 156.5 264
t284.5 107zM662 1323q-61 0 -113 -44.5t-64 -107.5q-2 -10 -2 -28q0 -53 34.5 -88t88.5 -35q63 0 115.5 44t64.5 107q2 10 2 29q0 53 -35 88t-91 35z" />
    <glyph glyph-name="guilsinglleft" unicode="&#x2039;" horiz-adv-x="505" 
d="M418 221l-236 268l39 205l334 267l-47 -252l-158 -117l115 -119z" />
    <glyph glyph-name="guilsinglright" unicode="&#x203a;" horiz-adv-x="505" 
d="M170 221l47 252l160 119l-117 117l47 252l236 -267l-39 -205z" />
    <glyph glyph-name="fraction" unicode="&#x2044;" horiz-adv-x="327" 
d="M-248 0l907 1513h195l-907 -1513h-195z" />
    <glyph glyph-name="Euro" unicode="&#x20ac;" horiz-adv-x="1558" 
d="M1460 76q-198 -103 -407 -103q-232 0 -401.5 123.5t-229.5 325.5h-309l135 252h149q3 45 11 82l6 24h-230l133 252h193q128 226 354.5 367t476.5 141q136 0 253.5 -44.5t205.5 -125.5l-153 -287q-55 88 -147.5 137.5t-207.5 49.5q-131 0 -256.5 -64.5t-214.5 -173.5h799
l-133 -252h-791l-6 -24q-8 -39 -8 -82h745l-135 -252h-540q55 -83 146 -130.5t204 -47.5q115 0 226.5 49t197.5 135z" />
    <glyph glyph-name="uni20BD" unicode="&#x20bd;" 
d="M614 868h74q118 0 176 19q58 17 97 61t49 105q6 24 6 47q0 105 -88 133q-44 12 -160 12h-84zM160 600l51 268h123l119 645h368q146 0 226.5 -17t136.5 -58q121 -95 121 -275q0 -36 -11 -104q-25 -132 -98 -239t-174 -161q-65 -33 -147.5 -46t-227.5 -13h-84l-14 -78h393
l-49 -268h-393l-47 -254h-281l47 254h-123l49 268h123l15 78h-123z" />
    <glyph glyph-name="uni2116" unicode="&#x2116;" horiz-adv-x="2150" 
d="M2001 1540q116 0 191 -73.5t75 -184.5q0 -39 -4 -57q-25 -131 -136 -223.5t-243 -92.5q-116 0 -191 73.5t-75 184.5q0 31 6 58q25 131 135 223t242 92zM1968 1358q-54 0 -100 -39t-56 -94q-2 -8 -2 -25q0 -46 31 -77t78 -31q54 0 100 39t56 94q2 8 2 24q0 46 -31 77.5
t-78 31.5zM1518 629l38 207h631l-39 -207h-630zM145 0l281 1513h319l347 -1036l192 1036h281l-281 -1513h-319l-347 1036l-192 -1036h-281z" />
    <glyph glyph-name="trademark" unicode="&#x2122;" horiz-adv-x="1961" 
d="M2140 1513l-149 -806h-166l108 587l-379 -587h-108l-154 585l-108 -585h-166l149 806h248l135 -526l348 526h242zM1106 1513l-29 -153h-278l-121 -653h-166l121 653h-279l29 153h723z" />
    <glyph glyph-name="minus" unicode="&#x2212;" horiz-adv-x="1228" 
d="M1294 881l-45 -242h-1032l45 242h1032z" />
    <glyph glyph-name="zero.fitted" unicode="&#xe000;" horiz-adv-x="1161" 
d="M1280 1034l-98 -528q-46 -252 -202.5 -392.5t-389.5 -140.5q-278 0 -389 193q-48 86 -48 199q0 61 15 141l94 514q44 239 207.5 379.5t396.5 140.5q199 0 311.5 -104t112.5 -285q0 -66 -10 -117zM534 1020l-92 -506q-10 -55 -10 -92q0 -97 49 -148t145 -51q231 0 283 285
l94 512q9 44 9 80q0 92 -48.5 141t-140.5 49q-111 0 -188.5 -72t-100.5 -198z" />
    <glyph glyph-name="one.fitted" unicode="&#xe001;" horiz-adv-x="708" 
d="M264 0l234 1257h-191l48 256h462l-280 -1513h-273z" />
    <glyph glyph-name="two.fitted" unicode="&#xe002;" horiz-adv-x="1142" 
d="M84 0l45 240l633 510q109 87 162 158t67 145q6 27 6 51q0 82 -49.5 134t-130.5 52q-106 0 -186 -82t-105 -217h-268q22 114 56 191.5t92 146.5q85 99 205.5 155t248.5 56q185 0 298.5 -109.5t113.5 -283.5q0 -54 -8 -98q-26 -140 -110 -250.5t-277 -261.5l-363 -281h596
l-47 -256h-979z" />
    <glyph glyph-name="three.fitted" unicode="&#xe003;" horiz-adv-x="1126" 
d="M590 729l49 262q100 3 154 23q90 38 108 133q2 10 2 33q0 50 -29 80t-79 30q-57 0 -94 -33t-60 -104h-276q25 95 59 153t94 111q138 123 320 123q153 0 246.5 -91t93.5 -235q0 -42 -8 -81q-17 -89 -59 -151.5t-116 -109.5q175 -85 175 -284q0 -39 -11 -107
q-27 -145 -114 -261t-215 -181.5t-273 -65.5q-198 0 -318 114.5t-120 299.5q0 35 6 72h275q0 -3 -1.5 -10.5t-1.5 -10.5q0 -99 54 -157t149 -58q103 0 184 71.5t101 180.5q4 18 4 51q0 95 -67 149t-187 54h-45z" />
    <glyph glyph-name="four.fitted" unicode="&#xe004;" horiz-adv-x="1173" 
d="M124 449l893 1064h230l-193 -1042h160l-45 -244h-160l-43 -227h-272l43 227h-654zM782 471l106 584l-483 -584h377z" />
    <glyph glyph-name="five.fitted" unicode="&#xe005;" 
d="M254 723l289 790h684l-48 -256h-479l-100 -278q109 43 201 43q179 0 287 -112t108 -292q0 -63 -10 -112q-43 -229 -217.5 -381t-395.5 -152q-194 0 -318 116.5t-124 297.5q0 20 4 66h272q2 -111 53.5 -170.5t149.5 -59.5q110 0 194 78t107 201q6 30 6 59q0 93 -54.5 152
t-145.5 59q-65 0 -118 -26t-116 -89z" />
    <glyph glyph-name="six.fitted" unicode="&#xe006;" horiz-adv-x="1159" 
d="M880 1513h326l-463 -538q61 20 127 20q155 0 247.5 -100.5t92.5 -265.5q0 -64 -10 -113q-44 -238 -218 -390.5t-401 -152.5q-200 0 -322 116t-122 302q0 43 10 105q20 111 71.5 206t156.5 218zM715 758q-107 0 -191 -76t-106 -193q-4 -20 -4 -57q0 -95 58 -152t157 -57
q108 0 189 74t103 192q7 35 7 60q0 95 -57 152t-156 57z" />
    <glyph glyph-name="seven.fitted" unicode="&#xe007;" horiz-adv-x="985" 
d="M80 0l807 1257h-604l47 256h891l-48 -256l-786 -1257h-307z" />
    <glyph glyph-name="eight.fitted" unicode="&#xe008;" horiz-adv-x="1122" 
d="M430 842q-43 57 -61.5 104t-18.5 101q0 33 9 77q32 173 175 294.5t316 121.5q156 0 251 -92t95 -238q0 -43 -8 -82q-33 -183 -180 -286q74 -50 104 -92q50 -71 50 -183q0 -43 -9 -92q-40 -215 -209.5 -358.5t-384.5 -143.5q-189 0 -306.5 114t-117.5 290q0 35 11 96
q29 158 135 264q55 58 149 105zM803 1290q-64 0 -118 -48.5t-66 -117.5q-4 -20 -4 -32q0 -57 36 -94t93 -37q64 0 117 48t67 119q4 24 4 33q0 57 -35.5 93t-93.5 36zM688 698q-95 0 -174 -69t-98 -168q-4 -32 -4 -45q0 -84 53.5 -138.5t140.5 -54.5q97 0 175.5 69t97.5 171
q4 32 4 45q0 83 -54.5 136.5t-140.5 53.5z" />
    <glyph glyph-name="nine.fitted" unicode="&#xe009;" horiz-adv-x="1155" 
d="M555 0h-326l465 539q-74 -25 -127 -25q-153 0 -245.5 103.5t-92.5 269.5q0 39 11 110q44 238 216.5 390.5t397.5 152.5q200 0 322 -117t122 -303q0 -42 -10 -104q-20 -109 -71.5 -204t-155.5 -218zM805 1290q-104 0 -184.5 -74.5t-102.5 -191.5q-6 -30 -6 -59
q0 -94 56 -151.5t151 -57.5q108 0 192.5 75t106.5 193q4 20 4 59q0 94 -58 150.5t-159 56.5z" />
    <glyph glyph-name="breve.cyrlc" unicode="&#xe080;" horiz-adv-x="962" 
d="M426 1528h207q-4 -18 -4 -51q0 -50 25.5 -72.5t82.5 -22.5q69 0 107 35t51 111h207q-95 -266 -387 -266q-289 0 -289 266z" />
    <glyph glyph-name="breve.cyruc" unicode="&#xe081;" horiz-adv-x="1011" 
d="M500 1919h235q-6 -30 -6 -57q0 -53 26 -76t79 -23q65 0 102.5 36.5t52.5 119.5h236q-51 -142 -162 -215.5t-254 -73.5t-226 73.5t-83 215.5z" />
    <glyph glyph-name="uni0306.cyr" unicode="&#xe082;" horiz-adv-x="0" 
d="M-717 1528h207q-4 -18 -4 -51q0 -50 25.5 -72.5t82.5 -22.5q69 0 107 35t51 111h207q-95 -266 -387 -266q-289 0 -289 266z" />
    <glyph glyph-name="i.dotless" unicode="&#xe090;" horiz-adv-x="493" 
d="M111 0l211 1135h272l-211 -1135h-272z" />
    <glyph glyph-name="j.dotless" unicode="&#xe091;" horiz-adv-x="522" 
d="M350 1135h273l-197 -1059q-23 -127 -67.5 -212.5t-118.5 -144.5q-124 -98 -283 -98l49 264q79 13 102.5 44.5t45.5 152.5z" />
    <glyph glyph-name="uni0456.dotless" unicode="&#xe092;" horiz-adv-x="493" 
d="M111 0l211 1135h272l-211 -1135h-272z" />
    <glyph glyph-name="uni0458.dotless" unicode="&#xe093;" horiz-adv-x="522" 
d="M350 1135h273l-197 -1059q-23 -127 -67.5 -212.5t-118.5 -144.5q-124 -98 -283 -98l49 264q79 13 102.5 44.5t45.5 152.5z" />
    <glyph glyph-name="uni0431.serbian" unicode="&#xe0a0;" horiz-adv-x="1320" 
d="M158 537q34 185 165 313.5t308 169.5l2 4l-121 47q-82 32 -129 86.5t-47 128.5q0 6 1 14t2.5 18t2.5 15q22 113 123 189.5t231 76.5h797l-45 -239h-797q-23 0 -39.5 -12.5t-19.5 -32.5q0 -2 -1 -6t-1 -6q0 -27 43 -46l354 -167q63 -30 105 -52.5t100.5 -65t93.5 -86
t60.5 -109t25.5 -140.5q0 -53 -8 -100q-28 -153 -133 -283t-258.5 -205.5t-317.5 -75.5q-222 0 -365 132.5t-143 332.5q0 38 11 99zM817 852q-136 0 -248 -92t-137 -223q-6 -27 -6 -56q0 -111 77 -184.5t197 -73.5q137 0 251 92t139 222q4 18 4 55q0 111 -78 185.5
t-199 74.5z" />
    </font>
</defs>
</svg>
